<?xml version="1.0" encoding="UTF-8"?>
<!DOCTYPE svg PUBLIC "-//W3C//DTD SVG 1.1//EN" "http://www.w3.org/Graphics/SVG/1.1/DTD/svg11.dtd">
<!-- Creator: CorelDRAW 2021 (64-Bit) -->
<svg xmlns="http://www.w3.org/2000/svg" xml:space="preserve" width="15.0487in" height="7.49763in" version="1.1" style="shape-rendering:geometricPrecision; text-rendering:geometricPrecision; image-rendering:optimizeQuality; fill-rule:evenodd; clip-rule:evenodd"
viewBox="0 0 4630.01 2306.79"
 xmlns:xlink="http://www.w3.org/1999/xlink"
 xmlns:xodm="http://www.corel.com/coreldraw/odm/2003">
 <defs>
  <style type="text/css">
   <![CDATA[
    .fil18 {fill:#00453F;fill-rule:nonzero}
    .fil12 {fill:#00544D;fill-rule:nonzero}
    .fil22 {fill:#163560;fill-rule:nonzero}
    .fil9 {fill:#1A736C;fill-rule:nonzero}
    .fil3 {fill:#233862;fill-rule:nonzero}
    .fil19 {fill:#263238;fill-rule:nonzero}
    .fil5 {fill:#263238;fill-rule:nonzero}
    .fil24 {fill:#2E3552;fill-rule:nonzero}
    .fil20 {fill:#37474F;fill-rule:nonzero}
    .fil4 {fill:#37474F;fill-rule:nonzero}
    .fil6 {fill:#4D928D;fill-rule:nonzero}
    .fil23 {fill:#69ABA7;fill-rule:nonzero}
    .fil10 {fill:#69ABA7;fill-rule:nonzero}
    .fil11 {fill:#88C9C5;fill-rule:nonzero}
    .fil2 {fill:#A2E8E3;fill-rule:nonzero}
    .fil1 {fill:#A2E8E3;fill-rule:nonzero}
    .fil17 {fill:#B5453C;fill-rule:nonzero}
    .fil0 {fill:#DEFFFD;fill-rule:nonzero}
    .fil8 {fill:#E2915A;fill-rule:nonzero}
    .fil13 {fill:#E8945B;fill-rule:nonzero}
    .fil14 {fill:#EBF3FA;fill-rule:nonzero}
    .fil21 {fill:#ED975D;fill-rule:nonzero}
    .fil7 {fill:#FFB27D;fill-rule:nonzero}
    .fil16 {fill:#FFCC00;fill-rule:nonzero}
    .fil15 {fill:white;fill-rule:nonzero}
   ]]>
  </style>
 </defs>
 <g id="Layer_x0020_1">
  <metadata id="CorelCorpID_0Corel-Layer"/>
  <g id="_1508087726448">
   <path class="fil0" d="M413.45 2305.64c0,0 -801.79,-997.6 -172.26,-1609.08 937.01,-910.14 1574.72,383.32 1935.67,-151.97 597.08,-885.48 2550.39,-658.23 1952.75,442.86 -313.56,577.69 735.51,491.36 307.84,1319.35l-4023.99 -1.15z"/>
   <path class="fil1" d="M2899.26 746.56c34.22,50.18 38.41,106.95 19.59,150.51 -66.23,152.57 -271.66,138.92 -318.22,-18.34 -11.4,-40.41 -6.56,-85.45 22.58,-129.31 68.28,-101.61 210.58,-98.72 276.06,-2.86zm197.49 318.11l28.96 -67.81 0.67 -1.62c3.47,-8.28 0.24,-17.8 -7.55,-22.17l-53.66 -30.17c-0.9,-0.5 -1.73,-1.06 -2.48,-1.67 -5.24,-4.36 -7.67,-11.47 -5.69,-18.13 11.15,-39.39 14.38,-80.48 9.4,-121.09 -0.19,-1.68 -0.13,-3.35 0.11,-4.94 1.02,-6.05 5.26,-11.3 11.11,-13.58l48.1 -18.09c6.32,-2.43 10.6,-8.29 11.27,-14.74 0.14,-1.97 0.05,-4.08 -0.46,-6.16l-18.82 -72.9c-2.3,-8.96 -11.21,-14.77 -20.42,-13.18l-67.4 11.44c-6.65,1.11 -13.3,-1.68 -17.16,-7.24 -5.66,-7.91 -11.58,-15.6 -18,-23.08 -12.06,-14.03 -25.09,-26.65 -38.9,-37.91l-0.06 -0.07c-5.77,-4.7 -8.04,-12.31 -5.72,-19.37l21.7 -65.95 1.05 -3.33c2.86,-8.45 -1.31,-17.86 -9.64,-21.4l-69.32 -29.62c-8.46,-3.55 -18.31,-0.27 -22.8,7.75l-33.6 59.72c-3.72,6.65 -11.29,10.16 -18.67,8.68 -31.31,-5.77 -63.35,-6.76 -94.98,-2.72 -8.06,0.94 -15.68,-3.66 -18.58,-11.31l-21.57 -56.96c-3.31,-8.66 -12.49,-13.32 -21.33,-11.02l-73.22 18.86c-8.65,2.25 -14.12,10.76 -12.6,19.47l13.32 79.24c1.17,6.71 -1.63,13.49 -7.13,17.53 -6.81,4.93 -13.46,10.18 -19.95,15.76 -12.25,10.52 -23.43,21.75 -33.53,33.55 -4.56,5.41 -11.91,7.58 -18.6,5.28l-79.23 -26.16c-8.76,-2.83 -18.11,1.42 -21.73,9.81l-29.75 69.55c-3.09,7.38 -0.77,15.97 5.42,20.77 0.66,0.49 1.36,1.03 2.13,1.4l66.26 37.31c6.17,3.44 9.76,10.15 8.97,17.14 -0.04,0.62 -0.1,1.23 -0.25,1.84 -0.38,1.83 -0.77,3.53 -0.98,5.44 -4.09,21.47 -5.8,43.44 -5.24,65.39 0.32,7.33 -4.27,14.04 -11.27,16.6l-60.16 22.81c-8.54,3.19 -13.25,12.43 -10.95,21.27l4.16 16.22 14.68 56.56c2.24,8.89 10.97,14.51 20.05,13.02l66.39 -11.26c7.1,-1.25 14.07,2.18 17.69,8.39 9.42,16.31 20.61,32.13 33.4,47.02 9.5,11.06 19.75,21.36 30.43,30.71l-4.58 13.83 -18.64 56.77c-2.38,7 0.06,14.67 5.74,19 1.17,0.96 2.48,1.68 3.92,2.28l69.71 29.96c8.28,3.47 17.81,0.1 22.24,-7.61l22.88 -40.85c3.87,-6.89 12.12,-10.41 19.75,-8.35 31.67,8.58 64.39,12.1 96.88,10.41 7.71,-0.41 14.68,4.08 17.17,11.14l27.25 72c3.1,8.02 11.67,12.52 20.07,10.36l73.98 -19.17c8.78,-2.24 14.31,-10.79 12.75,-19.58l-13.9 -82.43c-1.25,-7.09 2,-14.15 8.17,-17.95 13.17,-8.1 25.82,-17.49 38.01,-27.95 6.55,-5.63 12.81,-11.47 18.77,-17.52 4.7,-4.72 11.62,-6.42 17.97,-4.4l75.97 25.05c8.83,2.89 18.31,-1.34 22.03,-9.85z"/>
   <path class="fil2" d="M1873.97 1383.16c16.64,32.44 28.33,69.28 33.86,110.41 1.28,8.69 1.65,18.58 1.57,28.92 -0.93,44.66 -14.36,98.72 -34.11,132.25 -151.48,256.17 -513.2,186.28 -560.91,-103.26 -0.73,-4.77 -1.45,-9.53 -2.04,-14.39 -5.83,-45.24 8.51,-114.89 31.25,-154.33 11.98,-20.68 25.31,-39.27 39.61,-55.87 143.78,-165.23 395.8,-128.49 490.77,56.27zm279.96 608.67l66.47 -113.96 1.57 -2.74c7.99,-13.93 4.36,-31.56 -8.48,-41.03l-88.6 -65.49c-1.47,-1.09 -2.82,-2.27 -4.01,-3.52 -8.35,-8.91 -11.08,-22.08 -6.08,-33.45 28.54,-67.46 43.4,-139.72 43.59,-212.91 0.04,-3.04 0.53,-5.98 1.31,-8.75 3.15,-10.52 11.83,-18.9 22.76,-21.65l89.41 -21.43c11.74,-2.92 20.64,-12.37 23.26,-23.68 0.7,-3.47 1.02,-7.23 0.56,-11.05l-17.22 -133.62c-2.08,-16.42 -16.59,-28.7 -33.32,-27.93l-122.21 5.34c-12.04,0.48 -23.23,-5.95 -28.84,-16.66 -8.28,-15.32 -17.08,-30.28 -26.83,-44.98 -18.29,-27.6 -38.63,-52.9 -60.66,-75.95l-0.09 -0.13c-9.2,-9.64 -11.54,-23.63 -5.84,-35.66l53.17 -112.27 2.61 -5.67c6.97,-14.36 1.63,-32 -12.38,-40.14l-116.47 -67.98c-14.24,-8.18 -32.44,-4.54 -42.21,8.69l-72.93 98.58c-8.09,10.98 -22.3,15.54 -35.06,11.26 -54.32,-17.2 -111,-26.09 -168.03,-25.92 -14.52,-0.12 -27.06,-9.99 -30.48,-24.2l-25.65 -105.92c-3.95,-16.12 -19.2,-26.43 -35.42,-24.3l-134.18 17.21c-15.86,2.09 -27.45,15.96 -26.72,31.77l6.06 143.64c0.58,12.18 -5.9,23.59 -16.56,29.54 -13.19,7.24 -26.16,15.09 -38.92,23.55 -24.08,15.97 -46.43,33.41 -67.01,52.12 -9.29,8.59 -22.81,10.81 -34.19,5.24l-134.85 -64.04c-14.93,-6.96 -32.48,-1.51 -40.75,12.59l-68.29 116.87c-7.14,12.41 -4.93,28.17 5.02,38.07 1.04,1 2.16,2.13 3.46,2.96l109.34 80.97c10.21,7.47 15.07,20.18 12.14,32.43 -0.22,1.07 -0.44,2.16 -0.87,3.2 -1.09,3.17 -2.14,6.11 -2.93,9.43 -12.05,37.22 -19.98,75.84 -23.85,114.93 -1.07,13.08 -10.71,23.98 -23.71,26.97l-111.86 27.15c-15.86,3.77 -26.29,19.12 -24.17,35.32l3.78 29.73 13.48 103.68c2,16.29 16.26,28.21 32.72,27.58l120.38 -5.24c12.87,-0.65 24.5,6.99 29.54,18.84 13.09,31.03 29.43,61.62 48.85,90.9 14.42,21.73 30.3,42.31 47.19,61.27l-11.19 23.54 -45.72 96.65c-5.79,11.9 -3.14,26.06 5.97,35 1.86,1.97 4.02,3.53 6.45,4.93l117.12 68.67c13.93,7.99 31.61,4.14 41.17,-8.57l49.71 -67.44c8.39,-11.37 23.82,-15.8 36.94,-10.43 54.3,22.26 111.62,35.79 169.7,40.01 13.77,0.98 25.14,10.49 28,23.59l32.38 133.88c3.72,14.95 17.96,24.82 33.34,22.87l135.61 -17.61c16.09,-2.03 27.81,-16 26.97,-31.94l-6.33 -149.44c-0.67,-12.87 6.68,-24.67 18.48,-30.06 25.19,-11.47 49.73,-25.31 73.68,-41.19 12.89,-8.54 25.3,-17.52 37.24,-26.93 9.37,-7.34 22.07,-8.83 32.88,-3.82l129.32 61.35c15,7.09 32.78,1.68 41.3,-12.6z"/>
   <path class="fil3" d="M595.5 2297.05c0,0 -3.53,-27.52 -11.71,-43.87 -8.18,-16.36 -60.25,-5.95 -60.25,-5.95 0,0 -10.41,8.92 -12.64,50.58l84.6 -0.75z"/>
   <path class="fil3" d="M772.89 2296.69c-12.24,-7.47 -5.27,-63.18 -5.27,-63.18 0,0 57,-45.6 64.84,-10.68 7.84,34.92 54.15,50.59 80.52,54.86 18.2,2.96 23.83,13.03 25.58,18.99l-165.67 0z"/>
   <path class="fil4" d="M654.81 1891.54c2.32,12.78 3.79,23.26 4.18,30.78 5.3,103.37 87.01,339.71 101.63,345.21 22.61,8.54 58.23,-9.59 76.85,-15.54 7.72,-2.46 12.93,-10.25 11.21,-18.15 -40.46,-186.02 -55.34,-453.88 -60.75,-612.48 -2.73,-79.87 -16.44,-135.05 -16.44,-135.05 0,0 -199.29,-53.18 -200.47,14.09 -1.05,59.51 66.01,292.94 83.79,391.14z"/>
   <path class="fil5" d="M654.81 1891.54l133.13 -270.17c-2.73,-79.87 -16.44,-135.05 -16.44,-135.05 0,0 -199.29,-53.18 -200.47,14.09 -1.05,59.51 66.01,292.94 83.79,391.14z"/>
   <path class="fil4" d="M699.15 1500.65l-105.35 763.55c0,0 -46.27,11.16 -82.25,2.24 0,0 -30.85,-406.1 -28.28,-504.28 2.57,-98.18 -22.13,-262.71 5.64,-280.84 27.77,-18.15 210.23,19.33 210.23,19.33z"/>
   <path class="fil6" d="M468.39 1487.92c-0.51,6.89 3.91,13.18 10.55,15.11 14.69,4.25 31.64,7.23 64.32,13.99 30.69,6.38 71.98,12.02 122.72,12.33 80.69,0.53 111.25,-27.29 111.25,-27.29 3.48,0.06 -1.83,-16.82 -6.62,-97.14 -1.62,-27.2 -3.19,-61.67 -4.31,-105.26 -1.02,-39.21 -1.71,-85.8 -1.77,-141.06 -0.08,-66.48 -102.99,-138 -104.89,-138l-0.02 0.03c0,9.57 -15.09,27.24 -38.32,28.76 -27.58,1.8 -61.41,-11.92 -61.41,-27.81 0,-0.16 -49.86,79.76 -67.57,164.9 -2.25,10.81 -3.99,22.19 -5.38,34.17 -4.2,36.12 -0.15,10.36 -18.55,267.26z"/>
   <path class="fil6" d="M659.63 1020.6c0,0 95.69,-0.81 118.72,31.49 23.03,32.3 73.52,206.03 47.17,263.85 -26.35,57.82 -75.66,-23.92 -103.02,-59.32 -27.37,-35.42 -62.87,-236.02 -62.87,-236.02z"/>
   <path class="fil7" d="M660.61 1006l-0.06 9.89c0,0 2.7,30.93 -35.4,35.45 -38.09,4.53 -66.45,-5.69 -65.42,-29.56 3.43,-18.48 6.7,-37.55 6.96,-52.85 0.09,-5.68 -0.3,-11.71 -1.35,-18.52l73.81 -1.47 21.74 3.55 -0.28 53.51z"/>
   <path class="fil8" d="M660.89 952.49l-0.28 53.51c-7.84,3.64 -16.69,5.87 -26.6,5.87 -33.92,0 -55.85,-24.88 -67.31,-42.93 0.09,-5.68 -0.3,-11.71 -1.35,-18.52l73.81 -1.47 21.74 3.55z"/>
   <path class="fil7" d="M559.68 938.54c8.56,46.09 68.03,44.58 93.74,41.68 7.23,-0.8 11.78,-1.73 11.78,-1.73 8.16,-2.18 12.71,-15.02 14.82,-31.85 4.2,-33.3 -1.11,-82.18 -6.73,-94.68 -8.47,-18.81 -24.41,-39.16 -84.31,-24.48 -59.9,14.69 -40.3,52.01 -29.31,111.06z"/>
   <path class="fil9" d="M757.48 1150.08c0,0 37.01,81.73 35.93,106.23 0,0 -18.33,-0.62 -35.93,4.62 -28.93,8.62 0,-110.85 0,-110.85z"/>
   <path class="fil4" d="M691.67 808.08c0,0 -26.36,-2.03 -57.45,-15.55 -25.23,-10.97 -57.08,1.11 -67.41,6.56 0.28,-1.66 0.94,-3.94 2.52,-6.22 0,0 -4.64,3.29 -5.32,7.89 -0.48,0.35 -0.69,0.6 -0.57,0.68 0,0 -5.26,-0.97 -8.64,0.55 0,0 2.37,-0.34 3.21,1.19 0.09,0.16 0.22,0.3 0.38,0.42 -39.37,19.02 -43,81.24 -30.34,95.63 15.24,17.32 37.82,55.86 37.82,55.86 0,0 2.36,-8.75 -0.41,-23.99 -2.77,-15.24 10.39,-15.24 27.02,-22.17 16.63,-6.93 2.77,-26.33 17.32,-38.1 14.55,-11.78 67.89,-4.85 67.2,-13.86 19.8,-7.21 14.67,-46.86 14.67,-48.89z"/>
   <path class="fil9" d="M547.62 1303.18c15.62,62.74 184.58,95.15 222.98,101.74 -1.62,-27.2 -3.19,-61.67 -4.31,-105.26l-218.67 3.52z"/>
   <path class="fil7" d="M584.71 1323.58c-1.61,0 -37.56,-5.37 -44,-8.59 -6.44,-3.23 -35.89,-45.07 -16.6,-55.8 19.29,-10.73 71.06,32.19 71.06,32.19l-10.46 32.2z"/>
   <path class="fil6" d="M803.36 1336c0,0 -139.04,7.55 -232.34,-12.42 0,0 -2.35,-26.96 26.97,-38.93 0,0 145.43,-30.83 180.36,-22.24 34.93,8.59 25.01,73.6 25.01,73.6z"/>
   <path class="fil6" d="M484.06 1226.89c28.85,34.79 66.58,63.21 108.16,69.86l0.01 -0.02c0.35,-0.53 12.59,-19.11 10.3,-46.43 -1.06,-12.65 -5.24,-27.17 -15.14,-42.63 -3.05,-4.75 -5.76,-10.31 -8.18,-16.48 -22.71,-57.93 -19.33,-169.6 -19.33,-169.6 0,0 -96.43,10.1 -126.48,53.03 -18.4,26.29 5.06,97.28 50.66,152.28z"/>
   <path class="fil8" d="M653.42 980.22c7.23,-0.8 11.78,-1.73 11.78,-1.73 8.16,-2.18 12.71,-15.02 14.82,-31.85 -15.29,3.77 -22.3,15.58 -25.22,20.61 -1.32,2.27 -1.59,7.34 -1.38,12.96z"/>
   <path class="fil7" d="M692.27 1006.28c0,0 33.3,-54.95 7.4,-57.34 -25.9,-2.39 -36.3,15.14 -40.05,21.58 -3.74,6.44 0.98,35.48 0.98,35.48l31.66 0.29z"/>
   <path class="fil10" d="M565.34 1248.46c1.02,6.95 3.1,13.37 5.67,19.07 8.13,18.05 21.21,29.21 21.21,29.21l0.01 -0.02c86.5,-39.05 104,-173.11 106.93,-246.76 1.18,-29.61 0,-49.46 0,-49.46 -39.02,-12.92 -49.99,9.53 -49.99,9.53 0,0 -46.07,109.56 -69.97,181.15 -9.14,27.4 -15.04,49.24 -13.86,57.27z"/>
   <path class="fil9" d="M484.06 1226.89c28.85,34.79 66.58,63.21 108.16,69.86l0.01 -0.02c86.5,-39.05 104,-173.11 106.93,-246.76 0,0 -40.93,148.45 -96.63,200.33 -10.07,9.39 -20.63,15.62 -31.51,17.24 0,0 -70.25,-19.86 -84.98,-38.55 -1.05,-1.34 -1.7,-2 -1.97,-2.1z"/>
   <path class="fil10" d="M4089.22 2030.86c0,0 -42.31,-49.36 -2.62,-80.7 0,0 28.98,-17.56 52.63,-16.13 0,0 -33.52,56.17 -22.67,61.77 10.85,5.58 32.82,-65.29 32.82,-65.29 0,0 65.99,-6.41 87.2,3.8 0,0 -56.4,46.14 -44.5,48.9 11.89,2.75 72.79,-42.55 72.79,-42.55 0,0 61.42,10.44 58.14,47.9 -3.28,37.46 -24.41,49.03 -33.73,48.03 -9.31,-0.99 -63.72,-21.76 -64.91,-14.13 -1.15,7.61 31.56,32.52 54.51,33.69 0,0 -43.32,47.74 -72.06,33.96 -28.81,-13.78 -31.25,-35.62 -49.18,-43.81 -17.93,-8.2 -33.27,-8.17 -25.85,0.18 7.39,8.36 39.86,16.47 50.12,34.62 10.25,18.15 19.46,30.38 -10.29,25.9 -29.79,-4.47 -78.2,-26.25 -80.32,-51.2 -2.09,-24.94 -2.09,-24.94 -2.09,-24.94z"/>
   <path class="fil10" d="M4292.84 1989.58c0,0 -166.79,-6.43 -203.62,41.28 0,0 -8.16,24.39 -33.24,46.61l-3.91 10.65c0,0 28.91,-30.48 39.24,-32.31 0,0 -16.15,-59.1 201.53,-66.23z"/>
   <path class="fil10" d="M4055.98 2077.47c0,0 -35.79,26.48 -38.26,73.78l6.49 0.59c0,0 11.44,-48.91 32.09,-68.05 20.68,-19.12 -0.31,-6.32 -0.31,-6.32z"/>
   <path class="fil10" d="M3941.3 1968.79c0,0 67.28,-37.69 35.89,-88.82 0,0 -25.11,-31.4 -52.04,-39.48 0,0 14.34,76.25 0,78.06 -14.33,1.79 -9.87,-86.14 -9.87,-86.14 0,0 -70.87,-34.11 -98.71,-31.4 0,0 43.98,74.46 29.65,72.67 -14.37,-1.79 -63.72,-77.16 -63.72,-77.16 0,0 -72.69,-13.46 -84.34,29.61 -11.68,43.06 7.18,64.6 17.93,67.28 10.78,2.7 79.87,1.81 78.06,10.78 -1.78,8.97 -48.45,23.33 -74.47,15.26 0,0 28.7,70.88 66.41,67.28 37.67,-3.58 49.35,-26.91 72.65,-28.7 23.33,-1.81 40.39,4.48 28.74,10.76 -11.68,6.29 -51.17,2.06 -70,18.08 -18.83,16.01 -34.08,25.89 0.91,33.05 34.98,7.18 97.8,2.7 110.36,-24.22 12.56,-26.91 12.56,-26.91 12.56,-26.91z"/>
   <path class="fil10" d="M3731.37 1839.59c0,0 188.41,61 209.93,129.2 0,0 -0.91,30.51 17.96,65.49l0 13.46c0,0 -19.78,-45.76 -30.52,-52.05 0,0 42.17,-59.21 -197.38,-156.11z"/>
   <path class="fil10" d="M3959.26 2034.28c0,0 29.05,44.13 12.49,97.84l-7.46 -2c0,0 7.22,-59.16 -7.95,-88.92 -15.21,-29.76 2.93,-6.92 2.93,-6.92z"/>
   <path class="fil1" d="M4048.38 1916.82c0,0 -88.73,-49.68 -47.33,-117.09 0,0 33.1,-41.39 68.61,-52.05 0,0 -18.94,100.54 0,102.89 18.94,2.36 13.01,-113.54 13.01,-113.54 0,0 93.44,-44.93 130.1,-41.38 0,0 -57.97,98.16 -39.03,95.79 18.9,-2.37 83.95,-101.71 83.95,-101.71 0,0 95.81,-17.75 111.19,39.03 15.38,56.76 -9.45,85.15 -23.65,88.69 -14.2,3.55 -105.26,2.37 -102.89,14.2 2.37,11.83 63.86,30.75 98.15,20.1 0,0 -37.84,93.44 -87.51,88.71 -49.67,-4.73 -65.05,-35.48 -95.81,-37.85 -30.73,-2.37 -53.19,5.91 -37.84,14.2 15.38,8.27 67.42,2.7 92.25,23.82 24.83,21.11 44.92,34.12 -1.19,43.59 -46.11,9.47 -128.91,3.55 -145.48,-31.93 -16.53,-35.48 -16.53,-35.48 -16.53,-35.48z"/>
   <path class="fil1" d="M4325.14 1746.5c0,0 -248.4,80.43 -276.76,170.32 0,0 1.15,40.21 -23.68,86.33l0 17.75c0,0 26.02,-60.32 40.22,-68.6 0,0 -55.6,-78.06 260.23,-205.8z"/>
   <path class="fil1" d="M4024.7 2003.15c0,0 -38.3,58.17 -16.46,128.97l9.87 -2.64c0,0 -9.56,-78 10.46,-117.22 20.02,-39.22 -3.87,-9.11 -3.87,-9.11z"/>
   <path class="fil10" d="M4045.38 2285.67c95.95,0 173.76,-77.8 173.76,-173.76l-347.53 0c0,95.95 77.78,173.76 173.76,173.76z"/>
   <path class="fil10" d="M4221.52 2294.51l-352.31 0 0 0c0,-11.85 9.59,-21.44 21.45,-21.44l309.44 0c11.82,0 21.42,9.59 21.42,21.44l0 0z"/>
   <polygon class="fil1" points="3865.9,2117.23 4223.07,2117.23 4223.07,2111.91 3865.9,2111.91 "/>
   <path class="fil4" d="M3441.08 953.21c-25.6,-13.27 -46.07,-4.93 -46.07,-4.93 -78.27,-9.19 -101.08,82.08 -100.03,113.48 1.05,31.4 4.64,65.13 -30.31,105.93 -100.96,117.83 110.46,123.05 110.46,123.05 1.81,-94.16 114.64,-59.8 109.73,-50.27 144.67,34.73 14.37,-257.08 -43.77,-287.25z"/>
   <path class="fil7" d="M3139.2 1345.73c0,0 -13.77,-20.95 -24.87,-21.36 -11.08,-0.4 -31.63,-6.16 -29.98,-2.05 1.63,4.11 14.37,4.52 15.6,6.99 1.23,2.47 -18.9,6.16 -24.65,6.57 -5.74,0.4 -19.3,0 -18.88,2.88 0.4,2.86 24.43,14.79 41.38,13.14 16.95,-1.65 37.9,4.92 37.9,4.92l3.5 -11.09z"/>
   <path class="fil6" d="M3338.22 1352.5c0,0 -7.5,14.82 -21.03,31.84 -16.36,20.48 -41.58,44.15 -73.24,48.82 -15.14,2.24 -29.92,-1.03 -43.51,-7.07 -0.03,0 -0.05,0 -0.05,0 -38.45,-17.08 -67.36,-56.33 -67.36,-56.33 -6.78,-18.48 4.32,-31.02 4.32,-31.02 0,0 77.65,17.48 85.05,13.77 7.39,-3.69 50.5,-127.95 60.79,-143.57 10.25,-15.62 45.27,-23.73 45.27,-23.73l9.77 167.3z"/>
   <path class="fil11" d="M3317.19 1384.34c-16.36,20.48 -41.58,44.15 -73.24,48.82 -15.14,2.24 -29.92,-1.03 -43.51,-7.07 1.5,0.21 39.91,4.94 55.23,-22.43 15.59,-27.93 32.51,-72.31 55.67,-57.51 10.01,6.38 9.56,22.24 5.86,38.2z"/>
   <path class="fil12" d="M3627.89 2190.6c0,0 23.68,21.63 19.08,36.98 -4.64,15.37 -26.02,25.62 -28.88,44.39 -2.89,18.77 -14.47,29.02 -24.87,29.02 -10.39,0 -49.6,0 -49.6,0 0,0 -7.64,-13.22 10.85,-17.21 18.49,-3.98 25.46,-26.05 24.31,-46.53 -1.15,-20.48 1.74,-47.79 1.74,-47.79l39.27 -9.1 8.09 10.23z"/>
   <path class="fil12" d="M3427.37 2199.79c0,0 8.51,91.59 -1.88,96.71l-133.1 -0.27c0,0 0,-15.37 21.38,-18.77 21.35,-3.42 58.91,-15.94 65.29,-43.81 6.35,-27.89 48.31,-33.85 48.31,-33.85z"/>
   <path class="fil7" d="M3522.24 1542.69c-27.41,-61.43 -44.19,-79.07 -40.98,-98.13 2.37,-14.2 -7.25,-264.59 -7.25,-264.59 -3.24,-1 -9.77,-1.9 -13.32,-2.7 -11.23,-2.49 -20.54,-10.38 -24.38,-21.22 -4.67,-13.06 -8.37,-32.34 -8.3,-56.49l-3.49 0.69 -59.01 11.68c0,0 1.36,18.57 1.36,36.06 0,0.15 0,0.29 0,0.44 0.1,15.19 -9.87,28.59 -24.45,32.81 -7.46,2.16 -13.95,3.98 -13.95,3.98 0,0 -21.66,61.86 -25.81,125.39 -4.12,63.54 39.41,91.15 -0.31,218.13 -40.56,129.67 235.01,47.89 219.91,13.96z"/>
   <path class="fil13" d="M3365.5 1111.92c0,0 1.36,18.57 1.36,36.06 33.03,-0.93 50.47,-31.05 57.65,-47.74l-59.01 11.68z"/>
   <path class="fil7" d="M3354.48 1128.48c0,0 78.13,1.29 78.16,-47.37 0.04,-48.66 10.18,-81.26 -39.69,-84.14 -49.88,-2.88 -59.57,15.67 -63.55,31.91 -3.98,16.24 4.78,98 25.08,99.6z"/>
   <path class="fil4" d="M3357.37 995.79c0,0 21.38,57.08 54.2,65.52 32.82,8.44 47.05,-0.35 47.05,-0.35 0,0 -25.18,-20 -30.41,-54.91 0,0 -54.72,-37.43 -70.84,-10.26z"/>
   <path class="fil4" d="M3362.67 1000.42c0,0 -15.87,5.93 -22.39,17.49 -6.38,11.31 -11.82,26.29 -10.57,44.67 0,0 -16.11,-38.8 1.99,-60.74 19.22,-23.27 30.97,-1.42 30.97,-1.42z"/>
   <path class="fil14" d="M3371.46 1098.3c0,0 -5.37,7.09 -16.15,6.58 -8.68,-0.41 -12.07,-7.95 -12.07,-7.95 0,0 15.97,-3.84 28.22,1.37z"/>
   <path class="fil6" d="M3529.77 1290.74c0,0 1.95,27.97 0,61.51 -1.33,22.24 -23.82,52.04 -27.03,59.42 -7.99,18.48 -17.02,21.49 -17.02,21.49l-69.9 17.12 -24.59 6.03 -77.5 -23.15c0,0 -35.3,-98.51 -21.14,-153.98 14.2,-55.45 35.86,-93.97 35.86,-93.97 0,0 63.23,61.93 145.55,-5.25l55.77 110.78z"/>
   <path class="fil5" d="M3318.69 1448.1c0,0 -38.4,119.46 -40.88,160.12 -2.44,40.68 73.39,577.75 76.42,596.49 2.89,17.67 24.83,28.92 24.83,28.92 0,0 10.08,5.95 24.49,1.89 19.98,-5.65 26.26,-12.4 26.26,-12.4 0,0 29.89,-383.04 11.4,-519.86 -18.49,-136.84 -18.69,-255.16 -18.69,-255.16l-103.83 0z"/>
   <path class="fil4" d="M3481.26 1444.55c0,0 58.53,78.54 64,131.63 5.48,53.1 8.58,239.6 20.19,291.36 11.65,51.76 54.34,151.37 54.34,312.82 0,0 -4.43,9.26 -18.14,14.18 -4.39,1.58 -10.29,3.1 -15.97,4.41 -11.3,2.59 -22.92,-2.94 -28.08,-13.32 -28.88,-58.15 -120.85,-245.69 -125.56,-284.63 -3.35,-27.55 -32.4,-209.88 -95.78,-316.88 -15.17,-25.68 9.35,-127.82 9.35,-127.82l135.64 -11.75z"/>
   <path class="fil15" d="M3369.75 1099.6c0,0 -1.36,5.73 -15.63,4.85 0,0 -12,-0.74 -11.61,-7.04 0,0 11.61,-4.49 27.24,2.19z"/>
   <path class="fil16" d="M3312.55 1429.67c0,0 15.41,12.18 46,12.81 36.55,0.74 127.13,-9.32 127.13,-9.32 0,0 4.05,11.24 3.87,23.12 0,0 -110.63,27.9 -174.74,4.08 0,0 -8.27,-15.56 -2.27,-30.68z"/>
   <path class="fil15" d="M3349.77 1441.74c-6.14,0 -11.13,6 -11.13,13.35 0,7.37 4.99,13.35 11.13,13.35 6.17,0 11.16,-5.98 11.16,-13.35 0,-7.36 -4.99,-13.35 -11.16,-13.35zm0 32.24c-9.17,0 -16.67,-8.48 -16.67,-18.88 0,-10.41 7.5,-18.87 16.67,-18.87 9.21,0 16.71,8.46 16.71,18.87 0,10.41 -7.5,18.88 -16.71,18.88z"/>
   <polygon class="fil17" points="3604.8,1451.29 3491.44,1549.97 3356.36,1394.83 3469.71,1296.13 "/>
   <path class="fil7" d="M3460.16 1451.64c0,0 -41.54,4.86 -41.43,14.71 0.14,9.87 10.36,30.12 15.49,31.02 5.13,0.89 33.8,-27.39 33.8,-27.39l-7.85 -18.34z"/>
   <path class="fil6" d="M3474 1179.96c0,0 55.46,3.89 76.73,55.55 21.24,51.68 61.56,138.42 61.56,153.02 0,14.6 -22.5,59.58 -143.49,85.45 0,0 -12.52,-13.16 -11.75,-23.57 0,0 75.51,-64.87 75.3,-72.45 -0.38,-14.34 -12.38,-33.27 -78.68,-99.6 -18.03,-18.03 20.33,-98.4 20.33,-98.4z"/>
   <path class="fil10" d="M3916.61 870.62l33.06 115.57c0.49,1.7 0.66,3.43 0.56,5.1 -0.42,6.08 -4.57,11.52 -10.74,13.3l-200.73 57.43c-6.24,1.78 -12.66,-0.69 -16.18,-5.67 -0.98,-1.34 -1.71,-2.87 -2.2,-4.53l-33.06 -115.52c-2.27,-7.91 2.3,-16.13 10.22,-18.39l200.69 -57.43c7.88,-2.25 16.08,2.28 18.38,10.16z"/>
   <path class="fil11" d="M3950.23 991.28c-0.42,6.08 -4.57,11.52 -10.74,13.3l-200.73 57.43c-6.24,1.78 -12.66,-0.69 -16.18,-5.67l102.23 -93.13 125.42 28.08z"/>
   <path class="fil1" d="M3916.61 870.62l-89.85 111.58 -137.73 -40.01 -1.71 -5.91c-2.27,-7.91 2.3,-16.13 10.22,-18.39l200.69 -57.43c7.88,-2.25 16.08,2.28 18.38,10.16z"/>
   <path class="fil6" d="M2325.01 2297.81l-0.56 0c-3.37,0 -6.09,-2.78 -6.01,-6.14l9.1 -394.68 26.83 -3.14 -22.87 397.84c-0.21,3.44 -3.05,6.12 -6.49,6.12z"/>
   <path class="fil6" d="M2168.71 2297.81l-0.58 0c-3.38,0 -6.09,-2.78 -6.01,-6.14l9.12 -394.68 26.81 -3.14 -22.86 397.84c-0.21,3.44 -3.04,6.12 -6.48,6.12z"/>
   <path class="fil6" d="M2600.03 2297.81l0.57 0c3.38,0 6.08,-2.78 6,-6.14l-9.1 -394.68 -26.83 -3.14 22.88 397.84c0.19,3.44 3.04,6.12 6.48,6.12z"/>
   <path class="fil18" d="M2150.93 1872.5l0 -270.45c0,-47.58 38.58,-86.17 86.17,-86.17l194.85 0c47.58,0 86.17,38.58 86.17,86.17l0 280.79 -367.19 -10.35z"/>
   <path class="fil9" d="M2553.04 1915.21l-376.23 0c-14.3,0 -25.87,-11.59 -25.87,-25.87l0 -16.84 402.11 0 0 42.71z"/>
   <path class="fil6" d="M2598.12 1915.21l-284.63 0c-10.57,0 -19.12,-8.57 -19.12,-19.14l0 -4.43c0,-10.57 8.55,-19.14 19.12,-19.14l284.63 0c10.57,0 19.14,8.57 19.14,19.14l0 4.43c0,10.57 -8.57,19.14 -19.14,19.14z"/>
   <path class="fil19" d="M2587.07 1805.12c-27.92,48.58 -63.02,67.33 -63.02,67.33l-146.06 0c0,0 230.38,-104.39 209.08,-67.33z"/>
   <path class="fil7" d="M2474.88 2181.02c-3.8,4.37 -4.29,9.24 -2.4,14.44 0,0.02 0,0.05 0.03,0.08 3.49,9.63 15,20.37 28.37,31.1 1.69,1.39 3.23,2.64 4.54,3.8 0.35,0.3 0.7,0.61 1.02,0.91 0.27,0.24 0.53,0.48 0.78,0.7 12.47,11.5 7.79,14.13 30.17,37.44 25.55,26.58 43.12,27.06 48.12,24.64 4.24,-2.06 -4.36,-16.17 -13.89,-32 -0.46,-0.77 -0.91,-1.55 -1.39,-2.32 -1.26,-2.11 -2.53,-4.24 -3.79,-6.37 -11.16,-19.06 -8.28,-28 -5.64,-56.38 2.16,-23.05 35.87,-128.79 35.87,-128.79l-48.94 -8.43c0,0 -14.73,84.2 -30.97,97.17 -8.68,6.91 -18.4,7 -26.75,12.12 -0.59,0.35 -1.17,0.72 -1.73,1.1 -4.75,3.14 -9.58,6.38 -13.4,10.76z"/>
   <path class="fil5" d="M2474.88 2181.02c-3.8,4.37 -4.29,9.24 -2.4,14.44 0,0.02 0,0.05 0.03,0.08 4.27,9.61 15.48,20.31 28.42,31 1.68,1.41 3.16,2.7 4.49,3.9 0.35,0.3 0.7,0.61 1.02,0.91 0.27,0.24 0.53,0.48 0.78,0.7 12.47,11.5 7.79,14.13 30.17,37.44 25.55,26.58 43.12,27.06 48.12,24.64 4.24,-2.06 -4.36,-16.17 -13.89,-32 -4.97,-1.82 -28.06,-11.21 -45.52,-33.55 -15.38,-19.63 -25.63,-44.83 -36.11,-59.45 -0.59,0.35 -1.17,0.72 -1.73,1.1 -4.75,3.14 -9.58,6.38 -13.4,10.76z"/>
   <path class="fil7" d="M2869.52 2150.45c3.02,15.11 24.55,12.58 48.61,6.72 24.07,-5.89 18.34,1.1 52.58,-2.69 34.25,-3.79 44.63,-16.55 45.67,-21.65 0.93,-4.51 -15.99,-6.11 -34.14,-8.2 -2.27,-0.25 -4.57,-0.53 -6.86,-0.82 -20.5,-2.57 -35.5,-15.8 -54.11,-26.65 -17.62,-10.28 -43.94,-52.19 -43.94,-52.19l-46.95 3.72c0,0 24.64,37.43 34.17,53.69 5.59,9.58 5.31,22.23 4.6,32.01 -0.37,5.31 -0.7,10.73 0.37,16.05z"/>
   <path class="fil5" d="M2918.13 2157.16c24.07,-5.89 18.34,1.1 52.58,-2.69 34.25,-3.79 44.63,-16.55 45.67,-21.65 0.93,-4.51 -15.99,-6.11 -34.14,-8.2l-0.16 0.35c0,0 -20.55,14.57 -49.04,15.24 -23.23,0.58 -47.84,-6.09 -63.88,-5.82 -0.37,5.31 -0.7,10.73 0.37,16.05 3.02,15.11 24.55,12.58 48.61,6.72z"/>
   <path class="fil19" d="M2689.56 1850.2l-43.89 118.12 -57.31 154.23c0,0 -15.56,1.5 -30.44,-2.78 -13.72,-3.97 -29.45,-14.33 -29.45,-14.33 0,0 15.91,-165.6 45.6,-260.66 7.61,-24.4 16.13,-44.15 25.53,-55.24 46.02,-54.4 89.96,60.66 89.96,60.66z"/>
   <path class="fil20" d="M2644.93 1662.61c-28.75,-9.27 -110.78,2.64 -193.17,18.75l-17.25 -28.44 -177.96 -13.9c0,0 -58.73,130.22 -26.59,213.2 4.73,12.2 14.12,20.02 30.12,20.27 0.02,0.01 2.59,0 2.61,0 0,0 105.91,-0.06 140.31,-0.06 88.52,0 187.32,-60.84 200.09,-63.38 20.93,-4.19 29.29,37.65 50.21,81.58 20.93,43.94 196.65,194.56 196.65,194.56 0,0 27.01,0.27 38.17,-3.92 12.01,-4.49 16.39,-10.33 16.39,-10.33 0,0 -194.72,-387.42 -259.57,-408.34z"/>
   <path class="fil4" d="M2427.5 1134.7c-22.8,-11.97 -57.48,-13.59 -63.13,-14.35 -67.43,-9.07 -108.02,88.93 -110.41,118.62 -4.4,54.73 -33.35,63.08 -74.11,97.34 -81.71,68.74 -57.75,148.59 -13.06,178.27 26.8,17.81 74.06,0 74.06,0 0.66,0.46 129.22,-71.87 192.59,-106.76 95.01,-13.51 52.14,-242.62 -5.95,-273.13z"/>
   <path class="fil7" d="M2380.34 1378.12c0.29,0.18 -31.18,10.92 -52.21,1.62 -19.79,-8.75 -34.79,-41.32 -34.49,-41.33 9,-0.41 18.88,-8.28 26.49,-59.93l3.84 1.37 64.45 23.2c0,0 -4.67,20.67 -7.69,40.37 -2.54,16.52 -3.92,32.36 -0.4,34.7z"/>
   <path class="fil21" d="M2388.43 1303.05c0,0 -4.67,20.67 -7.69,40.37 -37.03,-6.67 -51.55,-43.55 -56.76,-63.57l64.45 23.2z"/>
   <path class="fil7" d="M2398.02 1323.57c0,0 -88.18,-11.83 -79.96,-66.63 8.22,-54.81 2.37,-93.25 59.02,-88.01 56.65,5.24 64.42,27.79 66.13,46.75 1.71,18.95 -22.03,109.56 -45.19,107.88z"/>
   <path class="fil4" d="M2439.99 1185.64c0,0 -56.44,48.64 -94.85,52.57 -38.39,3.92 -52.94,-8.41 -52.94,-8.41 0,0 22.64,-18.79 36.27,-49.12 4.01,-8.94 12.49,-15.07 22.26,-15.92 27.42,-2.36 79.39,-3.45 89.27,20.87z"/>
   <path class="fil4" d="M2404.71 1181.27c0,0 18.88,18.26 24.83,31.81 5.74,13.08 7.47,44.34 2.89,56.74 0,0 29.42,-57.21 12.76,-85.02 -17.65,-29.46 -40.48,-3.53 -40.48,-3.53z"/>
   <path class="fil9" d="M2454.59 1508.03c-2.65,178.51 -0.72,141.2 -20.24,158.14 -4.72,4.08 -17.94,6.51 -35.35,7.66 -54.73,3.63 -150.96,-5.39 -154.62,-15.49 -12.62,-35 -3.71,-45.88 -14.24,-99.47 -1.09,-5.69 -2.45,-11.86 -4.05,-18.58 -8.78,-36.81 -17.33,-49.33 13.83,-108.46 28.25,-53.56 57.61,-97.02 60.25,-95.45 74.54,44.26 80.57,7.05 80.57,7.05 0,0 75.17,77.53 73.86,164.61z"/>
   <path class="fil20" d="M2645.66 1968.31l-57.31 154.23c0,0 -15.56,1.5 -30.44,-2.78 -13.72,-3.97 -29.45,-14.33 -29.45,-14.33 0,0 15.91,-165.6 45.6,-260.66l71.6 123.54z"/>
   <path class="fil9" d="M2380.74 1343.42c0,0 76.7,13 85.72,46.04 9,33.02 62.01,227.18 62.01,227.18 0,0 -39,7 -57,-11 -18.02,-18.02 -62.7,-167.14 -62.7,-167.14l-28.03 -95.07z"/>
   <path class="fil6" d="M2399 1673.83c-54.73,3.63 -150.96,-5.39 -154.62,-15.49 -12.62,-35 -3.71,-45.88 -14.24,-99.47l26.41 -74.34c0,0 -4.37,82.78 20.03,104.56 24.4,21.78 99.97,42.03 111.83,60.23 5.72,8.73 9.5,17.48 10.59,24.51z"/>
   <path class="fil7" d="M2336.28 1639.02c0,0 54,-12.03 62.71,-7.24 8.72,4.8 30.01,22.24 32.68,28.32 2.67,6.08 -19.41,-4.6 -26.58,-6.53 -4.65,-1.25 -16.88,3.01 -22.94,5.02 -25.49,8.49 -41.11,4.13 -41.11,4.13l-4.77 -23.7z"/>
   <path class="fil9" d="M2300.12 1336.32c0,0 -72.51,4.48 -97.6,39.48 -35.34,49.28 -105.43,259.32 -65.27,287.33 45.25,31.53 205.9,8.25 205.9,8.25 0,0 5.36,-24.99 -2.1,-37.08 -7.43,-12.09 -128.32,-31.61 -133.89,-37.19 -5.58,-5.58 69.75,-108.79 69.75,-125.53 0,-16.74 23.22,-135.25 23.22,-135.25z"/>
   <path class="fil7" d="M2401.62 1646.81c0,0 11.3,14.6 15.01,16.34 3.71,1.74 6.11,1.31 6.11,1.31l-7.63 -13.72 -13.49 -3.93z"/>
   <path class="fil7" d="M2399 1631.78l32.91 15.97c0,0 -1.41,2.3 -5.45,2.11 -4.06,-0.18 -14.28,-3.92 -14.28,-3.92l-13.18 -14.17z"/>
   <polygon class="fil18" points="2416.63,1685.5 2676.86,1685.5 2755.15,1490.85 2495.32,1490.85 "/>
   <polygon class="fil6" points="2679.92,1677.92 2336.28,1677.92 2336.28,1685.5 2676.86,1685.5 "/>
   <path class="fil15" d="M2611.18 1588.17c1.97,-6.84 -2,-12.39 -8.84,-12.39 -6.84,0 -13.98,5.55 -15.94,12.39 -1.97,6.85 2,12.4 8.84,12.4 6.84,0 13.98,-5.55 15.94,-12.4z"/>
   <path class="fil6" d="M1213.15 1905.95l-0.83 0c-9.67,0 -17.51,-7.85 -17.51,-17.52l0 -369.66c0,-9.68 7.84,-17.53 17.51,-17.53l0.83 0c9.67,0 17.52,7.85 17.52,17.53l0 369.66c0,9.67 -7.84,17.52 -17.52,17.52z"/>
   <path class="fil6" d="M1212.59 2297.81l-0.57 0c-3.37,0 -6.08,-2.78 -6,-6.14l9.1 -394.68 26.82 -3.14 -22.87 397.84c-0.2,3.44 -3.04,6.12 -6.48,6.12z"/>
   <path class="fil6" d="M1643.91 2297.81l0.58 0c3.37,0 6.08,-2.78 6.01,-6.14l-9.11 -394.68 -26.83 -3.14 22.88 397.84c0.19,3.44 3.04,6.12 6.48,6.12z"/>
   <path class="fil6" d="M1641.99 1872.5l-447.18 0 0 16.84c0,14.28 11.58,25.87 25.87,25.87l421.31 0c10.57,0 19.14,-8.57 19.14,-19.14l0 -4.43c0,-10.57 -8.57,-19.14 -19.14,-19.14z"/>
   <path class="fil22" d="M1865.86 2213.43c0,0 -6.59,81.84 8.07,82.92 1.95,0.14 74.32,0.14 74.32,0.14l92.39 -0.53c0,0 -0.61,-22.27 -27.61,-26.97 -27.01,-4.7 -80.44,-27.42 -96.82,-63.12 -17.2,-37.55 -50.35,7.56 -50.35,7.56z"/>
   <path class="fil4" d="M1310.06 1765.11c0,0 3.08,80.43 17.25,107.39l326.75 0c0,0 78.51,8.12 85.67,13.43 9.03,6.67 -31.45,72.94 120.29,331.91l74.32 -1.89c0,0 -77.71,-420.01 -91.52,-430.63 -20.66,-15.91 -262.39,-71.25 -303.77,-72.47 -41.38,-1.2 -228.99,52.25 -228.99,52.25z"/>
   <path class="fil7" d="M1493.26 1288.58c25.21,15.62 26.62,46.74 26.62,46.74 -61.5,15.89 -150.97,-52.38 -150.97,-52.38 0,0 39.59,-26.59 54.25,-85.03 0.74,-2.96 1.42,-5.98 2.01,-9.07 1.92,-9.85 3.12,-20.51 3.33,-32.01l28.25 25.31 46.98 42.08c0,0 -1.07,17.46 -6.94,47.5 -1.02,5.24 -2.19,10.87 -3.53,16.85z"/>
   <path class="fil6" d="M1528 1611.44c-2.11,13.72 2.14,24.75 4.19,34.97 0.8,3.89 1.26,7.67 0.93,11.43 -3.36,37.96 10.17,42.77 5.93,55.02 0,0 -14.45,8.46 -40.92,18.5 -11.51,4.33 -25.31,9 -41.19,13.4 -0.83,0.22 -1.66,0.45 -2.53,0.67 -61.46,16.63 -126.09,20.18 -144.35,19.68 -34.88,-0.93 -41.92,-89.33 -28.98,-200.7 20.16,-173.47 47.41,-257.58 119.24,-318.33 4.53,-3.84 1.47,9.19 25.61,20.83 22.31,10.73 49.22,13.24 70.1,8.62l16.42 16.84c32.62,51.53 36.04,112.69 33.27,163.68 -3.52,64.45 -11.67,115.89 -17.73,155.39z"/>
   <path class="fil21" d="M1503.73 1224.22c0,0 2.49,-2.62 -3.38,27.41 -52.04,-15.05 -68.99,-41.56 -75.93,-59.13 -1.98,-4.97 19.35,-7.61 32.33,-10.36l46.98 42.08z"/>
   <path class="fil7" d="M1527.92 1224.36c0,0 -100.4,14.39 -108.39,-48.27 -7.99,-62.67 -26.33,-103.01 37.43,-114.84 63.77,-11.83 79.29,10.49 87.05,30.76 7.75,20.26 9.82,127 -16.09,132.36z"/>
   <polygon class="fil18" points="1905.77,1688.78 1913.44,1691.2 1976.34,1490.13 1968.67,1487.73 "/>
   <polygon class="fil18" points="1692.53,1675.67 1913.59,1677.97 1913.44,1691.2 1692.39,1688.89 "/>
   <path class="fil4" d="M1387.51 1062.52c-0.82,-0.94 -2.69,-1.71 -6.86,-1.97 0,0 3.36,-2.06 7.82,-2.14 0.91,-5.79 4.1,-16.04 14.09,-18.45 0,0 -5.39,2.82 -6.14,8.98 11.66,-11.79 36.5,-20.24 105.08,-14.28 90.37,7.85 60.12,65.52 48.35,72.33 -11.75,6.81 -41.08,-12.35 -62.9,-10.79 -21.83,1.56 -26.22,33.05 -33.66,37.31 -7.43,4.27 -4.46,-3.36 -14.44,-7.96 -9.98,-4.6 -11.07,11.98 -8.25,22.79 2.8,10.81 -11.06,24.92 -11.06,24.92 0,0 0,0 -13.78,-15.08 -13.78,-15.08 -26.38,-78.6 -19.95,-92.07 0.56,-1.19 1.12,-2.39 1.71,-3.61z"/>
   <path class="fil9" d="M1539.05 1712.86c0,0 -14.45,8.46 -40.92,18.5 -114.55,-83.58 -113.93,-281.42 -114.55,-284.81l143.86 126.7 4.75 73.15c0.8,3.89 1.26,7.67 0.93,11.43 -3.36,37.96 10.17,42.77 5.93,55.02z"/>
   <path class="fil7" d="M1746.43 1619.8c0,0 9.21,1.5 18.93,-3.07 9.72,-4.56 43.25,-18.96 49.55,-17 6.3,1.97 26.86,13.57 31.7,15.78 4.84,2.2 13.4,13.53 13.4,13.53 -3.55,3.58 -16.05,-4.64 -21.62,-4.48 -5.58,0.15 -46.8,22.66 -59.05,23.16 -12.25,0.5 -31.34,-2.02 -31.34,-2.02l-1.58 -25.9z"/>
   <path class="fil7" d="M1821.14 1621.59c0.11,0.67 15.06,17.35 26.46,12.05l-12.49 -12.34 -13.97 0.29z"/>
   <path class="fil7" d="M1765.36 1616.73c0,0 13.41,-12.42 17.86,-18.39 0,0 2.69,1.22 2.8,3.49 0.17,3.77 -3.52,10.71 -3.52,10.71l-17.14 4.19z"/>
   <path class="fil23" d="M1501.47 1321.55c-73.73,-44.9 -160.76,33.55 -124.17,111.75 42.44,90.68 113.06,201.26 169.18,207.8 40.01,4.65 154.33,19.32 202.76,10.28 0,0 23.46,1.15 10.73,-36.62 0,0 -156.44,-43.6 -182.44,-77.44 -13.93,-18.12 -37.65,-54.81 -74.35,-214.72 -0.15,-0.66 -1.14,-0.7 -1.71,-1.06z"/>
   <path class="fil6" d="M3484.08 2297.81l0.8 0c4.64,0 8.41,-3.84 8.3,-8.49l-12.59 -545.22 -37.04 -4.34 31.6 549.59c0.24,4.75 4.19,8.46 8.93,8.46z"/>
   <path class="fil6" d="M1662.22 2297.81l-0.78 0c-4.65,0 -8.41,-3.84 -8.3,-8.49l12.58 -545.22 37.05 -4.34 -31.6 549.59c-0.27,4.75 -4.19,8.46 -8.95,8.46z"/>
   <path class="fil6" d="M3516.38 1754.11l-1891.16 0c-13.75,0 -24.91,-11.16 -24.91,-24.91l0 -15.96c0,-13.77 11.16,-24.92 24.91,-24.92l1891.16 0c13.74,0 24.9,11.16 24.9,24.92l0 15.96c0,13.75 -11.16,24.91 -24.9,24.91z"/>
   <path class="fil1" d="M3204.82 360.11c0,45.66 16.18,87.55 43.1,120.24 23.3,28.27 36.24,63.65 36.24,100.27l0 52.81c0,33.57 27.45,61.05 61.04,61.05l97.69 0c33.59,0 61.04,-27.48 61.04,-61.05l0 -52.9c0,-36.7 13.15,-72.04 36.41,-100.41 27.03,-32.93 43.18,-75.15 42.9,-121.15 -0.59,-104.36 -84.82,-188.08 -189.21,-188.08 -11.58,0 -22.95,1.05 -33.94,3.05 -2.48,0.44 -4.88,0.93 -7.29,1.47 -84.68,18.81 -147.98,94.37 -147.98,184.71z"/>
   <path class="fil4" d="M3442.54 694.47l-0.21 1.63 -2.69 20.58 -0.7 5.42 0 0.04 -0.73 5.46 -2.69 20.56 -0.7 5.42 0 0.04 -0.7 5.47 -0.42 3.01c-1.36,10.44 -13.29,18.41 -27.55,18.41l-32.16 0c-3.38,0 -6.63,-0.45 -9.66,-1.28l0 0c-2.72,-0.74 -5.23,-1.8 -7.5,-3.11l-0.17 -0.1c-1.81,-1.08 -3.45,-2.33 -4.85,-3.71 -2.89,-2.84 -4.78,-6.26 -5.34,-10.01l-1.15 -7.97 -0.73 -5.03 0 -0.01 0 -0.11 0 -0.01 -0.7 -4.91 -2.72 -19.07 -0.73 -5.01 0 -0.11 -0.73 -4.94 -2.97 -20.66 105.79 0z"/>
   <path class="fil5" d="M3429.78 694.47l-18.17 0c-29.33,8.48 -58.39,16.85 -71.88,20.66l0.73 4.94 0 0.11 0.73 5.01c10.88,-3.02 37.11,-10.53 101.15,-29.09l0.21 -1.63 -12.76 0z"/>
   <path class="fil5" d="M3344.6 749.17l0 0.01 0 0.11 0 0.01 0.73 5.03c12.63,-3.55 38.65,-11.01 92.88,-26.73l0.73 -5.46 0 -0.04 0.7 -5.42c-34.28,9.92 -75.72,21.9 -95.74,27.58l0.7 4.91z"/>
   <path class="fil5" d="M3356.67 776.03l0.17 0.1c2.27,1.31 4.78,2.37 7.5,3.11l0 0c14.86,-4.26 36.94,-10.64 69.79,-20.14l0.7 -5.47 0 -0.04 0.7 -5.42c-29.3,8.49 -62.96,18.21 -83.71,24.15 1.4,1.38 3.03,2.63 4.85,3.71z"/>
   <polygon class="fil15" points="3355.91,695.18 3314.89,453.1 3323.33,451.67 3364.35,693.76 "/>
   <polygon class="fil15" points="3428.38,695.24 3419.94,693.7 3463.57,455.44 3471.98,456.97 "/>
   <path class="fil15" d="M3444.95 463.58c-4.5,4.32 -7.57,9.86 -7.32,14.13 0.17,3.1 2.02,5.31 5.51,6.59 1.88,0.7 3.21,0.19 4.12,-1.6 1.99,-3.98 1.15,-12.49 -2.3,-19.11zm-95.6 -1.65c-4.53,4.04 -7.08,9.72 -7.64,14.93 -0.45,4.42 0.63,8.01 2.65,8.73 3.28,1.17 5.72,0.43 7.15,-2.22 2.65,-4.81 1.68,-14.06 -2.16,-21.44zm32.4 8.21c-2.37,2.95 -4.26,6.07 -5.23,9 -1.95,5.79 -0.38,9.71 4.78,11.65 2.06,0.78 4.81,1.4 6.14,-0.1 2.02,-2.31 0.84,-8.86 -2.89,-15.92 -0.84,-1.57 -1.78,-3.12 -2.79,-4.62zm37.42 0.19c-5.13,7.47 -8.72,15.93 -7.88,20.47 0.24,1.44 0.94,2.24 2.2,2.53 5.09,1.15 8.2,-0.33 9.28,-4.41 1.26,-4.7 -0.38,-12.06 -3.59,-18.59zm-2.55 25.97c-1.12,0 -2.34,-0.14 -3.7,-0.45 -2.3,-0.52 -3.77,-2.11 -4.19,-4.59 -0.98,-5.35 3.21,-15.16 9.1,-23.47 -3.1,-5.37 -7.19,-9.81 -11.47,-11.11 -6.38,-1.93 -16.11,3.94 -22.92,11.43 1.26,1.76 2.37,3.59 3.35,5.44 3.49,6.57 6,14.97 2.55,18.85 -1.25,1.44 -3.84,2.74 -8.96,0.81 -6.42,-2.42 -8.72,-7.85 -6.35,-14.9 1.19,-3.46 3.35,-7.05 6.1,-10.39 -5.27,-6.86 -12.31,-12.07 -19.22,-11.2 -3.7,0.47 -6.87,1.76 -9.52,3.59 4.43,8.24 5.44,18.7 2.37,24.31 -2.09,3.82 -5.75,5.03 -10.29,3.41 -3.28,-1.16 -4.95,-5.66 -4.33,-11.45 0.63,-5.93 3.59,-12.43 8.86,-16.94 -1.36,-2.15 -3.03,-4.05 -4.92,-5.52 -11.93,-9.26 -21.8,0.67 -22.22,1.11l-1.85 -1.8c0.14,-0.12 11.93,-12.01 25.67,-1.35 2.06,1.62 3.87,3.68 5.37,5.99 2.93,-1.99 6.42,-3.4 10.53,-3.92 7.74,-0.98 15.49,4.5 21.24,11.79 7.39,-8.03 17.89,-13.96 25.25,-11.74 4.64,1.41 9,5.88 12.38,11.39 3.1,-4.04 6.56,-7.56 9.94,-9.79 5.41,-3.58 8.93,-2.76 10.92,-1.44 2.06,1.35 3.84,3.17 5.27,5.25 1.64,-1.29 3.31,-2.4 5.02,-3.24 6.24,-3.12 12,-2.89 16.18,0.65l-1.67 1.98c-4.5,-3.82 -10.29,-1.83 -13.36,-0.3 -1.67,0.84 -3.31,1.9 -4.81,3.12 4.15,7.52 4.99,17.31 2.58,22.06 -1.5,2.98 -4.19,4.02 -7.32,2.87 -5.65,-2.07 -7.04,-5.97 -7.19,-8.88 -0.31,-5.56 3.52,-11.88 8.58,-16.54 -1.33,-1.94 -2.89,-3.61 -4.67,-4.81 -2.48,-1.61 -5.75,-0.1 -8.09,1.44 -3.38,2.23 -6.87,5.9 -10.01,10.06 3.87,7.39 5.9,16 4.43,21.56 -0.73,2.7 -2.79,6.72 -8.65,6.72z"/>
   <polygon class="fil1" points="1145.94,963.43 1177.52,963.43 1177.52,847.24 1145.94,847.24 "/>
   <path class="fil1" d="M1173.57 835.73l-22.25 0c-2.17,0 -3.95,-1.78 -3.95,-3.95l0 0c0,-2.17 1.78,-3.95 3.95,-3.95l22.25 0c2.17,0 3.95,1.78 3.95,3.95l0 0c0,2.17 -1.78,3.95 -3.95,3.95z"/>
   <polygon class="fil1" points="1091.49,963.43 1123.07,963.43 1123.07,756.01 1091.49,756.01 "/>
   <path class="fil1" d="M1118.41 747.4l-22.25 0c-2.17,0 -3.95,-1.78 -3.95,-3.95l0 0c0,-2.17 1.78,-3.95 3.95,-3.95l22.25 0c2.17,0 3.95,1.78 3.95,3.95l0 0c0,2.17 -1.78,3.95 -3.95,3.95z"/>
   <polygon class="fil1" points="1039.32,963.43 1070.9,963.43 1070.9,611.57 1039.32,611.57 "/>
   <path class="fil1" d="M1066.23 601.97l-22.25 0c-2.17,0 -3.95,-1.77 -3.95,-3.95l0 0c0,-2.17 1.78,-3.95 3.95,-3.95l22.25 0c2.17,0 3.95,1.78 3.95,3.95l0 0c0,2.17 -1.77,3.95 -3.95,3.95z"/>
   <polygon class="fil1" points="985.77,963.43 1017.35,963.43 1017.35,675.41 985.77,675.41 "/>
   <path class="fil1" d="M1012.68 667.71l-22.25 0c-2.17,0 -3.95,-1.78 -3.95,-3.95l0 0c0,-2.17 1.78,-3.95 3.95,-3.95l22.25 0c2.17,0 3.95,1.77 3.95,3.95l0 0c0,2.17 -1.78,3.95 -3.95,3.95z"/>
   <polygon class="fil1" points="933.59,963.43 965.17,963.43 965.17,515.58 933.59,515.58 "/>
   <path class="fil1" d="M960.5 507l-22.25 0c-2.17,0 -3.95,-1.78 -3.95,-3.95l0 0c0,-2.17 1.77,-3.95 3.95,-3.95l22.25 0c2.17,0 3.95,1.78 3.95,3.95l0 0c0,2.17 -1.78,3.95 -3.95,3.95z"/>
   <polygon class="fil1" points="882.79,963.43 914.37,963.43 914.37,585.52 882.79,585.52 "/>
   <path class="fil1" d="M909.7 577.48l-22.25 0c-2.17,0 -3.95,-1.78 -3.95,-3.95l0 0c0,-2.17 1.78,-3.95 3.95,-3.95l22.25 0c2.17,0 3.95,1.77 3.95,3.95l0 0c0,2.17 -1.78,3.95 -3.95,3.95z"/>
   <polygon class="fil18" points="3235.47,1688.32 2975.26,1688.32 2896.97,1493.66 3156.8,1493.66 "/>
   <polygon class="fil9" points="2972.2,1680.74 3315.83,1680.74 3315.83,1688.32 2975.26,1688.32 "/>
   <path class="fil15" d="M3040.94 1590.99c-1.95,-6.84 2,-12.39 8.84,-12.39 6.84,0 13.97,5.55 15.94,12.39 1.96,6.85 -2,12.39 -8.85,12.39 -6.84,0 -13.97,-5.55 -15.94,-12.39z"/>
   <path class="fil24" d="M4630.01 2297.93l0 1.87c0,3.01 -2.3,5.48 -5.09,5.48l-4485.57 0c-2.79,0 -5.1,-2.48 -5.1,-5.48l0 -1.87c0,-3.02 2.3,-5.48 5.1,-5.48l4485.57 0c2.79,0 5.09,2.46 5.09,5.48z"/>
  </g>
 </g>
</svg>
