<svg width="165" height="165" viewBox="0 0 165 165" fill="none" xmlns="http://www.w3.org/2000/svg">
<path d="M82.5 0C36.9187 0 0 36.9187 0 82.5C0 128.081 36.9187 165 82.5 165C128.081 165 165 128.081 165 82.5C165 36.9187 128.081 0 82.5 0ZM82.5 24.75C96.1537 24.75 107.25 35.8463 107.25 49.5C107.25 63.195 96.1537 74.25 82.5 74.25C68.8463 74.25 57.75 63.195 57.75 49.5C57.75 35.8463 68.8463 24.75 82.5 24.75ZM82.5 141.9C61.8337 141.9 43.6837 131.34 33 115.335C33.2063 98.9587 66.0412 89.925 82.5 89.925C98.9588 89.925 131.753 98.9587 132 115.335C121.316 131.34 103.166 141.9 82.5 141.9Z" fill="#0F8F85"/>
</svg>
