<svg width="437" height="421" viewBox="0 0 437 421" fill="none" xmlns="http://www.w3.org/2000/svg">
<path d="M28.0767 44.8725C28.0767 35.5963 35.5968 28.0762 44.8735 28.0762H371.442C380.718 28.0762 388.238 35.5963 388.238 44.8725V241.229C388.238 250.505 380.718 258.025 371.442 258.025H44.8735C35.5968 258.025 28.0767 250.505 28.0767 241.229V44.8725Z" fill="white"/>
<path d="M8.39874 25.1938C8.39874 15.9176 15.9184 8.39746 25.1951 8.39746H351.763C361.04 8.39746 368.559 15.9176 368.559 25.1938V221.55C368.559 230.827 361.04 238.346 351.763 238.346H25.1951C15.9184 238.346 8.39874 230.827 8.39874 221.55V25.1938Z" fill="#0F8F85"/>
<path fill-rule="evenodd" clip-rule="evenodd" d="M25.1947 0H351.763C365.677 0 376.958 11.2797 376.958 25.1943V221.551C376.958 235.465 365.677 246.745 351.763 246.745H25.1947C11.2802 246.745 0 235.465 0 221.551V25.1943C0 11.2797 11.2802 0 25.1947 0ZM25.1947 8.39795C15.9181 8.39795 8.39839 15.9181 8.39839 25.1943V221.551C8.39839 230.827 15.9181 238.347 25.1947 238.347H351.763C361.039 238.347 368.559 230.827 368.559 221.551V25.1943C368.559 15.9181 361.039 8.39795 351.763 8.39795H25.1947Z" fill="#08665B"/>
<path fill-rule="evenodd" clip-rule="evenodd" d="M77.0284 89.9801C80.0869 83.6609 89.0885 83.6609 92.147 89.9801L98.527 103.162L111.839 104.674C118.874 105.472 121.824 114.085 116.755 119.03L105.592 129.92L108.268 140.891C110.035 148.139 102.181 153.921 95.7847 150.08L84.5875 143.357L73.3902 150.08C66.9949 153.921 59.1403 148.139 60.9077 140.891L63.5829 129.92L52.4196 119.03C47.3508 114.085 50.3005 105.472 57.3366 104.674L70.648 103.162L77.0284 89.9801ZM90.9678 106.821L84.5875 93.6391L78.2076 106.821C76.9527 109.414 74.457 111.182 71.5952 111.507L58.2838 113.018L69.4475 123.908C71.5734 125.982 72.4458 129.024 71.742 131.91L69.0668 142.881L80.2641 136.157C82.9248 134.559 86.2502 134.559 88.9113 136.157L100.109 142.881L97.433 131.91C96.7292 129.024 97.602 125.982 99.7279 123.908L110.891 113.018L97.5798 111.507C94.7179 111.182 92.2227 109.414 90.9678 106.821ZM178.646 89.9801C181.704 83.6609 190.706 83.6609 193.764 89.9801L200.144 103.162L213.456 104.674C220.492 105.472 223.442 114.085 218.373 119.03L207.209 129.92L209.885 140.891C211.652 148.139 203.798 153.921 197.402 150.08L186.205 143.357L175.008 150.08C168.612 153.921 160.758 148.139 162.525 140.891L165.2 129.92L154.037 119.03C148.968 114.085 151.918 105.472 158.954 104.674L172.265 103.162L178.646 89.9801ZM192.585 106.821L186.205 93.6391L179.824 106.821C178.57 109.414 176.074 111.182 173.212 111.507L159.901 113.018L171.065 123.908C173.191 125.982 174.063 129.024 173.359 131.91L170.684 142.881L181.881 136.157C184.542 134.559 187.868 134.559 190.529 136.157L201.726 142.881L199.05 131.91C198.346 129.024 199.219 125.982 201.345 123.908L212.508 113.018L199.197 111.507C196.335 111.182 193.84 109.414 192.585 106.821ZM280.263 89.9801C283.321 83.6609 292.323 83.6609 295.381 89.9801L301.762 103.162L315.073 104.674C322.109 105.472 325.059 114.085 319.99 119.03L308.827 129.92L311.502 140.891C313.27 148.139 305.415 153.921 299.019 150.08L287.822 143.357L276.625 150.08C270.229 153.921 262.374 148.139 264.142 140.891L266.818 129.92L255.654 119.03C250.585 114.085 253.535 105.472 260.571 104.674L273.883 103.162L280.263 89.9801ZM294.202 106.821L287.822 93.6391L281.442 106.821C280.187 109.414 277.692 111.182 274.83 111.507L261.518 113.018L272.682 123.908C274.808 125.982 275.68 129.024 274.977 131.91L272.301 142.881L283.498 136.157C286.159 134.559 289.485 134.559 292.146 136.157L303.343 142.881L300.668 131.91C299.964 129.024 300.836 125.982 302.962 123.908L314.126 113.018L300.814 111.507C297.953 111.182 295.457 109.414 294.202 106.821Z" fill="white"/>
<path d="M303.671 402.707V390.534C303.671 380.188 312.967 372.39 323.309 372.637C356.978 373.44 383.264 361.842 399.889 350.111C408.74 343.868 421.9 344.332 428.417 352.98L433.638 359.911C438.423 366.26 438.16 375.171 432.464 380.718C390.277 421.786 343.212 422.869 315.919 418.11C308.567 416.828 303.671 410.17 303.671 402.707Z" fill="#08665B"/>
<path d="M280.528 357.074C307.043 385.128 344.613 378.112 365.771 371.717C408.087 358.926 434.068 330.292 411.047 254.124C406.755 239.929 389.77 229.573 373.377 239.694C369.821 241.89 365.239 242.078 361.532 240.147C347.634 232.906 336.977 240.492 331.048 246.998C328.66 249.618 323.793 249.179 322.464 245.892L316.143 230.249L306.977 203.551C302.181 187.682 286.806 175.011 270.937 179.808C255.069 184.604 256.175 207.361 262.219 227.362L287.296 303.074L266.632 292.002C259.744 288.311 243.113 282.947 231.697 291.016C220.282 299.084 220.626 311.681 229.113 320.66C237.6 329.64 263.554 339.114 280.528 357.074Z" fill="#0F8F85"/>
<path fill-rule="evenodd" clip-rule="evenodd" d="M330.51 272.548C332.763 271.999 335.035 273.38 335.585 275.633L345.974 318.228C346.523 320.482 345.142 322.753 342.889 323.303C340.636 323.853 338.364 322.472 337.815 320.219L327.426 277.623C326.876 275.37 328.257 273.098 330.51 272.548ZM372.394 267.406C374.706 267.228 376.725 268.958 376.902 271.271L378.98 298.283C379.158 300.595 377.428 302.614 375.116 302.792C372.803 302.969 370.785 301.239 370.607 298.927L368.529 271.915C368.351 269.603 370.082 267.584 372.394 267.406Z" fill="white"/>
<path fill-rule="evenodd" clip-rule="evenodd" d="M274.432 287.236L276.397 288.327L259.161 234.42C259.139 234.353 259.119 234.285 259.099 234.217C256.133 224.051 254.156 212.516 255.206 202.475C256.265 192.343 260.798 181.744 272.479 178.087C282.623 174.911 292.395 177.652 299.987 183.221C307.449 188.696 313.134 197.082 315.868 206.329L324.314 231.816L328.315 242.071C331.298 239.309 335.115 236.573 339.73 234.895C346.535 232.422 354.522 232.467 362.976 237.029C363.96 237.56 365.299 237.52 366.294 236.884C376.225 230.531 386.781 230.47 395.478 234.556C403.934 238.528 410.447 246.316 413.096 255.404C424.092 293.085 423.961 320.827 414.383 341.183C404.704 361.758 386.345 372.786 365.581 379.289C345.665 385.523 306.201 393.831 278.004 362.926C270.886 355.125 261.688 348.971 252.723 343.463C251.284 342.579 249.819 341.692 248.367 340.814C245.473 339.062 242.632 337.343 240.15 335.736C236.456 333.346 232.711 330.685 229.989 327.701C224.835 322.053 221.698 314.745 222.093 307.021C222.498 299.124 226.54 291.96 233.575 286.809C241.101 281.299 249.887 280.689 256.959 281.591C264.067 282.498 270.482 285.044 274.432 287.236ZM316.964 234.659L322.868 249.792C324.108 252.972 328.653 253.396 330.884 250.862C336.421 244.568 346.373 237.23 359.352 244.234C362.814 246.102 367.093 245.921 370.414 243.796C385.723 234.005 401.585 244.024 405.593 257.755C427.092 331.438 402.829 359.138 363.311 371.512C343.552 377.698 308.466 384.484 283.704 357.346C274.418 347.168 262.255 339.808 252.178 333.71C245.053 329.399 238.972 325.719 235.689 322.121C227.763 313.434 227.442 301.249 238.102 293.444C248.763 285.638 264.295 290.827 270.727 294.397L290.025 305.108L266.606 231.866C260.961 212.518 259.929 190.504 274.748 185.864C289.567 181.224 303.926 193.481 308.405 208.832L316.964 234.659Z" fill="#08665B"/>
</svg>
