<svg width="332" height="386" viewBox="0 0 332 386" fill="none" xmlns="http://www.w3.org/2000/svg">
<path d="M52.2306 271.118C21.2346 217.312 0.568101 144.581 0.500169 43.6485C53.3957 43.5066 112.58 20.9099 154.052 5.07566C158.221 3.48406 162.21 1.96077 165.997 0.535486C171.708 2.76821 177.884 5.37642 184.535 8.18498C219.747 23.055 268.259 43.5412 331.5 43.6488C331.431 144.278 310.524 217.16 279.407 271.118C248.305 325.051 206.983 360.112 166 385.081C124.535 359.81 83.2125 324.9 52.2306 271.118Z" fill="#0F8F85" stroke="white"/>
<path d="M74.3687 188.106L135.456 249.807L257.631 126.458" fill="#0F8F85"/>
<path d="M74.3687 188.106L135.456 249.807L257.631 126.458" stroke="white" stroke-width="33"/>
</svg>
