<svg width="506" height="506" viewBox="0 0 506 506" fill="none" xmlns="http://www.w3.org/2000/svg">
<circle cx="253" cy="253" r="253" fill="#0F8F85"/>
<path d="M196.644 194.575H122.169C117.779 194.575 113.57 192.831 110.466 189.728C107.362 186.624 105.619 182.414 105.619 178.025V103.55C105.619 99.1607 107.362 94.9511 110.466 91.8474C113.57 88.7437 117.779 87 122.169 87C126.558 87 130.768 88.7437 133.871 91.8474C136.975 94.9511 138.719 99.1607 138.719 103.55V161.475H196.644C201.033 161.475 205.243 163.219 208.346 166.322C211.45 169.426 213.194 173.636 213.194 178.025C213.194 182.414 211.45 186.624 208.346 189.728C205.243 192.831 201.033 194.575 196.644 194.575Z" fill="white"/>
<path d="M401.45 269.05C397.061 269.05 392.851 267.307 389.747 264.203C386.644 261.099 384.9 256.89 384.9 252.5C384.913 223.365 375.308 195.04 357.577 171.92C339.847 148.801 314.981 132.18 286.839 124.637C258.696 117.094 228.851 119.051 201.935 130.203C175.018 141.356 152.535 161.081 137.974 186.317C135.775 190.116 132.157 192.886 127.916 194.017C123.674 195.148 119.157 194.548 115.358 192.349C111.56 190.15 108.79 186.532 107.658 182.291C106.527 178.05 107.127 173.533 109.326 169.734C127.535 138.193 155.644 113.544 189.292 99.6096C222.941 85.6752 260.247 83.2348 295.424 92.6669C330.6 102.099 361.681 122.876 383.844 151.776C406.007 180.675 418.013 216.081 418 252.5C418 256.89 416.256 261.099 413.153 264.203C410.049 267.307 405.839 269.05 401.45 269.05ZM382.831 418C378.442 418 374.232 416.257 371.129 413.153C368.025 410.049 366.281 405.84 366.281 401.45V343.525H308.356C303.967 343.525 299.757 341.782 296.654 338.678C293.55 335.574 291.806 331.365 291.806 326.975C291.806 322.586 293.55 318.376 296.654 315.273C299.757 312.169 303.967 310.425 308.356 310.425H382.831C387.221 310.425 391.43 312.169 394.534 315.273C397.638 318.376 399.381 322.586 399.381 326.975V401.45C399.381 405.84 397.638 410.049 394.534 413.153C391.43 416.257 387.221 418 382.831 418Z" fill="white"/>
<path d="M252.5 418C208.623 417.948 166.558 400.494 135.532 369.468C104.506 338.442 87.0526 296.377 87 252.5C87 248.111 88.7437 243.901 91.8474 240.798C94.9511 237.694 99.1607 235.95 103.55 235.95C107.939 235.95 112.149 237.694 115.253 240.798C118.356 243.901 120.1 248.111 120.1 252.5C120.087 281.636 129.692 309.961 147.422 333.08C165.153 356.2 190.019 372.82 218.161 380.363C246.304 387.906 276.149 385.95 303.065 374.797C329.982 363.645 352.465 343.92 367.026 318.684C368.115 316.803 369.563 315.154 371.289 313.833C373.015 312.512 374.984 311.544 377.084 310.984C379.184 310.423 381.374 310.282 383.529 310.568C385.683 310.855 387.76 311.562 389.641 312.651C391.522 313.74 393.171 315.189 394.492 316.915C395.813 318.64 396.781 320.61 397.341 322.71C397.902 324.81 398.043 326.999 397.757 329.154C397.47 331.309 396.763 333.386 395.674 335.267C381.118 360.364 360.24 381.21 335.119 395.726C309.999 410.242 281.513 417.922 252.5 418Z" fill="white"/>
</svg>
