<svg width="256" height="192" viewBox="0 0 256 192" fill="none" xmlns="http://www.w3.org/2000/svg">
<path d="M256 0H0V192H256V0ZM245.333 181.333H10.6667V10.6667H245.333V181.333Z" fill="#0F8F85"/>
<path d="M117.333 106.55C117.333 93.4478 107.877 82.5659 95.4613 80.2868C99.0773 75.7179 101.333 70.0202 101.333 63.75C101.333 49 89.3707 37 74.6667 37C59.9627 37 48 49 48 63.75C48 70.0202 50.2507 75.7179 53.872 80.2868C41.456 82.5659 32 93.4478 32 106.55V144H117.333V106.55ZM74.6667 47.7C83.488 47.7 90.6667 54.9011 90.6667 63.75C90.6667 72.5989 83.488 79.8 74.6667 79.8C65.8453 79.8 58.6667 72.5989 58.6667 63.75C58.6667 54.9011 65.8453 47.7 74.6667 47.7ZM106.667 133.3H42.6667V106.55C42.6667 97.7011 49.8453 90.5 58.6667 90.5H90.6667C99.488 90.5 106.667 97.7011 106.667 106.55V133.3ZM133.333 53.05H170.667V63.75H133.333V53.05ZM186.667 53.05H224V63.75H186.667V53.05ZM133.333 79.8H149.333V90.5H133.333V79.8ZM165.333 79.8H224V90.5H165.333V79.8ZM133.333 106.55H176V117.25H133.333V106.55ZM202.667 106.55H224V117.25H202.667V106.55ZM133.333 133.3H144V144H133.333V133.3ZM154.667 133.3H165.333V144H154.667V133.3ZM176 133.3H186.667V144H176V133.3ZM213.333 133.3H224V144H213.333V133.3Z" fill="#0F8F85"/>
<path d="M256 0H0V192H256V0ZM245.333 181.333H10.6667V10.6667H245.333V181.333Z" fill="#0F8F85"/>
<path d="M117.333 106.55C117.333 93.4478 107.877 82.5659 95.4613 80.2868C99.0773 75.7179 101.333 70.0202 101.333 63.75C101.333 49 89.3707 37 74.6667 37C59.9627 37 48 49 48 63.75C48 70.0202 50.2507 75.7179 53.872 80.2868C41.456 82.5659 32 93.4478 32 106.55V144H117.333V106.55ZM74.6667 47.7C83.488 47.7 90.6667 54.9011 90.6667 63.75C90.6667 72.5989 83.488 79.8 74.6667 79.8C65.8453 79.8 58.6667 72.5989 58.6667 63.75C58.6667 54.9011 65.8453 47.7 74.6667 47.7ZM106.667 133.3H42.6667V106.55C42.6667 97.7011 49.8453 90.5 58.6667 90.5H90.6667C99.488 90.5 106.667 97.7011 106.667 106.55V133.3ZM133.333 53.05H170.667V63.75H133.333V53.05ZM186.667 53.05H224V63.75H186.667V53.05ZM133.333 79.8H149.333V90.5H133.333V79.8ZM165.333 79.8H224V90.5H165.333V79.8ZM133.333 106.55H176V117.25H133.333V106.55ZM202.667 106.55H224V117.25H202.667V106.55ZM133.333 133.3H144V144H133.333V133.3ZM154.667 133.3H165.333V144H154.667V133.3ZM176 133.3H186.667V144H176V133.3ZM213.333 133.3H224V144H213.333V133.3Z" fill="#0F8F85"/>
</svg>
