<?xml version="1.0" encoding="UTF-8"?>
<!DOCTYPE svg PUBLIC "-//W3C//DTD SVG 1.1//EN" "http://www.w3.org/Graphics/SVG/1.1/DTD/svg11.dtd">
<!-- Creator: CorelDRAW 2021 (64-Bit) -->
<svg xmlns="http://www.w3.org/2000/svg" xml:space="preserve" width="7.21534in" height="5.9992in" version="1.1" style="shape-rendering:geometricPrecision; text-rendering:geometricPrecision; image-rendering:optimizeQuality; fill-rule:evenodd; clip-rule:evenodd"
viewBox="0 0 1363.15 1133.39"
 xmlns:xlink="http://www.w3.org/1999/xlink"
 xmlns:xodm="http://www.corel.com/coreldraw/odm/2003">
 <defs>
  <style type="text/css">
   <![CDATA[
    .fil33 {fill:#00544D;fill-rule:nonzero}
    .fil28 {fill:#1A736C;fill-rule:nonzero}
    .fil4 {fill:#263238;fill-rule:nonzero}
    .fil6 {fill:#27DEBF;fill-rule:nonzero}
    .fil2 {fill:#37474F;fill-rule:nonzero}
    .fil3 {fill:#455A64;fill-rule:nonzero}
    .fil30 {fill:#4D928D;fill-rule:nonzero}
    .fil0 {fill:#F0F0F0;fill-rule:nonzero}
    .fil1 {fill:#F0F0F0;fill-rule:nonzero}
    .fil36 {fill:#F28F8F;fill-rule:nonzero}
    .fil5 {fill:#FAFAFA;fill-rule:nonzero}
    .fil34 {fill:#FFA8A7;fill-rule:nonzero}
    .fil20 {fill:white;fill-rule:nonzero}
    .fil18 {fill:#455A64;fill-rule:nonzero;fill-opacity:0.050980}
    .fil37 {fill:#00544D;fill-rule:nonzero;fill-opacity:0.101961}
    .fil10 {fill:#27DEBF;fill-rule:nonzero;fill-opacity:0.101961}
    .fil24 {fill:white;fill-rule:nonzero;fill-opacity:0.101961}
    .fil13 {fill:black;fill-rule:nonzero;fill-opacity:0.149020}
    .fil19 {fill:#27DEBF;fill-rule:nonzero;fill-opacity:0.149020}
    .fil27 {fill:black;fill-rule:nonzero;fill-opacity:0.200000}
    .fil29 {fill:#00453F;fill-rule:nonzero;fill-opacity:0.200000}
    .fil15 {fill:#27DEBF;fill-rule:nonzero;fill-opacity:0.200000}
    .fil31 {fill:#4D928D;fill-rule:nonzero;fill-opacity:0.200000}
    .fil17 {fill:white;fill-rule:nonzero;fill-opacity:0.200000}
    .fil35 {fill:black;fill-rule:nonzero;fill-opacity:0.250980}
    .fil38 {fill:#00453F;fill-rule:nonzero;fill-opacity:0.250980}
    .fil14 {fill:white;fill-rule:nonzero;fill-opacity:0.250980}
    .fil22 {fill:black;fill-rule:nonzero;fill-opacity:0.301961}
    .fil9 {fill:white;fill-rule:nonzero;fill-opacity:0.301961}
    .fil26 {fill:white;fill-rule:nonzero;fill-opacity:0.349020}
    .fil23 {fill:#455A64;fill-rule:nonzero;fill-opacity:0.501961}
    .fil25 {fill:#4D928D;fill-rule:nonzero;fill-opacity:0.501961}
    .fil11 {fill:white;fill-rule:nonzero;fill-opacity:0.501961}
    .fil32 {fill:#1A736C;fill-rule:nonzero;fill-opacity:0.600000}
    .fil16 {fill:white;fill-rule:nonzero;fill-opacity:0.600000}
    .fil12 {fill:white;fill-rule:nonzero;fill-opacity:0.701961}
    .fil8 {fill:white;fill-rule:nonzero;fill-opacity:0.800000}
    .fil21 {fill:white;fill-rule:nonzero;fill-opacity:0.850980}
    .fil7 {fill:white;fill-rule:nonzero;fill-opacity:0.901961}
   ]]>
  </style>
 </defs>
 <g id="Layer_x0020_1">
  <metadata id="CorelCorpID_0Corel-Layer"/>
  <g id="Shadows">
   <ellipse id="Shadow_8_" class="fil0" cx="1089.63" cy="1029.93" rx="179.21" ry="103.47"/>
   <path id="Shadow_6_" class="fil1" d="M1318.19 1039.9l42.16 -24.34c3.74,-2.16 3.74,-5.66 0,-7.82l-138.87 -80.18c-3.74,-2.16 -9.8,-2.16 -13.54,0l-42.15 24.34c-3.74,2.16 -3.74,5.66 0,7.82l138.87 80.18c3.74,2.16 9.8,2.16 13.54,0z"/>
   <path id="Shadow_30_" class="fil1" d="M391.09 1087.44l-380.25 -219.54c-14.45,-8.34 -14.45,-21.99 0,-30.33l577.33 -333.28c5.95,-3.43 15.68,-3.43 21.63,0l403.43 232.92c1.71,0.99 1.71,2.58 0,3.57l-600.51 346.66c-5.95,3.43 -15.68,3.43 -21.63,0z"/>
  </g>
  <path id="XMLID_5482_" class="fil2" d="M56.62 852.55c0,8.77 6.56,19.66 14.66,24.34l319.09 184.26c8.09,4.67 21.22,4.67 29.31,0l561.88 -324.4c8.09,-4.67 14.66,-15.57 14.66,-24.34 0,-8.77 -6.56,-19.67 -14.66,-24.34l-319.09 -184.26c-8.09,-4.67 -21.22,-4.67 -29.31,0l-561.89 324.4c-8.09,4.67 -14.66,15.57 -14.66,24.34z"/>
  <path id="XMLID_5480_" class="fil3" d="M71.28 845.13l319.09 184.26c8.09,4.67 21.22,4.67 29.31,0l561.88 -324.4c8.09,-4.67 8.09,-12.25 0,-16.92l-319.09 -184.26c-8.09,-4.67 -21.22,-4.67 -29.31,0l-561.88 324.4c-8.09,4.67 -8.09,12.25 0,16.92z"/>
  <path id="XMLID_5466_" class="fil4" d="M405.03 1032.93l0 31.72c-5.32,0 -10.63,-1.15 -14.66,-3.48l-319.1 -184.27c-8.09,-4.67 -14.66,-15.57 -14.66,-24.33 0,-8.22 5.79,-18.31 13.16,-23.39 -6.56,4.71 -6.06,11.61 1.49,15.98l319.1 184.27c4.03,2.33 9.34,3.52 14.66,3.52z"/>
  <path id="XMLID_5465_" class="fil2" d="M42.88 828.73c-7.59,-4.38 -7.18,-11.79 -7.18,-21.13l-0 -440.74c0,-9.35 6.56,-20.71 14.66,-25.39l561.87 -324.4c8.09,-4.67 20.81,-4.91 28.4,-0.52 7.6,4.38 7.18,11.79 7.18,21.13l0 440.74c0,9.35 -6.56,20.71 -14.66,25.39l-561.88 324.4c-8.09,4.67 -20.81,4.91 -28.4,0.52z"/>
  <path id="XMLID_5464_" class="fil3" d="M647.82 37.68c0,-9.33 -6.57,-13.11 -14.66,-8.46l-561.89 324.41c-4.05,2.34 -7.72,6.36 -10.35,10.96l-20.91 -12.17 -0.03 0c2.65,-4.6 6.33,-8.62 10.38,-10.96l561.86 -324.39c8.09,-4.68 20.81,-4.91 28.4,-0.53 7.59,4.39 7.2,11.8 7.2,21.13z"/>
  <path id="XMLID_5462_" class="fil4" d="M69.55 829.09c-8.09,3.79 -19.6,3.72 -26.67,-0.37 -7.58,-4.36 -7.17,-11.77 -7.17,-21.11l0 -440.76c0,-4.67 1.63,-9.85 4.3,-14.42l20.91 12.11 0 0.03c-2.64,4.6 -4.3,9.75 -4.3,14.42l0 440.76c0,8.66 5.66,12.55 12.93,9.34z"/>
  <path id="XMLID_5461_" class="fil5" d="M79.16 370.53l541.72 -312.68c4.86,-2.8 8.79,-0.53 8.79,5.08l0 384.74c0,5.61 -3.94,12.43 -8.79,15.23l-541.72 312.68c-4.86,2.8 -8.79,0.53 -8.79,-5.08l0 -384.73c0,-5.61 3.94,-12.43 8.79,-15.23z"/>
  <path id="XMLID_5460_" class="fil4" d="M111.84 829.08l521.54 -301.11c4.05,-2.34 10.61,-2.34 14.66,0l8.68 4.77c4.05,2.34 4.05,6.12 0,8.46l-521.62 301.06c-4.05,2.33 -10.61,2.33 -14.66,0l-8.6 -4.72c-4.05,-2.33 -4.05,-6.12 0,-8.46z"/>
  <g id="XMLID_374_">
   <path id="XMLID_5459_" class="fil4" d="M152.74 853.4l521.54 -301.11c4.05,-2.34 10.04,-2.66 13.39,-0.73l135.75 78.38c3.35,1.93 2.78,5.4 -1.27,7.73l-520.93 300.7c-4.05,2.33 -10.05,2.67 -13.41,0.75l-136.32 -78.01c-3.36,-1.92 -2.8,-5.37 1.25,-7.71z"/>
   <path id="XMLID_5268_" class="fil3" d="M604.66 678.76l16.33 -9.43c0.69,-0.4 0.76,-1.01 0.14,-1.37l-15.62 -9.02c-0.62,-0.36 -1.68,-0.32 -2.37,0.08l-16.33 9.43c-0.69,0.4 -0.75,1.01 -0.14,1.37l15.62 9.02c0.61,0.36 1.68,0.32 2.37,-0.08zm-23.84 -32.62l-16.33 9.43c-0.69,0.4 -0.75,1.01 -0.14,1.37l15.62 9.02c0.62,0.36 1.68,0.32 2.37,-0.08l16.33 -9.43c0.69,-0.4 0.76,-1.01 0.14,-1.37l-15.62 -9.02c-0.61,-0.35 -1.67,-0.32 -2.37,0.08zm-52.76 30.46l-27.63 15.96c-0.69,0.4 -0.75,1.01 -0.14,1.37l15.62 9.02c0.62,0.36 1.68,0.32 2.37,-0.08l27.63 -15.95c0.69,-0.4 0.76,-1.01 0.14,-1.37l-15.62 -9.02c-0.61,-0.36 -1.68,-0.32 -2.37,0.08zm28.89 -16.68l-16.33 9.43c-0.69,0.4 -0.76,1.01 -0.14,1.37l15.62 9.02c0.62,0.36 1.68,0.32 2.37,-0.08l16.33 -9.43c0.69,-0.4 0.76,-1.01 0.14,-1.37l-15.62 -9.02c-0.61,-0.36 -1.68,-0.33 -2.37,0.07zm-64.06 36.99l-16.33 9.43c-0.69,0.4 -0.76,1.01 -0.14,1.37l15.62 9.02c0.62,0.36 1.68,0.32 2.37,-0.08l16.33 -9.43c0.69,-0.4 0.75,-1.01 0.14,-1.37l-15.62 -9.02c-0.62,-0.36 -1.68,-0.32 -2.37,0.08zm-23.87 13.78l-16.33 9.43c-0.69,0.4 -0.75,1.01 -0.14,1.37l15.62 9.02c0.62,0.36 1.68,0.32 2.37,-0.08l16.33 -9.43c0.69,-0.4 0.75,-1.01 0.14,-1.37l-15.62 -9.02c-0.61,-0.36 -1.67,-0.33 -2.37,0.08zm61.23 36.81l16.33 -9.43c0.69,-0.4 0.75,-1.01 0.14,-1.37l-15.62 -9.02c-0.62,-0.36 -1.68,-0.32 -2.37,0.08l-16.33 9.43c-0.69,0.4 -0.76,1.01 -0.14,1.37l15.62 9.02c0.61,0.36 1.68,0.32 2.37,-0.08zm-23.87 13.78l16.33 -9.43c0.69,-0.4 0.75,-1.01 0.14,-1.37l-15.62 -9.02c-0.62,-0.36 -1.68,-0.32 -2.37,0.08l-16.33 9.43c-0.69,0.4 -0.76,1.01 -0.14,1.37l15.62 9.02c0.62,0.36 1.68,0.32 2.38,-0.08zm-23.87 13.78l16.33 -9.43c0.69,-0.4 0.75,-1.01 0.14,-1.37l-15.62 -9.02c-0.62,-0.36 -1.68,-0.32 -2.37,0.08l-16.33 9.43c-0.69,0.4 -0.75,1.01 -0.14,1.37l15.62 9.02c0.62,0.36 1.68,0.33 2.37,-0.07zm-23.87 13.78l16.33 -9.43c0.69,-0.4 0.75,-1.01 0.14,-1.37l-15.62 -9.02c-0.62,-0.36 -1.68,-0.32 -2.37,0.08l-16.33 9.43c-0.69,0.4 -0.76,1.01 -0.14,1.37l15.62 9.02c0.62,0.36 1.68,0.32 2.37,-0.08zm122.14 -96.28l16.33 -9.43c0.69,-0.4 0.75,-1.01 0.14,-1.37l-15.62 -9.02c-0.62,-0.36 -1.68,-0.32 -2.37,0.08l-16.33 9.43c-0.69,0.4 -0.76,1.01 -0.14,1.37l15.62 9.02c0.61,0.36 1.68,0.32 2.37,-0.08zm-26.67 41.17l36.43 -21.03c0.69,-0.4 0.75,-1.01 0.14,-1.37l-37.94 -21.9c-0.62,-0.36 -1.68,-0.32 -2.37,0.08l-18.84 10.88c-0.69,0.4 -0.76,1.01 -0.14,1.37l20.09 11.59c0.62,0.36 0.55,0.97 -0.14,1.37l-15.07 8.7c-0.69,0.4 -0.76,1.01 -0.14,1.37l15.62 9.02c0.62,0.36 1.68,0.32 2.38,-0.08zm-108.96 -9.25l-16.33 9.43c-0.69,0.4 -0.75,1.01 -0.14,1.37l15.62 9.02c0.62,0.36 1.68,0.32 2.37,-0.08l16.33 -9.43c0.69,-0.4 0.75,-1.01 0.14,-1.37l-15.62 -9.02c-0.62,-0.35 -1.68,-0.32 -2.37,0.08zm-23.87 13.78l-16.33 9.43c-0.69,0.4 -0.76,1.01 -0.14,1.37l15.62 9.02c0.62,0.36 1.68,0.32 2.37,-0.08l16.33 -9.43c0.69,-0.4 0.76,-1.01 0.14,-1.37l-15.62 -9.02c-0.62,-0.36 -1.68,-0.32 -2.37,0.08zm-132.07 147.12c0.62,0.36 1.68,0.32 2.37,-0.08l16.33 -9.43c0.69,-0.4 0.75,-1.01 0.14,-1.37l-15.62 -9.02c-0.62,-0.36 -1.68,-0.32 -2.37,0.08l-16.33 9.43c-0.69,0.4 -0.75,1.01 -0.14,1.37l15.62 9.02zm-58.86 -36.89l-16.33 9.43c-0.69,0.4 -0.76,1.01 -0.14,1.37l15.62 9.02c0.62,0.36 1.68,0.32 2.37,-0.08l16.33 -9.43c0.69,-0.4 0.75,-1.01 0.14,-1.37l-15.62 -9.02c-0.62,-0.36 -1.68,-0.33 -2.37,0.08zm30.26 27.63c0.62,0.36 1.68,0.32 2.37,-0.08l16.33 -9.43c0.69,-0.4 0.75,-1.01 0.14,-1.37l-15.62 -9.02c-0.62,-0.36 -1.68,-0.32 -2.37,0.08l-16.33 9.43c-0.69,0.4 -0.76,1.01 -0.14,1.37l15.62 9.02zm65.85 14.81l16.33 -9.43c0.69,-0.4 0.76,-1.01 0.14,-1.37l-15.62 -9.02c-0.62,-0.35 -1.68,-0.32 -2.37,0.08l-16.33 9.43c-0.69,0.4 -0.75,1.01 -0.14,1.37l15.62 9.02c0.62,0.35 1.68,0.32 2.37,-0.08zm-26.24 13.86c0.62,0.36 1.68,0.32 2.37,-0.08l16.33 -9.43c0.69,-0.4 0.75,-1.01 0.14,-1.37l-15.62 -9.02c-0.62,-0.36 -1.68,-0.32 -2.37,0.08l-16.33 9.43c-0.69,0.4 -0.75,1.01 -0.14,1.37l15.62 9.02zm-46.01 -70.08l-16.33 9.43c-0.69,0.4 -0.75,1.01 -0.14,1.37l15.62 9.02c0.62,0.36 1.68,0.32 2.37,-0.08l16.33 -9.43c0.69,-0.4 0.76,-1.01 0.14,-1.37l-15.62 -9.02c-0.62,-0.36 -1.68,-0.32 -2.37,0.08zm119.33 -68.89l-16.33 9.43c-0.69,0.4 -0.75,1.01 -0.14,1.37l15.62 9.02c0.62,0.36 1.68,0.32 2.37,-0.08l16.33 -9.43c0.69,-0.4 0.75,-1.01 0.14,-1.37l-15.62 -9.02c-0.62,-0.36 -1.68,-0.32 -2.38,0.08zm-95.46 55.12l-16.33 9.43c-0.69,0.4 -0.75,1.01 -0.14,1.37l15.62 9.02c0.62,0.36 1.68,0.32 2.37,-0.08l16.33 -9.43c0.69,-0.4 0.75,-1.01 0.14,-1.37l-15.62 -9.02c-0.62,-0.36 -1.68,-0.32 -2.37,0.08zm119.33 -68.9l-16.33 9.43c-0.69,0.4 -0.75,1.01 -0.14,1.37l15.62 9.02c0.62,0.36 1.68,0.32 2.37,-0.08l16.33 -9.43c0.69,-0.4 0.76,-1.01 0.14,-1.37l-15.62 -9.02c-0.62,-0.35 -1.68,-0.32 -2.38,0.08zm-47.73 27.56l-16.33 9.43c-0.69,0.4 -0.76,1.01 -0.14,1.37l15.62 9.02c0.61,0.36 1.68,0.32 2.37,-0.08l16.33 -9.43c0.69,-0.4 0.76,-1.01 0.14,-1.37l-15.62 -9.02c-0.62,-0.35 -1.68,-0.32 -2.37,0.08zm-23.87 13.78l-16.33 9.43c-0.69,0.4 -0.76,1.01 -0.14,1.37l15.62 9.02c0.62,0.36 1.68,0.32 2.37,-0.08l16.33 -9.43c0.69,-0.4 0.75,-1.01 0.14,-1.37l-15.62 -9.02c-0.62,-0.36 -1.68,-0.32 -2.37,0.08zm-23.87 13.78l-16.33 9.43c-0.69,0.4 -0.76,1.01 -0.14,1.37l15.62 9.02c0.62,0.36 1.68,0.32 2.37,-0.08l16.33 -9.43c0.69,-0.4 0.75,-1.01 0.14,-1.37l-15.62 -9.02c-0.62,-0.35 -1.68,-0.31 -2.37,0.08zm108.96 9.25l16.33 -9.43c0.69,-0.4 0.76,-1.01 0.14,-1.37l-15.62 -9.02c-0.62,-0.36 -1.68,-0.32 -2.37,0.08l-16.33 9.43c-0.69,0.4 -0.75,1.01 -0.14,1.37l15.62 9.02c0.61,0.36 1.68,0.32 2.37,-0.08zm222.65 -200.7l-16.33 9.43c-0.69,0.4 -0.75,1.01 -0.14,1.37l15.62 9.02c0.62,0.36 1.68,0.32 2.37,-0.08l16.33 -9.43c0.69,-0.4 0.75,-1.01 0.14,-1.37l-15.62 -9.02c-0.62,-0.35 -1.68,-0.32 -2.37,0.08zm-28.89 16.68l-16.33 9.43c-0.69,0.4 -0.75,1.01 -0.14,1.37l15.62 9.02c0.62,0.36 1.68,0.32 2.37,-0.08l16.33 -9.43c0.69,-0.4 0.75,-1.01 0.14,-1.37l-15.62 -9.02c-0.62,-0.36 -1.68,-0.32 -2.38,0.08zm52.76 -30.46l-16.33 9.43c-0.69,0.4 -0.75,1.01 -0.14,1.37l15.62 9.02c0.62,0.36 1.68,0.32 2.37,-0.08l16.33 -9.43c0.69,-0.4 0.76,-1.01 0.14,-1.37l-15.62 -9.02c-0.62,-0.35 -1.68,-0.32 -2.38,0.08zm-131.91 122.55l16.33 -9.43c0.69,-0.4 0.76,-1.01 0.14,-1.37l-15.62 -9.02c-0.62,-0.36 -1.68,-0.32 -2.37,0.08l-16.33 9.43c-0.69,0.4 -0.75,1.01 -0.14,1.37l15.62 9.02c0.62,0.35 1.68,0.32 2.37,-0.08zm158.15 -136.41c-0.62,-0.36 -1.68,-0.32 -2.37,0.08l-16.33 9.43c-0.69,0.4 -0.76,1.01 -0.14,1.37l15.62 9.02c0.62,0.36 1.68,0.32 2.37,-0.08l16.33 -9.43c0.69,-0.4 0.76,-1.01 0.14,-1.37l-15.62 -9.02zm-248.89 214.57l16.33 -9.43c0.69,-0.4 0.75,-1.01 0.14,-1.37l-15.62 -9.02c-0.62,-0.36 -1.68,-0.32 -2.37,0.08l-16.33 9.43c-0.69,0.4 -0.75,1.01 -0.14,1.37l15.62 9.02c0.62,0.35 1.68,0.31 2.38,-0.08zm292.67 -168.98l16.33 -9.43c0.69,-0.4 0.76,-1.01 0.14,-1.37l-15.62 -9.02c-0.62,-0.36 -1.68,-0.32 -2.37,0.08l-16.33 9.43c-0.69,0.4 -0.76,1.01 -0.14,1.37l15.62 9.02c0.62,0.36 1.68,0.32 2.38,-0.08zm-46.18 0.9l16.33 -9.43c0.69,-0.4 0.75,-1.01 0.14,-1.37l-15.62 -9.02c-0.61,-0.36 -1.68,-0.32 -2.37,0.08l-16.33 9.43c-0.69,0.4 -0.76,1.01 -0.14,1.37l15.62 9.02c0.61,0.36 1.68,0.32 2.37,-0.08zm24.71 -33.6c-0.61,-0.36 -1.68,-0.32 -2.37,0.08l-16.33 9.43c-0.69,0.4 -0.75,1.01 -0.14,1.37l15.62 9.02c0.62,0.36 1.68,0.32 2.37,-0.08l16.33 -9.43c0.69,-0.4 0.76,-1.01 0.14,-1.37l-15.62 -9.02zm5.03 -2.9l37.94 21.9c0.62,0.36 1.68,0.32 2.37,-0.08l16.33 -9.43c0.69,-0.4 0.76,-1.01 0.14,-1.37l-37.94 -21.9c-0.62,-0.36 -1.68,-0.32 -2.37,0.08l-16.33 9.43c-0.69,0.4 -0.75,1.02 -0.14,1.37zm-55.13 30.54l-16.33 9.43c-0.69,0.4 -0.76,1.01 -0.14,1.37l15.62 9.02c0.62,0.36 1.68,0.32 2.37,-0.08l16.33 -9.43c0.69,-0.4 0.76,-1.01 0.14,-1.37l-15.62 -9.02c-0.62,-0.36 -1.68,-0.32 -2.37,0.08zm-179.62 103.71l-16.33 9.43c-0.69,0.4 -0.76,1.01 -0.14,1.37l15.62 9.02c0.62,0.36 1.68,0.32 2.37,-0.08l16.33 -9.43c0.69,-0.4 0.75,-1.01 0.14,-1.37l-15.62 -9.02c-0.61,-0.36 -1.68,-0.32 -2.37,0.08zm224.96 -84.78c0.61,0.36 1.68,0.32 2.37,-0.08l16.33 -9.43c0.69,-0.4 0.76,-1.01 0.14,-1.37l-15.62 -9.02c-0.61,-0.36 -1.68,-0.32 -2.37,0.08l-16.33 9.43c-0.69,0.4 -0.76,1.01 -0.14,1.37l15.62 9.02zm-201.09 71l-16.33 9.43c-0.69,0.4 -0.75,1.01 -0.14,1.37l15.62 9.02c0.62,0.36 1.68,0.32 2.37,-0.08l16.33 -9.43c0.69,-0.4 0.76,-1.01 0.14,-1.37l-15.62 -9.02c-0.62,-0.36 -1.68,-0.32 -2.37,0.08zm-187.04 153.09c0.62,0.36 1.68,0.32 2.37,-0.08l16.33 -9.43c0.69,-0.4 0.75,-1.01 0.14,-1.37l-15.62 -9.02c-0.62,-0.36 -1.68,-0.32 -2.37,0.08l-16.33 9.43c-0.69,0.4 -0.76,1.01 -0.14,1.37l15.62 9.02zm-27.75 -29.07l-16.33 9.43c-0.69,0.4 -0.75,1.01 -0.14,1.37l15.62 9.02c0.62,0.36 1.68,0.32 2.37,-0.08l16.33 -9.43c0.69,-0.4 0.75,-1.01 0.14,-1.37l-15.62 -9.02c-0.61,-0.35 -1.68,-0.32 -2.37,0.08zm53.99 15.22l16.33 -9.43c0.69,-0.4 0.76,-1.01 0.14,-1.37l-15.62 -9.02c-0.62,-0.36 -1.68,-0.32 -2.37,0.08l-16.33 9.43c-0.69,0.4 -0.75,1.01 -0.14,1.37l15.62 9.02c0.62,0.36 1.68,0.33 2.37,-0.08zm23.87 -13.78l16.33 -9.43c0.69,-0.4 0.76,-1.01 0.14,-1.37l-15.62 -9.02c-0.61,-0.36 -1.68,-0.32 -2.37,0.08l-16.33 9.43c-0.69,0.4 -0.76,1.01 -0.14,1.37l15.62 9.02c0.62,0.36 1.68,0.32 2.37,-0.08zm23.87 -13.78l16.33 -9.43c0.69,-0.4 0.76,-1.01 0.14,-1.37l-15.62 -9.02c-0.62,-0.36 -1.68,-0.32 -2.37,0.08l-16.33 9.43c-0.69,0.4 -0.76,1.01 -0.14,1.37l15.62 9.02c0.62,0.35 1.68,0.32 2.37,-0.08zm-77.86 -1.44l-16.33 9.43c-0.69,0.4 -0.75,1.01 -0.14,1.37l15.62 9.02c0.62,0.36 1.68,0.32 2.37,-0.08l16.33 -9.43c0.69,-0.4 0.76,-1.01 0.14,-1.37l-15.62 -9.02c-0.62,-0.36 -1.68,-0.32 -2.38,0.08zm23.87 -13.78l-16.33 9.43c-0.69,0.4 -0.76,1.01 -0.14,1.37l15.62 9.02c0.62,0.36 1.68,0.32 2.37,-0.08l16.33 -9.43c0.69,-0.4 0.75,-1.01 0.14,-1.37l-15.62 -9.02c-0.62,-0.36 -1.68,-0.32 -2.37,0.08zm95.47 -55.11l-16.33 9.43c-0.69,0.4 -0.75,1.01 -0.14,1.37l15.62 9.02c0.62,0.36 1.68,0.32 2.37,-0.08l16.33 -9.43c0.69,-0.4 0.76,-1.01 0.14,-1.37l-15.62 -9.02c-0.62,-0.36 -1.68,-0.32 -2.37,0.08zm-23.87 13.78l-16.33 9.43c-0.69,0.4 -0.76,1.01 -0.14,1.37l15.62 9.02c0.62,0.36 1.68,0.32 2.37,-0.08l16.33 -9.43c0.69,-0.4 0.76,-1.01 0.14,-1.37l-15.62 -9.02c-0.62,-0.36 -1.68,-0.32 -2.38,0.08zm47.73 -27.56l-16.33 9.43c-0.69,0.4 -0.76,1.01 -0.14,1.37l15.62 9.02c0.62,0.36 1.68,0.32 2.37,-0.08l16.33 -9.43c0.69,-0.4 0.75,-1.01 0.14,-1.37l-15.62 -9.02c-0.61,-0.35 -1.68,-0.31 -2.37,0.08zm-95.47 55.12l-16.33 9.43c-0.69,0.4 -0.76,1.01 -0.14,1.37l15.62 9.02c0.62,0.36 1.68,0.32 2.37,-0.08l16.33 -9.43c0.69,-0.4 0.76,-1.01 0.14,-1.37l-15.62 -9.02c-0.61,-0.35 -1.68,-0.32 -2.37,0.08zm23.87 -13.78l-16.33 9.43c-0.69,0.4 -0.76,1.01 -0.14,1.37l15.62 9.02c0.61,0.36 1.68,0.32 2.37,-0.08l16.33 -9.43c0.69,-0.4 0.76,-1.01 0.14,-1.37l-15.62 -9.02c-0.62,-0.35 -1.68,-0.31 -2.37,0.08zm-30.46 89.74l16.33 -9.43c0.69,-0.4 0.75,-1.01 0.14,-1.37l-15.62 -9.02c-0.62,-0.36 -1.68,-0.32 -2.37,0.08l-16.33 9.43c-0.69,0.4 -0.76,1.01 -0.14,1.37l15.62 9.02c0.62,0.35 1.68,0.32 2.38,-0.08zm-125.85 -5.94l-15.62 -9.02c-0.62,-0.36 -1.68,-0.32 -2.37,0.08l-16.33 9.43c-0.69,0.4 -0.75,1.01 -0.14,1.37l15.62 9.02c0.62,0.36 1.68,0.32 2.37,-0.08l16.33 -9.43c0.7,-0.41 0.76,-1.02 0.14,-1.37zm31.11 7.81l-15.62 -9.02c-0.62,-0.36 -1.68,-0.32 -2.37,0.08l-25.12 14.5c-0.69,0.4 -0.75,1.01 -0.14,1.37l15.62 9.02c0.62,0.36 1.68,0.32 2.37,-0.08l25.12 -14.5c0.69,-0.4 0.75,-1.01 0.14,-1.37zm-54.43 -25.62l-15.62 -9.02c-0.62,-0.36 -1.68,-0.32 -2.37,0.08l-20.1 11.6c-0.69,0.4 -0.76,1.01 -0.14,1.37l15.62 9.02c0.62,0.36 1.68,0.32 2.37,-0.08l20.1 -11.6c0.69,-0.4 0.75,-1.01 0.14,-1.37zm15.41 -8.9c0.61,0.36 1.68,0.32 2.37,-0.08l16.33 -9.43c0.69,-0.4 0.76,-1.01 0.14,-1.37l-15.62 -9.02c-0.62,-0.36 -1.68,-0.32 -2.37,0.08l-16.33 9.43c-0.69,0.4 -0.76,1.01 -0.14,1.37l15.62 9.02zm67.62 43.78l-15.62 -9.02c-0.62,-0.35 -1.68,-0.32 -2.37,0.08l-31.4 18.13c-0.69,0.4 -0.75,1.01 -0.14,1.37l15.62 9.02c0.62,0.36 1.68,0.32 2.37,-0.08l31.4 -18.13c0.69,-0.4 0.75,-1.01 0.14,-1.37zm11.01 19.41l-15.62 -9.02c-0.61,-0.36 -1.68,-0.32 -2.37,0.08l-20.1 11.6c-0.69,0.4 -0.76,1.01 -0.14,1.37l15.62 9.02c0.62,0.36 1.68,0.32 2.37,-0.08l20.1 -11.6c0.69,-0.4 0.76,-1.02 0.14,-1.37zm98.82 -165.64c0.62,0.36 1.68,0.32 2.37,-0.08l16.33 -9.43c0.69,-0.4 0.76,-1.01 0.14,-1.37l-15.62 -9.02c-0.62,-0.36 -1.68,-0.32 -2.37,0.08l-16.33 9.43c-0.69,0.4 -0.76,1.01 -0.14,1.37l15.62 9.02zm-47.73 27.56c0.62,0.36 1.68,0.32 2.37,-0.08l16.33 -9.43c0.69,-0.4 0.75,-1.01 0.14,-1.37l-15.62 -9.02c-0.62,-0.36 -1.68,-0.32 -2.37,0.08l-16.33 9.43c-0.69,0.4 -0.75,1.01 -0.14,1.37l15.62 9.02zm-105.85 61.11c0.62,0.36 1.68,0.32 2.37,-0.08l16.33 -9.43c0.69,-0.4 0.76,-1.01 0.14,-1.37l-15.62 -9.02c-0.62,-0.35 -1.68,-0.32 -2.37,0.08l-16.33 9.43c-0.69,0.4 -0.76,1.01 -0.14,1.37l15.62 9.02zm129.72 -74.89c0.62,0.36 1.68,0.32 2.37,-0.08l16.33 -9.43c0.69,-0.4 0.75,-1.01 0.14,-1.37l-15.62 -9.02c-0.62,-0.35 -1.68,-0.32 -2.37,0.08l-16.33 9.43c-0.69,0.4 -0.76,1.01 -0.14,1.37l15.62 9.02zm-47.73 27.56c0.62,0.35 1.68,0.32 2.37,-0.08l16.33 -9.43c0.69,-0.4 0.76,-1.01 0.14,-1.37l-15.62 -9.02c-0.62,-0.36 -1.68,-0.32 -2.37,0.08l-16.33 9.43c-0.69,0.4 -0.75,1.01 -0.14,1.37l15.62 9.02zm-15.5 125.26c-0.62,-0.36 -1.68,-0.32 -2.37,0.08l-25.12 14.5c-0.69,0.4 -0.76,1.01 -0.14,1.37l15.62 9.02c0.62,0.36 1.68,0.32 2.37,-0.08l25.12 -14.5c0.69,-0.4 0.75,-1.01 0.14,-1.37l-15.62 -9.02zm-18.75 -105.49c0.62,0.36 1.68,0.32 2.37,-0.08l16.33 -9.43c0.69,-0.4 0.76,-1.01 0.14,-1.37l-15.62 -9.02c-0.62,-0.36 -1.68,-0.32 -2.37,0.08l-16.33 9.43c-0.69,0.4 -0.75,1.01 -0.14,1.37l15.62 9.02zm-23.87 13.78c0.62,0.36 1.68,0.32 2.37,-0.08l16.33 -9.43c0.69,-0.4 0.76,-1.01 0.14,-1.37l-15.62 -9.02c-0.62,-0.36 -1.68,-0.32 -2.37,0.08l-16.33 9.43c-0.69,0.4 -0.75,1.01 -0.14,1.37l15.62 9.03zm484.77 -163.57c-0.62,-0.36 -1.68,-0.32 -2.37,0.08l-40.19 23.21c-0.69,0.4 -0.76,1.01 -0.14,1.37l15.62 9.02c0.61,0.36 1.68,0.32 2.37,-0.08l40.19 -23.21c0.69,-0.4 0.76,-1.01 0.14,-1.37l-15.62 -9.02zm-52.76 30.46c-0.62,-0.36 -1.68,-0.32 -2.37,0.08l-16.33 9.43c-0.69,0.4 -0.75,1.01 -0.14,1.37l15.62 9.02c0.62,0.35 1.68,0.32 2.37,-0.08l16.33 -9.43c0.69,-0.4 0.75,-1.01 0.14,-1.37l-15.62 -9.02zm-322.12 179.53l16.33 -9.43c0.69,-0.4 0.75,-1.01 0.14,-1.37l-15.62 -9.02c-0.62,-0.36 -1.68,-0.32 -2.37,0.08l-16.33 9.43c-0.69,0.4 -0.76,1.01 -0.14,1.37l15.62 9.02c0.62,0.35 1.68,0.31 2.38,-0.08zm274.39 -151.97c-0.62,-0.36 -1.68,-0.32 -2.37,0.08l-16.33 9.43c-0.69,0.4 -0.76,1.01 -0.14,1.37l15.62 9.02c0.62,0.36 1.68,0.32 2.37,-0.08l16.33 -9.43c0.69,-0.4 0.76,-1.01 0.14,-1.37l-15.62 -9.02zm124.36 -71.8c-0.62,-0.36 -1.68,-0.32 -2.37,0.08l-16.33 9.43c-0.69,0.4 -0.75,1.01 -0.14,1.37l15.62 9.02c0.62,0.36 1.68,0.32 2.37,-0.08l16.33 -9.43c0.69,-0.4 0.76,-1.01 0.14,-1.37l-15.62 -9.03zm39.49 -4.76l-37.94 -21.91c-0.62,-0.36 -1.68,-0.32 -2.37,0.08l-16.33 9.43c-0.69,0.4 -0.76,1.01 -0.14,1.37l37.94 21.91c0.62,0.36 1.68,0.32 2.37,-0.08l16.33 -9.43c0.69,-0.4 0.75,-1.01 0.14,-1.37zm-253.03 128.05c-0.62,-0.36 -1.68,-0.32 -2.37,0.08l-20.1 11.6c-0.69,0.4 -0.76,1.01 -0.14,1.37l15.62 9.02c0.62,0.36 1.68,0.32 2.37,-0.08l20.1 -11.6c0.69,-0.4 0.76,-1.01 0.14,-1.37l-15.62 -9.02zm60.29 -34.81c-0.62,-0.36 -1.68,-0.32 -2.37,0.08l-25.12 14.5c-0.69,0.4 -0.75,1.01 -0.14,1.37l15.62 9.02c0.62,0.36 1.68,0.32 2.37,-0.08l25.12 -14.5c0.69,-0.4 0.75,-1.01 0.14,-1.37l-15.62 -9.02zm-115.56 66.72c-0.62,-0.36 -1.68,-0.32 -2.37,0.08l-134.4 77.6c-0.69,0.4 -0.76,1.01 -0.14,1.37l15.62 9.02c0.62,0.36 1.68,0.32 2.37,-0.08l134.4 -77.6c0.69,-0.4 0.76,-1.01 0.14,-1.37l-15.62 -9.02zm-141.94 81.95c-0.62,-0.36 -1.68,-0.32 -2.37,0.08l-20.1 11.6c-0.69,0.4 -0.76,1.01 -0.14,1.37l15.62 9.02c0.62,0.35 1.68,0.32 2.37,-0.08l20.1 -11.6c0.69,-0.4 0.75,-1.01 0.14,-1.37l-15.62 -9.02zm169.58 -97.91c-0.62,-0.36 -1.68,-0.32 -2.37,0.08l-20.1 11.6c-0.69,0.4 -0.76,1.01 -0.14,1.37l15.62 9.02c0.61,0.36 1.68,0.32 2.37,-0.08l20.1 -11.6c0.69,-0.4 0.75,-1.01 0.14,-1.37l-15.62 -9.02zm-197.21 113.86c-0.61,-0.36 -1.68,-0.32 -2.37,0.08l-20.1 11.6c-0.69,0.4 -0.75,1.01 -0.14,1.37l15.62 9.02c0.62,0.36 1.68,0.32 2.37,-0.08l20.1 -11.6c0.69,-0.4 0.76,-1.01 0.14,-1.37l-15.62 -9.02zm252.48 -145.77c-0.62,-0.36 -1.68,-0.32 -2.37,0.08l-20.1 11.6c-0.69,0.4 -0.75,1.01 -0.14,1.37l15.62 9.02c0.61,0.36 1.68,0.32 2.37,-0.08l20.1 -11.6c0.69,-0.4 0.75,-1.01 0.14,-1.37l-15.62 -9.01zm85.42 -49.32c-0.62,-0.36 -1.68,-0.32 -2.37,0.08l-16.33 9.43c-0.69,0.4 -0.75,1.01 -0.14,1.37l15.62 9.02c0.62,0.36 1.68,0.32 2.37,-0.08l16.33 -9.43c0.69,-0.4 0.75,-1.01 0.14,-1.37l-15.62 -9.02zm53.46 -37.31l16.33 -9.43c0.69,-0.4 0.76,-1.01 0.14,-1.37l-15.62 -9.02c-0.62,-0.36 -1.68,-0.32 -2.37,0.08l-16.33 9.43c-0.69,0.4 -0.75,1.01 -0.14,1.37l15.62 9.02c0.62,0.36 1.68,0.32 2.37,-0.08zm-97.39 4.69l16.33 -9.43c0.69,-0.4 0.75,-1.01 0.14,-1.37l-15.62 -9.02c-0.62,-0.36 -1.68,-0.32 -2.37,0.08l-16.33 9.43c-0.69,0.4 -0.75,1.01 -0.14,1.37l15.62 9.02c0.61,0.36 1.68,0.32 2.37,-0.08zm-63.39 88.14l47.73 -27.56c0.69,-0.4 0.75,-1.01 0.14,-1.37l-15.62 -9.02c-0.62,-0.35 -1.68,-0.32 -2.37,0.08l-47.73 27.56c-0.69,0.4 -0.76,1.01 -0.14,1.37l15.62 9.02c0.62,0.36 1.68,0.32 2.38,-0.08zm134.54 -78.97c0.62,0.36 1.68,0.32 2.37,-0.08l16.33 -9.43c0.69,-0.4 0.76,-1.01 0.14,-1.37l-15.62 -9.02c-0.62,-0.36 -1.68,-0.32 -2.37,0.08l-16.33 9.43c-0.69,0.4 -0.75,1.01 -0.14,1.37l15.62 9.02zm-19.95 -12.97l16.33 -9.43c0.69,-0.4 0.76,-1.01 0.14,-1.37l-15.62 -9.02c-0.62,-0.36 -1.68,-0.32 -2.37,0.08l-16.33 9.43c-0.69,0.4 -0.76,1.01 -0.14,1.37l15.62 9.02c0.61,0.36 1.68,0.32 2.37,-0.08zm-138.46 105.71l16.33 -9.43c0.69,-0.4 0.75,-1.01 0.14,-1.37l-15.62 -9.02c-0.62,-0.36 -1.68,-0.32 -2.37,0.08l-16.33 9.43c-0.69,0.4 -0.75,1.01 -0.14,1.37l15.62 9.02c0.62,0.36 1.68,0.32 2.37,-0.08zm105.65 -62.29c0.62,0.36 1.68,0.32 2.37,-0.08l16.33 -9.43c0.69,-0.4 0.76,-1.01 0.14,-1.37l-15.62 -9.02c-0.62,-0.36 -1.68,-0.32 -2.37,0.08l-16.33 9.43c-0.69,0.4 -0.76,1.01 -0.14,1.37l15.62 9.02zm-224.98 131.18l16.33 -9.43c0.69,-0.4 0.75,-1.01 0.14,-1.37l-15.62 -9.02c-0.62,-0.36 -1.68,-0.32 -2.37,0.08l-16.33 9.43c-0.69,0.4 -0.75,1.01 -0.14,1.37l15.62 9.02c0.62,0.35 1.68,0.32 2.37,-0.08zm23.87 -13.78l16.33 -9.43c0.69,-0.4 0.75,-1.01 0.14,-1.37l-15.62 -9.02c-0.62,-0.35 -1.68,-0.32 -2.37,0.08l-16.33 9.43c-0.69,0.4 -0.76,1.01 -0.14,1.37l15.62 9.02c0.61,0.36 1.67,0.32 2.37,-0.08zm-47.73 27.56l16.33 -9.43c0.69,-0.4 0.76,-1.01 0.14,-1.37l-15.62 -9.02c-0.62,-0.36 -1.68,-0.32 -2.37,0.08l-16.33 9.43c-0.69,0.4 -0.75,1.01 -0.14,1.37l15.62 9.02c0.62,0.35 1.68,0.31 2.37,-0.09zm95.47 -55.12l16.33 -9.43c0.69,-0.4 0.76,-1.01 0.14,-1.37l-15.62 -9.02c-0.62,-0.36 -1.68,-0.32 -2.37,0.08l-16.33 9.43c-0.69,0.4 -0.76,1.01 -0.14,1.37l15.62 9.02c0.62,0.35 1.68,0.32 2.37,-0.08zm-23.87 13.78l16.33 -9.43c0.69,-0.4 0.76,-1.01 0.14,-1.37l-15.62 -9.02c-0.61,-0.36 -1.68,-0.32 -2.37,0.08l-16.33 9.43c-0.69,0.4 -0.76,1.01 -0.14,1.37l15.62 9.02c0.61,0.35 1.68,0.32 2.37,-0.08zm47.73 -27.56l16.33 -9.43c0.69,-0.4 0.75,-1.01 0.14,-1.37l-15.62 -9.02c-0.62,-0.36 -1.68,-0.32 -2.37,0.08l-16.33 9.43c-0.69,0.4 -0.75,1.01 -0.14,1.37l15.62 9.02c0.61,0.35 1.68,0.32 2.37,-0.08zm130.24 -191.69c0.62,0.36 1.68,0.32 2.37,-0.08l16.33 -9.43c0.69,-0.4 0.75,-1.01 0.14,-1.37l-4.16 -2.4c-0.62,-0.36 -1.68,-0.32 -2.37,0.08l-16.33 9.43c-0.69,0.4 -0.75,1.01 -0.14,1.37l4.15 2.4zm-118.62 75.11c0.61,0.36 1.68,0.32 2.37,-0.08l16.33 -9.43c0.69,-0.4 0.76,-1.01 0.14,-1.37l-15.62 -9.02c-0.62,-0.36 -1.68,-0.32 -2.37,0.08l-16.33 9.43c-0.69,0.4 -0.76,1.01 -0.14,1.37l15.62 9.02zm47.73 -27.56c0.62,0.36 1.68,0.32 2.37,-0.08l16.33 -9.43c0.69,-0.4 0.76,-1.01 0.14,-1.37l-15.62 -9.02c-0.62,-0.36 -1.68,-0.32 -2.37,0.08l-16.33 9.43c-0.69,0.4 -0.75,1.01 -0.14,1.37l15.62 9.02zm-76.87 44.38c0.62,0.36 1.68,0.32 2.37,-0.08l16.33 -9.43c0.69,-0.4 0.75,-1.01 0.14,-1.37l-15.62 -9.02c-0.62,-0.35 -1.68,-0.32 -2.37,0.08l-16.33 9.43c-0.69,0.4 -0.76,1.01 -0.14,1.37l15.62 9.02zm53.01 -30.6c0.62,0.36 1.68,0.32 2.37,-0.08l16.33 -9.43c0.69,-0.4 0.75,-1.01 0.14,-1.37l-15.62 -9.02c-0.61,-0.36 -1.68,-0.32 -2.37,0.08l-16.33 9.43c-0.69,0.4 -0.76,1.01 -0.14,1.37l15.62 9.02zm-100.74 58.16c0.62,0.35 1.68,0.32 2.37,-0.08l16.33 -9.43c0.69,-0.4 0.76,-1.01 0.14,-1.37l-15.62 -9.02c-0.62,-0.36 -1.68,-0.32 -2.37,0.08l-16.33 9.43c-0.69,0.4 -0.75,1.01 -0.14,1.37l15.62 9.02zm23.87 -13.78c0.62,0.36 1.68,0.32 2.37,-0.08l16.33 -9.43c0.69,-0.4 0.75,-1.01 0.14,-1.37l-15.62 -9.02c-0.62,-0.36 -1.68,-0.32 -2.37,0.08l-16.33 9.43c-0.69,0.4 -0.76,1.01 -0.14,1.37l15.62 9.02zm123.9 -78.15c0.62,0.36 1.68,0.32 2.37,-0.08l16.33 -9.43c0.69,-0.4 0.75,-1.01 0.14,-1.37l-4.16 -2.4c-0.62,-0.36 -1.68,-0.32 -2.37,0.08l-16.33 9.43c-0.69,0.4 -0.76,1.01 -0.14,1.37l4.16 2.4zm71.6 -41.34c0.62,0.36 1.68,0.32 2.37,-0.08l16.33 -9.43c0.69,-0.4 0.75,-1.01 0.14,-1.37l-4.16 -2.4c-0.62,-0.35 -1.68,-0.32 -2.37,0.08l-16.33 9.43c-0.69,0.4 -0.76,1.01 -0.14,1.37l4.16 2.4zm32.82 18.95c0.62,0.36 1.68,0.32 2.37,-0.08l16.33 -9.43c0.69,-0.4 0.75,-1.01 0.14,-1.37l-15.62 -9.02c-0.61,-0.36 -1.68,-0.32 -2.37,0.08l-16.33 9.43c-0.69,0.4 -0.76,1.01 -0.14,1.37l15.62 9.01zm45.46 52.35l16.33 -9.43c0.69,-0.4 0.76,-1.01 0.14,-1.37l-15.62 -9.02c-0.61,-0.36 -1.68,-0.32 -2.37,0.08l-16.33 9.43c-0.69,0.4 -0.76,1.01 -0.14,1.37l15.62 9.02c0.61,0.36 1.68,0.32 2.37,-0.08zm-126.01 -43.74c0.62,0.36 1.68,0.32 2.37,-0.08l16.33 -9.43c0.69,-0.4 0.76,-1.01 0.14,-1.37l-4.16 -2.4c-0.62,-0.36 -1.68,-0.32 -2.37,0.08l-16.33 9.43c-0.69,0.4 -0.76,1.01 -0.14,1.37l4.16 2.4zm-195.5 119.49c0.62,0.36 1.68,0.32 2.37,-0.08l16.33 -9.43c0.69,-0.4 0.76,-1.01 0.14,-1.37l-15.62 -9.02c-0.62,-0.36 -1.68,-0.32 -2.37,0.08l-16.33 9.43c-0.69,0.4 -0.75,1.01 -0.14,1.37l15.62 9.01z"/>
  </g>
  <polygon id="XMLID_368_" class="fil2" points="498.91,845.35 502.26,847.28 591.19,898.61 749.35,807.3 752.64,805.42 660.36,752.16 "/>
  <g id="XMLID_259_">
   <polygon id="XMLID_367_" class="fil4" points="502.26,847.28 591.19,898.61 749.35,807.3 660.36,755.96 "/>
  </g>
  <g id="Rocket_1_">
   <g id="Rocket">
    <g id="XMLID_5167_">
     <ellipse id="XMLID_5223_" class="fil6" cx="498.98" cy="773.39" rx="134.46" ry="55.12"/>
     <ellipse id="XMLID_5222_" class="fil6" cx="498.98" cy="773.39" rx="134.46" ry="55.12"/>
     <path id="XMLID_5220_" class="fil7" d="M655.44 773.39c0,-32.93 -65.13,-59.63 -145.46,-59.63 -80.34,0 -145.46,26.7 -145.46,59.63 0,32.93 65.13,59.63 145.46,59.63 80.34,0 145.46,-26.7 145.46,-59.63z"/>
     <g id="XMLID_5207_">
      <path id="XMLID_5218_" class="fil6" d="M362.03 744.91c0.83,-32.26 27.26,-58.11 59.72,-58.11 32.41,0 58.89,25.85 59.72,58.11 0.05,0.57 0.05,1.09 0.05,1.66 0,0.57 0,1.09 -0.05,1.66 -0.67,8.27 -6.5,16.39 -17.48,22.73 -23.31,13.47 -61.18,13.47 -84.54,0 -10.92,-6.35 -16.75,-14.46 -17.43,-22.73 -0.05,-0.57 -0.05,-1.09 -0.05,-1.66 0,-0.57 0,-1.09 0.05,-1.66z"/>
      <path id="XMLID_5216_" class="fil8" d="M362.03 744.91c0.83,-32.26 27.26,-58.11 59.72,-58.11 32.41,0 58.89,25.85 59.72,58.11 0.05,0.57 0.05,1.09 0.05,1.66 0,0.57 0,1.09 -0.05,1.66 -0.67,8.27 -6.5,16.39 -17.48,22.73 -23.31,13.47 -61.18,13.47 -84.54,0 -10.92,-6.35 -16.75,-14.46 -17.43,-22.73 -0.05,-0.57 -0.05,-1.09 -0.05,-1.66 0,-0.57 0,-1.09 0.05,-1.66z"/>
      <path id="XMLID_5214_" class="fil9" d="M395.83 692.77l0 0c7.85,-3.79 16.62,-5.97 25.92,-5.97 32.41,0 58.89,25.85 59.72,58.11 0.05,0.57 0.05,1.09 0.05,1.66 0,0.57 0,1.09 -0.05,1.66 -0.67,8.27 -6.5,16.39 -17.48,22.73 -8.52,4.92 -18.99,8.03 -29.97,9.35 15.5,-2.68 25.53,-19.98 20.76,-39.09 -5.52,-22.16 -27.94,-54.2 -58.95,-48.47z"/>
      <path id="XMLID_5212_" class="fil10" d="M362.03 748.24c-0.05,-0.57 -0.05,-1.09 -0.05,-1.66 0,-0.57 0,-1.09 0.05,-1.66 0.44,-17.22 8.22,-32.56 20.28,-43.17 -6.49,6.67 -20.93,31.82 -5.24,51 10.32,12.61 59.29,30.61 99.6,7.48 -2.92,3.9 -7.14,7.55 -12.68,10.76 -23.31,13.47 -61.18,13.47 -84.54,0 -10.92,-6.35 -16.75,-14.47 -17.43,-22.74z"/>
      <path id="XMLID_5210_" class="fil11" d="M422.36 700.27c-2.68,6.09 2.46,14.23 11.48,18.19 9.01,3.96 18.49,2.23 21.16,-3.86 2.68,-6.09 -2.46,-14.23 -11.48,-18.19 -9.02,-3.96 -18.49,-2.23 -21.16,3.86z"/>
      <path id="XMLID_5208_" class="fil11" d="M456.97 725.06c-1.39,3.17 0.63,7.13 4.52,8.84 3.89,1.71 8.17,0.52 9.56,-2.65 1.39,-3.17 -0.63,-7.13 -4.52,-8.84 -3.89,-1.71 -8.17,-0.52 -9.56,2.65z"/>
     </g>
     <g id="XMLID_5194_">
      <path id="XMLID_5205_" class="fil6" d="M611.77 743.99c-0.71,-27.39 -23.15,-49.35 -50.72,-49.35 -27.52,0 -50.01,21.96 -50.72,49.35 -0.04,0.48 -0.04,0.93 -0.04,1.41 0,0.48 0,0.93 0.04,1.41 0.57,7.02 5.52,13.92 14.84,19.31 19.79,11.44 51.96,11.44 71.79,0 9.28,-5.39 14.22,-12.28 14.8,-19.31 0.04,-0.48 0.04,-0.93 0.04,-1.41 0,-0.49 0,-0.93 -0.04,-1.41z"/>
      <path id="XMLID_5203_" class="fil8" d="M611.77 743.99c-0.71,-27.39 -23.15,-49.35 -50.72,-49.35 -27.52,0 -50.01,21.96 -50.72,49.35 -0.04,0.48 -0.04,0.93 -0.04,1.41 0,0.48 0,0.93 0.04,1.41 0.57,7.02 5.52,13.92 14.84,19.31 19.79,11.44 51.96,11.44 71.79,0 9.28,-5.39 14.22,-12.28 14.8,-19.31 0.04,-0.48 0.04,-0.93 0.04,-1.41 0,-0.49 0,-0.93 -0.04,-1.41z"/>
      <path id="XMLID_5201_" class="fil9" d="M583.06 699.71l0 0c-6.67,-3.21 -14.12,-5.07 -22.02,-5.07 -27.52,0 -50.01,21.96 -50.72,49.35 -0.04,0.48 -0.04,0.93 -0.04,1.41 0,0.48 0,0.93 0.04,1.41 0.57,7.02 5.52,13.92 14.84,19.31 7.23,4.18 16.13,6.82 25.46,7.94 -13.16,-2.27 -21.68,-16.97 -17.63,-33.2 4.7,-18.82 23.73,-46.03 50.07,-41.16z"/>
      <path id="XMLID_5199_" class="fil10" d="M611.77 746.82c0.04,-0.48 0.04,-0.93 0.04,-1.41 0,-0.48 0,-0.93 -0.04,-1.41 -0.38,-14.62 -6.99,-27.65 -17.22,-36.66 5.51,5.67 17.77,27.03 4.45,43.31 -8.76,10.71 -50.36,25.99 -84.59,6.35 2.48,3.31 6.06,6.41 10.77,9.13 19.79,11.44 51.96,11.44 71.79,0 9.28,-5.39 14.22,-12.28 14.8,-19.31z"/>
      <path id="XMLID_5197_" class="fil11" d="M560.53 706.08c2.27,5.17 -2.09,12.09 -9.75,15.45 -7.65,3.36 -15.7,1.9 -17.97,-3.28 -2.27,-5.17 2.09,-12.09 9.75,-15.45 7.66,-3.36 15.7,-1.89 17.97,3.28z"/>
      <path id="XMLID_5195_" class="fil11" d="M531.14 727.13c1.18,2.69 -0.53,6.05 -3.84,7.5 -3.3,1.45 -6.94,0.44 -8.12,-2.25 -1.18,-2.69 0.53,-6.05 3.84,-7.5 3.3,-1.45 6.93,-0.44 8.12,2.25z"/>
     </g>
     <g id="XMLID_5181_">
      <path id="XMLID_5192_" class="fil6" d="M661.31 749.84c-0.47,-18.11 -15.31,-32.63 -33.54,-32.63 -18.2,0 -33.07,14.52 -33.54,32.63 -0.03,0.32 -0.03,0.61 -0.03,0.93 0,0.32 0,0.61 0.03,0.93 0.38,4.64 3.65,9.2 9.82,12.77 13.09,7.57 34.36,7.57 47.48,0 6.13,-3.57 9.41,-8.12 9.79,-12.77 0.03,-0.32 0.03,-0.61 0.03,-0.93 0,-0.32 0,-0.61 -0.03,-0.93z"/>
      <path id="XMLID_5190_" class="fil7" d="M661.31 749.84c-0.47,-18.11 -15.31,-32.63 -33.54,-32.63 -18.2,0 -33.07,14.52 -33.54,32.63 -0.03,0.32 -0.03,0.61 -0.03,0.93 0,0.32 0,0.61 0.03,0.93 0.38,4.64 3.65,9.2 9.82,12.77 13.09,7.57 34.36,7.57 47.48,0 6.13,-3.57 9.41,-8.12 9.79,-12.77 0.03,-0.32 0.03,-0.61 0.03,-0.93 0,-0.32 0,-0.61 -0.03,-0.93z"/>
      <path id="XMLID_5188_" class="fil11" d="M642.33 720.55l0 0c-4.41,-2.13 -9.33,-3.35 -14.56,-3.35 -18.2,0 -33.07,14.52 -33.54,32.63 -0.03,0.32 -0.03,0.61 -0.03,0.93 0,0.32 0,0.61 0.03,0.93 0.38,4.64 3.65,9.2 9.82,12.77 4.78,2.77 10.66,4.51 16.84,5.25 -8.7,-1.5 -14.34,-11.22 -11.66,-21.95 3.11,-12.45 15.69,-30.44 33.11,-27.22z"/>
      <path id="XMLID_5186_" class="fil10" d="M661.31 751.71c0.03,-0.32 0.03,-0.61 0.03,-0.93 0,-0.32 0,-0.61 -0.03,-0.93 -0.25,-9.67 -4.62,-18.28 -11.39,-24.25 3.65,3.75 11.75,17.87 2.94,28.64 -5.79,7.08 -33.3,17.19 -55.93,4.2 1.64,2.19 4.01,4.24 7.12,6.04 13.09,7.57 34.36,7.57 47.48,0 6.13,-3.56 9.41,-8.12 9.79,-12.77z"/>
      <path id="XMLID_5184_" class="fil11" d="M627.43 724.77c1.5,3.42 -1.38,7.99 -6.45,10.22 -5.06,2.22 -10.38,1.25 -11.88,-2.17 -1.5,-3.42 1.38,-7.99 6.45,-10.22 5.06,-2.22 10.38,-1.25 11.88,2.17z"/>
      <path id="XMLID_5182_" class="fil11" d="M607.99 738.69c0.78,1.78 -0.35,4 -2.54,4.96 -2.18,0.96 -4.59,0.29 -5.37,-1.49 -0.78,-1.78 0.35,-4 2.54,-4.96 2.18,-0.96 4.59,-0.29 5.37,1.49z"/>
     </g>
     <g id="XMLID_5168_">
      <path id="XMLID_5179_" class="fil6" d="M732.78 764.43c-0.64,-24.61 -20.81,-44.35 -45.58,-44.35 -24.74,0 -44.94,19.73 -45.58,44.35 -0.04,0.44 -0.04,0.83 -0.04,1.27 0,0.44 0,0.84 0.04,1.27 0.52,6.31 4.96,12.51 13.34,17.35 17.79,10.28 46.69,10.28 64.52,0 8.34,-4.84 12.78,-11.04 13.3,-17.35 0.04,-0.44 0.04,-0.84 0.04,-1.27 0,-0.44 0,-0.83 -0.04,-1.27z"/>
      <path id="XMLID_5177_" class="fil12" d="M732.78 764.43c-0.64,-24.61 -20.81,-44.35 -45.58,-44.35 -24.74,0 -44.94,19.73 -45.58,44.35 -0.04,0.44 -0.04,0.83 -0.04,1.27 0,0.44 0,0.84 0.04,1.27 0.52,6.31 4.96,12.51 13.34,17.35 17.79,10.28 46.69,10.28 64.52,0 8.34,-4.84 12.78,-11.04 13.3,-17.35 0.04,-0.44 0.04,-0.84 0.04,-1.27 0,-0.44 0,-0.83 -0.04,-1.27z"/>
      <path id="XMLID_5175_" class="fil9" d="M706.99 724.64l0 0c-5.99,-2.89 -12.69,-4.55 -19.78,-4.55 -24.74,0 -44.94,19.73 -45.58,44.35 -0.04,0.44 -0.04,0.83 -0.04,1.27 0,0.44 0,0.84 0.04,1.27 0.52,6.31 4.96,12.51 13.34,17.35 6.5,3.76 14.49,6.13 22.88,7.14 -11.83,-2.04 -19.49,-15.25 -15.85,-29.83 4.22,-16.92 21.32,-41.37 44.99,-37z"/>
      <path id="XMLID_5173_" class="fil10" d="M732.78 766.97c0.04,-0.44 0.04,-0.84 0.04,-1.27 0,-0.44 0,-0.84 -0.04,-1.27 -0.34,-13.14 -6.28,-24.85 -15.48,-32.95 4.95,5.09 15.97,24.29 4,38.92 -7.88,9.63 -45.25,23.36 -76.01,5.71 2.23,2.97 5.45,5.77 9.67,8.21 17.79,10.28 46.69,10.28 64.52,0 8.34,-4.84 12.79,-11.03 13.3,-17.35z"/>
      <path id="XMLID_5171_" class="fil11" d="M686.74 730.36c2.04,4.65 -1.88,10.87 -8.76,13.88 -6.88,3.02 -14.11,1.7 -16.15,-2.95 -2.04,-4.65 1.88,-10.87 8.76,-13.88 6.88,-3.02 14.11,-1.7 16.15,2.95z"/>
      <path id="XMLID_5169_" class="fil11" d="M660.33 749.28c1.06,2.42 -0.48,5.44 -3.45,6.74 -2.97,1.3 -6.23,0.4 -7.3,-2.02 -1.06,-2.42 0.48,-5.44 3.45,-6.74 2.97,-1.3 6.23,-0.4 7.3,2.02z"/>
     </g>
    </g>
    <g id="XMLID_5125_">
     <path id="XMLID_5164_" class="fil6" d="M553.53 665.41c0,16.64 -7.46,31.5 -19.22,41.51 -8.01,6.77 -12.91,16.5 -12.91,27.01l0 110.8c0,3.32 -2.16,6.64 -6.55,9.16 -2.41,1.4 -5.24,2.39 -8.22,3.02 -4.91,1.01 -10.34,1.01 -15.25,0 -2.99,-0.63 -5.81,-1.64 -8.2,-3.02 -4.36,-2.52 -6.55,-5.84 -6.55,-9.16l0 -111.05c0,-10.39 -4.91,-19.99 -12.83,-26.71 -11.93,-10.06 -19.44,-25.14 -19.3,-42.01 0.22,-28.49 23.06,-52.48 51.49,-54.01 31.48,-1.7 57.55,23.34 57.55,54.45z"/>
     <path id="XMLID_5161_" class="fil11" d="M553.53 665.41c0,16.64 -7.46,31.5 -19.22,41.51 -8.01,6.77 -12.91,16.5 -12.91,27.01l0 110.8c0,3.32 -2.16,6.64 -6.55,9.16 -2.41,1.4 -5.24,2.39 -8.22,3.02 -4.91,1.01 -10.34,1.01 -15.25,0 -2.99,-0.63 -5.81,-1.64 -8.2,-3.02 -4.36,-2.52 -6.55,-5.84 -6.55,-9.16l0 -111.05c0,-10.39 -4.91,-19.99 -12.83,-26.71 -11.93,-10.06 -19.44,-25.14 -19.3,-42.01 0.22,-28.49 23.06,-52.48 51.49,-54.01 31.48,-1.7 57.55,23.34 57.55,54.45z"/>
     <path id="XMLID_4458_" class="fil13" d="M553.53 665.41c0,16.64 -7.46,31.5 -19.22,41.51 -8.01,6.77 -12.91,16.5 -12.91,27.01l0 110.8c0,3.32 -2.16,6.64 -6.55,9.16 -2.41,1.4 -5.24,2.39 -8.22,3.02 -4.91,1.01 -10.34,1.01 -15.25,0 -2.99,-0.63 -5.81,-1.64 -8.2,-3.02 -4.36,-2.52 -6.55,-5.84 -6.55,-9.16l0 -111.05c0,-10.39 -4.91,-19.99 -12.83,-26.71 -11.93,-10.06 -19.44,-25.14 -19.3,-42.01 0.22,-28.49 23.06,-52.48 51.49,-54.01 31.48,-1.7 57.55,23.34 57.55,54.45z"/>
     <path id="XMLID_5158_" class="fil6" d="M529.43 665.41c0,10.24 -5.08,19.27 -12.83,24.78 -6.46,4.6 -9.98,12.3 -9.98,20.22l0 137.56c0,4.21 -3.34,7.79 -7.54,7.8 -0.05,0 -0.1,0 -0.15,0 -4.21,-0.01 -7.54,-3.59 -7.54,-7.8l0 -137.96c0,-7.81 -3.59,-15.3 -9.98,-19.85 -7.95,-5.65 -13.08,-15.02 -12.81,-25.61 0.44,-15.77 13.43,-28.93 29.2,-29.56 17.36,-0.65 31.64,13.22 31.64,30.41z"/>
     <path id="XMLID_5156_" class="fil14" d="M529.43 665.41c0,10.24 -5.08,19.27 -12.83,24.78 -6.46,4.6 -9.98,12.3 -9.98,20.22l0 137.56c0,4.21 -3.34,7.79 -7.54,7.8 -0.05,0 -0.1,0 -0.15,0 -4.21,-0.01 -7.54,-3.59 -7.54,-7.8l0 -137.96c0,-7.81 -3.59,-15.3 -9.98,-19.85 -7.95,-5.65 -13.08,-15.02 -12.81,-25.61 0.44,-15.77 13.43,-28.93 29.2,-29.56 17.36,-0.65 31.64,13.22 31.64,30.41z"/>
     <path id="XMLID_5153_" class="fil12" d="M538.16 691.48c0,-6.36 -5.16,-11.52 -11.52,-11.52 -6.36,0 -11.52,5.16 -11.52,11.52 0,6.36 5.16,11.52 11.52,11.52 6.36,0 11.52,-5.16 11.52,-11.52z"/>
     <path id="XMLID_5149_" class="fil12" d="M530.44 657.26c0,-4.8 -3.89,-8.68 -8.68,-8.68 -4.8,0 -8.68,3.89 -8.68,8.68 0,4.8 3.89,8.68 8.68,8.68 4.8,0 8.68,-3.89 8.68,-8.68z"/>
     <path id="XMLID_5145_" class="fil12" d="M496.48 643.41c0,-2.38 1.93,-4.3 4.3,-4.3 2.38,0 4.3,1.93 4.3,4.3 0,2.38 -1.93,4.3 -4.3,4.3 -2.38,-0 -4.3,-1.93 -4.3,-4.3z"/>
     <path id="XMLID_5141_" class="fil12" d="M462.1 648.58c0,-6.45 5.23,-11.67 11.67,-11.67 6.45,0 11.67,5.23 11.67,11.67 0,6.45 -5.23,11.67 -11.67,11.67 -6.45,0 -11.67,-5.23 -11.67,-11.67z"/>
     <path id="XMLID_5138_" class="fil12" d="M460.16 669.68c0,3.02 2.45,5.48 5.48,5.48 3.02,0 5.48,-2.45 5.48,-5.48 0,-3.02 -2.45,-5.48 -5.48,-5.48 -3.03,0 -5.48,2.45 -5.48,5.48z"/>
     <path id="XMLID_5136_" class="fil12" d="M460.74 690.6c0,-5.88 4.77,-10.64 10.64,-10.64 5.88,0 10.64,4.77 10.64,10.64 0,5.88 -4.77,10.64 -10.64,10.64 -5.88,0 -10.64,-4.77 -10.64,-10.64z"/>
     <path id="XMLID_5134_" class="fil12" d="M484.33 706.13c0,-4.04 3.28,-7.32 7.32,-7.32 4.04,0 7.32,3.28 7.32,7.32 0,4.04 -3.28,7.32 -7.32,7.32 -4.05,-0 -7.32,-3.28 -7.32,-7.32z"/>
     <path id="XMLID_5132_" class="fil12" d="M457.23 657.26c0,-2.06 -1.67,-3.74 -3.74,-3.74 -2.06,0 -3.74,1.67 -3.74,3.74 0,2.06 1.67,3.74 3.74,3.74 2.06,0 3.74,-1.67 3.74,-3.74z"/>
     <path id="XMLID_5130_" class="fil12" d="M540.83 641.82c0,-2.72 -2.2,-4.92 -4.92,-4.92 -2.72,0 -4.92,2.2 -4.92,4.92 0,2.72 2.2,4.92 4.92,4.92 2.72,0 4.92,-2.2 4.92,-4.92z"/>
     <path id="XMLID_5128_" class="fil12" d="M535.88 665.95c0,-2.73 2.22,-4.95 4.95,-4.95 2.73,0 4.95,2.22 4.95,4.95 0,2.73 -2.22,4.95 -4.95,4.95 -2.73,0 -4.95,-2.22 -4.95,-4.95z"/>
     <path id="XMLID_5126_" class="fil12" d="M484.6 669.95c0,-2.73 2.22,-4.95 4.95,-4.95 2.73,0 4.95,2.22 4.95,4.95 0,2.73 -2.22,4.95 -4.95,4.95 -2.73,0 -4.95,-2.22 -4.95,-4.95z"/>
    </g>
    <g id="XMLID_511_">
     <g id="XMLID_4347_">
      <path id="XMLID_4449_" class="fil6" d="M784.26 772.33c-0.39,-15 -12.68,-27.03 -27.78,-27.03 -15.08,0 -27.39,12.03 -27.78,27.03 -0.03,0.27 -0.03,0.51 -0.03,0.77 0,0.27 0,0.51 0.03,0.77 0.31,3.85 3.03,7.62 8.13,10.58 10.84,6.27 28.46,6.27 39.32,0 5.08,-2.95 7.79,-6.73 8.11,-10.58 0.03,-0.27 0.03,-0.51 0.03,-0.77 -0,-0.27 -0,-0.51 -0.03,-0.77z"/>
      <path id="XMLID_4445_" class="fil11" d="M784.26 772.33c-0.39,-15 -12.68,-27.03 -27.78,-27.03 -15.08,0 -27.39,12.03 -27.78,27.03 -0.03,0.27 -0.03,0.51 -0.03,0.77 0,0.27 0,0.51 0.03,0.77 0.31,3.85 3.03,7.62 8.13,10.58 10.84,6.27 28.46,6.27 39.32,0 5.08,-2.95 7.79,-6.73 8.11,-10.58 0.03,-0.27 0.03,-0.51 0.03,-0.77 -0,-0.27 -0,-0.51 -0.03,-0.77z"/>
      <path id="XMLID_4441_" class="fil11" d="M768.54 748.07l0 0c-3.65,-1.76 -7.73,-2.78 -12.06,-2.78 -15.08,0 -27.39,12.03 -27.78,27.03 -0.03,0.27 -0.03,0.51 -0.03,0.77 0,0.27 0,0.51 0.03,0.77 0.31,3.85 3.03,7.62 8.13,10.58 3.96,2.29 8.83,3.74 13.94,4.35 -7.21,-1.24 -11.88,-9.29 -9.66,-18.18 2.57,-10.31 12.99,-25.21 27.42,-22.55z"/>
      <path id="XMLID_4437_" class="fil15" d="M784.26 773.88c0.03,-0.27 0.03,-0.51 0.03,-0.77 0,-0.27 0,-0.51 -0.03,-0.77 -0.21,-8.01 -3.83,-15.15 -9.43,-20.08 3.02,3.1 9.73,14.8 2.44,23.72 -4.8,5.86 -27.58,14.24 -46.33,3.48 1.36,1.81 3.32,3.51 5.9,5 10.84,6.27 28.46,6.27 39.32,0 5.08,-2.95 7.79,-6.73 8.11,-10.57z"/>
      <path id="XMLID_4431_" class="fil11" d="M756.2 751.56c1.24,2.83 -1.15,6.62 -5.34,8.46 -4.19,1.84 -8.6,1.04 -9.84,-1.8 -1.24,-2.83 1.15,-6.62 5.34,-8.46 4.19,-1.84 8.6,-1.04 9.84,1.8z"/>
      <path id="XMLID_4425_" class="fil11" d="M740.1 763.09c0.65,1.47 -0.29,3.31 -2.1,4.11 -1.81,0.79 -3.8,0.24 -4.45,-1.23 -0.65,-1.47 0.29,-3.31 2.1,-4.11 1.81,-0.8 3.8,-0.24 4.45,1.23z"/>
     </g>
     <g id="XMLID_4198_">
      <path id="XMLID_4345_" class="fil6" d="M742.64 795.2c-0.53,-20.66 -17.46,-37.22 -38.25,-37.22 -20.76,0 -37.72,16.56 -38.25,37.22 -0.03,0.37 -0.03,0.7 -0.03,1.07 0,0.37 0,0.7 0.03,1.07 0.43,5.3 4.17,10.5 11.2,14.56 14.93,8.63 39.19,8.63 54.15,0 7,-4.07 10.73,-9.26 11.16,-14.56 0.03,-0.37 0.03,-0.7 0.03,-1.07 0,-0.37 0,-0.7 -0.03,-1.07z"/>
      <path id="XMLID_4343_" class="fil16" d="M742.64 795.2c-0.53,-20.66 -17.46,-37.22 -38.25,-37.22 -20.76,0 -37.72,16.56 -38.25,37.22 -0.03,0.37 -0.03,0.7 -0.03,1.07 0,0.37 0,0.7 0.03,1.07 0.43,5.3 4.17,10.5 11.2,14.56 14.93,8.63 39.19,8.63 54.15,0 7,-4.07 10.73,-9.26 11.16,-14.56 0.03,-0.37 0.03,-0.7 0.03,-1.07 0,-0.37 0,-0.7 -0.03,-1.07z"/>
      <path id="XMLID_4341_" class="fil11" d="M721 761.8l0 0c-5.03,-2.42 -10.65,-3.82 -16.6,-3.82 -20.76,0 -37.72,16.56 -38.25,37.22 -0.03,0.37 -0.03,0.7 -0.03,1.07 0,0.37 0,0.7 0.03,1.07 0.43,5.3 4.17,10.5 11.2,14.56 5.46,3.15 12.16,5.14 19.2,5.99 -9.93,-1.71 -16.35,-12.8 -13.3,-25.04 3.54,-14.2 17.89,-34.72 37.76,-31.05z"/>
      <path id="XMLID_4339_" class="fil10" d="M742.64 797.33c0.03,-0.37 0.03,-0.7 0.03,-1.07 0,-0.37 0,-0.7 -0.03,-1.07 -0.29,-11.03 -5.27,-20.85 -12.99,-27.65 4.16,4.27 13.4,20.38 3.36,32.66 -6.61,8.08 -37.98,19.6 -63.79,4.79 1.87,2.5 4.57,4.84 8.12,6.89 14.93,8.63 39.19,8.63 54.15,0 6.99,-4.06 10.73,-9.26 11.16,-14.56z"/>
      <path id="XMLID_4243_" class="fil9" d="M704 766.61c1.71,3.9 -1.58,9.12 -7.35,11.65 -5.77,2.53 -11.84,1.43 -13.55,-2.47 -1.71,-3.9 1.58,-9.12 7.35,-11.65 5.77,-2.53 11.84,-1.43 13.55,2.47z"/>
      <path id="XMLID_4202_" class="fil9" d="M681.84 782.49c0.89,2.03 -0.4,4.56 -2.89,5.66 -2.49,1.09 -5.23,0.33 -6.12,-1.7 -0.89,-2.03 0.4,-4.56 2.89,-5.66 2.49,-1.1 5.23,-0.33 6.12,1.7z"/>
     </g>
     <g id="XMLID_4155_">
      <path id="XMLID_4194_" class="fil6" d="M674.78 813.83c-0.66,-25.64 -21.67,-46.19 -47.48,-46.19 -25.76,0 -46.81,20.55 -47.47,46.19 -0.04,0.46 -0.04,0.87 -0.04,1.32 0,0.46 0,0.87 0.04,1.32 0.54,6.57 5.17,13.03 13.89,18.07 18.52,10.71 48.63,10.71 67.2,0 8.68,-5.05 13.32,-11.49 13.85,-18.07 0.04,-0.46 0.04,-0.87 0.04,-1.32 0,-0.46 0,-0.87 -0.04,-1.32z"/>
      <path id="XMLID_4192_" class="fil8" d="M674.78 813.83c-0.66,-25.64 -21.67,-46.19 -47.48,-46.19 -25.76,0 -46.81,20.55 -47.47,46.19 -0.04,0.46 -0.04,0.87 -0.04,1.32 0,0.46 0,0.87 0.04,1.32 0.54,6.57 5.17,13.03 13.89,18.07 18.52,10.71 48.63,10.71 67.2,0 8.68,-5.05 13.32,-11.49 13.85,-18.07 0.04,-0.46 0.04,-0.87 0.04,-1.32 0,-0.46 0,-0.87 -0.04,-1.32z"/>
      <path id="XMLID_4190_" class="fil9" d="M647.91 772.38l0 0c-6.24,-3.01 -13.21,-4.74 -20.61,-4.74 -25.76,0 -46.81,20.55 -47.47,46.19 -0.04,0.46 -0.04,0.87 -0.04,1.32 0,0.46 0,0.87 0.04,1.32 0.54,6.57 5.17,13.03 13.89,18.07 6.77,3.92 15.1,6.38 23.83,7.43 -12.32,-2.13 -20.29,-15.88 -16.5,-31.07 4.39,-17.62 22.21,-43.08 46.86,-38.53z"/>
      <path id="XMLID_4187_" class="fil10" d="M674.78 816.47c0.04,-0.46 0.04,-0.87 0.04,-1.32 0,-0.46 0,-0.87 -0.04,-1.32 -0.35,-13.69 -6.54,-25.88 -16.12,-34.32 5.16,5.31 16.64,25.3 4.17,40.54 -8.2,10.02 -47.14,24.33 -79.17,5.95 2.32,3.1 5.67,6.01 10.08,8.55 18.52,10.71 48.63,10.71 67.2,0 8.68,-5.05 13.32,-11.5 13.85,-18.07z"/>
      <path id="XMLID_4166_" class="fil9" d="M626.82 778.34c2.13,4.84 -1.96,11.31 -9.12,14.46 -7.16,3.15 -14.69,1.77 -16.82,-3.07 -2.13,-4.84 1.96,-11.31 9.12,-14.46 7.16,-3.15 14.69,-1.77 16.82,3.07z"/>
      <path id="XMLID_4156_" class="fil9" d="M599.31 798.04c1.11,2.52 -0.5,5.67 -3.59,7.02 -3.09,1.36 -6.49,0.41 -7.6,-2.11 -1.11,-2.52 0.5,-5.67 3.59,-7.02 3.09,-1.36 6.49,-0.41 7.6,2.11z"/>
     </g>
     <g id="XMLID_4076_">
      <path id="XMLID_4152_" class="fil6" d="M807.77 778.84c-0.23,-9.07 -7.66,-16.33 -16.78,-16.33 -9.11,0 -16.55,7.27 -16.78,16.33 -0.02,0.16 -0.02,0.31 -0.02,0.47 0,0.16 0,0.31 0.02,0.47 0.19,2.33 1.83,4.61 4.91,6.39 6.55,3.79 17.2,3.79 23.76,0 3.07,-1.78 4.71,-4.07 4.9,-6.39 0.02,-0.16 0.02,-0.31 0.02,-0.47 -0.01,-0.16 -0.01,-0.3 -0.02,-0.47z"/>
      <path id="XMLID_4098_" class="fil17" d="M807.77 778.84c-0.23,-9.07 -7.66,-16.33 -16.78,-16.33 -9.11,0 -16.55,7.27 -16.78,16.33 -0.02,0.16 -0.02,0.31 -0.02,0.47 0,0.16 0,0.31 0.02,0.47 0.19,2.33 1.83,4.61 4.91,6.39 6.55,3.79 17.2,3.79 23.76,0 3.07,-1.78 4.71,-4.07 4.9,-6.39 0.02,-0.16 0.02,-0.31 0.02,-0.47 -0.01,-0.16 -0.01,-0.3 -0.02,-0.47z"/>
      <path id="XMLID_4096_" class="fil11" d="M798.27 764.18l0 0c-2.21,-1.06 -4.67,-1.68 -7.29,-1.68 -9.11,0 -16.55,7.27 -16.78,16.33 -0.02,0.16 -0.02,0.31 -0.02,0.47 0,0.16 0,0.31 0.02,0.47 0.19,2.33 1.83,4.61 4.91,6.39 2.39,1.38 5.34,2.26 8.42,2.63 -4.35,-0.75 -7.17,-5.61 -5.84,-10.99 1.55,-6.23 7.85,-15.23 16.57,-13.62z"/>
      <path id="XMLID_4094_" class="fil18" d="M807.77 779.78c0.02,-0.16 0.02,-0.31 0.02,-0.47 0,-0.16 0,-0.31 -0.02,-0.47 -0.12,-4.84 -2.31,-9.15 -5.7,-12.13 1.82,1.88 5.88,8.94 1.47,14.33 -2.9,3.55 -16.67,8.6 -27.99,2.1 0.82,1.09 2.01,2.12 3.56,3.02 6.55,3.79 17.2,3.79 23.76,0 3.07,-1.78 4.71,-4.06 4.9,-6.39z"/>
      <path id="XMLID_4092_" class="fil9" d="M790.82 766.29c0.75,1.71 -0.69,4 -3.22,5.11 -2.53,1.11 -5.2,0.63 -5.95,-1.09 -0.75,-1.71 0.69,-4 3.22,-5.11 2.53,-1.11 5.2,-0.63 5.95,1.09z"/>
      <path id="XMLID_4077_" class="fil9" d="M781.09 773.26c0.39,0.89 -0.18,2 -1.27,2.48 -1.09,0.48 -2.3,0.15 -2.69,-0.75 -0.39,-0.89 0.18,-2 1.27,-2.48 1.09,-0.48 2.3,-0.14 2.69,0.75z"/>
     </g>
     <g id="XMLID_4044_">
      <path id="XMLID_4069_" class="fil6" d="M231.61 758.16c0.39,-15 12.68,-27.03 27.78,-27.03 15.08,0 27.39,12.03 27.78,27.03 0.02,0.27 0.02,0.51 0.02,0.77 0,0.27 0,0.51 -0.02,0.77 -0.31,3.85 -3.03,7.62 -8.13,10.58 -10.84,6.27 -28.46,6.27 -39.32,0 -5.08,-2.95 -7.79,-6.73 -8.11,-10.58 -0.02,-0.27 -0.02,-0.51 -0.02,-0.77 0,-0.27 0,-0.51 0.02,-0.77z"/>
      <path id="XMLID_4059_" class="fil11" d="M231.61 758.16c0.39,-15 12.68,-27.03 27.78,-27.03 15.08,0 27.39,12.03 27.78,27.03 0.02,0.27 0.02,0.51 0.02,0.77 0,0.27 0,0.51 -0.02,0.77 -0.31,3.85 -3.03,7.62 -8.13,10.58 -10.84,6.27 -28.46,6.27 -39.32,0 -5.08,-2.95 -7.79,-6.73 -8.11,-10.58 -0.02,-0.27 -0.02,-0.51 -0.02,-0.77 0,-0.27 0,-0.51 0.02,-0.77z"/>
      <path id="XMLID_4057_" class="fil11" d="M247.33 733.91l0 0c3.65,-1.76 7.73,-2.78 12.06,-2.78 15.08,0 27.39,12.03 27.78,27.03 0.02,0.27 0.02,0.51 0.02,0.77 0,0.27 0,0.51 -0.02,0.77 -0.31,3.85 -3.03,7.62 -8.13,10.58 -3.96,2.29 -8.83,3.74 -13.94,4.35 7.21,-1.24 11.88,-9.29 9.66,-18.18 -2.57,-10.31 -13,-25.21 -27.42,-22.55z"/>
      <path id="XMLID_4053_" class="fil15" d="M231.61 759.71c-0.02,-0.27 -0.02,-0.51 -0.02,-0.77 0,-0.27 0,-0.51 0.02,-0.77 0.21,-8.01 3.83,-15.15 9.43,-20.08 -3.02,3.1 -9.73,14.8 -2.44,23.72 4.8,5.86 27.58,14.24 46.33,3.48 -1.36,1.81 -3.32,3.51 -5.9,5 -10.84,6.27 -28.46,6.27 -39.32,0 -5.08,-2.95 -7.79,-6.72 -8.11,-10.57z"/>
      <path id="XMLID_4051_" class="fil9" d="M259.67 737.4c-1.24,2.83 1.15,6.62 5.34,8.46 4.19,1.84 8.6,1.04 9.84,-1.8 1.24,-2.83 -1.15,-6.62 -5.34,-8.46 -4.19,-1.84 -8.6,-1.04 -9.84,1.8z"/>
      <path id="XMLID_4045_" class="fil9" d="M275.77 748.93c-0.65,1.47 0.29,3.31 2.1,4.11 1.81,0.79 3.8,0.24 4.45,-1.23 0.65,-1.47 -0.29,-3.31 -2.1,-4.11 -1.81,-0.79 -3.8,-0.24 -4.45,1.24z"/>
     </g>
     <g id="XMLID_4020_">
      <path id="XMLID_4042_" class="fil6" d="M291.19 768.77c0.56,-21.76 18.39,-39.21 40.29,-39.21 21.87,0 39.73,17.45 40.29,39.21 0.03,0.39 0.03,0.74 0.03,1.12 0,0.39 0,0.74 -0.03,1.12 -0.46,5.58 -4.39,11.06 -11.79,15.34 -15.72,9.09 -41.28,9.09 -57.04,0 -7.37,-4.28 -11.3,-9.76 -11.76,-15.34 -0.03,-0.39 -0.03,-0.74 -0.03,-1.12 -0,-0.39 -0,-0.74 0.03,-1.12z"/>
      <path id="XMLID_4040_" class="fil12" d="M291.19 768.77c0.56,-21.76 18.39,-39.21 40.29,-39.21 21.87,0 39.73,17.45 40.29,39.21 0.03,0.39 0.03,0.74 0.03,1.12 0,0.39 0,0.74 -0.03,1.12 -0.46,5.58 -4.39,11.06 -11.79,15.34 -15.72,9.09 -41.28,9.09 -57.04,0 -7.37,-4.28 -11.3,-9.76 -11.76,-15.34 -0.03,-0.39 -0.03,-0.74 -0.03,-1.12 -0,-0.39 -0,-0.74 0.03,-1.12z"/>
      <path id="XMLID_4038_" class="fil9" d="M314 733.59l0 0c5.3,-2.56 11.21,-4.03 17.49,-4.03 21.87,0 39.73,17.45 40.29,39.21 0.03,0.39 0.03,0.74 0.03,1.12 0,0.39 0,0.74 -0.03,1.12 -0.46,5.58 -4.39,11.06 -11.79,15.34 -5.75,3.32 -12.81,5.42 -20.22,6.31 10.46,-1.81 17.22,-13.48 14.01,-26.37 -3.73,-14.95 -18.85,-36.57 -39.78,-32.7z"/>
      <path id="XMLID_4036_" class="fil10" d="M291.19 771.02c-0.03,-0.39 -0.03,-0.74 -0.03,-1.12 0,-0.39 0,-0.74 0.03,-1.12 0.3,-11.62 5.55,-21.97 13.68,-29.13 -4.38,4.5 -14.12,21.47 -3.54,34.41 6.96,8.51 40.01,20.65 67.2,5.05 -1.97,2.63 -4.81,5.1 -8.55,7.26 -15.72,9.09 -41.28,9.09 -57.04,0 -7.37,-4.28 -11.3,-9.76 -11.76,-15.34z"/>
      <path id="XMLID_4023_" class="fil11" d="M331.9 738.65c-1.81,4.11 1.66,9.6 7.74,12.27 6.08,2.67 12.47,1.5 14.28,-2.6 1.81,-4.11 -1.66,-9.6 -7.74,-12.27 -6.08,-2.67 -12.47,-1.5 -14.28,2.6z"/>
      <path id="XMLID_4021_" class="fil11" d="M355.25 755.38c-0.94,2.14 0.42,4.81 3.05,5.96 2.62,1.15 5.51,0.35 6.45,-1.79 0.94,-2.14 -0.42,-4.81 -3.05,-5.96 -2.62,-1.15 -5.51,-0.35 -6.45,1.79z"/>
     </g>
     <g id="XMLID_4006_">
      <path id="XMLID_4017_" class="fil6" d="M255.71 792.43c0.53,-20.66 17.46,-37.22 38.25,-37.22 20.76,0 37.72,16.56 38.25,37.22 0.03,0.37 0.03,0.7 0.03,1.07 0,0.37 0,0.7 -0.03,1.07 -0.43,5.3 -4.17,10.5 -11.2,14.56 -14.93,8.63 -39.19,8.63 -54.15,0 -7,-4.07 -10.73,-9.26 -11.16,-14.56 -0.03,-0.37 -0.03,-0.7 -0.03,-1.07 0,-0.37 -0,-0.7 0.03,-1.07z"/>
      <path id="XMLID_4015_" class="fil16" d="M255.71 792.43c0.53,-20.66 17.46,-37.22 38.25,-37.22 20.76,0 37.72,16.56 38.25,37.22 0.03,0.37 0.03,0.7 0.03,1.07 0,0.37 0,0.7 -0.03,1.07 -0.43,5.3 -4.17,10.5 -11.2,14.56 -14.93,8.63 -39.19,8.63 -54.15,0 -7,-4.07 -10.73,-9.26 -11.16,-14.56 -0.03,-0.37 -0.03,-0.7 -0.03,-1.07 0,-0.37 -0,-0.7 0.03,-1.07z"/>
      <path id="XMLID_4013_" class="fil11" d="M277.36 759.03l0 0c5.03,-2.42 10.65,-3.82 16.6,-3.82 20.76,0 37.72,16.56 38.25,37.22 0.03,0.37 0.03,0.7 0.03,1.07 0,0.37 0,0.7 -0.03,1.07 -0.43,5.3 -4.17,10.5 -11.2,14.56 -5.46,3.15 -12.16,5.14 -19.2,5.99 9.93,-1.71 16.35,-12.8 13.3,-25.04 -3.54,-14.2 -17.89,-34.72 -37.76,-31.05z"/>
      <path id="XMLID_4011_" class="fil19" d="M255.71 794.56c-0.03,-0.37 -0.03,-0.7 -0.03,-1.07 0,-0.37 0,-0.7 0.03,-1.07 0.29,-11.03 5.27,-20.86 12.99,-27.65 -4.16,4.27 -13.4,20.38 -3.36,32.66 6.61,8.08 37.98,19.6 63.79,4.79 -1.87,2.5 -4.57,4.84 -8.12,6.89 -14.93,8.63 -39.19,8.63 -54.15,0 -7,-4.06 -10.73,-9.26 -11.16,-14.56z"/>
      <path id="XMLID_4009_" class="fil9" d="M294.35 763.84c-1.71,3.9 1.58,9.12 7.35,11.65 5.77,2.53 11.84,1.43 13.55,-2.47 1.71,-3.9 -1.58,-9.12 -7.35,-11.65 -5.77,-2.53 -11.84,-1.43 -13.55,2.47z"/>
      <path id="XMLID_4007_" class="fil9" d="M316.52 779.71c-0.89,2.03 0.4,4.56 2.89,5.66 2.49,1.09 5.23,0.33 6.12,-1.7 0.89,-2.03 -0.4,-4.57 -2.89,-5.66 -2.49,-1.1 -5.23,-0.33 -6.12,1.7z"/>
     </g>
     <g id="XMLID_3977_">
      <path id="XMLID_4004_" class="fil6" d="M336.88 809.22c0.66,-25.64 21.67,-46.19 47.47,-46.19 25.76,0 46.81,20.55 47.48,46.19 0.04,0.46 0.04,0.87 0.04,1.32 0,0.46 0,0.87 -0.04,1.32 -0.54,6.57 -5.17,13.03 -13.89,18.07 -18.52,10.71 -48.63,10.71 -67.2,0 -8.68,-5.05 -13.32,-11.49 -13.85,-18.07 -0.04,-0.46 -0.04,-0.87 -0.04,-1.32 -0,-0.46 -0,-0.87 0.04,-1.32z"/>
      <path id="XMLID_4002_" class="fil8" d="M336.88 809.22c0.66,-25.64 21.67,-46.19 47.47,-46.19 25.76,0 46.81,20.55 47.48,46.19 0.04,0.46 0.04,0.87 0.04,1.32 0,0.46 0,0.87 -0.04,1.32 -0.54,6.57 -5.17,13.03 -13.89,18.07 -18.52,10.71 -48.63,10.71 -67.2,0 -8.68,-5.05 -13.32,-11.49 -13.85,-18.07 -0.04,-0.46 -0.04,-0.87 -0.04,-1.32 -0,-0.46 -0,-0.87 0.04,-1.32z"/>
      <path id="XMLID_3986_" class="fil9" d="M363.74 767.77l0 0c6.24,-3.01 13.21,-4.74 20.61,-4.74 25.76,0 46.81,20.55 47.48,46.19 0.04,0.46 0.04,0.87 0.04,1.32 0,0.46 0,0.87 -0.04,1.32 -0.54,6.57 -5.17,13.03 -13.89,18.07 -6.77,3.92 -15.09,6.38 -23.83,7.43 12.32,-2.13 20.29,-15.88 16.5,-31.07 -4.39,-17.62 -22.21,-43.08 -46.87,-38.53z"/>
      <path id="XMLID_3984_" class="fil10" d="M336.88 811.87c-0.04,-0.46 -0.04,-0.87 -0.04,-1.32 0,-0.46 0,-0.87 0.04,-1.32 0.35,-13.69 6.54,-25.88 16.12,-34.32 -5.16,5.31 -16.64,25.3 -4.17,40.54 8.2,10.02 47.14,24.33 79.17,5.95 -2.32,3.1 -5.67,6.01 -10.08,8.55 -18.52,10.71 -48.63,10.71 -67.2,0 -8.68,-5.05 -13.32,-11.5 -13.85,-18.07z"/>
      <path id="XMLID_3980_" class="fil9" d="M384.84 773.74c-2.13,4.84 1.96,11.31 9.12,14.46 7.16,3.15 14.69,1.77 16.82,-3.07 2.13,-4.84 -1.96,-11.31 -9.12,-14.46 -7.16,-3.15 -14.69,-1.77 -16.82,3.07z"/>
      <path id="XMLID_3978_" class="fil9" d="M412.35 793.44c-1.11,2.52 0.5,5.67 3.59,7.02 3.09,1.36 6.49,0.41 7.6,-2.11 1.11,-2.52 -0.5,-5.67 -3.59,-7.02 -3.09,-1.36 -6.49,-0.42 -7.6,2.1z"/>
     </g>
     <g id="XMLID_3964_">
      <path id="XMLID_3975_" class="fil6" d="M591.37 840.64c-0.6,-23.41 -19.78,-42.17 -43.34,-42.17 -23.52,0 -42.73,18.76 -43.34,42.17 -0.04,0.41 -0.04,0.79 -0.04,1.21 0,0.42 0,0.79 0.04,1.21 0.49,6 4.72,11.89 12.69,16.5 16.91,9.78 44.4,9.78 61.35,0 7.93,-4.61 12.16,-10.5 12.65,-16.5 0.04,-0.41 0.04,-0.79 0.04,-1.21 -0.01,-0.41 -0.01,-0.79 -0.04,-1.21z"/>
      <path id="XMLID_3973_" class="fil7" d="M591.37 840.64c-0.6,-23.41 -19.78,-42.17 -43.34,-42.17 -23.52,0 -42.73,18.76 -43.34,42.17 -0.04,0.41 -0.04,0.79 -0.04,1.21 0,0.42 0,0.79 0.04,1.21 0.49,6 4.72,11.89 12.69,16.5 16.91,9.78 44.4,9.78 61.35,0 7.93,-4.61 12.16,-10.5 12.65,-16.5 0.04,-0.41 0.04,-0.79 0.04,-1.21 -0.01,-0.41 -0.01,-0.79 -0.04,-1.21z"/>
      <path id="XMLID_3971_" class="fil11" d="M566.85 802.8l0 0c-5.7,-2.75 -12.06,-4.33 -18.81,-4.33 -23.52,0 -42.73,18.76 -43.34,42.17 -0.04,0.41 -0.04,0.79 -0.04,1.21 0,0.42 0,0.79 0.04,1.21 0.49,6 4.72,11.89 12.69,16.5 6.18,3.57 13.78,5.83 21.75,6.79 -11.25,-1.94 -18.53,-14.5 -15.07,-28.37 4.01,-16.08 20.27,-39.33 42.78,-35.17z"/>
      <path id="XMLID_3969_" class="fil10" d="M591.37 843.06c0.04,-0.41 0.04,-0.79 0.04,-1.21 0,-0.41 0,-0.79 -0.04,-1.21 -0.32,-12.49 -5.97,-23.63 -14.72,-31.33 4.71,4.84 15.19,23.1 3.8,37.01 -7.49,9.15 -43.03,22.21 -72.28,5.43 2.12,2.83 5.18,5.48 9.2,7.8 16.91,9.78 44.4,9.78 61.35,0 7.92,-4.6 12.15,-10.49 12.64,-16.49z"/>
      <path id="XMLID_3967_" class="fil11" d="M547.59 808.25c1.94,4.42 -1.79,10.33 -8.33,13.2 -6.54,2.87 -13.42,1.62 -15.35,-2.8 -1.94,-4.42 1.79,-10.33 8.33,-13.2 6.54,-2.87 13.42,-1.62 15.35,2.8z"/>
      <path id="XMLID_3965_" class="fil11" d="M522.48 826.24c1.01,2.3 -0.46,5.17 -3.28,6.41 -2.82,1.24 -5.93,0.38 -6.94,-1.92 -1.01,-2.3 0.46,-5.17 3.28,-6.41 2.82,-1.24 5.93,-0.38 6.94,1.92z"/>
     </g>
     <g id="XMLID_3949_">
      <path id="XMLID_3962_" class="fil6" d="M410.34 845.36c0.57,-22.26 18.81,-40.11 41.22,-40.11 22.37,0 40.64,17.84 41.22,40.11 0.03,0.39 0.03,0.75 0.03,1.15 0,0.39 0,0.75 -0.03,1.15 -0.47,5.71 -4.49,11.31 -12.06,15.69 -16.08,9.3 -42.22,9.3 -58.35,0 -7.54,-4.38 -11.56,-9.98 -12.03,-15.69 -0.03,-0.39 -0.03,-0.75 -0.03,-1.15 -0,-0.39 -0,-0.75 0.03,-1.15z"/>
      <path id="XMLID_3960_" class="fil7" d="M410.34 845.36c0.57,-22.26 18.81,-40.11 41.22,-40.11 22.37,0 40.64,17.84 41.22,40.11 0.03,0.39 0.03,0.75 0.03,1.15 0,0.39 0,0.75 -0.03,1.15 -0.47,5.71 -4.49,11.31 -12.06,15.69 -16.08,9.3 -42.22,9.3 -58.35,0 -7.54,-4.38 -11.56,-9.98 -12.03,-15.69 -0.03,-0.39 -0.03,-0.75 -0.03,-1.15 -0,-0.39 -0,-0.75 0.03,-1.15z"/>
      <path id="XMLID_3956_" class="fil11" d="M433.67 809.37l0 0c5.42,-2.61 11.47,-4.12 17.89,-4.12 22.37,0 40.64,17.84 41.22,40.11 0.03,0.39 0.03,0.75 0.03,1.15 0,0.39 0,0.75 -0.03,1.15 -0.47,5.71 -4.49,11.31 -12.06,15.69 -5.88,3.4 -13.1,5.54 -20.69,6.46 10.7,-1.85 17.62,-13.79 14.33,-26.98 -3.82,-15.3 -19.28,-37.41 -40.69,-33.46z"/>
      <path id="XMLID_3954_" class="fil10" d="M410.34 847.66c-0.03,-0.39 -0.03,-0.75 -0.03,-1.15 0,-0.39 0,-0.75 0.03,-1.15 0.3,-11.88 5.68,-22.47 14,-29.8 -4.48,4.61 -14.44,21.97 -3.62,35.2 7.12,8.7 40.92,21.12 68.74,5.16 -2.01,2.69 -4.92,5.21 -8.75,7.43 -16.08,9.3 -42.22,9.3 -58.35,0 -7.54,-4.38 -11.56,-9.98 -12.03,-15.69z"/>
      <path id="XMLID_3952_" class="fil11" d="M451.98 814.55c-1.85,4.2 1.7,9.82 7.92,12.56 6.22,2.73 12.76,1.54 14.6,-2.66 1.85,-4.2 -1.7,-9.82 -7.92,-12.56 -6.22,-2.73 -12.76,-1.54 -14.6,2.66z"/>
      <path id="XMLID_3950_" class="fil11" d="M475.87 831.65c-0.96,2.19 0.43,4.92 3.12,6.1 2.68,1.18 5.64,0.36 6.6,-1.83 0.96,-2.19 -0.43,-4.92 -3.12,-6.1 -2.69,-1.18 -5.64,-0.36 -6.6,1.83z"/>
     </g>
     <g id="XMLID_3935_">
      <path id="XMLID_3947_" class="fil6" d="M517.31 859.77c-0.23,-9.07 -7.66,-16.33 -16.78,-16.33 -9.11,0 -16.55,7.27 -16.78,16.33 -0.02,0.16 -0.02,0.31 -0.02,0.47 0,0.16 0,0.31 0.02,0.47 0.19,2.33 1.83,4.61 4.91,6.39 6.55,3.79 17.2,3.79 23.76,0 3.07,-1.78 4.71,-4.07 4.9,-6.39 0.02,-0.16 0.02,-0.31 0.02,-0.47 -0.01,-0.16 -0.01,-0.31 -0.02,-0.47z"/>
      <path id="XMLID_3944_" class="fil7" d="M517.31 859.77c-0.23,-9.07 -7.66,-16.33 -16.78,-16.33 -9.11,0 -16.55,7.27 -16.78,16.33 -0.02,0.16 -0.02,0.31 -0.02,0.47 0,0.16 0,0.31 0.02,0.47 0.19,2.33 1.83,4.61 4.91,6.39 6.55,3.79 17.2,3.79 23.76,0 3.07,-1.78 4.71,-4.07 4.9,-6.39 0.02,-0.16 0.02,-0.31 0.02,-0.47 -0.01,-0.16 -0.01,-0.31 -0.02,-0.47z"/>
      <path id="XMLID_3942_" class="fil16" d="M507.81 845.11l0 0c-2.21,-1.06 -4.67,-1.68 -7.29,-1.68 -9.11,0 -16.55,7.27 -16.78,16.33 -0.02,0.16 -0.02,0.31 -0.02,0.47 0,0.16 0,0.31 0.02,0.47 0.19,2.33 1.83,4.61 4.91,6.39 2.39,1.38 5.34,2.26 8.42,2.63 -4.35,-0.75 -7.17,-5.61 -5.84,-10.99 1.55,-6.23 7.85,-15.23 16.57,-13.62z"/>
      <path id="XMLID_3940_" class="fil10" d="M517.31 860.71c0.02,-0.16 0.02,-0.31 0.02,-0.47 0,-0.16 0,-0.3 -0.02,-0.47 -0.12,-4.84 -2.31,-9.15 -5.7,-12.13 1.82,1.88 5.88,8.94 1.47,14.33 -2.9,3.55 -16.67,8.6 -27.99,2.1 0.82,1.09 2,2.12 3.56,3.02 6.55,3.79 17.2,3.79 23.76,0 3.07,-1.78 4.71,-4.07 4.9,-6.39z"/>
      <path id="XMLID_3938_" class="fil11" d="M500.35 847.22c0.75,1.71 -0.69,4 -3.22,5.11 -2.53,1.11 -5.2,0.63 -5.95,-1.09 -0.75,-1.71 0.69,-4 3.22,-5.11 2.53,-1.11 5.2,-0.63 5.95,1.09z"/>
      <path id="XMLID_3936_" class="fil11" d="M490.62 854.19c0.39,0.89 -0.18,2 -1.27,2.48 -1.09,0.48 -2.3,0.15 -2.69,-0.75 -0.39,-0.89 0.18,-2 1.27,-2.48 1.09,-0.48 2.3,-0.15 2.69,0.75z"/>
     </g>
     <g id="XMLID_512_">
      <path id="XMLID_3933_" class="fil6" d="M208.1 764.67c0.23,-9.07 7.66,-16.33 16.78,-16.33 9.11,0 16.55,7.27 16.79,16.33 0.01,0.16 0.01,0.31 0.01,0.47 0,0.16 0,0.31 -0.01,0.47 -0.19,2.33 -1.83,4.61 -4.91,6.39 -6.55,3.79 -17.2,3.79 -23.76,0 -3.07,-1.78 -4.71,-4.07 -4.9,-6.39 -0.02,-0.16 -0.02,-0.31 -0.02,-0.47 0,-0.16 0,-0.3 0.02,-0.47z"/>
      <path id="XMLID_3931_" class="fil17" d="M208.1 764.67c0.23,-9.07 7.66,-16.33 16.78,-16.33 9.11,0 16.55,7.27 16.79,16.33 0.01,0.16 0.01,0.31 0.01,0.47 0,0.16 0,0.31 -0.01,0.47 -0.19,2.33 -1.83,4.61 -4.91,6.39 -6.55,3.79 -17.2,3.79 -23.76,0 -3.07,-1.78 -4.71,-4.07 -4.9,-6.39 -0.02,-0.16 -0.02,-0.31 -0.02,-0.47 0,-0.16 0,-0.3 0.02,-0.47z"/>
      <path id="XMLID_3929_" class="fil11" d="M217.6 750.02l0 0c2.21,-1.07 4.67,-1.68 7.29,-1.68 9.11,0 16.55,7.27 16.79,16.33 0.01,0.16 0.01,0.31 0.01,0.47 0,0.16 0,0.31 -0.01,0.47 -0.19,2.33 -1.83,4.61 -4.91,6.39 -2.39,1.38 -5.34,2.26 -8.42,2.63 4.35,-0.75 7.17,-5.61 5.84,-10.99 -1.55,-6.23 -7.86,-15.24 -16.57,-13.63z"/>
      <path id="XMLID_3927_" class="fil18" d="M208.1 765.61c-0.02,-0.16 -0.02,-0.31 -0.02,-0.47 0,-0.16 0,-0.31 0.02,-0.47 0.12,-4.84 2.31,-9.15 5.7,-12.13 -1.82,1.88 -5.88,8.94 -1.47,14.33 2.9,3.55 16.67,8.6 27.99,2.1 -0.82,1.09 -2,2.12 -3.56,3.02 -6.55,3.79 -17.2,3.79 -23.76,0 -3.07,-1.78 -4.71,-4.06 -4.9,-6.39z"/>
      <path id="XMLID_516_" class="fil9" d="M225.05 752.13c-0.75,1.71 0.69,4 3.22,5.11 2.53,1.11 5.2,0.63 5.95,-1.09 0.75,-1.71 -0.69,-4 -3.22,-5.11 -2.53,-1.11 -5.2,-0.63 -5.95,1.09z"/>
      <path id="XMLID_513_" class="fil9" d="M234.78 759.1c-0.39,0.89 0.18,2 1.27,2.48 1.09,0.48 2.3,0.15 2.69,-0.75 0.39,-0.89 -0.18,-2 -1.27,-2.48 -1.09,-0.48 -2.3,-0.14 -2.69,0.75z"/>
     </g>
    </g>
    <g>
     <g>
      <g id="XMLID_5313_">
       <g id="XMLID_5371_">
        <g id="XMLID_5374_">
         <g id="XMLID_5395_">
          <path id="XMLID_5403_" class="fil6" d="M566 591.48l-14.6 0 -14.6 0c-4.17,25.22 9.22,44.57 14.6,44.57 5.38,-0 18.77,-19.35 14.6,-44.57z"/>
          <path id="XMLID_5398_" class="fil12" d="M566 591.48l-14.6 0 -14.6 0c-4.17,25.22 9.22,44.57 14.6,44.57 5.38,-0 18.77,-19.35 14.6,-44.57z"/>
          <path id="XMLID_5396_" class="fil20" d="M551.4 591.48l5 0c0,0 3.45,5.14 2.71,13.47 -0.6,6.8 -4.71,15.64 -7.71,15.64 -3.01,0 -7.11,-8.84 -7.71,-15.64 -0.74,-8.33 2.71,-13.47 2.71,-13.47l5 0z"/>
         </g>
         <g id="XMLID_5375_">
          <g id="XMLID_5376_">
           <g id="XMLID_5377_">
            <path id="XMLID_5389_" class="fil6" d="M565.9 546.1l-30.23 10.68 -2.35 10.05c-0.31,3.84 1.51,7.75 5.46,10.68 1.38,1.03 2.94,1.86 4.58,2.5 5.45,2.12 12.01,2.1 17.45,-0.04 1.61,-0.64 3.13,-1.45 4.48,-2.46 3.95,-2.93 5.77,-6.85 5.46,-10.69l-4.86 -20.72z"/>
            <path id="XMLID_5387_" class="fil17" d="M565.9 546.1l-30.23 10.68 -2.35 10.05c-0.31,3.84 1.51,7.75 5.46,10.68 1.38,1.03 2.94,1.86 4.58,2.5 5.45,2.12 12.01,2.1 17.45,-0.04 1.61,-0.64 3.13,-1.45 4.48,-2.46 3.95,-2.93 5.77,-6.85 5.46,-10.69l-4.86 -20.72z"/>
            <g id="XMLID_5380_">
             <path id="XMLID_5383_" class="fil6" d="M571.47 569.88l0.99 4.24c0.14,4.02 -1.85,8.07 -5.97,11.13 -1.49,1.11 -3.16,2.01 -4.93,2.7 -5.9,2.31 -13,2.32 -18.92,0.03 -1.81,-0.7 -3.51,-1.61 -5.03,-2.74 -4.14,-3.08 -6.13,-7.14 -5.97,-11.17l-2.75 11.78 0 0c0,3.97 2.26,7.94 6.79,10.97 1.78,1.19 3.78,2.14 5.9,2.86 6.6,2.24 14.48,2.24 21.07,-0.03 2.09,-0.72 4.05,-1.66 5.8,-2.83 4.53,-3.03 6.79,-7 6.79,-10.97l-3.74 -15.98z"/>
             <path id="XMLID_5381_" class="fil17" d="M571.47 569.88l0.99 4.24c0.14,4.02 -1.85,8.07 -5.97,11.13 -1.49,1.11 -3.16,2.01 -4.93,2.7 -5.9,2.31 -13,2.32 -18.92,0.03 -1.81,-0.7 -3.51,-1.61 -5.03,-2.74 -4.14,-3.08 -6.13,-7.14 -5.97,-11.17l-2.75 11.78 0 0c0,3.97 2.26,7.94 6.79,10.97 1.78,1.19 3.78,2.14 5.9,2.86 6.6,2.24 14.48,2.24 21.07,-0.03 2.09,-0.72 4.05,-1.66 5.8,-2.83 4.53,-3.03 6.79,-7 6.79,-10.97l-3.74 -15.98z"/>
            </g>
            <path id="XMLID_5378_" class="fil3" d="M571.45 569.79l-0.23 -0.99 -0.46 -1.98c0.31,3.84 -1.51,7.75 -5.46,10.69 -1.36,1.01 -2.87,1.83 -4.48,2.46 -5.44,2.14 -12,2.15 -17.45,0.04 -1.65,-0.64 -3.2,-1.47 -4.58,-2.5 -3.95,-2.93 -5.77,-6.85 -5.46,-10.68l-1.7 7.26c-0.16,4.03 1.83,8.1 5.97,11.17 1.52,1.13 3.22,2.04 5.03,2.74 5.92,2.28 13.01,2.27 18.92,-0.03 1.78,-0.69 3.44,-1.6 4.93,-2.7 4.12,-3.06 6.11,-7.12 5.97,-11.13l-1 -4.33z"/>
           </g>
          </g>
         </g>
        </g>
        <path id="XMLID_5372_" class="fil13" d="M568.44 556.94l-2.54 -10.85 -30.23 10.68 -2.35 10.05 0 0 -0.69 2.97 -1 4.29 0 0 -1.92 8.21c17.19,-4.89 31.05,-13.99 38.74,-25.35z"/>
       </g>
       <g id="XMLID_5343_">
        <g id="XMLID_5346_">
         <g id="XMLID_5364_">
          <path id="XMLID_5369_" class="fil6" d="M462.79 591.48l-14.6 0 -14.6 0c-4.17,25.22 9.22,44.57 14.6,44.57 5.38,-0 18.77,-19.35 14.6,-44.57z"/>
          <path id="XMLID_5367_" class="fil12" d="M462.79 591.48l-14.6 0 -14.6 0c-4.17,25.22 9.22,44.57 14.6,44.57 5.38,-0 18.77,-19.35 14.6,-44.57z"/>
          <path id="XMLID_5365_" class="fil20" d="M448.19 591.48l5 0c0,0 3.45,5.14 2.71,13.47 -0.6,6.8 -4.71,15.64 -7.71,15.64 -3.01,0 -7.11,-8.84 -7.71,-15.64 -0.74,-8.33 2.71,-13.47 2.71,-13.47l5 0z"/>
         </g>
         <g id="XMLID_5347_">
          <g id="XMLID_5348_">
           <g id="XMLID_5349_">
            <path id="XMLID_5358_" class="fil6" d="M462.69 546.1l-27.62 0 -4.95 20.73c-0.3,3.84 1.51,7.75 5.46,10.68 1.38,1.03 2.94,1.86 4.59,2.5 5.45,2.12 12.01,2.1 17.45,-0.04 1.62,-0.64 3.13,-1.45 4.49,-2.46 3.95,-2.93 5.77,-6.85 5.46,-10.69l-4.86 -20.73z"/>
            <path id="XMLID_5356_" class="fil17" d="M462.69 546.1l-27.62 0 -4.95 20.73c-0.3,3.84 1.51,7.75 5.46,10.68 1.38,1.03 2.94,1.86 4.59,2.5 5.45,2.12 12.01,2.1 17.45,-0.04 1.62,-0.64 3.13,-1.45 4.49,-2.46 3.95,-2.93 5.77,-6.85 5.46,-10.69l-4.86 -20.73z"/>
            <path id="XMLID_5354_" class="fil6" d="M468.01 568.8l0.23 0.99 1.01 4.33c0.14,4.02 -1.85,8.07 -5.97,11.13 -1.49,1.11 -3.16,2.01 -4.93,2.7 -5.9,2.31 -13,2.32 -18.91,0.03 -1.81,-0.7 -3.51,-1.61 -5.04,-2.74 -4.14,-3.08 -6.13,-7.14 -5.97,-11.17l-2.76 11.78 0 0c0,3.97 2.26,7.94 6.79,10.97 1.78,1.19 3.77,2.14 5.9,2.86 6.6,2.24 14.47,2.24 21.07,-0.03 2.09,-0.72 4.05,-1.66 5.8,-2.83 4.52,-3.03 6.79,-7 6.79,-10.97l-3.99 -17.06z"/>
            <path id="XMLID_5352_" class="fil17" d="M468.01 568.8l0.23 0.99 1.01 4.33c0.14,4.02 -1.85,8.07 -5.97,11.13 -1.49,1.11 -3.16,2.01 -4.93,2.7 -5.9,2.31 -13,2.32 -18.91,0.03 -1.81,-0.7 -3.51,-1.61 -5.04,-2.74 -4.14,-3.08 -6.13,-7.14 -5.97,-11.17l-2.76 11.78 0 0c0,3.97 2.26,7.94 6.79,10.97 1.78,1.19 3.77,2.14 5.9,2.86 6.6,2.24 14.47,2.24 21.07,-0.03 2.09,-0.72 4.05,-1.66 5.8,-2.83 4.52,-3.03 6.79,-7 6.79,-10.97l-3.99 -17.06z"/>
            <path id="XMLID_5350_" class="fil3" d="M468.24 569.79l-0.23 -0.99 -0.46 -1.98c0.3,3.84 -1.51,7.75 -5.46,10.69 -1.36,1.01 -2.87,1.83 -4.49,2.46 -5.44,2.14 -12,2.15 -17.45,0.04 -1.65,-0.64 -3.2,-1.47 -4.59,-2.5 -3.95,-2.93 -5.77,-6.85 -5.46,-10.68l-1.7 7.26c-0.16,4.03 1.83,8.1 5.97,11.17 1.52,1.13 3.22,2.04 5.04,2.74 5.91,2.28 13.01,2.27 18.91,-0.03 1.77,-0.69 3.44,-1.6 4.93,-2.7 4.13,-3.06 6.12,-7.12 5.97,-11.13l-1 -4.33z"/>
           </g>
          </g>
         </g>
        </g>
        <path id="XMLID_5344_" class="fil13" d="M435.07 546.1l-2.57 10.75c7.65,11.37 21.48,20.48 38.66,25.4l-3.14 -13.45 -0.46 -1.98 0 0 -4.86 -20.73 -27.62 0z"/>
       </g>
       <g id="XMLID_5314_">
        <g id="XMLID_5334_">
         <path id="XMLID_5341_" class="fil6" d="M528.87 609.85l-28.44 -7.37 -28.44 7.37c0,0 -3.41,15.24 0.31,39.11 3.72,23.87 20.35,47.75 28.13,47.75 7.78,0 24.4,-23.88 28.13,-47.75 3.72,-23.86 0.31,-39.11 0.31,-39.11z"/>
         <path id="XMLID_5339_" class="fil21" d="M528.87 609.85l-28.44 -7.37 -28.44 7.37c0,0 -3.41,15.24 0.31,39.11 3.72,23.87 20.35,47.75 28.13,47.75 7.78,0 24.4,-23.88 28.13,-47.75 3.72,-23.86 0.31,-39.11 0.31,-39.11z"/>
         <path id="XMLID_5337_" class="fil6" d="M519.05 613.29l-19.47 0 -19.47 0c-5.56,33.63 12.3,59.42 19.47,59.42 7.17,-0 25.03,-25.79 19.47,-59.42z"/>
         <path id="XMLID_5335_" class="fil20" d="M499.58 613.29l6.67 0c0,0 4.6,6.86 3.62,17.96 -0.8,9.07 -6.28,20.86 -10.28,20.86 -4.01,0 -9.48,-11.79 -10.28,-20.86 -0.99,-11.11 3.62,-17.96 3.62,-17.96l6.67 0z"/>
        </g>
        <g id="XMLID_5315_">
         <g id="XMLID_5318_">
          <g id="XMLID_5319_">
           <path id="XMLID_5328_" class="fil6" d="M525.39 578.04l-3.13 -13.4 -12.97 0 -17.57 0 -13.11 0 -3.13 13.4c-0.41,5.12 2.02,10.34 7.28,14.24 1.85,1.37 3.91,2.49 6.11,3.34 7.27,2.82 16.01,2.8 23.26,-0.05 2.15,-0.85 4.17,-1.94 5.98,-3.29 5.26,-3.91 7.69,-9.12 7.28,-14.24z"/>
           <path id="XMLID_5326_" class="fil11" d="M525.39 578.04l-3.13 -13.4 -12.97 0 -17.57 0 -13.11 0 -3.13 13.4c-0.41,5.12 2.02,10.34 7.28,14.24 1.85,1.37 3.91,2.49 6.11,3.34 7.27,2.82 16.01,2.8 23.26,-0.05 2.15,-0.85 4.17,-1.94 5.98,-3.29 5.26,-3.91 7.69,-9.12 7.28,-14.24z"/>
           <path id="XMLID_5324_" class="fil6" d="M526.01 580.67l0.31 1.32 1.34 5.77c0.19,5.36 -2.47,10.76 -7.97,14.84 -1.99,1.48 -4.21,2.68 -6.58,3.61 -7.87,3.08 -17.33,3.09 -25.22,0.05 -2.42,-0.93 -4.69,-2.15 -6.71,-3.66 -5.52,-4.1 -8.17,-9.52 -7.97,-14.9l-3.67 15.71 0 0c0,5.29 3.02,10.59 9.05,14.63 2.37,1.59 5.03,2.85 7.87,3.81 8.81,2.99 19.3,2.98 28.09,-0.04 2.78,-0.96 5.4,-2.21 7.73,-3.77 6.03,-4.04 9.05,-9.33 9.05,-14.63l-5.32 -22.75z"/>
           <path id="XMLID_5322_" class="fil11" d="M526.01 580.67l0.31 1.32 1.34 5.77c0.19,5.36 -2.47,10.76 -7.97,14.84 -1.99,1.48 -4.21,2.68 -6.58,3.61 -7.87,3.08 -17.33,3.09 -25.22,0.05 -2.42,-0.93 -4.69,-2.15 -6.71,-3.66 -5.52,-4.1 -8.17,-9.52 -7.97,-14.9l-3.67 15.71 0 0c0,5.29 3.02,10.59 9.05,14.63 2.37,1.59 5.03,2.85 7.87,3.81 8.81,2.99 19.3,2.98 28.09,-0.04 2.78,-0.96 5.4,-2.21 7.73,-3.77 6.03,-4.04 9.05,-9.33 9.05,-14.63l-5.32 -22.75z"/>
           <path id="XMLID_5320_" class="fil3" d="M526.32 582l-0.31 -1.32 -0.62 -2.64c0.41,5.12 -2.02,10.34 -7.28,14.25 -1.81,1.35 -3.83,2.44 -5.98,3.29 -7.25,2.86 -15.99,2.87 -23.26,0.05 -2.2,-0.85 -4.26,-1.97 -6.11,-3.34 -5.26,-3.91 -7.69,-9.13 -7.28,-14.24l-2.26 9.68c-0.21,5.37 2.45,10.79 7.97,14.9 2.03,1.51 4.3,2.72 6.71,3.66 7.88,3.04 17.35,3.03 25.22,-0.05 2.37,-0.93 4.59,-2.13 6.58,-3.61 5.5,-4.09 8.16,-9.49 7.97,-14.84l-1.34 -5.77z"/>
          </g>
         </g>
         <path id="XMLID_5316_" class="fil13" d="M500.39 586.26c9.23,0 18.05,-1.1 26.2,-3.1l-0.27 -1.17 -0.31 -1.32 -0.62 -2.64 -3.13 -13.4 -12.97 0 -17.57 0 -13.11 0 -3.13 13.4 -1.2 5.15c8.12,1.98 16.92,3.08 26.11,3.08z"/>
        </g>
       </g>
      </g>
      <g id="XMLID_4696_">
       <path id="XMLID_4715_" class="fil2" d="M473.51 457.16l-84.77 -31.21c-0.09,-3.94 0,-7.56 0.36,-10.88 0.09,-1.13 0.24,-2.19 0.39,-3.26 0.15,-1.04 0.33,-2.07 0.53,-3.05 0.22,-1.04 0.47,-2.03 0.74,-2.99 0.14,-0.5 0.3,-0.98 0.46,-1.46 0.12,-0.36 0.22,-0.74 0.34,-1.09l0.02 0.01c2.29,-6.41 5.96,-11.02 11.12,-13.94l10.88 -6.25 1.16 -0.68c3.14,-1.78 6.85,-2.94 11.12,-3.53 9.22,-1.25 17.37,-3.02 24.22,-5.81 2.4,-1.99 4.44,-4.27 6.13,-6.85 8.27,-12.63 10.34,-39.78 9.81,-53.26l12.06 -6.97 7.47 144.29 -12.63 -4.65 0 0.39 0.59 11.21z"/>
       <path id="XMLID_4706_" class="fil4" d="M388.74 425.94l84.77 31.21 -0.59 -11.2 0 -0.39 -4.51 -86.64 -2.4 -46.03c0.53,13.49 -1.54,40.64 -9.81,53.26 -1.69,2.58 -3.74,4.86 -6.13,6.85 -8.36,7 -20.81,10.67 -36.25,12.78 -1.63,0.21 -3.17,0.5 -4.62,0.89 -2.37,0.65 -4.53,1.51 -6.49,2.61 -5.16,2.92 -8.83,7.53 -11.12,13.94l-0.02 -0.01c-0.12,0.35 -0.22,0.73 -0.34,1.09 -0.16,0.48 -0.32,0.96 -0.46,1.46 -0.27,0.96 -0.52,1.95 -0.74,2.99 -0.21,0.98 -0.39,2.02 -0.53,3.05 -0.15,1.07 -0.3,2.13 -0.39,3.26 -0.36,3.32 -0.45,6.93 -0.36,10.87z"/>
       <path id="XMLID_4697_" class="fil6" d="M472.25 432.94l-80.7 -29.71c-1.22,3.41 -2.02,7.37 -2.45,11.85l83.84 30.86 -0.68 -13z"/>
       <path id="XMLID_4690_" class="fil22" d="M472.25 432.94l-80.7 -29.71c-1.22,3.41 -2.02,7.37 -2.45,11.85l83.84 30.86 -0.68 -13z"/>
      </g>
      <g id="XMLID_5420_">
       <g id="XMLID_5421_">
        <path id="XMLID_5430_" class="fil3" d="M539.5 429.36c10.63,34.46 21.45,68.84 32.98,103.01 2.02,5.97 -0.57,13.67 -6.25,18.58 -18.05,15.61 -41.89,23.65 -65.79,23.34 -23.99,-0.17 -47.72,-8.61 -65.79,-24.29 -5.68,-4.93 -8.28,-12.51 -6.25,-18.34 11.71,-33.61 22.51,-67.55 32.98,-101.57 26.04,-0.24 52.09,-0.49 78.13,-0.73z"/>
        <path id="XMLID_5429_" class="fil4" d="M500.43 547.39c23.93,0.79 50.91,-8.29 68.86,-24.49 1.28,3.82 1.91,5.71 3.19,9.46 2.02,5.97 -0.57,13.67 -6.25,18.58 -18.05,15.61 -41.96,23.58 -65.8,23.34 -23.91,-0.24 -47.71,-8.61 -65.79,-24.29 -5.68,-4.93 -8.28,-12.51 -6.25,-18.34 1.27,-3.66 1.91,-5.51 3.19,-9.24 18.89,16.72 44.06,24.16 68.86,24.98z"/>
        <path id="XMLID_5428_" class="fil4" d="M500.43 468.14c-21.18,0.09 -36.93,-3.74 -48.41,-8.05 3.74,-11.82 5.6,-17.83 9.34,-30 14.06,-0.13 21.1,-0.2 35.17,-0.33 1.29,0.01 2.56,0.04 3.9,0.03 1.34,-0.01 2.6,-0.07 3.9,-0.11 14.07,-0.13 21.1,-0.2 35.17,-0.33 3.74,12.23 5.61,18.29 9.35,30.22 -11.48,4.48 -27.24,8.46 -48.42,8.56z"/>
        <g id="XMLID_5425_">
         <path id="XMLID_5427_" class="fil23" d="M525.37 429.48c1.2,9.72 2.77,22.36 4.44,35.7 4.78,-0.97 9.14,-2.18 13.05,-3.47 -2.27,-12.85 -3.41,-19.33 -5.68,-32.34 -4.72,0.04 -7.08,0.06 -11.8,0.11z"/>
        </g>
        <g id="XMLID_5423_">
         <path id="XMLID_5424_" class="fil23" d="M434.63 549.99c18.15,15.69 41.85,24.1 65.82,24.29 1.65,0.01 3.27,-0.02 4.86,-0.07 1.59,-0.05 3.15,-0.15 4.68,-0.26 0.81,-0.06 1.6,-0.13 2.37,-0.21 1.18,-0.13 2.42,-0.26 3.57,-0.4 0.77,-0.1 1.53,-0.22 2.28,-0.37 0.78,-0.12 1.51,-0.24 2.24,-0.39 1.27,-0.24 2.51,-0.46 3.74,-0.73 0.24,-0.05 0.45,-0.11 0.69,-0.16 1.43,-0.33 2.84,-0.69 4.21,-1.07 1.7,-0.47 3.37,-0.97 4.98,-1.5 0.95,-0.32 1.87,-0.67 2.79,-0.99 1.22,-0.43 2.42,-0.91 3.56,-1.39 2.25,-0.94 4.45,-1.94 6.48,-2.94 0.52,-0.26 1.03,-0.54 1.54,-0.79 0.62,-0.31 1.22,-0.64 1.77,-0.94 0.85,-0.47 1.68,-0.97 2.47,-1.44 0.9,-0.53 1.77,-1.06 2.59,-1.57 0.84,-0.53 1.65,-1.07 2.44,-1.59 0.76,-0.5 1.49,-1.05 2.23,-1.56 -1.69,-9.12 -2.54,-13.72 -4.25,-23 -4.47,2.68 -9.78,5.35 -16.13,7.74 0.6,4.48 1.38,8.01 1.21,8.66 -6.31,23.25 -61.63,27.38 -106.13,0.66z"/>
        </g>
        <path id="XMLID_5422_" class="fil24" d="M529.81 465.18c3.19,25.17 6.38,50.35 9.74,75.49 6.35,-2.39 11.66,-5.07 16.13,-7.74 -4.32,-23.73 -8.59,-47.47 -12.83,-71.22 -3.9,1.29 -8.26,2.5 -13.04,3.47z"/>
       </g>
      </g>
      <g id="XMLID_5306_">
       <path id="XMLID_5312_" class="fil2" d="M524.51 457.16l84.77 -31.21c0.09,-3.94 0,-7.56 -0.36,-10.88 -0.09,-1.13 -0.24,-2.19 -0.39,-3.26 -0.15,-1.04 -0.33,-2.07 -0.53,-3.05 -0.22,-1.04 -0.47,-2.03 -0.74,-2.99 -0.14,-0.5 -0.3,-0.98 -0.46,-1.46 -0.12,-0.36 -0.22,-0.74 -0.34,-1.09l-0.02 0.01c-2.29,-6.41 -5.96,-11.02 -11.12,-13.94l-10.88 -6.25 -1.16 -0.68c-3.14,-1.78 -6.85,-2.94 -11.12,-3.53 -9.22,-1.25 -17.37,-3.02 -24.22,-5.81 -2.4,-1.99 -4.44,-4.27 -6.13,-6.85 -8.27,-12.63 -10.34,-39.78 -9.81,-53.26l-12.06 -6.97 -7.47 144.29 12.63 -4.65 0 0.39 -0.59 11.21z"/>
       <path id="XMLID_5310_" class="fil4" d="M609.28 425.94l-84.77 31.21 0.59 -11.2 0 -0.39 4.51 -86.64 2.4 -46.03c-0.53,13.49 1.54,40.64 9.81,53.26 1.69,2.58 3.74,4.86 6.13,6.85 8.36,7 20.81,10.67 36.25,12.78 1.63,0.21 3.17,0.5 4.62,0.89 2.37,0.65 4.53,1.51 6.49,2.61 5.16,2.92 8.83,7.53 11.12,13.94l0.02 -0.01c0.12,0.35 0.22,0.73 0.34,1.09 0.16,0.48 0.32,0.96 0.46,1.46 0.27,0.96 0.52,1.95 0.74,2.99 0.21,0.98 0.39,2.02 0.53,3.05 0.15,1.07 0.3,2.13 0.39,3.26 0.36,3.32 0.45,6.93 0.36,10.87z"/>
       <path id="XMLID_5307_" class="fil6" d="M525.78 432.94l80.7 -29.71c1.22,3.41 2.02,7.37 2.45,11.85l-83.84 30.86 0.68 -13z"/>
       <path id="XMLID_4557_" class="fil22" d="M525.78 432.94l80.7 -29.71c1.22,3.41 2.02,7.37 2.45,11.85l-83.84 30.86 0.68 -13z"/>
      </g>
      <g id="XMLID_5288_">
       <path id="XMLID_5304_" class="fil6" d="M584.62 168.68c0.21,-6.18 -0.22,-12.37 -1.51,-18.42 -11.56,-54.19 -43.95,-98.67 -62.61,-127.51 -3.39,-5.24 -10.76,-17.21 -13.79,-19.31 -1.78,-1.23 -3.94,-1.95 -6.27,-1.95 -2.33,0 -4.49,0.72 -6.27,1.95 -3.03,2.1 -10.29,14.14 -13.79,19.31 -17.21,25.36 -51.06,73.32 -62.61,127.51 -1.29,6.05 -1.72,12.24 -1.51,18.42l10.51 303.3 0 0c0,15.09 13.82,30.17 41.44,38.39 20.97,6.24 43.49,6.24 64.47,0 27.63,-8.22 41.44,-23.3 41.44,-38.39l-0 -0 10.51 -303.3z"/>
       <path id="XMLID_4477_" class="fil25" d="M584.62 168.68c0.21,-6.18 -0.22,-12.37 -1.51,-18.42 -11.56,-54.19 -43.95,-98.67 -62.61,-127.51 -3.39,-5.24 -10.76,-17.21 -13.79,-19.31 -1.78,-1.23 -3.94,-1.95 -6.27,-1.95 -2.33,0 -4.49,0.72 -6.27,1.95 -3.03,2.1 -10.29,14.14 -13.79,19.31 -17.21,25.36 -51.06,73.32 -62.61,127.51 -1.29,6.05 -1.72,12.24 -1.51,18.42l10.51 303.3 0 0c0,15.09 13.82,30.17 41.44,38.39 20.97,6.24 43.49,6.24 64.47,0 27.63,-8.22 41.44,-23.3 41.44,-38.39l-0 -0 10.51 -303.3z"/>
       <path class="fil26" d="M583.11 150.26c-11.56,-54.19 -43.95,-98.67 -62.61,-127.51 -0.75,-1.16 -1.72,-2.69 -2.77,-4.33 -0.02,-0.03 -0.03,-0.05 -0.05,-0.08 15.32,38.95 39.55,101.4 41.12,188.81 0.93,51.58 -2.75,189.91 -5.93,294.67 0,-0 0.01,-0 0.01,-0.01 3.5,-2.05 6.57,-4.26 9.21,-6.58 0.06,-0.05 0.12,-0.1 0.17,-0.16 1.82,-1.61 3.42,-3.28 4.81,-4.99 0.17,-0.21 0.35,-0.43 0.52,-0.64 0.38,-0.48 0.75,-0.97 1.09,-1.46 0.21,-0.3 0.4,-0.6 0.6,-0.9 0.46,-0.7 0.89,-1.4 1.28,-2.11 0.24,-0.43 0.48,-0.86 0.69,-1.3 0.18,-0.37 0.35,-0.74 0.51,-1.1 0.22,-0.5 0.43,-1 0.62,-1.51 0.11,-0.3 0.23,-0.59 0.33,-0.89 0.26,-0.78 0.49,-1.56 0.68,-2.35 0.06,-0.23 0.1,-0.47 0.14,-0.7 0.13,-0.63 0.24,-1.26 0.33,-1.89 0.03,-0.25 0.07,-0.49 0.09,-0.75 0.09,-0.84 0.14,-1.67 0.14,-2.51l0 -0 10.51 -303.3c0.21,-6.17 -0.23,-12.36 -1.52,-18.41z"/>
       <path id="XMLID_4470_" class="fil3" d="M435.56 181.12c35.52,20.49 93.1,20.49 128.63,0 9.26,-5.35 16.06,-11.57 20.5,-18.19 -0.1,-4.56 -0.58,-9.11 -1.54,-13.58 -0.5,-2.35 -1.04,-4.68 -1.63,-7.01 -4.29,5.04 -10.09,9.77 -17.33,13.97 -35.52,20.49 -93.11,20.49 -128.63,0 -6.76,-3.92 -12.25,-8.32 -16.44,-12.99 -0.49,2 -0.96,4.02 -1.39,6.04 -1.06,4.99 -1.52,10.08 -1.54,15.19 4.43,6.03 10.87,11.67 19.36,16.59z"/>
       <path class="fil24" d="M584.61 163.02c-0.14,-4.29 -0.6,-8.56 -1.5,-12.76 -0.55,-2.59 -1.19,-5.13 -1.83,-7.67 -4.27,4.94 -9.98,9.58 -17.1,13.71 -2.69,1.55 -5.53,2.94 -8.45,4.26 0.89,7.71 1.6,15.67 2.13,23.86 2.17,-1.04 4.29,-2.13 6.33,-3.3 9.21,-5.32 15.99,-11.51 20.43,-18.1z"/>
       <path id="XMLID_5299_" class="fil13" d="M505.73 2.88c-1.57,-0.87 -3.37,-1.38 -5.3,-1.38 -2.33,0 -4.49,0.72 -6.27,1.95 -3.03,2.09 -10.28,14.14 -13.79,19.31 -17.21,25.36 -51.06,73.32 -62.62,127.51 -1.29,6.05 -1.72,12.24 -1.51,18.42l10.51 303.3c0,15.09 13.82,30.17 41.44,38.39 0.38,0.11 0.77,0.19 1.15,0.3 -5.53,-126.28 -30.16,-331.43 -5.12,-413.27 13.64,-44.57 32.46,-97.57 41.5,-94.53z"/>
       <path id="XMLID_5295_" class="fil24" d="M517.68 18.35c5.13,13.04 11.25,28.78 17.19,47.14 3.47,-2.01 6.48,-4.15 9.29,-6.14 -6.67,-10.88 -13.22,-20.7 -18.94,-29.38 -1.64,-2.49 -3.24,-4.92 -4.72,-7.21 -0.54,-0.83 -1.2,-1.88 -1.91,-2.98 -0.29,-0.46 -0.59,-0.93 -0.9,-1.42z"/>
      </g>
      <g id="XMLID_5225_">
       <path id="XMLID_5233_" class="fil3" d="M464.26 491.63l-84.77 66.69 -11.97 -6.97c-0.65,-24.54 7.32,-46.24 25.08,-69.12 7.56,-9.75 14.49,-18.85 20.72,-27.45 10.16,-13.99 18.46,-26.68 24.57,-38.65 10.23,-20.15 12.74,-32.69 12.6,-46.59 0.03,-0.48 0,-0.95 -0.03,-1.39 0,-0.48 0,-0.92 -0.03,-1.33l6.37 3.11 7.47 121.7z"/>
       <path id="XMLID_5229_" class="fil6" d="M370.3 525.49c-1.21,4.81 -2.01,9.69 -2.44,14.66l11.95 6.9 0.06 -0.38c0.44,-4.81 1.22,-9.53 2.39,-14.18l0.02 -0.09 -11.98 -6.92z"/>
       <path id="XMLID_4471_" class="fil16" d="M370.3 525.49c-1.21,4.81 -2.01,9.69 -2.44,14.66l11.95 6.9 0.06 -0.38c0.44,-4.81 1.22,-9.53 2.39,-14.18l0.02 -0.09 -11.98 -6.92z"/>
       <path id="XMLID_5227_" class="fil2" d="M456.77 369.94c0.52,12.89 -1.56,28.5 -9.83,50.7 -7.59,20.37 -22.52,42.93 -42.38,68.54 -17.75,22.89 -25.74,44.58 -25.07,69.14l84.77 -66.67 -7.48 -121.7z"/>
       <path id="XMLID_5226_" class="fil6" d="M463 468.89l-80.74 63.49c-1.22,4.82 -2.02,9.71 -2.45,14.68l83.87 -65.96 -0.68 -12.21z"/>
      </g>
      <g id="XMLID_510_">
       <path id="XMLID_4694_" class="fil3" d="M533.77 491.63l84.77 66.69 11.97 -6.97c0.65,-24.54 -7.32,-46.24 -25.07,-69.12 -7.56,-9.75 -14.49,-18.85 -20.72,-27.45 -10.16,-13.99 -18.46,-26.68 -24.57,-38.65 -10.23,-20.15 -12.74,-32.69 -12.6,-46.59 -0.03,-0.48 0,-0.95 0.03,-1.39 0,-0.48 0,-0.92 0.03,-1.33l-6.37 3.11 -7.47 121.7z"/>
       <path id="XMLID_4558_" class="fil6" d="M627.72 525.49c1.21,4.81 2.01,9.69 2.44,14.66l-11.95 6.9 -0.06 -0.38c-0.44,-4.81 -1.22,-9.53 -2.39,-14.18l-0.02 -0.09 11.98 -6.92z"/>
       <path id="XMLID_4455_" class="fil16" d="M627.72 525.49c1.21,4.81 2.01,9.69 2.44,14.66l-11.95 6.9 -0.06 -0.38c-0.44,-4.81 -1.22,-9.53 -2.39,-14.18l-0.02 -0.09 11.98 -6.92z"/>
       <path id="XMLID_4556_" class="fil2" d="M541.25 369.94c-0.52,12.89 1.56,28.5 9.83,50.7 7.59,20.37 22.52,42.93 42.38,68.54 17.75,22.89 25.74,44.58 25.07,69.14l-84.77 -66.67 7.49 -121.7z"/>
       <path id="XMLID_4555_" class="fil6" d="M535.02 468.89l80.74 63.49c1.22,4.82 2.02,9.71 2.45,14.68l-83.87 -65.96 0.68 -12.21z"/>
      </g>
     </g>
     <g id="XMLID_5237_">
      <path id="XMLID_5244_" class="fil2" d="M432.09 198.1c2.54,1.46 4.6,5.03 4.6,7.96 0,2.93 -2.06,4.12 -4.6,2.66 -2.54,-1.46 -4.6,-5.03 -4.6,-7.96 0,-2.93 2.06,-4.12 4.6,-2.66z"/>
      <path id="XMLID_5243_" class="fil2" d="M431.92 216.96c2.41,1.39 4.36,4.77 4.36,7.55 0,2.78 -1.95,3.91 -4.36,2.52 -2.41,-1.39 -4.36,-4.77 -4.36,-7.55 -0,-2.78 1.95,-3.91 4.36,-2.52z"/>
      <path id="XMLID_5242_" class="fil2" d="M432.14 235.83c2.28,1.31 4.12,4.51 4.12,7.14 0,2.63 -1.85,3.69 -4.12,2.38 -2.27,-1.31 -4.12,-4.51 -4.12,-7.14 0,-2.63 1.85,-3.7 4.12,-2.38z"/>
      <path id="XMLID_5241_" class="fil2" d="M432.66 254.71c2.15,1.24 3.88,4.25 3.88,6.73 0,2.48 -1.74,3.48 -3.88,2.24 -2.15,-1.24 -3.88,-4.25 -3.88,-6.73 0,-2.48 1.74,-3.48 3.88,-2.24z"/>
      <path id="XMLID_5240_" class="fil2" d="M433.36 273.58c2.01,1.16 3.65,3.99 3.65,6.31 0,2.33 -1.63,3.27 -3.65,2.11 -2.01,-1.16 -3.65,-3.99 -3.65,-6.32 0,-2.33 1.63,-3.27 3.65,-2.1z"/>
      <path id="XMLID_5239_" class="fil2" d="M434.16 292.46c1.88,1.09 3.41,3.73 3.41,5.9 0,2.17 -1.53,3.05 -3.41,1.97 -1.88,-1.09 -3.41,-3.73 -3.41,-5.9 0,-2.17 1.52,-3.05 3.41,-1.97z"/>
      <path id="XMLID_5238_" class="fil2" d="M434.94 311.32c1.75,1.01 3.17,3.47 3.17,5.49 0,2.02 -1.42,2.84 -3.17,1.83 -1.75,-1.01 -3.17,-3.47 -3.17,-5.49 -0,-2.02 1.42,-2.84 3.17,-1.83z"/>
     </g>
     <g id="XMLID_4480_">
      <path id="XMLID_4741_" class="fil3" d="M568.78 198.1c-2.54,1.46 -4.6,5.03 -4.6,7.96 0,2.93 2.06,4.12 4.6,2.66 2.54,-1.46 4.6,-5.03 4.6,-7.96 0,-2.93 -2.06,-4.12 -4.59,-2.66z"/>
      <path id="XMLID_4740_" class="fil3" d="M568.95 216.96c-2.41,1.39 -4.36,4.77 -4.36,7.55 0,2.78 1.95,3.91 4.36,2.52 2.41,-1.39 4.36,-4.77 4.36,-7.55 -0,-2.78 -1.95,-3.91 -4.36,-2.52z"/>
      <path id="XMLID_4739_" class="fil3" d="M568.73 235.83c-2.28,1.31 -4.12,4.51 -4.12,7.14 0,2.63 1.85,3.69 4.12,2.38 2.27,-1.31 4.12,-4.51 4.12,-7.14 0,-2.63 -1.84,-3.7 -4.12,-2.38z"/>
      <path id="XMLID_4738_" class="fil3" d="M568.21 254.71c-2.15,1.24 -3.88,4.25 -3.88,6.73 0,2.48 1.74,3.48 3.88,2.24 2.15,-1.24 3.88,-4.25 3.88,-6.73 0,-2.48 -1.74,-3.48 -3.88,-2.24z"/>
      <path id="XMLID_4737_" class="fil3" d="M567.5 273.58c-2.01,1.16 -3.65,3.99 -3.65,6.31 0,2.33 1.63,3.27 3.65,2.11 2.01,-1.16 3.65,-3.99 3.65,-6.32 0,-2.33 -1.63,-3.27 -3.65,-2.1z"/>
      <path id="XMLID_4735_" class="fil3" d="M566.71 292.46c-1.88,1.09 -3.41,3.73 -3.41,5.9 0,2.17 1.53,3.05 3.41,1.97 1.88,-1.09 3.41,-3.73 3.41,-5.9 0,-2.17 -1.52,-3.05 -3.41,-1.97z"/>
      <path id="XMLID_4724_" class="fil3" d="M565.93 311.32c-1.75,1.01 -3.17,3.47 -3.17,5.49 0,2.02 1.42,2.84 3.17,1.83 1.75,-1.01 3.17,-3.47 3.17,-5.49 0,-2.02 -1.42,-2.84 -3.17,-1.83z"/>
     </g>
     <circle class="fil2" transform="matrix(0.1602 -0.9871 0.9871 0.1602 500.452 282.505)" r="33.91"/>
     <circle class="fil6" cx="500.43" cy="282.5" r="24.67"/>
    </g>
   </g>
  </g>
  <g id="Speech_Bubble">
   <g id="Speach_Bubble_7_">
    <g id="XMLID_5118_">
     <path id="XMLID_5123_" class="fil6" d="M1129.94 203.85l-10.35 -29.45 8.33 -24.04 0 -14.72 -25.49 14.72 0 14.72 10.96 28.97c0.19,0.32 0.45,0.53 0.75,0.66l-0.01 0.01 15.81 9.13z"/>
     <path id="XMLID_5122_" class="fil27" d="M1129.94 203.85l-10.35 -29.45 8.33 -24.04 0 -14.72 -25.49 14.72 0 14.72 10.96 28.97c0.19,0.32 0.45,0.53 0.75,0.66l-0.01 0.01 15.81 9.13z"/>
     <path id="XMLID_5121_" class="fil28" d="M1190.81 18.65c0,-4.87 -3.42,-10.8 -7.64,-13.24l-6.22 -3.59c-4.22,-2.44 -11.06,-2.44 -15.28,0l-95.42 55.19c-4.22,2.44 -7.64,8.36 -7.64,13.24l0 104.99c0,4.88 3.42,10.8 7.64,13.24l6.22 3.59c4.22,2.44 11.06,2.44 15.28,0l30.69 -17.73 10.94 28.93c0.7,1.21 2.5,1.04 2.96,-0.28l11.56 -43.35 39.29 -22.76c4.22,-2.43 7.64,-8.36 7.64,-13.24l0 -104.99z"/>
     <path id="XMLID_5120_" class="fil29" d="M1058.6 175.25c0,4.88 3.42,10.8 7.64,13.24l6.22 3.59c3.82,2.2 9.75,2.4 13.98,0.62 -3.6,1.36 -6.34,-0.67 -6.34,-5.03l0 -104.99c0,-2.44 0.86,-5.14 2.24,-7.53l-21.51 -12.42c-1.38,2.4 -2.24,5.09 -2.24,7.53l-0 104.99 0 0z"/>
     <path id="XMLID_5119_" class="fil9" d="M1190.56 16.48c-0.89,-3.24 -3.85,-4.28 -7.38,-2.24l-95.44 55.2c-2.1,1.21 -4.03,3.28 -5.38,5.7l-21.5 -12.41c1.39,-2.42 3.28,-4.49 5.38,-5.7l95.4 -55.2c4.24,-2.42 11.09,-2.42 15.29,0l6.24 3.6c3.6,2.07 6.63,6.7 7.38,11.05z"/>
    </g>
    <g id="XMLID_5107_">
     <g id="XMLID_5109_">
      <path id="XMLID_5111_" class="fil20" d="M1173.73 93.12c-0.01,-0.01 -0.03,-0.02 -0.04,-0.03 -0.14,-0.08 -0.33,-0.12 -0.53,-0.13l-7.3 -0.41c-0.74,-0.04 -1.29,-0.57 -1.23,-1.19 0.1,-1.15 0.16,-2.3 0.17,-3.41 0.01,-1.24 -0.04,-2.45 -0.16,-3.63 -0.05,-0.58 0.3,-1.54 0.8,-2.16l8.15 -9.87c0.5,-0.62 0.73,-1.53 0.5,-2.03l-3.88 -8.57c-0.05,-0.12 -0.13,-0.21 -0.24,-0.27 -0.02,-0.01 -0.03,-0.02 -0.05,-0.03 -0.32,-0.16 -0.8,-0.03 -1.25,0.39l-8.71 7.95c-0.61,0.57 -1.45,0.69 -1.9,0.32 -1.13,-0.93 -2.38,-1.64 -3.72,-2.16 -0.6,-0.24 -1.01,-0.89 -0.88,-1.53l2.69 -12.19c0.08,-0.37 -0.07,-0.68 -0.37,-0.86 -0.21,-0.12 -0.49,-0.17 -0.81,-0.14l-8.52 0.85c-0.79,0.08 -1.63,0.66 -1.86,1.3l-4.62 12.38c-0.23,0.64 -1.08,1.42 -1.86,1.8 -1.74,0.83 -3.5,1.84 -5.27,3.06 -0.72,0.48 -1.52,0.51 -1.83,0.04l-4.35 -6.65c-0.31,-0.47 -1.01,-0.37 -1.58,0.21l-9.35 9.88c-0.57,0.59 -0.88,1.51 -0.73,2.05l2.6 8.82c0.16,0.54 -0.06,1.49 -0.47,2.12 -1.6,2.42 -3.03,4.92 -4.3,7.46 -0.32,0.64 -1.22,1.32 -2.03,1.52l-8 1.93c-0.81,0.19 -1.62,0.87 -1.81,1.5l-4.03 13.56c-0.2,0.63 0.26,1.18 0.99,1.22l7.31 0.41c0.74,0.04 1.28,0.57 1.23,1.19 -0.22,2.44 -0.23,4.81 -0.02,7.04 0.06,0.59 -0.29,1.55 -0.79,2.15l-8.15 9.88c-0.51,0.61 -0.73,1.52 -0.5,2.03l3.88 8.56c0.05,0.12 0.13,0.21 0.23,0.27 0,0.01 0,0.01 0,0.01 0.02,0.01 0.03,0.01 0.03,0.01 0.1,0.05 0.2,0.08 0.31,0.08l0.01 0c0.29,0 0.62,-0.15 0.95,-0.45l8.7 -7.96c0.62,-0.56 1.45,-0.69 1.9,-0.32 1.14,0.93 2.38,1.64 3.72,2.16 0.61,0.23 1.02,0.9 0.88,1.53l-2.69 12.2c-0.08,0.36 0.07,0.66 0.35,0.84 0.01,0.01 0.02,0.01 0.03,0.02 0.2,0.12 0.48,0.18 0.8,0.14l8.52 -0.84c0.79,-0.08 1.63,-0.66 1.86,-1.3l4.62 -12.38c0.24,-0.64 1.08,-1.42 1.86,-1.8 0.89,-0.42 1.8,-0.9 2.7,-1.42 0.85,-0.5 1.71,-1.04 2.57,-1.63 0.71,-0.49 1.52,-0.52 1.82,-0.05l4.36 6.66c0.06,0.08 0.12,0.15 0.21,0.19 0.35,0.22 0.9,0.07 1.36,-0.41l9.36 -9.88c0.56,-0.58 0.88,-1.51 0.72,-2.05l-2.6 -8.81c-0.16,-0.55 0.07,-1.5 0.48,-2.12 1.6,-2.42 3.03,-4.93 4.3,-7.47 0.32,-0.64 1.22,-1.31 2.04,-1.51l7.99 -1.93c0.82,-0.19 1.63,-0.87 1.81,-1.51l4.04 -13.55c0.12,-0.44 -0.06,-0.85 -0.43,-1.07zm-42.71 33.12c-0.16,0.04 -0.31,0.08 -0.47,0.12 -0.12,0.03 -0.23,0.05 -0.34,0.07 -0.25,0.05 -0.51,0.09 -0.76,0.12 -0.3,0.04 -0.59,0.06 -0.88,0.08 -0.18,0.01 -0.37,0.02 -0.55,0.02 -0.09,0 -0.17,0 -0.26,0 -3.5,-0.04 -6.41,-1.81 -8.03,-5.4 -0.61,-1.34 -1,-2.85 -1.17,-4.46 -0.1,-0.8 -0.14,-1.63 -0.13,-2.48 0.05,-7.72 4.02,-17.29 10.56,-24.21 2.11,-2.23 4.3,-3.98 6.45,-5.23 0.72,-0.42 1.44,-0.79 2.15,-1.09 2.12,-0.93 4.17,-1.36 6.04,-1.28 0.03,0 0.04,0 0.07,0.01 0.1,0 0.2,0.01 0.3,0.02 0.11,0.01 0.21,0.02 0.31,0.03 0.11,0.01 0.22,0.02 0.33,0.04 2.91,0.42 5.28,2.17 6.7,5.29 3.61,7.99 -0.53,21.95 -9.26,31.15 -3.65,3.86 -7.53,6.28 -11.07,7.19z"/>
     </g>
    </g>
   </g>
  </g>
  <g id="Character">
   <g id="Briefcase">
    <g id="XMLID_5000_">
     <g id="XMLID_5005_">
      <path id="XMLID_5007_" class="fil30" d="M1345.59 884.2l0 114.88c0,5.75 -4.07,12.82 -9.04,15.75l-10.85 6.27c-3.45,1.99 -8.39,2.62 -12.77,1.87 -1.92,-0.31 -3.73,-0.88 -5.26,-1.73 -0.1,-0.03 -0.18,-0.08 -0.26,-0.13l-0.67 -0.39 -127.51 -73.62c-9.32,-5.38 -15.06,-15.32 -15.06,-26.08l-0 -108.02c0,-2.46 1.73,-5.47 3.89,-6.71l21.29 -12.28c2.12,-1.24 5.59,-1.24 7.72,0l144.65 83.51c1.09,0.6 2.05,1.68 2.75,2.87 0.69,1.21 1.13,2.58 1.13,3.8z"/>
      <path id="XMLID_5006_" class="fil31" d="M1345.59 884.2l0 114.88c0,5.75 -4.07,12.82 -9.04,15.75l-10.85 6.27c-3.45,1.99 -8.39,2.62 -12.77,1.87 -1.92,-0.31 -3.73,-0.88 -5.26,-1.73l0 -0.05c4.98,2.33 8.89,-0.26 8.89,-6.14l0 -111.78c0,-1.87 -0.65,-3.94 -1.71,-5.77l29.61 -17.1c0.69,1.22 1.13,2.59 1.13,3.81z"/>
     </g>
     <path id="XMLID_5004_" class="fil22" d="M1316.55 903.26c0,-3.72 -2.63,-8.28 -5.86,-10.14l-136.71 -78.93c-5.41,-3.12 -9.82,-0.57 -9.82,5.67l-0.01 101.13c0,10.76 5.74,20.7 15.06,26.08l127.52 73.63c5.4,3.12 9.82,0.57 9.82,-5.67l0 -111.77z"/>
     <path id="XMLID_5003_" class="fil32" d="M1164.16 850.43c0,7.12 5.05,15.87 11.21,19.43l129.96 75.03c6.17,3.56 11.21,0.65 11.21,-6.47l0 -38.42c0,-2.2 1.18,-4.24 3.08,-5.34l19.93 -11.46 -150.23 -89.2 -22.09 12.69c-1.91,1.1 -3.09,3.14 -3.09,5.34l0 38.4 0.01 0z"/>
     <path id="XMLID_5002_" class="fil33" d="M1189.33 794l-22.09 12.69c-1.01,0.58 -1.8,1.45 -2.33,2.44l152.51 87.74c0.53,-0.9 1.28,-1.67 2.22,-2.21l19.93 -11.46 -150.23 -89.21z"/>
     <path id="XMLID_5001_" class="fil2" d="M1230.2 892.89l20.23 11.68c3.1,1.79 5.63,6.14 5.65,9.72l0.03 4.61c0.03,3.58 -2.47,5.03 -5.56,3.24l-20.35 -11.75c-3.1,-1.79 -5.61,-6.14 -5.61,-9.72l0 -4.54c0,-3.58 2.51,-5.03 5.61,-3.24z"/>
    </g>
    <g id="XMLID_4979_">
     <path id="XMLID_4998_" class="fil4" d="M1238.83 813.99l0 16 -9.23 5.33 0 -24.4c0,-1.26 0.88,-1.76 1.97,-1.14l7.27 4.2z"/>
     <path id="XMLID_4994_" class="fil3" d="M1287.27 830.95l0 29.74 -6.86 3.97 -4.62 -2.67 0 -24.39c0,-1.25 -0.89,-2.78 -1.97,-3.41l-34.99 -20.2 -7.27 -4.2c-1.09,-0.63 -1.97,-0.12 -1.97,1.14l0 24.4 -4.63 -2.67 0 -29.73c0,-0.12 0.01,-0.26 0.03,-0.39 0.15,-1.17 0.97,-2.47 1.95,-3.03l2.92 -1.7c1.08,-0.63 2.84,-0.63 3.93,0l51.5 29.73c1.09,0.63 1.97,2.16 1.97,3.41z"/>
     <path id="XMLID_4991_" class="fil2" d="M1280.41 834.92l0 29.74 -4.62 -2.67 0 -24.39c0,-1.25 -0.89,-2.78 -1.97,-3.41l-34.99 -20.2 -7.27 -4.2c-1.09,-0.63 -1.97,-0.12 -1.97,1.14l0 24.4 -4.63 -2.67 0 -29.73c0,-0.12 0.01,-0.26 0.03,-0.39 0.17,-0.97 0.98,-1.31 1.95,-0.75l51.5 29.73c1.08,0.63 1.97,2.15 1.97,3.41z"/>
    </g>
   </g>
   <g id="Character_4_">
    <g>
     <g id="XMLID_4914_">
      <g id="XMLID_4970_">
       <path id="XMLID_4978_" class="fil4" d="M1199.81 976.62c2.15,0.8 3.39,4.87 4.34,14.79 0.59,6.14 2.69,14.27 -6.68,19.25 -5.33,2.84 -14.93,4.25 -22.15,-0.23 -8.11,-5.03 -10.64,-16.52 -20.16,-23.98 -8.35,-6.54 -21.76,-13.08 -26.45,-23.19 -3.87,-8.33 -3.84,-20.22 9.99,-19.58 16.86,0.78 26.4,14.07 37.85,14.32 6.4,0.14 21.11,17.82 23.27,18.62z"/>
      </g>
      <g id="XMLID_4942_">
       <path id="XMLID_4947_" class="fil34" d="M1199.79 971.73l0.05 10c0,4.9 -20.8,12.18 -26.63,1.01 -0.44,-0.96 -2.7,-14.66 -2.7,-14.66l29.28 3.65z"/>
      </g>
      <g id="XMLID_4939_">
       <path id="XMLID_4940_" class="fil4" d="M1103.38 1034.87c0,0 3.95,0 5.5,16.14 0.59,6.14 2.06,18.75 -0.03,23.31 -2.09,4.56 -13.47,6.58 -26.23,7.72 -9.52,0.85 -18.12,5.46 -26.94,10.44 -8.14,4.6 -18.11,7.45 -27.3,7.52 -12.06,0.09 -22.27,-1.2 -30.87,-8 -4.58,-3.62 -10.37,-11.24 -6.13,-17 1.51,-2.05 4.14,-2.54 6.44,-3.39 5.37,-2 10.79,-3.84 16.26,-5.56 8.14,-2.56 16.22,-5.39 23.88,-9.16 11.26,-5.55 23.81,-11.76 32.31,-21.25l33.11 -0.78z"/>
      </g>
      <g id="XMLID_4937_">
       <path id="XMLID_4938_" class="fil34" d="M1103.32 1026.52c0,0 0,7.43 0.06,11.67 0.06,4.24 -4.92,10.59 -17.89,10.19 -9.11,-0.28 -15.48,-2.7 -15.16,-10.2l-0.05 -10.81 33.05 -0.85z"/>
      </g>
      <g id="XMLID_4915_">
       <path id="XMLID_4936_" class="fil2" d="M1205.62 838.94c-4.75,-32.66 -12.08,-52.04 -12.08,-52.04 0,0 3.34,-44.97 4.84,-87.6 1.62,-46.05 -0.75,-102.93 -3.64,-130.96 0,0 -144.87,-13.74 -147.25,39.49 -2.38,53.23 1.07,188.66 2.95,212.02 1.88,23.37 3.76,45.28 8.7,88.77 4.26,37.46 11.14,118.74 11.14,118.74 17.02,9.09 33.05,-0.84 33.05,-0.84 0,0 10.92,-109.15 12.16,-136.12 1.62,-34.96 -6.53,-54.25 -6.53,-54.25 0,0 3.1,-22 8.47,-67.22 3.8,-31.95 8.88,-68.34 8.88,-68.34 0,0 4.94,45.04 7.95,70.15 2.79,23.28 7.51,41.68 14.5,85.07 6.06,37.64 22.6,117.32 22.6,117.32 17.02,9.09 28.42,-1.41 28.42,-1.41 0,0 10.58,-100.13 5.83,-132.79z"/>
      </g>
     </g>
     <path class="fil4" d="M1126.31 700.59l6.85 -44.47c0,0 28.19,-8.97 42.53,-25.75 0,0 -7.64,19.53 -33.93,30.05l-10.52 37.45 -1.8 30.9 -3.13 -28.17z"/>
    </g>
    <g>
     <path class="fil6" d="M1164.93 389.86c22.6,-5.45 36.87,5.51 45.21,36.24 7.15,26.33 17.61,80.84 21.68,101.21 1.5,7.53 4.46,16.18 -11.4,25.69 -31.36,18.8 -71.08,35.88 -71.08,35.88l-8.67 -32.49 35.03 -71.73 -10.76 -94.8z"/>
     <path class="fil35" d="M1164.93 389.86c22.6,-5.45 36.87,5.51 45.21,36.24 7.15,26.33 17.61,80.84 21.68,101.21 1.5,7.53 4.46,16.18 -11.4,25.69 -31.36,18.8 -71.08,35.88 -71.08,35.88l-8.67 -32.49 35.03 -71.73 -10.76 -94.8z"/>
    </g>
    <g>
     <polygon id="XMLID_4912_" class="fil34" points="1102.52,375.56 1109.29,423.09 1152.05,421.61 1147.94,366.07 "/>
     <g id="XMLID_4910_">
      <path id="XMLID_4911_" class="fil36" d="M1071.82 316.87c0,0 -11.48,16.83 -10.23,18.52 1.25,1.69 9.47,3.33 9.47,3.33l0.75 -21.84z"/>
     </g>
     <g id="XMLID_4899_">
      <path id="XMLID_4900_" class="fil4" d="M1075.58 327.86c-7.7,-0.12 -13.87,-6.49 -13.75,-14.19 0.12,-7.7 6.49,-13.87 14.19,-13.75 7.7,0.12 13.87,6.49 13.75,14.19 -0.12,7.7 -6.48,13.87 -14.19,13.75zm0.39 -24.84c-5.99,-0.09 -10.94,4.7 -11.04,10.69 -0.09,5.99 4.7,10.94 10.69,11.04 5.99,0.09 10.94,-4.7 11.04,-10.7 0.09,-5.99 -4.7,-10.94 -10.69,-11.04z"/>
     </g>
     <g id="XMLID_4880_">
      <path id="XMLID_4882_" class="fil34" d="M1103.68 270.33c-22.75,4.43 -29.46,14.29 -32.16,50.28 -2.83,37.61 0.83,49.5 5.69,54.64 3.29,3.47 21.82,4.38 31.22,1.95 11.76,-3.04 38.38,-12.01 51.08,-30.74 14.93,-22.05 19.24,-52.17 3.83,-64.81 -21.7,-17.78 -50.4,-13.13 -59.65,-11.33z"/>
     </g>
     <path class="fil36" d="M1102.88 378.16c-9.79,1.08 -22.95,-0.03 -25.67,-2.91 10.93,0.67 24.33,-4.79 24.33,-4.79l1.33 7.7z"/>
     <g id="XMLID_4872_">
      <g id="XMLID_4874_">
       <path id="XMLID_4878_" class="fil4" d="M1071.13 279.17c0.59,1 1.22,1.96 1.89,2.9 3.65,5.14 8.28,9.46 13.09,13.48 4.09,3.42 6.68,8.12 8.09,13.31 1.49,5.48 2,11.96 7.89,14.58 0,0 3.98,-14.5 16.22,-12.47 12.32,2.04 13.74,17.81 5.81,27.25 -7.94,9.44 -15.13,5.66 -15.13,5.66 0,0 0.05,20.81 9.08,32.74 0,0 10.44,3.56 29.8,-0.25 11.9,-2.34 28.91,-16.9 36.2,-32.49 15.44,-32.97 16.95,-62.84 -4.1,-72.13 -0.47,-0.21 -2.11,-7.78 -2.66,-8.89 -1.33,-2.66 -3.13,-5.05 -5.27,-7.11 -4.79,-4.6 -10.95,-7.63 -17.46,-8.57 -17.18,-2.48 -34.72,1.08 -51.8,-2.44 -7.67,-1.58 -15.62,-4.59 -23.1,-2.23 -7.43,2.35 -12.5,9.89 -13.31,17.65 -0.68,6.61 1.35,13.25 4.76,19z"/>
      </g>
     </g>
     <g id="XMLID_4856_">
      <g id="XMLID_4865_">
       <g id="XMLID_4869_">
        <path id="XMLID_4871_" class="fil4" d="M1176.93 279.15l13.69 -7.79c-2.15,-3.78 -6.96,-5.1 -10.74,-2.96 -3.78,2.15 -5.1,6.96 -2.96,10.74z"/>
       </g>
      </g>
      <g id="XMLID_4860_">
       <g id="XMLID_4861_">
        <path id="XMLID_4863_" class="fil4" d="M1101.86 331.59l0.66 -15.74c-4.35,-0.18 -8.02,3.19 -8.2,7.53 -0.18,4.35 3.19,8.02 7.54,8.21z"/>
       </g>
      </g>
     </g>
     <polygon id="XMLID_4855_" class="fil4" points="1063.19,310.77 1105.29,316.9 1103.54,319.83 1063.14,313.94 "/>
    </g>
    <g id="XMLID_514_">
     <path id="XMLID_4853_" class="fil6" d="M1199.26 414.85c-4.99,-19.51 -12.04,-25.88 -29.02,-26.34 -5.08,-0.13 -22.43,2.58 -26.11,3.33 -1.79,8.24 -23.09,13.85 -44.66,9.39 -6.41,1.87 -23.39,6.49 -28.72,8.42 -15.26,5.54 -22.65,21.38 -23.66,71.68 0,0 -2.92,119.29 0.04,139.88 38.47,15 78.4,14.32 100.44,9.39 45.9,-10.27 51.34,-29.36 51.34,-29.36 0,0 -2.41,-47.87 -3.97,-84.28 2.3,-23.18 5.76,-40.62 7.01,-59.11 1.27,-18.73 -0.82,-35.68 -2.7,-43.02z"/>
     <path id="XMLID_5026_" class="fil37" d="M1199.26 414.85c-4.99,-19.51 -12.04,-25.88 -29.02,-26.34 -5.08,-0.13 -22.43,2.58 -26.11,3.33 -1.79,8.24 -23.09,13.85 -44.66,9.39 -6.41,1.87 -23.39,6.49 -28.72,8.42 -15.26,5.54 -22.65,21.38 -23.66,71.68 0,0 -2.92,119.29 0.04,139.88 38.47,15 78.4,14.32 100.44,9.39 45.9,-10.27 51.34,-29.36 51.34,-29.36 0,0 -2.41,-47.87 -3.97,-84.28 2.3,-23.18 5.76,-40.62 7.01,-59.11 1.27,-18.73 -0.82,-35.68 -2.7,-43.02z"/>
    </g>
    <g>
     <path class="fil6" d="M1148.93 379.51l0.34 4.57c0,0 -2.25,6.46 -15.23,8.87 -21.81,4.05 -29.44,-2.72 -29.44,-2.72l-0.56 -3.93c0,0 -2.09,-0.86 -5.63,1.86 -3.54,2.72 -15.09,17.67 -15.09,17.67 0,0 4.16,-1.21 17.79,4.58 14.14,6.01 31.66,5.24 42.56,1.61 10.89,-3.64 15,-13.45 15.54,-17.45 0.55,-4 -6.52,-16.71 -10.27,-15.07z"/>
     <path class="fil35" d="M1148.93 379.51l0.34 4.57c0,0 -2.25,6.46 -15.23,8.87 -21.81,4.05 -29.44,-2.72 -29.44,-2.72l-0.56 -3.93c0,0 -2.09,-0.86 -5.63,1.86 -3.54,2.72 -15.09,17.67 -15.09,17.67 0,0 4.16,-1.21 17.79,4.58 14.14,6.01 31.66,5.24 42.56,1.61 10.89,-3.64 15,-13.45 15.54,-17.45 0.55,-4 -6.52,-16.71 -10.27,-15.07z"/>
    </g>
    <g>
     <g>
      <g id="XMLID_4999_">
       <path id="XMLID_5008_" class="fil34" d="M1074.59 408.41c-30.6,3.06 -33.17,11.77 -43.67,44.98 -9.93,31.41 -21.36,73.32 -23.07,80.78 -2.38,10.37 -1.93,39.13 5.08,45.72 6.55,6.16 21.21,17.21 33.97,-16.77 11.72,-31.21 29.47,-82.11 29.47,-82.11 0,0 12.79,-44.69 -1.77,-72.6z"/>
      </g>
      <g id="XMLID_5009_">
       <path class="fil2" d="M1002.79 463.92l-27.41 -84.31c-0.17,-0.52 -0.52,-0.86 -0.95,-0.99 -0.36,-0.11 -3.3,-1.05 -3.69,-1.19 -0.38,-0.14 -0.83,-0.1 -1.26,0.14l-41.53 24.11c-0.87,0.5 -1.29,1.67 -0.95,2.61l30.02 82.65c0.34,0.94 1.32,1.3 2.19,0.8l1.18 -0.68 0.4 1.1c0.34,0.94 1.32,1.3 2.19,0.8l38.8 -22.42c0.86,-0.5 1.32,-1.68 1.01,-2.63z"/>
       <path id="XMLID_5062_" class="fil3" d="M973.24 378.79l-41.53 24.11c-0.87,0.5 -1.29,1.67 -0.95,2.61l30.03 82.65c0.34,0.94 1.32,1.3 2.19,0.8l38.8 -22.42c0.87,-0.5 1.32,-1.68 1.01,-2.63l-27.41 -84.31c-0.32,-0.95 -1.27,-1.31 -2.14,-0.81z"/>
       <polygon id="XMLID_5060_" class="fil20" points="936.69,410.32 974.82,388.69 997.71,459.05 961.87,479.28 "/>
       <g id="XMLID_5023_">
        <path id="XMLID_5024_" class="fil2" d="M951.89 397.66c-0.31,0 -0.62,-0.16 -0.79,-0.45 -0.25,-0.43 -0.1,-0.99 0.33,-1.24l9.16 -5.3c0.42,-0.25 0.98,-0.1 1.24,0.33 0.25,0.43 0.1,0.99 -0.33,1.24l-9.16 5.3c-0.14,0.08 -0.3,0.12 -0.45,0.12z"/>
       </g>
       <path id="XMLID_5022_" class="fil2" d="M949.31 398.54c0,0.49 -0.39,0.88 -0.88,0.88 -0.49,0 -0.88,-0.39 -0.88,-0.88 0,-0.49 0.39,-0.88 0.88,-0.88 0.48,0 0.88,0.39 0.88,0.88z"/>
       <path id="XMLID_5010_" class="fil2" d="M984.48 472.81c0,1.27 -1.02,2.29 -2.29,2.29 -1.27,0 -2.29,-1.02 -2.29,-2.29 0,-1.27 1.02,-2.29 2.29,-2.29 1.27,0 2.29,1.02 2.29,2.29z"/>
      </g>
      <path id="XMLID_4988_" class="fil34" d="M957.22 458.3c0.7,-3.01 0.72,-6.01 1.79,-8.97 1.05,-2.9 2.67,-5.69 5.05,-7.69 1.31,-1.09 3.21,-1.93 4.67,-1.04 0.91,0.56 1.37,1.65 1.45,2.72 0.08,1.06 -0.16,2.12 -0.34,3.17 -0.75,4.34 -0.52,8.84 0.63,13.08 0.56,2.06 1.6,3.92 2.21,5.93 0.6,1.99 1.4,4.91 1.4,6.98 0.89,4.44 2.42,8.42 4.94,12.23 3.76,5.69 54.02,55.57 54.02,55.57l-7.64 45.78c-13.71,1.12 -46.34,-44.91 -56.99,-60.02 -10.25,-14.54 -19.37,-23.69 -29.05,-36.01 -7.51,-9.56 -12.26,-37.71 -9.82,-55.49 1,-7.3 4.37,-11.19 4.37,-11.19l9.01 24.81 7.67 12.04c1.03,1.63 3.12,3.32 4.99,1.65 0.98,-0.88 1.35,-2.25 1.65,-3.54z"/>
     </g>
     <g>
      <path class="fil6" d="M1077.21 407.62c0,0 -16.57,-0.29 -28.4,6.57 -11.83,6.86 -17.58,31.2 -21.3,43.03 -3.72,11.84 -15.82,58.83 -15.82,58.83l-25.99 -23.79c0,0 -16.52,4.84 -21.96,27.41 0,0 8.32,12.96 23.2,33.92 14.88,20.95 30.36,37.78 41.55,35.28 11.19,-2.5 17.28,-14.39 28.1,-42.08 10.82,-27.69 25.51,-75.2 25.51,-75.2 0,0 8.31,-39.87 -4.89,-63.97z"/>
      <path class="fil38" d="M1077.21 407.62c0,0 -16.57,-0.29 -28.4,6.57 -11.83,6.86 -17.58,31.2 -21.3,43.03 -3.72,11.84 -15.82,58.83 -15.82,58.83l-25.99 -23.79c0,0 -16.52,4.84 -21.96,27.41 0,0 8.32,12.96 23.2,33.92 14.88,20.95 30.36,37.78 41.55,35.28 11.19,-2.5 17.28,-14.39 28.1,-42.08 10.82,-27.69 25.51,-75.2 25.51,-75.2 0,0 8.31,-39.87 -4.89,-63.97z"/>
      <path class="fil35" d="M1011.68 516.05c0,0 -2.89,9.29 -5.14,19.5 0,0 -0.38,-11.78 2.04,-22.34l3.1 2.84z"/>
     </g>
    </g>
   </g>
  </g>
 </g>
</svg>
