<svg width="557" height="517" viewBox="0 0 557 517" fill="none" xmlns="http://www.w3.org/2000/svg">
<path d="M147.184 0H408.938V498.141H147.184V0Z" fill="#0F8F85"/>
<path d="M184.279 33.447H371.842V63.4189H184.279V33.447ZM184.279 88.4389H371.842V118.411H184.279V88.4389ZM184.279 143.518H371.842V173.49H184.279V143.518ZM184.279 198.51H371.842V228.481H184.279V198.51ZM184.279 253.501H371.842V283.473H184.279V253.501ZM184.279 308.493H371.842V338.465H184.279V308.493ZM184.279 363.485H371.842V393.457H184.279V363.485Z" fill="white"/>
<path d="M184.279 33.447H371.842V42.8295H184.279V33.447ZM184.279 88.4389H371.842V97.8214H184.279V88.4389ZM184.279 143.518H371.842V152.9H184.279V143.518ZM184.279 198.51H371.842V207.892H184.279V198.51ZM184.279 253.501H371.842V262.884H184.279V253.501ZM184.279 308.493H371.842V317.876H184.279V308.493ZM184.279 363.485H371.842V372.868H184.279V363.485Z" fill="#3582A8"/>
<path d="M408.851 97.8213H556.017V498.141H408.851V97.8213Z" fill="#0F8F85"/>
<path d="M408.851 132.832H528.825V154.203H408.851V132.832ZM408.851 179.223H528.825V200.595H408.851V179.223ZM408.851 225.528H528.825V246.899H408.851V225.528ZM408.851 271.919H528.825V293.29H408.851V271.919ZM408.851 318.31H528.825V339.681H408.851V318.31ZM408.851 364.701H528.825V386.073H408.851V364.701ZM408.851 411.093H528.825V432.464H408.851V411.093Z" fill="white"/>
<path d="M408.851 132.832H528.825V138.74H408.851V132.832ZM408.851 179.223H528.825V185.131H408.851V179.223ZM408.851 225.528H528.825V231.435H408.851V225.528ZM408.851 271.919H528.825V277.826H408.851V271.919ZM408.851 318.31H528.825V324.218H408.851V318.31ZM408.851 364.701H528.825V370.609H408.851V364.701ZM408.851 411.093H528.825V417H408.851V411.093Z" fill="#3582A8"/>
<path d="M433.871 432.464H408.851V411.093H432.22L433.871 432.464ZM430.396 386.073H408.851V364.701H428.745L430.396 386.073ZM426.921 339.681H408.851V318.31H425.357L426.921 339.681ZM423.446 293.29H408.851V271.919H421.882L423.446 293.29ZM419.971 246.899H408.851V225.528H418.407L419.971 246.899ZM416.583 200.595H408.851V179.223H414.932L416.583 200.595ZM413.108 154.203H408.851V132.832H411.457L413.108 154.203Z" fill="#3582A8"/>
<path d="M411.457 132.832H408.851V97.8213L411.457 132.832ZM414.932 179.223H408.851V154.203H413.108L414.932 179.223ZM418.407 225.528H408.851V200.594H416.583L418.407 225.528ZM421.882 271.919H408.851V246.899H419.971L421.882 271.919ZM425.357 318.31H408.851V293.29H423.446L425.357 318.31ZM428.745 364.701H408.851V339.681H426.921L428.745 364.701ZM432.22 411.093H408.851V386.073H430.396L432.22 411.093ZM438.736 498.141H408.851V432.464H433.871L438.736 498.141Z" fill="#107E75"/>
<path d="M147.166 498.124H0V97.804H147.166V498.124Z" fill="#0F8F85"/>
<path d="M147.184 154.134H27.2092V132.762H147.184V154.134ZM147.184 200.508H27.2092V179.136H147.184V200.508ZM147.184 246.968H27.2092V225.597H147.184V246.968ZM147.184 293.342H27.2092V271.971H147.184V293.342ZM147.184 339.699H27.2092V318.327H147.184V339.699ZM147.184 386.073H27.2092V364.701H147.184V386.073ZM147.184 432.464H27.2092V411.093H147.184V432.464Z" fill="white"/>
<path d="M147.184 138.67H27.2092V132.762H147.184V138.67ZM147.184 185.044H27.2092V179.136H147.184V185.044ZM147.184 231.505H27.2092V225.597H147.184V231.505ZM147.184 277.878H27.2092V271.971H147.184V277.878ZM147.184 324.252H27.2092V318.345H147.184V324.252ZM147.184 370.609H27.2092V364.701H147.184V370.609ZM147.184 417H27.2092V411.093H147.184V417Z" fill="#3582A8"/>
<path d="M122.164 432.464H147.184V411.093H123.814L122.164 432.464ZM125.639 386.073H147.184V364.701H127.289L125.639 386.073ZM129.114 339.681H147.184V318.31H130.677L129.114 339.681ZM132.589 293.29H147.184V271.919H134.152L132.589 293.29ZM136.064 246.899H147.184V225.528H137.627L136.064 246.899ZM139.452 200.595H147.184V179.223H141.102L139.452 200.595ZM142.927 154.203H147.184V132.832H144.577L142.927 154.203Z" fill="#3582A8"/>
<path d="M144.577 132.832H147.184V97.8213L144.577 132.832ZM141.102 179.223H147.184V154.203H142.927L141.102 179.223ZM137.627 225.528H147.184V200.594H139.452L137.627 225.528ZM134.152 271.919H147.184V246.899H136.064L134.152 271.919ZM130.677 318.31H147.184V293.29H132.589L130.677 318.31ZM127.289 364.701H147.184V339.681H129.114L127.289 364.701ZM123.814 411.093H147.184V386.073H125.639L123.814 411.093ZM117.299 498.141H147.184V432.464H122.164L117.299 498.141Z" fill="#107E75"/>
<path d="M206.432 417H349.689V498.141H206.432V417Z" fill="#445B69"/>
<path d="M206.432 417H349.689V432.464H206.432V417Z" fill="#293B4E"/>
<path d="M0.017334 498.141H556.017V516.211H0.017334V498.141Z" fill="#59B5AC"/>
</svg>
