<?xml version="1.0" encoding="UTF-8"?>
<!DOCTYPE svg PUBLIC "-//W3C//DTD SVG 1.1//EN" "http://www.w3.org/Graphics/SVG/1.1/DTD/svg11.dtd">
<!-- Creator: CorelDRAW 2021 (64-Bit) -->
<svg xmlns="http://www.w3.org/2000/svg" xml:space="preserve" width="450" height="400" version="1.1" style="shape-rendering:geometricPrecision; text-rendering:geometricPrecision; image-rendering:optimizeQuality; fill-rule:evenodd; clip-rule:evenodd"
viewBox="0 0 644.84 572.8"
 xmlns:xlink="http://www.w3.org/1999/xlink"
 xmlns:xodm="http://www.corel.com/coreldraw/odm/2003">
 <defs>
  <style type="text/css">
   <![CDATA[
    .str0 {stroke:#263238;stroke-width:0.83;stroke-linecap:round;stroke-linejoin:round;stroke-miterlimit:2.61313}
    .fil17 {fill:none;fill-rule:nonzero}
    .fil4 {fill:#1A736C;fill-rule:nonzero}
    .fil6 {fill:#263238;fill-rule:nonzero}
    .fil8 {fill:#407BFF;fill-rule:nonzero}
    .fil5 {fill:#4D928D;fill-rule:nonzero}
    .fil20 {fill:#B55B52;fill-rule:nonzero}
    .fil16 {fill:#D58745;fill-rule:nonzero}
    .fil23 {fill:#D9954C;fill-rule:nonzero}
    .fil2 {fill:#DEFFFD;fill-rule:nonzero}
    .fil10 {fill:#EBB376;fill-rule:nonzero}
    .fil0 {fill:#EBEBEB;fill-rule:nonzero}
    .fil1 {fill:whitesmoke;fill-rule:nonzero}
    .fil19 {fill:white;fill-rule:nonzero}
    .fil11 {fill:black;fill-rule:nonzero;fill-opacity:0.101961}
    .fil13 {fill:black;fill-rule:nonzero;fill-opacity:0.200000}
    .fil22 {fill:white;fill-rule:nonzero;fill-opacity:0.200000}
    .fil21 {fill:black;fill-rule:nonzero;fill-opacity:0.301961}
    .fil7 {fill:#4D928D;fill-rule:nonzero;fill-opacity:0.400000}
    .fil14 {fill:white;fill-rule:nonzero;fill-opacity:0.501961}
    .fil9 {fill:#69ABA7;fill-rule:nonzero;fill-opacity:0.701961}
    .fil18 {fill:#88C9C5;fill-rule:nonzero;fill-opacity:0.701961}
    .fil12 {fill:#A2E8E3;fill-rule:nonzero;fill-opacity:0.701961}
    .fil3 {fill:#DEFFFD;fill-rule:nonzero;fill-opacity:0.901961}
    .fil15 {fill:white;fill-rule:nonzero;fill-opacity:0.901961}
   ]]>
  </style>
 </defs>
 <g id="Layer_x0020_1">
  <metadata id="CorelCorpID_0Corel-Layer"/>
  <g id="Background_Complete">
   <g>
    <g>
     <polygon class="fil0" points="12.09,496.55 12.09,419.44 18.69,419.44 18.69,382.7 28.33,382.7 28.33,254.95 42.26,254.95 42.26,238.47 72.01,224.59 72.01,207.97 76.13,207.97 76.13,254.95 81.9,254.95 81.9,382.7 87.67,382.7 87.67,315.53 103.32,315.53 103.32,280.91 107.69,280.91 107.69,382.7 119.59,382.7 119.59,343.96 127.42,343.96 127.42,334.07 145.55,334.07 145.55,300.28 155.48,300.28 155.48,276.38 167.68,276.38 167.68,241.56 172.04,241.56 172.04,276.38 184.25,276.38 184.25,300.28 194.18,300.28 194.18,334.07 212.31,334.07 212.31,343.96 220.14,343.96 220.14,382.7 229.42,382.7 229.42,334.07 247.56,334.07 247.56,229.4 253.32,229.4 253.32,217.86 292.06,217.86 292.06,229.4 300.3,229.4 300.3,305.22 333.27,305.22 333.27,312.64 345.63,312.64 345.63,318.41 333.27,318.41 333.27,348.08 367.88,348.08 367.88,249.18 375.3,249.18 375.3,228.17 391.37,228.17 391.37,153.58 395.91,153.58 395.91,228.17 407.44,228.17 407.44,249.18 475.09,249.18 475.09,242.26 479.21,242.26 479.21,289.24 484.98,289.24 484.98,290.07 488.44,290.07 488.44,337.04 494.21,337.04 494.21,349.82 506.41,349.82 506.41,315.2 510.78,315.2 510.78,397.62 515.64,397.62 515.64,363.01 520.01,363.01 520.01,416.99 522.67,416.99 522.67,378.25 530.5,378.25 530.5,368.36 548.63,368.36 548.63,334.57 558.56,334.57 558.56,310.67 570.77,310.67 570.77,275.85 575.12,275.85 575.12,310.67 587.33,310.67 587.33,334.57 597.26,334.57 597.26,368.36 615.39,368.36 615.39,378.25 623.22,378.25 623.22,416.16 624.62,416.16 624.62,416.99 628.5,416.99 628.5,496.55 "/>
     <g>
      <rect class="fil1" x="432.67" y="253.8" width="4.67" height="4.67"/>
      <rect class="fil1" x="432.67" y="261.63" width="4.67" height="4.67"/>
      <rect class="fil1" x="432.67" y="292.95" width="4.67" height="4.67"/>
      <rect class="fil1" x="432.67" y="300.78" width="4.67" height="4.67"/>
      <rect class="fil1" x="432.67" y="308.61" width="4.67" height="4.67"/>
      <rect class="fil1" x="432.67" y="332.1" width="4.67" height="4.67"/>
      <rect class="fil1" x="432.67" y="339.93" width="4.67" height="4.67"/>
      <rect class="fil1" x="425.26" y="285.12" width="4.67" height="4.67"/>
      <rect class="fil1" x="425.26" y="292.95" width="4.67" height="4.67"/>
      <rect class="fil1" x="425.26" y="300.78" width="4.67" height="4.67"/>
      <rect class="fil1" x="425.26" y="308.61" width="4.67" height="4.67"/>
      <rect class="fil1" x="425.26" y="316.44" width="4.67" height="4.67"/>
      <rect class="fil1" x="425.26" y="332.1" width="4.67" height="4.67"/>
      <rect class="fil1" x="425.26" y="339.93" width="4.67" height="4.67"/>
      <rect class="fil1" x="417.84" y="253.8" width="4.67" height="4.67"/>
      <rect class="fil1" x="417.84" y="261.63" width="4.67" height="4.67"/>
      <rect class="fil1" x="417.84" y="269.46" width="4.67" height="4.67"/>
      <rect class="fil1" x="417.84" y="277.29" width="4.67" height="4.67"/>
      <rect class="fil1" x="417.84" y="285.12" width="4.67" height="4.67"/>
      <rect class="fil1" x="417.84" y="292.95" width="4.67" height="4.67"/>
      <rect class="fil1" x="417.84" y="300.78" width="4.67" height="4.67"/>
      <rect class="fil1" x="417.84" y="308.61" width="4.67" height="4.67"/>
      <rect class="fil1" x="417.84" y="316.44" width="4.67" height="4.67"/>
      <rect class="fil1" x="417.84" y="324.27" width="4.67" height="4.67"/>
      <rect class="fil1" x="417.84" y="339.93" width="4.67" height="4.67"/>
      <rect class="fil1" x="410.42" y="253.8" width="4.67" height="4.67"/>
      <rect class="fil1" x="410.42" y="261.63" width="4.67" height="4.67"/>
      <rect class="fil1" x="410.42" y="269.46" width="4.67" height="4.67"/>
      <rect class="fil1" x="410.42" y="277.29" width="4.67" height="4.67"/>
      <rect class="fil1" x="410.42" y="285.12" width="4.67" height="4.67"/>
      <rect class="fil1" x="410.42" y="292.95" width="4.67" height="4.67"/>
      <rect class="fil1" x="410.42" y="300.78" width="4.67" height="4.67"/>
      <rect class="fil1" x="410.42" y="371.25" width="4.67" height="4.67"/>
      <rect class="fil1" x="403.01" y="253.8" width="4.67" height="4.67"/>
      <rect class="fil1" x="403.01" y="261.63" width="4.67" height="4.67"/>
      <rect class="fil1" x="403.01" y="269.46" width="4.67" height="4.67"/>
      <rect class="fil1" x="403.01" y="277.29" width="4.67" height="4.67"/>
      <rect class="fil1" x="403.01" y="285.12" width="4.67" height="4.67"/>
      <rect class="fil1" x="403.01" y="292.95" width="4.67" height="4.67"/>
      <rect class="fil1" x="403.01" y="300.78" width="4.67" height="4.67"/>
      <rect class="fil1" x="403.01" y="308.61" width="4.67" height="4.67"/>
      <rect class="fil1" x="403.01" y="355.59" width="4.67" height="4.67"/>
      <rect class="fil1" x="403.01" y="363.42" width="4.67" height="4.67"/>
      <rect class="fil1" x="403.01" y="371.25" width="4.67" height="4.67"/>
      <rect class="fil1" x="403.01" y="379.08" width="4.67" height="4.67"/>
      <rect class="fil1" x="403.01" y="410.4" width="4.67" height="4.67"/>
      <rect class="fil1" x="395.59" y="253.8" width="4.67" height="4.67"/>
      <rect class="fil1" x="395.59" y="261.63" width="4.67" height="4.67"/>
      <rect class="fil1" x="395.59" y="269.46" width="4.67" height="4.67"/>
      <rect class="fil1" x="395.59" y="277.29" width="4.67" height="4.67"/>
      <rect class="fil1" x="395.59" y="285.12" width="4.67" height="4.67"/>
      <rect class="fil1" x="395.59" y="292.95" width="4.67" height="4.67"/>
      <rect class="fil1" x="395.59" y="300.78" width="4.67" height="4.67"/>
      <rect class="fil1" x="395.59" y="308.61" width="4.67" height="4.67"/>
      <rect class="fil1" x="395.59" y="316.44" width="4.67" height="4.67"/>
      <rect class="fil1" x="395.59" y="324.27" width="4.67" height="4.67"/>
      <rect class="fil1" x="395.59" y="347.76" width="4.67" height="4.67"/>
      <rect class="fil1" x="395.59" y="355.59" width="4.67" height="4.67"/>
      <rect class="fil1" x="395.59" y="363.42" width="4.67" height="4.67"/>
      <rect class="fil1" x="395.59" y="371.25" width="4.67" height="4.67"/>
      <rect class="fil1" x="395.59" y="379.08" width="4.67" height="4.67"/>
      <rect class="fil1" x="395.59" y="410.4" width="4.67" height="4.67"/>
      <rect class="fil1" x="388.17" y="253.8" width="4.67" height="4.67"/>
      <rect class="fil1" x="388.17" y="261.63" width="4.67" height="4.67"/>
      <rect class="fil1" x="388.17" y="269.46" width="4.67" height="4.67"/>
      <rect class="fil1" x="388.17" y="277.29" width="4.67" height="4.67"/>
      <rect class="fil1" x="388.17" y="285.12" width="4.67" height="4.67"/>
      <rect class="fil1" x="388.17" y="292.95" width="4.67" height="4.67"/>
      <rect class="fil1" x="388.17" y="300.78" width="4.67" height="4.67"/>
      <rect class="fil1" x="388.17" y="308.61" width="4.67" height="4.67"/>
      <rect class="fil1" x="388.17" y="316.44" width="4.67" height="4.67"/>
      <rect class="fil1" x="388.17" y="324.27" width="4.67" height="4.67"/>
      <rect class="fil1" x="388.17" y="332.1" width="4.67" height="4.67"/>
      <rect class="fil1" x="388.17" y="339.93" width="4.67" height="4.67"/>
      <rect class="fil1" x="388.17" y="347.76" width="4.67" height="4.67"/>
      <rect class="fil1" x="388.17" y="355.59" width="4.67" height="4.67"/>
      <rect class="fil1" x="388.17" y="363.42" width="4.67" height="4.67"/>
      <rect class="fil1" x="388.17" y="371.25" width="4.67" height="4.67"/>
      <rect class="fil1" x="388.17" y="379.08" width="4.67" height="4.67"/>
      <rect class="fil1" x="388.17" y="386.91" width="4.67" height="4.67"/>
      <rect class="fil1" x="380.75" y="253.8" width="4.67" height="4.67"/>
      <rect class="fil1" x="380.75" y="261.63" width="4.67" height="4.67"/>
      <rect class="fil1" x="380.75" y="269.46" width="4.67" height="4.67"/>
      <rect class="fil1" x="380.75" y="277.29" width="4.67" height="4.67"/>
      <rect class="fil1" x="380.75" y="285.12" width="4.67" height="4.67"/>
      <rect class="fil1" x="380.75" y="292.95" width="4.67" height="4.67"/>
      <rect class="fil1" x="380.75" y="300.78" width="4.67" height="4.67"/>
      <rect class="fil1" x="380.75" y="308.61" width="4.67" height="4.67"/>
      <rect class="fil1" x="380.75" y="316.44" width="4.67" height="4.67"/>
      <rect class="fil1" x="380.75" y="324.27" width="4.67" height="4.67"/>
      <rect class="fil1" x="380.75" y="347.76" width="4.67" height="4.67"/>
      <rect class="fil1" x="380.75" y="355.59" width="4.67" height="4.67"/>
      <rect class="fil1" x="380.75" y="363.42" width="4.67" height="4.67"/>
      <rect class="fil1" x="380.75" y="371.25" width="4.67" height="4.67"/>
      <rect class="fil1" x="373.34" y="253.8" width="4.67" height="4.67"/>
      <rect class="fil1" x="373.34" y="261.63" width="4.67" height="4.67"/>
      <rect class="fil1" x="373.34" y="269.46" width="4.67" height="4.67"/>
      <rect class="fil1" x="373.34" y="277.29" width="4.67" height="4.67"/>
      <rect class="fil1" x="373.34" y="285.12" width="4.67" height="4.67"/>
      <rect class="fil1" x="373.34" y="292.95" width="4.67" height="4.67"/>
      <rect class="fil1" x="373.34" y="300.78" width="4.67" height="4.67"/>
      <rect class="fil1" x="373.34" y="308.61" width="4.67" height="4.67"/>
      <rect class="fil1" x="373.34" y="316.44" width="4.67" height="4.67"/>
      <rect class="fil1" x="373.34" y="324.27" width="4.67" height="4.67"/>
      <rect class="fil1" x="373.34" y="347.76" width="4.67" height="4.67"/>
      <rect class="fil1" x="373.34" y="355.59" width="4.67" height="4.67"/>
      <rect class="fil1" x="373.34" y="363.42" width="4.67" height="4.67"/>
      <rect class="fil1" x="289.82" y="233.47" width="4.67" height="4.67"/>
      <rect class="fil1" x="289.82" y="241.3" width="4.67" height="4.67"/>
      <rect class="fil1" x="289.82" y="249.13" width="4.67" height="4.67"/>
      <rect class="fil1" x="289.82" y="256.96" width="4.67" height="4.67"/>
      <rect class="fil1" x="289.82" y="264.79" width="4.67" height="4.67"/>
      <rect class="fil1" x="289.82" y="272.62" width="4.67" height="4.67"/>
      <rect class="fil1" x="289.82" y="280.45" width="4.67" height="4.67"/>
      <rect class="fil1" x="289.82" y="288.28" width="4.67" height="4.67"/>
      <rect class="fil1" x="289.82" y="311.77" width="4.67" height="4.67"/>
      <rect class="fil1" x="289.82" y="319.6" width="4.67" height="4.67"/>
      <rect class="fil1" x="282.4" y="233.47" width="4.67" height="4.67"/>
      <rect class="fil1" x="282.4" y="241.3" width="4.67" height="4.67"/>
      <rect class="fil1" x="282.4" y="249.13" width="4.67" height="4.67"/>
      <rect class="fil1" x="282.4" y="256.96" width="4.67" height="4.67"/>
      <rect class="fil1" x="282.4" y="264.79" width="4.67" height="4.67"/>
      <rect class="fil1" x="282.4" y="272.62" width="4.67" height="4.67"/>
      <rect class="fil1" x="282.4" y="280.45" width="4.67" height="4.67"/>
      <rect class="fil1" x="282.4" y="288.28" width="4.67" height="4.67"/>
      <rect class="fil1" x="282.4" y="319.6" width="4.67" height="4.67"/>
      <rect class="fil1" x="274.98" y="233.47" width="4.67" height="4.67"/>
      <rect class="fil1" x="274.98" y="241.3" width="4.67" height="4.67"/>
      <rect class="fil1" x="274.98" y="249.13" width="4.67" height="4.67"/>
      <rect class="fil1" x="274.98" y="256.96" width="4.67" height="4.67"/>
      <rect class="fil1" x="274.98" y="264.79" width="4.67" height="4.67"/>
      <rect class="fil1" x="274.98" y="272.62" width="4.67" height="4.67"/>
      <rect class="fil1" x="274.98" y="280.45" width="4.67" height="4.67"/>
      <rect class="fil1" x="274.98" y="288.28" width="4.67" height="4.67"/>
      <rect class="fil1" x="267.57" y="233.47" width="4.67" height="4.67"/>
      <rect class="fil1" x="267.57" y="241.3" width="4.67" height="4.67"/>
      <rect class="fil1" x="267.57" y="249.13" width="4.67" height="4.67"/>
      <rect class="fil1" x="267.57" y="256.96" width="4.67" height="4.67"/>
      <rect class="fil1" x="267.57" y="264.79" width="4.67" height="4.67"/>
      <rect class="fil1" x="267.57" y="272.62" width="4.67" height="4.67"/>
      <rect class="fil1" x="267.57" y="288.28" width="4.67" height="4.67"/>
      <rect class="fil1" x="267.57" y="296.11" width="4.67" height="4.67"/>
      <rect class="fil1" x="267.57" y="319.6" width="4.67" height="4.67"/>
      <rect class="fil1" x="267.57" y="327.43" width="4.67" height="4.67"/>
      <rect class="fil1" x="267.57" y="335.26" width="4.67" height="4.67"/>
      <rect class="fil1" x="267.57" y="343.09" width="4.67" height="4.67"/>
      <rect class="fil1" x="267.57" y="350.92" width="4.67" height="4.67"/>
      <rect class="fil1" x="267.57" y="358.75" width="4.67" height="4.67"/>
      <rect class="fil1" x="267.57" y="366.58" width="4.67" height="4.67"/>
      <rect class="fil1" x="260.15" y="233.47" width="4.67" height="4.67"/>
      <rect class="fil1" x="260.15" y="241.3" width="4.67" height="4.67"/>
      <rect class="fil1" x="260.15" y="249.13" width="4.67" height="4.67"/>
      <rect class="fil1" x="260.15" y="256.96" width="4.67" height="4.67"/>
      <rect class="fil1" x="260.15" y="264.79" width="4.67" height="4.67"/>
      <rect class="fil1" x="260.15" y="272.62" width="4.67" height="4.67"/>
      <rect class="fil1" x="260.15" y="296.11" width="4.67" height="4.67"/>
      <rect class="fil1" x="260.15" y="303.94" width="4.67" height="4.67"/>
      <rect class="fil1" x="260.15" y="311.77" width="4.67" height="4.67"/>
      <rect class="fil1" x="260.15" y="319.6" width="4.67" height="4.67"/>
      <rect class="fil1" x="260.15" y="327.43" width="4.67" height="4.67"/>
      <rect class="fil1" x="260.15" y="335.26" width="4.67" height="4.67"/>
      <rect class="fil1" x="260.15" y="343.09" width="4.67" height="4.67"/>
      <rect class="fil1" x="260.15" y="350.92" width="4.67" height="4.67"/>
      <rect class="fil1" x="260.15" y="358.75" width="4.67" height="4.67"/>
      <rect class="fil1" x="260.15" y="366.58" width="4.67" height="4.67"/>
      <rect class="fil1" x="260.15" y="374.41" width="4.67" height="4.67"/>
      <rect class="fil1" x="260.15" y="390.07" width="4.67" height="4.67"/>
      <rect class="fil1" x="252.73" y="233.47" width="4.67" height="4.67"/>
      <rect class="fil1" x="252.73" y="241.3" width="4.67" height="4.67"/>
      <rect class="fil1" x="252.73" y="249.13" width="4.67" height="4.67"/>
      <rect class="fil1" x="252.73" y="256.96" width="4.67" height="4.67"/>
      <rect class="fil1" x="252.73" y="264.79" width="4.67" height="4.67"/>
      <rect class="fil1" x="252.73" y="272.62" width="4.67" height="4.67"/>
      <rect class="fil1" x="252.73" y="296.11" width="4.67" height="4.67"/>
      <rect class="fil1" x="252.73" y="303.94" width="4.67" height="4.67"/>
      <rect class="fil1" x="252.73" y="311.77" width="4.67" height="4.67"/>
      <rect class="fil1" x="252.73" y="319.6" width="4.67" height="4.67"/>
      <rect class="fil1" x="252.73" y="343.09" width="4.67" height="4.67"/>
      <rect class="fil1" x="252.73" y="350.92" width="4.67" height="4.67"/>
      <rect class="fil1" x="252.73" y="358.75" width="4.67" height="4.67"/>
      <rect class="fil1" x="252.73" y="366.58" width="4.67" height="4.67"/>
      <rect class="fil1" x="252.73" y="374.41" width="4.67" height="4.67"/>
      <rect class="fil1" x="252.73" y="390.07" width="4.67" height="4.67"/>
      <rect class="fil1" x="252.73" y="397.89" width="4.67" height="4.67"/>
      <rect class="fil1" x="185.42" y="306.28" width="4.67" height="4.67"/>
      <rect class="fil1" x="185.42" y="314.1" width="4.67" height="4.67"/>
      <rect class="fil1" x="185.42" y="321.94" width="4.67" height="4.67"/>
      <rect class="fil1" x="185.42" y="329.76" width="4.67" height="4.67"/>
      <rect class="fil1" x="185.42" y="337.59" width="4.67" height="4.67"/>
      <rect class="fil1" x="185.42" y="345.42" width="4.67" height="4.67"/>
      <rect class="fil1" x="185.42" y="353.25" width="4.67" height="4.67"/>
      <rect class="fil1" x="185.42" y="376.74" width="4.67" height="4.67"/>
      <rect class="fil1" x="185.42" y="384.57" width="4.67" height="4.67"/>
      <rect class="fil1" x="185.42" y="392.4" width="4.67" height="4.67"/>
      <rect class="fil1" x="178.01" y="306.28" width="4.67" height="4.67"/>
      <rect class="fil1" x="178.01" y="314.1" width="4.67" height="4.67"/>
      <rect class="fil1" x="178.01" y="321.94" width="4.67" height="4.67"/>
      <rect class="fil1" x="178.01" y="329.76" width="4.67" height="4.67"/>
      <rect class="fil1" x="178.01" y="337.59" width="4.67" height="4.67"/>
      <rect class="fil1" x="178.01" y="345.42" width="4.67" height="4.67"/>
      <rect class="fil1" x="178.01" y="353.25" width="4.67" height="4.67"/>
      <rect class="fil1" x="170.59" y="306.28" width="4.67" height="4.67"/>
      <rect class="fil1" x="170.59" y="314.1" width="4.67" height="4.67"/>
      <rect class="fil1" x="170.59" y="321.94" width="4.67" height="4.67"/>
      <rect class="fil1" x="170.59" y="329.76" width="4.67" height="4.67"/>
      <rect class="fil1" x="170.59" y="337.59" width="4.67" height="4.67"/>
      <rect class="fil1" x="170.59" y="345.42" width="4.67" height="4.67"/>
      <rect class="fil1" x="170.59" y="353.25" width="4.67" height="4.67"/>
      <rect class="fil1" x="163.17" y="306.28" width="4.67" height="4.67"/>
      <rect class="fil1" x="163.17" y="314.1" width="4.67" height="4.67"/>
      <rect class="fil1" x="163.17" y="321.94" width="4.67" height="4.67"/>
      <rect class="fil1" x="163.17" y="329.76" width="4.67" height="4.67"/>
      <rect class="fil1" x="163.17" y="337.59" width="4.67" height="4.67"/>
      <rect class="fil1" x="163.17" y="345.42" width="4.67" height="4.67"/>
      <rect class="fil1" x="163.17" y="353.25" width="4.67" height="4.67"/>
      <rect class="fil1" x="163.17" y="361.08" width="4.67" height="4.67"/>
      <rect class="fil1" x="163.17" y="368.91" width="4.67" height="4.67"/>
      <rect class="fil1" x="163.17" y="376.74" width="4.67" height="4.67"/>
      <rect class="fil1" x="163.17" y="384.57" width="4.67" height="4.67"/>
      <rect class="fil1" x="155.75" y="306.28" width="4.67" height="4.67"/>
      <rect class="fil1" x="155.75" y="314.1" width="4.67" height="4.67"/>
      <rect class="fil1" x="155.75" y="321.94" width="4.67" height="4.67"/>
      <rect class="fil1" x="155.75" y="329.76" width="4.67" height="4.67"/>
      <rect class="fil1" x="155.75" y="337.59" width="4.67" height="4.67"/>
      <rect class="fil1" x="155.75" y="345.42" width="4.67" height="4.67"/>
      <rect class="fil1" x="155.75" y="353.25" width="4.67" height="4.67"/>
      <rect class="fil1" x="155.75" y="361.08" width="4.67" height="4.67"/>
      <rect class="fil1" x="155.75" y="368.91" width="4.67" height="4.67"/>
      <rect class="fil1" x="155.75" y="376.74" width="4.67" height="4.67"/>
      <rect class="fil1" x="155.75" y="384.57" width="4.67" height="4.67"/>
      <rect class="fil1" x="155.75" y="392.4" width="4.67" height="4.67"/>
      <rect class="fil1" x="155.75" y="415.89" width="4.67" height="4.67"/>
      <rect class="fil1" x="155.75" y="423.72" width="4.67" height="4.67"/>
      <rect class="fil1" x="148.34" y="306.28" width="4.67" height="4.67"/>
      <rect class="fil1" x="148.34" y="314.1" width="4.67" height="4.67"/>
      <rect class="fil1" x="148.34" y="321.94" width="4.67" height="4.67"/>
      <rect class="fil1" x="148.34" y="345.42" width="4.67" height="4.67"/>
      <rect class="fil1" x="148.34" y="353.25" width="4.67" height="4.67"/>
      <rect class="fil1" x="148.34" y="361.08" width="4.67" height="4.67"/>
      <rect class="fil1" x="148.34" y="368.91" width="4.67" height="4.67"/>
      <rect class="fil1" x="148.34" y="376.74" width="4.67" height="4.67"/>
      <rect class="fil1" x="148.34" y="384.57" width="4.67" height="4.67"/>
      <rect class="fil1" x="148.34" y="392.4" width="4.67" height="4.67"/>
      <rect class="fil1" x="148.34" y="415.89" width="4.67" height="4.67"/>
      <rect class="fil1" x="148.34" y="423.72" width="4.67" height="4.67"/>
      <rect class="fil1" x="148.34" y="431.55" width="4.67" height="4.67"/>
      <rect class="fil1" x="70.59" y="259.3" width="4.67" height="4.67"/>
      <rect class="fil1" x="70.59" y="267.13" width="4.67" height="4.67"/>
      <rect class="fil1" x="70.59" y="274.96" width="4.67" height="4.67"/>
      <rect class="fil1" x="70.59" y="282.79" width="4.67" height="4.67"/>
      <rect class="fil1" x="70.59" y="290.62" width="4.67" height="4.67"/>
      <rect class="fil1" x="70.59" y="298.44" width="4.67" height="4.67"/>
      <rect class="fil1" x="70.59" y="306.28" width="4.67" height="4.67"/>
      <rect class="fil1" x="70.59" y="314.1" width="4.67" height="4.67"/>
      <rect class="fil1" x="70.59" y="321.94" width="4.67" height="4.67"/>
      <rect class="fil1" x="70.59" y="329.76" width="4.67" height="4.67"/>
      <rect class="fil1" x="70.59" y="337.59" width="4.67" height="4.67"/>
      <rect class="fil1" x="70.59" y="345.42" width="4.67" height="4.67"/>
      <rect class="fil1" x="70.59" y="353.25" width="4.67" height="4.67"/>
      <rect class="fil1" x="70.59" y="361.08" width="4.67" height="4.67"/>
      <rect class="fil1" x="70.59" y="368.91" width="4.67" height="4.67"/>
      <rect class="fil1" x="70.59" y="376.74" width="4.67" height="4.67"/>
      <rect class="fil1" x="70.59" y="384.57" width="4.67" height="4.67"/>
      <rect class="fil1" x="70.59" y="392.4" width="4.67" height="4.67"/>
      <rect class="fil1" x="70.59" y="400.23" width="4.67" height="4.67"/>
      <rect class="fil1" x="70.59" y="408.06" width="4.67" height="4.67"/>
      <rect class="fil1" x="70.59" y="415.89" width="4.67" height="4.67"/>
      <rect class="fil1" x="70.59" y="423.72" width="4.67" height="4.67"/>
      <rect class="fil1" x="70.59" y="431.55" width="4.67" height="4.67"/>
      <rect class="fil1" x="63.17" y="259.3" width="4.67" height="4.67"/>
      <rect class="fil1" x="63.17" y="267.13" width="4.67" height="4.67"/>
      <rect class="fil1" x="63.17" y="274.96" width="4.67" height="4.67"/>
      <rect class="fil1" x="63.17" y="282.79" width="4.67" height="4.67"/>
      <rect class="fil1" x="63.17" y="290.62" width="4.67" height="4.67"/>
      <rect class="fil1" x="63.17" y="298.44" width="4.67" height="4.67"/>
      <rect class="fil1" x="63.17" y="306.28" width="4.67" height="4.67"/>
      <rect class="fil1" x="63.17" y="314.1" width="4.67" height="4.67"/>
      <rect class="fil1" x="63.17" y="321.94" width="4.67" height="4.67"/>
      <rect class="fil1" x="63.17" y="329.76" width="4.67" height="4.67"/>
      <rect class="fil1" x="63.17" y="337.59" width="4.67" height="4.67"/>
      <rect class="fil1" x="63.17" y="345.42" width="4.67" height="4.67"/>
      <rect class="fil1" x="63.17" y="353.25" width="4.67" height="4.67"/>
      <rect class="fil1" x="63.17" y="361.08" width="4.67" height="4.67"/>
      <rect class="fil1" x="63.17" y="368.91" width="4.67" height="4.67"/>
      <rect class="fil1" x="63.17" y="376.74" width="4.67" height="4.67"/>
      <rect class="fil1" x="63.17" y="384.57" width="4.67" height="4.67"/>
      <rect class="fil1" x="63.17" y="392.4" width="4.67" height="4.67"/>
      <rect class="fil1" x="63.17" y="400.23" width="4.67" height="4.67"/>
      <rect class="fil1" x="55.75" y="259.3" width="4.67" height="4.67"/>
      <rect class="fil1" x="55.75" y="267.13" width="4.67" height="4.67"/>
      <rect class="fil1" x="55.75" y="274.96" width="4.67" height="4.67"/>
      <rect class="fil1" x="55.75" y="282.79" width="4.67" height="4.67"/>
      <rect class="fil1" x="55.75" y="290.62" width="4.67" height="4.67"/>
      <rect class="fil1" x="55.75" y="298.44" width="4.67" height="4.67"/>
      <rect class="fil1" x="55.75" y="306.28" width="4.67" height="4.67"/>
      <rect class="fil1" x="55.75" y="314.1" width="4.67" height="4.67"/>
      <rect class="fil1" x="55.75" y="321.94" width="4.67" height="4.67"/>
      <rect class="fil1" x="55.75" y="329.76" width="4.67" height="4.67"/>
      <rect class="fil1" x="55.75" y="337.59" width="4.67" height="4.67"/>
      <rect class="fil1" x="55.75" y="345.42" width="4.67" height="4.67"/>
      <rect class="fil1" x="55.75" y="353.25" width="4.67" height="4.67"/>
      <rect class="fil1" x="55.75" y="361.08" width="4.67" height="4.67"/>
      <rect class="fil1" x="55.75" y="368.91" width="4.67" height="4.67"/>
      <rect class="fil1" x="55.75" y="376.74" width="4.67" height="4.67"/>
      <rect class="fil1" x="55.75" y="384.57" width="4.67" height="4.67"/>
      <rect class="fil1" x="55.75" y="392.4" width="4.67" height="4.67"/>
      <rect class="fil1" x="55.75" y="400.23" width="4.67" height="4.67"/>
      <rect class="fil1" x="48.34" y="259.3" width="4.67" height="4.67"/>
      <rect class="fil1" x="48.34" y="267.13" width="4.67" height="4.67"/>
      <rect class="fil1" x="48.34" y="274.96" width="4.67" height="4.67"/>
      <rect class="fil1" x="48.34" y="282.79" width="4.67" height="4.67"/>
      <rect class="fil1" x="48.34" y="290.62" width="4.67" height="4.67"/>
      <rect class="fil1" x="48.34" y="298.44" width="4.67" height="4.67"/>
      <rect class="fil1" x="48.34" y="306.28" width="4.67" height="4.67"/>
      <rect class="fil1" x="48.34" y="314.1" width="4.67" height="4.67"/>
      <rect class="fil1" x="48.34" y="321.94" width="4.67" height="4.67"/>
      <rect class="fil1" x="48.34" y="329.76" width="4.67" height="4.67"/>
      <rect class="fil1" x="48.34" y="337.59" width="4.67" height="4.67"/>
      <rect class="fil1" x="48.34" y="345.42" width="4.67" height="4.67"/>
      <rect class="fil1" x="48.34" y="353.25" width="4.67" height="4.67"/>
      <rect class="fil1" x="48.34" y="361.08" width="4.67" height="4.67"/>
      <rect class="fil1" x="48.34" y="368.91" width="4.67" height="4.67"/>
      <rect class="fil1" x="40.92" y="259.3" width="4.67" height="4.67"/>
      <rect class="fil1" x="40.92" y="267.13" width="4.67" height="4.67"/>
      <rect class="fil1" x="40.92" y="274.96" width="4.67" height="4.67"/>
      <rect class="fil1" x="40.92" y="282.79" width="4.67" height="4.67"/>
      <rect class="fil1" x="40.92" y="290.62" width="4.67" height="4.67"/>
      <rect class="fil1" x="40.92" y="298.44" width="4.67" height="4.67"/>
      <rect class="fil1" x="40.92" y="306.28" width="4.67" height="4.67"/>
      <rect class="fil1" x="40.92" y="314.1" width="4.67" height="4.67"/>
      <rect class="fil1" x="40.92" y="321.94" width="4.67" height="4.67"/>
      <rect class="fil1" x="40.92" y="329.76" width="4.67" height="4.67"/>
      <rect class="fil1" x="40.92" y="337.59" width="4.67" height="4.67"/>
      <rect class="fil1" x="40.92" y="345.42" width="4.67" height="4.67"/>
      <rect class="fil1" x="40.92" y="353.25" width="4.67" height="4.67"/>
      <rect class="fil1" x="33.5" y="259.3" width="4.67" height="4.67"/>
      <rect class="fil1" x="33.5" y="267.13" width="4.67" height="4.67"/>
      <rect class="fil1" x="33.5" y="274.96" width="4.67" height="4.67"/>
      <rect class="fil1" x="33.5" y="282.79" width="4.67" height="4.67"/>
      <rect class="fil1" x="33.5" y="290.62" width="4.67" height="4.67"/>
      <rect class="fil1" x="33.5" y="298.44" width="4.67" height="4.67"/>
      <rect class="fil1" x="33.5" y="306.28" width="4.67" height="4.67"/>
      <rect class="fil1" x="33.5" y="314.1" width="4.67" height="4.67"/>
      <rect class="fil1" x="33.5" y="321.94" width="4.67" height="4.67"/>
      <rect class="fil1" x="33.5" y="329.76" width="4.67" height="4.67"/>
      <rect class="fil1" x="33.5" y="337.59" width="4.67" height="4.67"/>
      <rect class="fil1" x="33.5" y="345.42" width="4.67" height="4.67"/>
      <rect class="fil1" x="578.55" y="316.44" width="4.67" height="4.67"/>
      <rect class="fil1" x="578.55" y="324.27" width="4.67" height="4.67"/>
      <rect class="fil1" x="578.55" y="332.1" width="4.67" height="4.67"/>
      <rect class="fil1" x="578.55" y="339.93" width="4.67" height="4.67"/>
      <rect class="fil1" x="578.55" y="347.76" width="4.67" height="4.67"/>
      <rect class="fil1" x="578.55" y="355.59" width="4.67" height="4.67"/>
      <rect class="fil1" x="578.55" y="363.42" width="4.67" height="4.67"/>
      <rect class="fil1" x="578.55" y="371.25" width="4.67" height="4.67"/>
      <rect class="fil1" x="578.55" y="379.08" width="4.67" height="4.67"/>
      <rect class="fil1" x="578.55" y="386.91" width="4.67" height="4.67"/>
      <rect class="fil1" x="578.55" y="394.74" width="4.67" height="4.67"/>
      <rect class="fil1" x="578.55" y="402.57" width="4.67" height="4.67"/>
      <rect class="fil1" x="578.55" y="410.4" width="4.67" height="4.67"/>
      <rect class="fil1" x="578.55" y="418.23" width="4.67" height="4.67"/>
      <rect class="fil1" x="578.55" y="426.05" width="4.67" height="4.67"/>
      <rect class="fil1" x="578.55" y="433.89" width="4.67" height="4.67"/>
      <rect class="fil1" x="578.55" y="441.71" width="4.67" height="4.67"/>
      <rect class="fil1" x="578.55" y="449.54" width="4.67" height="4.67"/>
      <rect class="fil1" x="578.55" y="457.37" width="4.67" height="4.67"/>
      <rect class="fil1" x="578.55" y="465.2" width="4.67" height="4.67"/>
      <rect class="fil1" x="571.14" y="316.44" width="4.67" height="4.67"/>
      <rect class="fil1" x="571.14" y="324.27" width="4.67" height="4.67"/>
      <rect class="fil1" x="571.14" y="332.1" width="4.67" height="4.67"/>
      <rect class="fil1" x="571.14" y="339.93" width="4.67" height="4.67"/>
      <rect class="fil1" x="571.14" y="347.76" width="4.67" height="4.67"/>
      <rect class="fil1" x="571.14" y="355.59" width="4.67" height="4.67"/>
      <rect class="fil1" x="571.14" y="363.42" width="4.67" height="4.67"/>
      <rect class="fil1" x="571.14" y="371.25" width="4.67" height="4.67"/>
      <rect class="fil1" x="571.14" y="379.08" width="4.67" height="4.67"/>
      <rect class="fil1" x="571.14" y="386.91" width="4.67" height="4.67"/>
      <rect class="fil1" x="571.14" y="394.74" width="4.67" height="4.67"/>
      <rect class="fil1" x="571.14" y="402.57" width="4.67" height="4.67"/>
      <rect class="fil1" x="571.14" y="410.4" width="4.67" height="4.67"/>
      <rect class="fil1" x="571.14" y="418.23" width="4.67" height="4.67"/>
      <rect class="fil1" x="571.14" y="426.05" width="4.67" height="4.67"/>
      <rect class="fil1" x="571.14" y="433.89" width="4.67" height="4.67"/>
      <rect class="fil1" x="571.14" y="441.71" width="4.67" height="4.67"/>
      <rect class="fil1" x="571.14" y="449.54" width="4.67" height="4.67"/>
      <rect class="fil1" x="563.72" y="316.44" width="4.67" height="4.67"/>
      <rect class="fil1" x="563.72" y="324.27" width="4.67" height="4.67"/>
      <rect class="fil1" x="563.72" y="332.1" width="4.67" height="4.67"/>
      <rect class="fil1" x="563.72" y="339.93" width="4.67" height="4.67"/>
      <rect class="fil1" x="563.72" y="347.76" width="4.67" height="4.67"/>
      <rect class="fil1" x="563.72" y="355.59" width="4.67" height="4.67"/>
      <rect class="fil1" x="563.72" y="363.42" width="4.67" height="4.67"/>
      <rect class="fil1" x="563.72" y="371.25" width="4.67" height="4.67"/>
      <rect class="fil1" x="563.72" y="379.08" width="4.67" height="4.67"/>
      <rect class="fil1" x="563.72" y="386.91" width="4.67" height="4.67"/>
      <rect class="fil1" x="563.72" y="394.74" width="4.67" height="4.67"/>
      <rect class="fil1" x="563.72" y="402.57" width="4.67" height="4.67"/>
      <rect class="fil1" x="563.72" y="410.4" width="4.67" height="4.67"/>
      <rect class="fil1" x="563.72" y="418.23" width="4.67" height="4.67"/>
      <rect class="fil1" x="563.72" y="426.05" width="4.67" height="4.67"/>
      <rect class="fil1" x="563.72" y="433.89" width="4.67" height="4.67"/>
      <rect class="fil1" x="563.72" y="441.71" width="4.67" height="4.67"/>
      <rect class="fil1" x="563.72" y="449.54" width="4.67" height="4.67"/>
      <rect class="fil1" x="606.3" y="373.58" width="4.67" height="4.67"/>
      <rect class="fil1" x="606.3" y="381.41" width="4.67" height="4.67"/>
      <rect class="fil1" x="606.3" y="389.24" width="4.67" height="4.67"/>
      <rect class="fil1" x="606.3" y="397.07" width="4.67" height="4.67"/>
      <rect class="fil1" x="606.3" y="404.9" width="4.67" height="4.67"/>
      <rect class="fil1" x="606.3" y="412.73" width="4.67" height="4.67"/>
      <rect class="fil1" x="606.3" y="420.56" width="4.67" height="4.67"/>
      <rect class="fil1" x="606.3" y="428.39" width="4.67" height="4.67"/>
      <rect class="fil1" x="606.3" y="436.22" width="4.67" height="4.67"/>
      <rect class="fil1" x="606.3" y="444.05" width="4.67" height="4.67"/>
      <rect class="fil1" x="606.3" y="451.88" width="4.67" height="4.67"/>
      <rect class="fil1" x="606.3" y="459.71" width="4.67" height="4.67"/>
      <rect class="fil1" x="606.3" y="467.54" width="4.67" height="4.67"/>
      <rect class="fil1" x="598.88" y="373.58" width="4.67" height="4.67"/>
      <rect class="fil1" x="598.88" y="381.41" width="4.67" height="4.67"/>
      <rect class="fil1" x="598.88" y="389.24" width="4.67" height="4.67"/>
      <rect class="fil1" x="598.88" y="397.07" width="4.67" height="4.67"/>
      <rect class="fil1" x="598.88" y="404.9" width="4.67" height="4.67"/>
      <rect class="fil1" x="598.88" y="412.73" width="4.67" height="4.67"/>
      <rect class="fil1" x="598.88" y="420.56" width="4.67" height="4.67"/>
      <rect class="fil1" x="598.88" y="428.39" width="4.67" height="4.67"/>
      <rect class="fil1" x="598.88" y="436.22" width="4.67" height="4.67"/>
      <rect class="fil1" x="598.88" y="444.05" width="4.67" height="4.67"/>
      <rect class="fil1" x="598.88" y="451.88" width="4.67" height="4.67"/>
      <rect class="fil1" x="598.88" y="459.71" width="4.67" height="4.67"/>
      <rect class="fil1" x="598.88" y="467.54" width="4.67" height="4.67"/>
      <rect class="fil1" x="591.47" y="373.58" width="4.67" height="4.67"/>
      <rect class="fil1" x="591.47" y="381.41" width="4.67" height="4.67"/>
      <rect class="fil1" x="591.47" y="389.24" width="4.67" height="4.67"/>
      <rect class="fil1" x="591.47" y="397.07" width="4.67" height="4.67"/>
      <rect class="fil1" x="591.47" y="404.9" width="4.67" height="4.67"/>
      <rect class="fil1" x="591.47" y="412.73" width="4.67" height="4.67"/>
      <rect class="fil1" x="591.47" y="420.56" width="4.67" height="4.67"/>
      <rect class="fil1" x="591.47" y="428.39" width="4.67" height="4.67"/>
      <rect class="fil1" x="591.47" y="436.22" width="4.67" height="4.67"/>
      <rect class="fil1" x="591.47" y="444.05" width="4.67" height="4.67"/>
      <rect class="fil1" x="591.47" y="451.88" width="4.67" height="4.67"/>
      <rect class="fil1" x="591.47" y="459.71" width="4.67" height="4.67"/>
      <rect class="fil1" x="591.47" y="467.54" width="4.67" height="4.67"/>
      <rect class="fil1" x="591.47" y="475.37" width="4.67" height="4.67"/>
      <rect class="fil1" x="550.26" y="375.92" width="4.67" height="4.67"/>
      <rect class="fil1" x="550.26" y="383.75" width="4.67" height="4.67"/>
      <rect class="fil1" x="550.26" y="391.58" width="4.67" height="4.67"/>
      <rect class="fil1" x="550.26" y="399.41" width="4.67" height="4.67"/>
      <rect class="fil1" x="550.26" y="407.24" width="4.67" height="4.67"/>
      <rect class="fil1" x="550.26" y="415.07" width="4.67" height="4.67"/>
      <rect class="fil1" x="550.26" y="422.9" width="4.67" height="4.67"/>
      <rect class="fil1" x="550.26" y="430.73" width="4.67" height="4.67"/>
      <rect class="fil1" x="550.26" y="438.55" width="4.67" height="4.67"/>
      <rect class="fil1" x="550.26" y="446.39" width="4.67" height="4.67"/>
      <rect class="fil1" x="550.26" y="469.87" width="4.67" height="4.67"/>
      <rect class="fil1" x="542.84" y="375.92" width="4.67" height="4.67"/>
      <rect class="fil1" x="542.84" y="383.75" width="4.67" height="4.67"/>
      <rect class="fil1" x="542.84" y="391.58" width="4.67" height="4.67"/>
      <rect class="fil1" x="542.84" y="399.41" width="4.67" height="4.67"/>
      <rect class="fil1" x="542.84" y="407.24" width="4.67" height="4.67"/>
      <rect class="fil1" x="542.84" y="415.07" width="4.67" height="4.67"/>
      <rect class="fil1" x="542.84" y="422.9" width="4.67" height="4.67"/>
      <rect class="fil1" x="542.84" y="430.73" width="4.67" height="4.67"/>
      <rect class="fil1" x="542.84" y="438.55" width="4.67" height="4.67"/>
      <rect class="fil1" x="542.84" y="462.04" width="4.67" height="4.67"/>
      <rect class="fil1" x="542.84" y="469.87" width="4.67" height="4.67"/>
      <rect class="fil1" x="535.42" y="375.92" width="4.67" height="4.67"/>
      <rect class="fil1" x="535.42" y="383.75" width="4.67" height="4.67"/>
      <rect class="fil1" x="535.42" y="391.58" width="4.67" height="4.67"/>
      <rect class="fil1" x="535.42" y="399.41" width="4.67" height="4.67"/>
      <rect class="fil1" x="535.42" y="407.24" width="4.67" height="4.67"/>
      <rect class="fil1" x="535.42" y="415.07" width="4.67" height="4.67"/>
      <rect class="fil1" x="535.42" y="422.9" width="4.67" height="4.67"/>
      <rect class="fil1" x="535.42" y="430.73" width="4.67" height="4.67"/>
      <rect class="fil1" x="535.42" y="454.21" width="4.67" height="4.67"/>
      <rect class="fil1" x="535.42" y="462.04" width="4.67" height="4.67"/>
      <rect class="fil1" x="535.42" y="469.87" width="4.67" height="4.67"/>
      <rect class="fil1" x="466.47" y="256.96" width="4.67" height="4.67"/>
      <rect class="fil1" x="466.47" y="264.79" width="4.67" height="4.67"/>
      <rect class="fil1" x="466.47" y="272.62" width="4.67" height="4.67"/>
      <rect class="fil1" x="466.47" y="280.45" width="4.67" height="4.67"/>
      <rect class="fil1" x="466.47" y="288.28" width="4.67" height="4.67"/>
      <rect class="fil1" x="466.47" y="296.11" width="4.67" height="4.67"/>
      <rect class="fil1" x="466.47" y="303.94" width="4.67" height="4.67"/>
      <rect class="fil1" x="466.47" y="311.77" width="4.67" height="4.67"/>
      <rect class="fil1" x="466.47" y="319.6" width="4.67" height="4.67"/>
      <rect class="fil1" x="466.47" y="327.43" width="4.67" height="4.67"/>
      <rect class="fil1" x="466.47" y="335.26" width="4.67" height="4.67"/>
      <rect class="fil1" x="466.47" y="343.09" width="4.67" height="4.67"/>
      <rect class="fil1" x="466.47" y="350.92" width="4.67" height="4.67"/>
      <rect class="fil1" x="466.47" y="358.75" width="4.67" height="4.67"/>
      <rect class="fil1" x="466.47" y="366.58" width="4.67" height="4.67"/>
      <rect class="fil1" x="466.47" y="374.41" width="4.67" height="4.67"/>
      <rect class="fil1" x="466.47" y="382.24" width="4.67" height="4.67"/>
      <rect class="fil1" x="466.47" y="397.89" width="4.67" height="4.67"/>
      <rect class="fil1" x="466.47" y="405.73" width="4.67" height="4.67"/>
      <rect class="fil1" x="466.47" y="413.55" width="4.67" height="4.67"/>
      <rect class="fil1" x="466.47" y="421.39" width="4.67" height="4.67"/>
      <rect class="fil1" x="466.47" y="429.21" width="4.67" height="4.67"/>
      <rect class="fil1" x="459.05" y="256.96" width="4.67" height="4.67"/>
      <rect class="fil1" x="459.05" y="264.79" width="4.67" height="4.67"/>
      <rect class="fil1" x="459.05" y="272.62" width="4.67" height="4.67"/>
      <rect class="fil1" x="459.05" y="280.45" width="4.67" height="4.67"/>
      <rect class="fil1" x="459.05" y="288.28" width="4.67" height="4.67"/>
      <rect class="fil1" x="459.05" y="296.11" width="4.67" height="4.67"/>
      <rect class="fil1" x="459.05" y="303.94" width="4.67" height="4.67"/>
      <rect class="fil1" x="459.05" y="311.77" width="4.67" height="4.67"/>
      <rect class="fil1" x="459.05" y="319.6" width="4.67" height="4.67"/>
      <rect class="fil1" x="459.05" y="327.43" width="4.67" height="4.67"/>
      <rect class="fil1" x="459.05" y="335.26" width="4.67" height="4.67"/>
      <rect class="fil1" x="459.05" y="343.09" width="4.67" height="4.67"/>
      <rect class="fil1" x="459.05" y="350.92" width="4.67" height="4.67"/>
      <rect class="fil1" x="459.05" y="358.75" width="4.67" height="4.67"/>
      <rect class="fil1" x="459.05" y="366.58" width="4.67" height="4.67"/>
      <rect class="fil1" x="459.05" y="374.41" width="4.67" height="4.67"/>
      <rect class="fil1" x="459.05" y="421.39" width="4.67" height="4.67"/>
      <rect class="fil1" x="459.05" y="429.21" width="4.67" height="4.67"/>
      <rect class="fil1" x="451.63" y="256.96" width="4.67" height="4.67"/>
      <rect class="fil1" x="451.63" y="264.79" width="4.67" height="4.67"/>
      <rect class="fil1" x="451.63" y="272.62" width="4.67" height="4.67"/>
      <rect class="fil1" x="451.63" y="280.45" width="4.67" height="4.67"/>
      <rect class="fil1" x="451.63" y="288.28" width="4.67" height="4.67"/>
      <rect class="fil1" x="451.63" y="296.11" width="4.67" height="4.67"/>
      <rect class="fil1" x="451.63" y="303.94" width="4.67" height="4.67"/>
      <rect class="fil1" x="451.63" y="311.77" width="4.67" height="4.67"/>
      <rect class="fil1" x="451.63" y="319.6" width="4.67" height="4.67"/>
      <rect class="fil1" x="451.63" y="327.43" width="4.67" height="4.67"/>
      <rect class="fil1" x="451.63" y="335.26" width="4.67" height="4.67"/>
      <rect class="fil1" x="451.63" y="343.09" width="4.67" height="4.67"/>
      <rect class="fil1" x="451.63" y="350.92" width="4.67" height="4.67"/>
      <rect class="fil1" x="451.63" y="358.75" width="4.67" height="4.67"/>
      <rect class="fil1" x="451.63" y="366.58" width="4.67" height="4.67"/>
      <rect class="fil1" x="451.63" y="374.41" width="4.67" height="4.67"/>
      <rect class="fil1" x="451.63" y="390.07" width="4.67" height="4.67"/>
      <rect class="fil1" x="451.63" y="397.89" width="4.67" height="4.67"/>
      <rect class="fil1" x="451.63" y="405.73" width="4.67" height="4.67"/>
      <rect class="fil1" x="451.63" y="413.55" width="4.67" height="4.67"/>
      <rect class="fil1" x="451.63" y="429.21" width="4.67" height="4.67"/>
      <rect class="fil1" x="493.39" y="355.59" width="4.67" height="4.67"/>
      <rect class="fil1" x="493.39" y="363.42" width="4.67" height="4.67"/>
      <rect class="fil1" x="493.39" y="371.25" width="4.67" height="4.67"/>
      <rect class="fil1" x="493.39" y="379.08" width="4.67" height="4.67"/>
      <rect class="fil1" x="493.39" y="386.91" width="4.67" height="4.67"/>
      <rect class="fil1" x="493.39" y="394.74" width="4.67" height="4.67"/>
      <rect class="fil1" x="493.39" y="402.57" width="4.67" height="4.67"/>
      <rect class="fil1" x="493.39" y="418.23" width="4.67" height="4.67"/>
      <rect class="fil1" x="493.39" y="426.05" width="4.67" height="4.67"/>
      <rect class="fil1" x="493.39" y="433.89" width="4.67" height="4.67"/>
      <rect class="fil1" x="493.39" y="441.71" width="4.67" height="4.67"/>
      <rect class="fil1" x="493.39" y="449.54" width="4.67" height="4.67"/>
      <rect class="fil1" x="493.39" y="457.37" width="4.67" height="4.67"/>
      <rect class="fil1" x="493.39" y="465.2" width="4.67" height="4.67"/>
      <rect class="fil1" x="493.39" y="473.03" width="4.67" height="4.67"/>
      <rect class="fil1" x="485.97" y="355.59" width="4.67" height="4.67"/>
      <rect class="fil1" x="485.97" y="363.42" width="4.67" height="4.67"/>
      <rect class="fil1" x="485.97" y="371.25" width="4.67" height="4.67"/>
      <rect class="fil1" x="485.97" y="379.08" width="4.67" height="4.67"/>
      <rect class="fil1" x="485.97" y="386.91" width="4.67" height="4.67"/>
      <rect class="fil1" x="485.97" y="394.74" width="4.67" height="4.67"/>
      <rect class="fil1" x="485.97" y="418.23" width="4.67" height="4.67"/>
      <rect class="fil1" x="485.97" y="426.05" width="4.67" height="4.67"/>
      <rect class="fil1" x="485.97" y="433.89" width="4.67" height="4.67"/>
      <rect class="fil1" x="485.97" y="441.71" width="4.67" height="4.67"/>
      <rect class="fil1" x="485.97" y="449.54" width="4.67" height="4.67"/>
      <rect class="fil1" x="485.97" y="457.37" width="4.67" height="4.67"/>
      <rect class="fil1" x="485.97" y="465.2" width="4.67" height="4.67"/>
      <rect class="fil1" x="485.97" y="473.03" width="4.67" height="4.67"/>
      <rect class="fil1" x="478.55" y="355.59" width="4.67" height="4.67"/>
      <rect class="fil1" x="478.55" y="363.42" width="4.67" height="4.67"/>
      <rect class="fil1" x="478.55" y="371.25" width="4.67" height="4.67"/>
      <rect class="fil1" x="478.55" y="379.08" width="4.67" height="4.67"/>
      <rect class="fil1" x="478.55" y="386.91" width="4.67" height="4.67"/>
      <rect class="fil1" x="478.55" y="394.74" width="4.67" height="4.67"/>
      <rect class="fil1" x="478.55" y="410.4" width="4.67" height="4.67"/>
      <rect class="fil1" x="478.55" y="418.23" width="4.67" height="4.67"/>
      <rect class="fil1" x="478.55" y="426.05" width="4.67" height="4.67"/>
      <rect class="fil1" x="478.55" y="433.89" width="4.67" height="4.67"/>
      <rect class="fil1" x="478.55" y="441.71" width="4.67" height="4.67"/>
      <rect class="fil1" x="478.55" y="449.54" width="4.67" height="4.67"/>
      <rect class="fil1" x="478.55" y="457.37" width="4.67" height="4.67"/>
      <rect class="fil1" x="478.55" y="465.2" width="4.67" height="4.67"/>
      <rect class="fil1" x="478.55" y="473.03" width="4.67" height="4.67"/>
      <rect class="fil1" x="322.24" y="311.77" width="4.67" height="4.67"/>
      <rect class="fil1" x="322.24" y="319.6" width="4.67" height="4.67"/>
      <rect class="fil1" x="322.24" y="327.43" width="4.67" height="4.67"/>
      <rect class="fil1" x="322.24" y="335.26" width="4.67" height="4.67"/>
      <rect class="fil1" x="322.24" y="343.09" width="4.67" height="4.67"/>
      <rect class="fil1" x="322.24" y="350.92" width="4.67" height="4.67"/>
      <rect class="fil1" x="322.24" y="358.75" width="4.67" height="4.67"/>
      <rect class="fil1" x="322.24" y="366.58" width="4.67" height="4.67"/>
      <rect class="fil1" x="322.24" y="374.41" width="4.67" height="4.67"/>
      <rect class="fil1" x="322.24" y="382.24" width="4.67" height="4.67"/>
      <rect class="fil1" x="322.24" y="390.07" width="4.67" height="4.67"/>
      <rect class="fil1" x="322.24" y="397.89" width="4.67" height="4.67"/>
      <rect class="fil1" x="322.24" y="405.73" width="4.67" height="4.67"/>
      <rect class="fil1" x="322.24" y="421.39" width="4.67" height="4.67"/>
      <rect class="fil1" x="322.24" y="429.21" width="4.67" height="4.67"/>
      <rect class="fil1" x="322.24" y="437.04" width="4.67" height="4.67"/>
      <rect class="fil1" x="322.24" y="444.87" width="4.67" height="4.67"/>
      <rect class="fil1" x="322.24" y="460.53" width="4.67" height="4.67"/>
      <rect class="fil1" x="322.24" y="468.36" width="4.67" height="4.67"/>
      <rect class="fil1" x="322.24" y="476.19" width="4.67" height="4.67"/>
      <rect class="fil1" x="314.82" y="311.77" width="4.67" height="4.67"/>
      <rect class="fil1" x="314.82" y="319.6" width="4.67" height="4.67"/>
      <rect class="fil1" x="314.82" y="327.43" width="4.67" height="4.67"/>
      <rect class="fil1" x="314.82" y="335.26" width="4.67" height="4.67"/>
      <rect class="fil1" x="314.82" y="343.09" width="4.67" height="4.67"/>
      <rect class="fil1" x="314.82" y="350.92" width="4.67" height="4.67"/>
      <rect class="fil1" x="314.82" y="358.75" width="4.67" height="4.67"/>
      <rect class="fil1" x="314.82" y="366.58" width="4.67" height="4.67"/>
      <rect class="fil1" x="314.82" y="374.41" width="4.67" height="4.67"/>
      <rect class="fil1" x="314.82" y="382.24" width="4.67" height="4.67"/>
      <rect class="fil1" x="314.82" y="390.07" width="4.67" height="4.67"/>
      <rect class="fil1" x="314.82" y="397.89" width="4.67" height="4.67"/>
      <rect class="fil1" x="314.82" y="405.73" width="4.67" height="4.67"/>
      <rect class="fil1" x="314.82" y="429.21" width="4.67" height="4.67"/>
      <rect class="fil1" x="314.82" y="437.04" width="4.67" height="4.67"/>
      <rect class="fil1" x="314.82" y="452.7" width="4.67" height="4.67"/>
      <rect class="fil1" x="314.82" y="460.53" width="4.67" height="4.67"/>
      <rect class="fil1" x="314.82" y="468.36" width="4.67" height="4.67"/>
      <rect class="fil1" x="314.82" y="476.19" width="4.67" height="4.67"/>
      <rect class="fil1" x="307.4" y="311.77" width="4.67" height="4.67"/>
      <rect class="fil1" x="307.4" y="319.6" width="4.67" height="4.67"/>
      <rect class="fil1" x="307.4" y="327.43" width="4.67" height="4.67"/>
      <rect class="fil1" x="307.4" y="335.26" width="4.67" height="4.67"/>
      <rect class="fil1" x="307.4" y="343.09" width="4.67" height="4.67"/>
      <rect class="fil1" x="307.4" y="350.92" width="4.67" height="4.67"/>
      <rect class="fil1" x="307.4" y="358.75" width="4.67" height="4.67"/>
      <rect class="fil1" x="307.4" y="366.58" width="4.67" height="4.67"/>
      <rect class="fil1" x="307.4" y="374.41" width="4.67" height="4.67"/>
      <rect class="fil1" x="307.4" y="382.24" width="4.67" height="4.67"/>
      <rect class="fil1" x="307.4" y="390.07" width="4.67" height="4.67"/>
      <rect class="fil1" x="307.4" y="397.89" width="4.67" height="4.67"/>
      <rect class="fil1" x="307.4" y="405.73" width="4.67" height="4.67"/>
      <rect class="fil1" x="307.4" y="413.55" width="4.67" height="4.67"/>
      <rect class="fil1" x="307.4" y="429.21" width="4.67" height="4.67"/>
      <rect class="fil1" x="307.4" y="444.87" width="4.67" height="4.67"/>
      <rect class="fil1" x="307.4" y="452.7" width="4.67" height="4.67"/>
      <rect class="fil1" x="307.4" y="460.53" width="4.67" height="4.67"/>
      <rect class="fil1" x="307.4" y="468.36" width="4.67" height="4.67"/>
      <rect class="fil1" x="307.4" y="476.19" width="4.67" height="4.67"/>
      <rect class="fil1" x="352.46" y="356.41" width="4.67" height="4.67"/>
      <rect class="fil1" x="352.46" y="364.24" width="4.67" height="4.67"/>
      <rect class="fil1" x="352.46" y="372.07" width="4.67" height="4.67"/>
      <rect class="fil1" x="352.46" y="379.9" width="4.67" height="4.67"/>
      <rect class="fil1" x="352.46" y="387.73" width="4.67" height="4.67"/>
      <rect class="fil1" x="352.46" y="395.56" width="4.67" height="4.67"/>
      <rect class="fil1" x="352.46" y="419.05" width="4.67" height="4.67"/>
      <rect class="fil1" x="352.46" y="426.88" width="4.67" height="4.67"/>
      <rect class="fil1" x="352.46" y="434.71" width="4.67" height="4.67"/>
      <rect class="fil1" x="352.46" y="442.54" width="4.67" height="4.67"/>
      <rect class="fil1" x="352.46" y="450.37" width="4.67" height="4.67"/>
      <rect class="fil1" x="352.46" y="458.2" width="4.67" height="4.67"/>
      <rect class="fil1" x="352.46" y="466.03" width="4.67" height="4.67"/>
      <rect class="fil1" x="345.04" y="356.41" width="4.67" height="4.67"/>
      <rect class="fil1" x="345.04" y="364.24" width="4.67" height="4.67"/>
      <rect class="fil1" x="345.04" y="372.07" width="4.67" height="4.67"/>
      <rect class="fil1" x="345.04" y="379.9" width="4.67" height="4.67"/>
      <rect class="fil1" x="345.04" y="387.73" width="4.67" height="4.67"/>
      <rect class="fil1" x="345.04" y="395.56" width="4.67" height="4.67"/>
      <rect class="fil1" x="345.04" y="419.05" width="4.67" height="4.67"/>
      <rect class="fil1" x="345.04" y="426.88" width="4.67" height="4.67"/>
      <rect class="fil1" x="345.04" y="434.71" width="4.67" height="4.67"/>
      <rect class="fil1" x="345.04" y="442.54" width="4.67" height="4.67"/>
      <rect class="fil1" x="345.04" y="450.37" width="4.67" height="4.67"/>
      <rect class="fil1" x="345.04" y="458.2" width="4.67" height="4.67"/>
      <rect class="fil1" x="345.04" y="473.86" width="4.67" height="4.67"/>
      <rect class="fil1" x="98.61" y="321.94" width="4.67" height="4.67"/>
      <rect class="fil1" x="98.61" y="329.76" width="4.67" height="4.67"/>
      <rect class="fil1" x="98.61" y="337.59" width="4.67" height="4.67"/>
      <rect class="fil1" x="98.61" y="345.42" width="4.67" height="4.67"/>
      <rect class="fil1" x="98.61" y="353.25" width="4.67" height="4.67"/>
      <rect class="fil1" x="98.61" y="361.08" width="4.67" height="4.67"/>
      <rect class="fil1" x="98.61" y="368.91" width="4.67" height="4.67"/>
      <rect class="fil1" x="98.61" y="376.74" width="4.67" height="4.67"/>
      <rect class="fil1" x="98.61" y="384.57" width="4.67" height="4.67"/>
      <rect class="fil1" x="98.61" y="392.4" width="4.67" height="4.67"/>
      <rect class="fil1" x="98.61" y="400.23" width="4.67" height="4.67"/>
      <rect class="fil1" x="98.61" y="415.89" width="4.67" height="4.67"/>
      <rect class="fil1" x="98.61" y="423.72" width="4.67" height="4.67"/>
      <rect class="fil1" x="98.61" y="431.55" width="4.67" height="4.67"/>
      <rect class="fil1" x="98.61" y="439.38" width="4.67" height="4.67"/>
      <rect class="fil1" x="98.61" y="447.21" width="4.67" height="4.67"/>
      <rect class="fil1" x="98.61" y="455.04" width="4.67" height="4.67"/>
      <rect class="fil1" x="98.61" y="462.87" width="4.67" height="4.67"/>
      <rect class="fil1" x="98.61" y="470.7" width="4.67" height="4.67"/>
      <rect class="fil1" x="91.19" y="321.94" width="4.67" height="4.67"/>
      <rect class="fil1" x="91.19" y="329.76" width="4.67" height="4.67"/>
      <rect class="fil1" x="91.19" y="337.59" width="4.67" height="4.67"/>
      <rect class="fil1" x="91.19" y="345.42" width="4.67" height="4.67"/>
      <rect class="fil1" x="91.19" y="353.25" width="4.67" height="4.67"/>
      <rect class="fil1" x="91.19" y="361.08" width="4.67" height="4.67"/>
      <rect class="fil1" x="91.19" y="368.91" width="4.67" height="4.67"/>
      <rect class="fil1" x="91.19" y="376.74" width="4.67" height="4.67"/>
      <rect class="fil1" x="91.19" y="384.57" width="4.67" height="4.67"/>
      <rect class="fil1" x="91.19" y="392.4" width="4.67" height="4.67"/>
      <rect class="fil1" x="91.19" y="400.23" width="4.67" height="4.67"/>
      <rect class="fil1" x="91.19" y="408.06" width="4.67" height="4.67"/>
      <rect class="fil1" x="91.19" y="415.89" width="4.67" height="4.67"/>
      <rect class="fil1" x="91.19" y="423.72" width="4.67" height="4.67"/>
      <rect class="fil1" x="91.19" y="431.55" width="4.67" height="4.67"/>
      <rect class="fil1" x="91.19" y="439.38" width="4.67" height="4.67"/>
      <rect class="fil1" x="91.19" y="447.21" width="4.67" height="4.67"/>
      <rect class="fil1" x="91.19" y="455.04" width="4.67" height="4.67"/>
      <rect class="fil1" x="91.19" y="462.87" width="4.67" height="4.67"/>
      <rect class="fil1" x="91.19" y="470.7" width="4.67" height="4.67"/>
      <rect class="fil1" x="135.15" y="352.43" width="4.67" height="4.67"/>
      <rect class="fil1" x="135.15" y="360.26" width="4.67" height="4.67"/>
      <rect class="fil1" x="135.15" y="368.09" width="4.67" height="4.67"/>
      <rect class="fil1" x="135.15" y="375.92" width="4.67" height="4.67"/>
      <rect class="fil1" x="135.15" y="383.75" width="4.67" height="4.67"/>
      <rect class="fil1" x="135.15" y="391.58" width="4.67" height="4.67"/>
      <rect class="fil1" x="135.15" y="399.41" width="4.67" height="4.67"/>
      <rect class="fil1" x="135.15" y="407.24" width="4.67" height="4.67"/>
      <rect class="fil1" x="135.15" y="415.07" width="4.67" height="4.67"/>
      <rect class="fil1" x="135.15" y="422.9" width="4.67" height="4.67"/>
      <rect class="fil1" x="127.73" y="352.43" width="4.67" height="4.67"/>
      <rect class="fil1" x="127.73" y="360.26" width="4.67" height="4.67"/>
      <rect class="fil1" x="127.73" y="368.09" width="4.67" height="4.67"/>
      <rect class="fil1" x="127.73" y="375.92" width="4.67" height="4.67"/>
      <rect class="fil1" x="127.73" y="383.75" width="4.67" height="4.67"/>
      <rect class="fil1" x="127.73" y="391.58" width="4.67" height="4.67"/>
      <rect class="fil1" x="127.73" y="399.41" width="4.67" height="4.67"/>
      <rect class="fil1" x="127.73" y="407.24" width="4.67" height="4.67"/>
      <rect class="fil1" x="127.73" y="415.07" width="4.67" height="4.67"/>
     </g>
    </g>
    <path class="fil1" d="M110.78 35.03c0,-3.49 -2.83,-6.31 -6.31,-6.31 -0.63,0 -1.24,0.09 -1.81,0.27 0.09,-0.63 0.14,-1.28 0.14,-1.94 0,-7.38 -5.98,-13.36 -13.36,-13.36 -0.84,0 -1.66,0.08 -2.46,0.23 -2.05,-3.36 -5.75,-5.61 -9.97,-5.61 -6.4,0 -11.59,5.14 -11.69,11.52 -0.06,-0 -0.13,-0.01 -0.19,-0.01 -5.95,0 -10.77,4.82 -10.77,10.77 0,5.95 4.82,10.77 10.77,10.77l39.54 0 -0.01 -0.01c3.4,-0.09 6.13,-2.88 6.13,-6.3z"/>
    <path class="fil1" d="M491.48 38.36l31.89 0c-0.08,-0.76 -0.14,-1.54 -0.14,-2.33 0,-11.59 9.4,-20.99 20.99,-20.99 0.26,0 0.51,0.03 0.76,0.04 2.63,-7.06 9.41,-12.09 17.39,-12.09 10.26,0 18.57,8.31 18.57,18.57 0,0.02 -0,0.03 -0,0.04 9.09,0.42 16.38,7.68 16.85,16.76l0.84 0c5.13,0 9.33,4.2 9.33,9.33 0,5.13 -4.2,9.33 -9.33,9.33l-107.15 0c-5.13,0 -9.33,-4.2 -9.33,-9.33 -0,-5.13 4.2,-9.33 9.33,-9.33z"/>
    <path class="fil1" d="M285.31 79.97c6.87,-10.97 19.03,-18.28 32.92,-18.28 14.12,0 26.45,7.56 33.26,18.83 1.79,-0.5 3.66,-0.79 5.61,-0.79 11.5,0 20.82,9.32 20.82,20.82 0,0.01 -0,0.02 -0,0.03l10.98 -0c5.72,0 10.4,4.68 10.4,10.4 0,5.72 -4.68,10.4 -10.4,10.4l-37.88 0c-6.9,10.84 -18.98,18.04 -32.78,18.04 -10.88,0 -20.7,-4.48 -27.75,-11.68 -0.66,0.05 -1.31,0.1 -1.98,0.1 -13.28,0 -24.05,-10.77 -24.05,-24.05 -0,-12.2 9.09,-22.26 20.87,-23.82z"/>
   </g>
  </g>
  <g id="Background_Simple">
   <g>
    <path class="fil2" d="M320.43 13.55c-132.35,59.55 -12.2,165.68 -88.62,223.47 -76.42,57.8 -284.19,-9.02 -204.99,141.07 93.04,176.3 500.46,151.82 588.3,-64.43 87.85,-216.25 -162.34,-359.67 -294.69,-300.12z"/>
    <path class="fil3" d="M320.43 13.55c-132.35,59.55 -12.2,165.68 -88.62,223.47 -76.42,57.8 -284.19,-9.02 -204.99,141.07 93.04,176.3 500.46,151.82 588.3,-64.43 87.85,-216.25 -162.34,-359.67 -294.69,-300.12z"/>
   </g>
  </g>
  <g id="Shadow_1_">
   <ellipse id="_3CPath3E_359_" class="fil1" cx="322.42" cy="553.97" rx="322.42" ry="18.83"/>
  </g>
  <g id="Plant">
   <g>
    <path class="fil4" d="M50.9 513.73c0,0 7.9,-17.23 -1.13,-34.22 -9.02,-16.99 -11.64,-20.99 -5.89,-24.47 5.75,-3.48 8.39,13.59 8.39,13.59 0,0 4.85,-11.75 0.84,-24.04 -4,-12.29 -6.52,-32.31 -1.05,-34.46 5.47,-2.15 1.04,24.98 5.79,34.22 0,0 3.99,-10.29 4.64,-20.16 0.66,-9.87 -0.37,-25.64 3.95,-29.68 4.32,-4.04 7.09,-1.25 2.84,20.54 -4.24,21.79 -4.21,39.5 -4.21,39.5 0,0 9.37,-28.58 15.66,-29.41 6.29,-0.83 6.28,8.42 0.9,16.45 -5.38,8.03 -15.77,22.41 -17.47,29.81 0,0 10.29,-21.51 19.54,-14.92 9.26,6.59 -8.05,19.58 -15.77,24.28 -7.72,4.69 -13.07,34.12 -13.07,34.12l-3.97 -1.14z"/>
    <path class="fil5" d="M57.13 520.8c0,0 -7.69,-17.35 1.54,-34.2 9.23,-16.85 11.89,-20.82 6.18,-24.38 -5.71,-3.57 -8.56,13.46 -8.56,13.46 0,0 -4.71,-11.82 -0.56,-24.05 4.15,-12.23 6.9,-32.21 1.46,-34.44 -5.44,-2.23 -1.34,24.96 -6.2,34.13 0,0 -3.86,-10.35 -4.4,-20.23 -0.54,-9.88 0.68,-25.63 -3.59,-29.74 -4.27,-4.11 -7.07,-1.35 -3.09,20.5 3.98,21.85 3.74,39.56 3.74,39.56 0,0 -9.03,-28.72 -15.31,-29.64 -6.28,-0.93 -6.38,8.33 -1.1,16.43 5.29,8.11 15.5,22.64 17.11,30.07 0,0 -10.03,-21.66 -19.36,-15.21 -9.33,6.45 7.82,19.7 15.48,24.51 7.66,4.81 12.66,34.31 12.66,34.31l3.99 -1.08z"/>
    <g>
     <polygon class="fil6" points="21.66,508.43 85.2,508.43 80.05,553.9 26.8,553.9 "/>
    </g>
   </g>
  </g>
  <g id="Speech_bubble_1">
   <g>
    <path class="fil7" d="M185.95 61.2l-47.77 0c-8.12,0 -14.71,6.59 -14.71,14.71l0 41.58c0,8.12 6.59,14.71 14.71,14.71l13.95 -0 -0.05 14.79 9.94 -14.79 23.93 0c8.12,0 14.71,-6.59 14.71,-14.71l0 -41.58c-0,-8.12 -6.59,-14.71 -14.71,-14.71z"/>
   </g>
   <g>
    <path class="fil4" d="M152.58 117.88l1.64 1.36 2.91 -2.91 -1.36 -1.64c0.75,-1.14 1.29,-2.42 1.58,-3.8l2.12 -0.2 0 -4.11 -2.12 -0.2c-0.29,-1.38 -0.83,-2.66 -1.58,-3.8l1.36 -1.64 -2.91 -2.91 -1.64 1.36c-1.14,-0.75 -2.42,-1.29 -3.8,-1.58l-0.2 -2.12 -4.11 0 -0.2 2.12c-1.38,0.29 -2.66,0.83 -3.8,1.58l-1.64 -1.36 -2.91 2.91 1.36 1.64c-0.75,1.14 -1.29,2.42 -1.58,3.8l-2.12 0.2 0 4.11 2.12 0.2c0.29,1.38 0.83,2.66 1.58,3.8l-1.36 1.64 2.91 2.91 1.64 -1.36c1.14,0.75 2.42,1.29 3.8,1.58l0.2 2.12 4.11 0 0.2 -2.12c1.38,-0.29 2.66,-0.83 3.8,-1.58zm-11.62 -9.25c0,-3.07 2.49,-5.57 5.57,-5.57 3.07,0 5.57,2.49 5.57,5.57 0,3.07 -2.49,5.57 -5.57,5.57 -3.07,0 -5.57,-2.49 -5.57,-5.57z"/>
    <path class="fil4" d="M180.84 104.81l2.37 1.97 4.2 -4.2 -1.97 -2.37c1.08,-1.64 1.87,-3.5 2.28,-5.49l3.06 -0.29 0 -5.94 -3.06 -0.29c-0.41,-1.99 -1.2,-3.84 -2.28,-5.49l1.97 -2.37 -4.2 -4.2 -2.37 1.97c-1.64,-1.08 -3.5,-1.87 -5.49,-2.28l-0.29 -3.06 -5.94 0 -0.29 3.06c-1.99,0.41 -3.84,1.2 -5.49,2.28l-2.37 -1.97 -4.2 4.2 1.97 2.37c-1.08,1.64 -1.87,3.5 -2.28,5.49l-3.06 0.29 0 5.94 3.06 0.29c0.41,1.99 1.2,3.84 2.28,5.49l-1.97 2.37 4.2 4.2 2.37 -1.97c1.64,1.08 3.5,1.87 5.49,2.28l0.29 3.06 5.94 0 0.29 -3.06c1.99,-0.41 3.84,-1.2 5.49,-2.28zm-16.79 -13.36c0,-4.44 3.6,-8.04 8.04,-8.04 4.44,0 8.04,3.6 8.04,8.04 0,4.44 -3.6,8.04 -8.04,8.04 -4.44,0 -8.04,-3.6 -8.04,-8.04z"/>
   </g>
  </g>
  <g id="Character_1">
   <g>
    <g>
     <path class="fil8" d="M151.34 220.17c13.98,3.14 42.49,35.12 42.49,35.12l51.5 5.17 0.55 12.17c0,0 -50.42,1.01 -56.93,0.4 -6.52,-0.6 -37.61,-24.79 -37.61,-24.79l0 -28.06z"/>
     <path class="fil9" d="M245.88 272.63c0,0 -50.4,1 -56.92,0.4 -3.28,-0.3 -12.72,-6.54 -21.34,-12.69 -4.37,-3.11 -8.53,-6.22 -11.56,-8.5 -2.88,-2.18 -4.72,-3.61 -4.72,-3.61l0 -28.07c13.98,3.14 42.49,35.12 42.49,35.12l51.5 5.17 0.55 12.17z"/>
     <g>
      <path class="fil10" d="M244.26 272.13l15.32 -1.16 -3.14 -13.06c0,0 -10.82,-0.69 -14.59,7.42l2.42 6.8z"/>
      <polygon class="fil10" points="268.82,265.11 264.14,255.94 256.44,257.9 259.58,270.96 "/>
     </g>
     <path class="fil11" d="M167.63 260.34c-4.37,-3.11 -8.53,-6.22 -11.56,-8.5 -1.13,-3.68 -1.66,-7.52 -1.16,-10.99 0,0 10.64,8.3 12.72,19.49z"/>
     <path class="fil6" d="M121.55 540.57l-13.98 0.22c-0.47,0.01 -0.87,0.34 -0.97,0.81l-2.11 10.28c-0.18,0.92 0.42,1.81 1.34,1.99 0.12,0.02 0.25,0.04 0.37,0.03 4.52,-0.14 7.81,-0.47 13.49,-0.57 3.5,-0.05 14.06,0.14 18.89,0.07 4.83,-0.08 5.38,-4.86 3.4,-5.27 -8.9,-1.79 -15.62,-4.37 -18.5,-6.87 -0.53,-0.47 -1.23,-0.73 -1.94,-0.7z"/>
     <path class="fil6" d="M239.4 540.57l-13.98 0.22c-0.47,0.01 -0.87,0.34 -0.97,0.81l-2.11 10.28c-0.18,0.92 0.42,1.81 1.34,1.99 0.12,0.02 0.25,0.04 0.37,0.03 4.52,-0.14 7.81,-0.47 13.49,-0.57 3.5,-0.05 14.06,0.14 18.89,0.07 4.83,-0.08 5.38,-4.86 3.4,-5.27 -8.9,-1.79 -15.62,-4.37 -18.5,-6.87 -0.53,-0.47 -1.23,-0.73 -1.94,-0.7z"/>
     <path class="fil6" d="M104.45 541.27l19.04 0c0,0 24.25,-79.92 26.33,-100.3 2.09,-20.39 2.85,-71.47 2.85,-71.47 0,0 0,0.02 0.02,0.03 0.02,0.02 0.03,0.05 0.06,0.09 0.82,1.09 8.02,11.21 16.29,22.96 10.83,15.39 23.53,33.58 26.21,38.04 7.86,13.13 27.08,110.65 27.08,110.65l19.03 -0c0,0 -4.79,-87.29 -14.56,-116.05 -9.76,-28.77 -52.05,-91.59 -53.88,-94.97 -2.34,-4.3 -8.1,-17.97 -8.1,-17.97l-57.05 7.92c0,0 0.73,9.66 0.79,18.11 0.27,31.7 11.24,74.54 12.2,86.05 1.8,21.9 -16.31,116.91 -16.31,116.91z"/>
     <path class="fil8" d="M151.34 220.18c0,0 17.07,30.46 13.45,92.1 -17.19,2.39 -48.68,6.77 -57.05,7.94 -1.61,-8.7 -2.05,-52.18 -16.24,-92.27 0,0 9.51,-3.32 18.76,-5.07 7.24,-1.37 17.76,-3.07 24.25,-3.37 8.56,-0.4 16.82,0.68 16.82,0.68z"/>
     <path class="fil12" d="M164.8 312.27c-12.57,1.75 -32.78,4.56 -46.01,6.4 -4.86,0.67 -8.78,1.21 -11.02,1.53 -1,-5.32 -1.55,-23.73 -5.09,-46.41 -0.07,-0.48 -0.15,-0.98 -0.23,-1.48 -1,-6.24 -2.23,-12.77 -3.76,-19.44 -1.9,-8.21 -4.24,-16.65 -7.17,-24.94 0,0 9.51,-3.31 18.76,-5.06 7.25,-1.38 17.76,-3.08 24.26,-3.39 8.55,-0.38 16.81,0.68 16.81,0.68 0,0 17.06,30.46 13.45,92.11z"/>
     <path class="fil5" d="M115.86 227.94l13.69 6.51 3.08 3.73c0,0 4.9,25.48 4.38,45.43l5.18 4.6 3.95 -7.67c0,0 -8.15,-35.9 -10.78,-43.31l0.69 -4.71 2.41 -9.89 -21.74 1.34 -0.87 3.97z"/>
     <g>
      <path class="fil10" d="M108.98 196.77c2.85,7.51 6.79,21.47 2.24,27.58 7.98,1.89 13.71,3.11 20.99,7.71 1.43,-5.15 3.14,-11.82 3.14,-11.82 -9.01,-0.59 -9.88,-7.05 -9.4,-13.34l-16.97 -10.13z"/>
      <path class="fil13" d="M115.9 200.91l10.04 5.99c-0.12,1.49 -0.15,2.98 -0.01,4.41 -3.39,0.09 -8.55,-2.77 -9.5,-6.17 -0.47,-1.7 -0.68,-3.37 -0.54,-4.22z"/>
     </g>
     <path class="fil14" d="M104.45 541.27l19.04 0c0,0 24.25,-79.92 26.33,-100.3 2.09,-20.39 2.85,-71.47 2.85,-71.47 0,0 0,0.02 0.02,0.03 0.02,0.02 0.03,0.05 0.06,0.09 0.82,1.09 8.02,11.21 16.29,22.96 10.83,15.39 23.53,33.58 26.21,38.04 7.86,13.13 27.08,110.65 27.08,110.65l19.03 -0c0,0 -4.79,-87.29 -14.56,-116.05 -9.76,-28.77 -52.05,-91.59 -53.88,-94.97 -2.34,-4.3 -8.1,-17.97 -8.1,-17.97l-57.05 7.92c0,0 0.73,9.66 0.79,18.11 0.27,31.7 11.24,74.54 12.2,86.05 1.8,21.9 -16.31,116.91 -16.31,116.91z"/>
     <polygon class="fil8" points="103.15,224.47 107.88,218.56 123.24,221.52 131.03,230.45 132.01,220.14 134.89,216.68 141.19,219.41 141.19,225.86 136.71,224.4 132.82,233.4 120.56,228.36 117.84,231.83 "/>
     <polygon class="fil15" points="103.15,224.47 107.88,218.56 123.24,221.52 131.03,230.45 132.01,220.14 134.89,216.68 141.19,219.41 141.19,225.86 136.71,224.4 132.82,233.4 120.56,228.36 117.84,231.83 "/>
     <polygon class="fil11" points="132.82,233.4 134.31,222.63 141.19,225.86 136.71,224.4 "/>
     <polygon class="fil11" points="132.82,233.4 121.46,225.04 117.84,231.83 120.56,228.36 "/>
     <path class="fil13" d="M152.67 369.5c0,0 0,0.02 0.02,0.03 0.02,0.02 0.03,0.05 0.06,0.09 0.82,1.09 8.02,11.21 16.29,22.96 2.67,-22.65 -16.04,-32.34 -16.04,-32.34l-0.33 9.25z"/>
     <g>
      <path class="fil6" d="M128.99 170.24c3.26,2.85 3.82,7.88 4.43,11.05 0.61,3.18 1.8,7.26 -2.97,3.48 -4.77,-3.78 -11.73,-21.24 -1.46,-14.53z"/>
      <path class="fil10" d="M105.63 188.91c3,10.46 1.85,12.49 8.41,16.7 9.87,6.34 23.41,5.03 22.95,-6.14 -0.41,-10.05 -3.27,-27.8 -14.59,-29.63 -11.14,-1.81 -19.77,8.61 -16.78,19.07z"/>
      <path class="fil6" d="M108.3 195.85c5.6,-1.04 4.47,-3.17 4.06,-3.65 -1.8,-2.08 -0.7,-5.71 0.37,-10.36 1.08,-4.65 -8.49,-8.39 -14.6,-5.52 -5.62,2.64 0.81,21.26 10.16,19.53z"/>
      <path class="fil10" d="M102.35 197.06c1.6,2.32 3.96,3.7 6.02,4.1 3.11,0.61 4.07,-2.51 2.71,-5.55 -1.22,-2.73 -4.32,-6.34 -7.2,-5.57 -2.84,0.76 -3.37,4.37 -1.53,7.02z"/>
      <path class="fil16" d="M128.12 185.38c0,0 2.38,3.71 4.51,5.29 -1.01,1.41 -3.21,1.31 -3.21,1.31l-1.3 -6.6z"/>
      <path class="fil6" d="M97.27 171.73c1.68,-3.94 20.17,-9.81 28.08,-8.37 4.08,0.74 5.07,4.1 4.36,6.24 -2.51,7.6 -9.05,4.65 -9.05,4.65 -8.32,-3.13 -11.58,4.37 -11.58,4.37l-11.44 -0.99c0,0 -1.84,-2.46 -0.37,-5.9z"/>
      <path class="fil6" d="M120.54 186.09c0.18,0.89 0.81,1.51 1.39,1.39 0.58,-0.13 0.91,-0.95 0.72,-1.84 -0.18,-0.89 -0.81,-1.51 -1.39,-1.39 -0.58,0.12 -0.9,0.95 -0.72,1.84z"/>
      <path class="fil6" d="M130.62 183.91c0.18,0.89 0.81,1.51 1.39,1.39 0.58,-0.13 0.91,-0.95 0.72,-1.84 -0.18,-0.89 -0.81,-1.51 -1.39,-1.39 -0.58,0.12 -0.9,0.95 -0.72,1.84z"/>
      <path class="fil6" d="M115.06 183.77c0.19,-0.02 0.36,-0.13 0.45,-0.31 1.03,-2.17 2.97,-2.47 3,-2.48 0.29,-0.04 0.5,-0.31 0.46,-0.61 -0.04,-0.29 -0.31,-0.5 -0.6,-0.45 -0.1,0.02 -2.55,0.4 -3.82,3.09 -0.13,0.27 -0.01,0.59 0.25,0.71 0.09,0.04 0.18,0.06 0.27,0.05z"/>
      <path class="fil6" d="M132.55 179.76c0.1,-0.01 0.2,-0.05 0.29,-0.11 0.23,-0.18 0.28,-0.52 0.1,-0.75 -1.81,-2.34 -4.26,-2.13 -4.37,-2.14 -0.29,0.03 -0.51,0.29 -0.49,0.58 0.02,0.29 0.28,0.51 0.57,0.49 0.1,-0.01 2,-0.15 3.45,1.73 0.11,0.15 0.29,0.22 0.46,0.2z"/>
      <path class="fil17 str0" d="M131.03 196.89c0,0 -4.03,0.74 -7.35,-1.12"/>
     </g>
     <path class="fil11" d="M118.79 318.68c-4.86,0.67 -8.78,1.21 -11.02,1.53 -1,-5.32 -1.55,-23.73 -5.09,-46.41 3.92,-10.44 7.72,-18.38 7.72,-18.38 0,0 10.63,10.65 19.99,26.44 6.76,11.41 0.05,28.65 -11.59,36.82z"/>
    </g>
    <g>
     <polygon class="fil4" points="566.26,45.4 475.72,48.94 484.15,61.21 491.15,70.55 345.53,179.74 275.23,169.69 70.47,323.22 78.89,335.49 108.82,375.4 297.05,234.26 367.35,244.31 530,122.36 545.92,143.59 574.69,57.67 "/>
     <polygon class="fil8" points="566.26,45.4 475.72,48.94 491.64,70.18 345.53,179.74 275.23,169.69 70.47,323.22 100.39,363.13 288.62,222 358.92,232.05 521.57,110.09 537.49,131.32 "/>
     <polygon class="fil5" points="566.26,45.4 475.72,48.94 491.64,70.18 345.53,179.74 275.23,169.69 70.47,323.22 100.39,363.13 288.62,222 358.92,232.05 521.57,110.09 537.49,131.32 "/>
    </g>
    <g>
     <g>
      <path class="fil10" d="M168.97 300.99l13.7 6.95 -7.91 10.85c0,0 -10.26,-3.52 -10.63,-12.45l4.84 -5.35z"/>
      <polygon class="fil10" points="188.95,316.89 181.12,323.57 174.75,318.8 182.67,307.95 "/>
     </g>
     <path class="fil8" d="M91.51 227.94c-14.99,9.31 10.02,57.93 14.73,65.2 4.71,7.27 57.89,19.15 57.89,19.15l6.57 -11.29 -49.4 -21.94 -15.06 -37.76c-5.85,-12.07 -14.73,-13.35 -14.73,-13.35z"/>
     <path class="fil9" d="M91.51 227.94c-14.99,9.31 10.02,57.93 14.73,65.2 4.71,7.27 57.89,19.15 57.89,19.15l6.57 -11.29 -49.4 -21.94 -15.06 -37.76c-5.85,-12.07 -14.73,-13.35 -14.73,-13.35z"/>
    </g>
   </g>
  </g>
  <g id="Speech_bubble_2">
   <g>
    <polygon class="fil8" points="558.37,197.73 541.54,202.95 558.37,208.17 "/>
    <polygon class="fil18" points="558.37,197.73 541.54,202.95 558.37,208.17 "/>
    <g>
     <path class="fil8" d="M618.8 167.45l-47.77 0c-8.13,0 -14.71,6.59 -14.71,14.71l0 41.58c0,8.12 6.59,14.71 14.71,14.71l18.89 0 9.98 0 18.9 0c8.12,0 14.71,-6.59 14.71,-14.71l0 -41.57c-0,-8.13 -6.59,-14.71 -14.71,-14.71z"/>
     <path class="fil18" d="M618.8 167.45l-47.77 0c-8.13,0 -14.71,6.59 -14.71,14.71l0 41.58c0,8.12 6.59,14.71 14.71,14.71l47.77 0c8.12,0 14.71,-6.59 14.71,-14.71l0 -41.57c-0,-8.13 -6.59,-14.71 -14.71,-14.71z"/>
    </g>
    <g>
     <g>
      <circle class="fil4" transform="matrix(0.7071 -0.7071 0.7071 0.7071 595.086 202.951)" r="23.71"/>
     </g>
     <g>
      <path class="fil19" d="M592.6 213.54c-0.64,0 -1.25,-0.28 -1.66,-0.77l-9.3 -10.96c-0.78,-0.92 -0.67,-2.29 0.25,-3.07 0.92,-0.78 2.29,-0.67 3.07,0.25l7.64 9 12.62 -14.87c0.78,-0.92 2.16,-1.03 3.07,-0.25 0.92,0.78 1.03,2.15 0.25,3.07l-14.28 16.83c-0.41,0.49 -1.02,0.77 -1.66,0.77z"/>
     </g>
    </g>
   </g>
  </g>
  <g id="Character_2">
   <g>
    <polygon class="fil20" points="539.08,551.3 549.35,547.04 542.42,522.06 532.15,526.31 "/>
    <g>
     <path class="fil6" d="M549.44 530.29l-19.51 8.08c0,0 -17.26,-63.71 -33.89,-96.53 -9.13,-17.99 -24.68,-46.54 -38.18,-70.97 -6.67,-12.11 -12.84,-23.18 -17.48,-31.48 -5.09,-9.13 -8.33,-14.88 -8.33,-14.88l33.03 -22.23c0,0 44.65,89.25 58,120.33 14.6,34.04 26.36,107.69 26.36,107.69z"/>
    </g>
    <path class="fil6" d="M548.63 541.26l-13.55 0c-0.45,0 -0.85,0.32 -0.95,0.76l-2.29 9.88c-0.24,1.02 0.56,1.99 1.61,1.98 4.36,-0.07 7.54,-0.33 13.03,-0.33 3.38,0 13.56,0.35 18.22,0.35 4.56,0 5.32,-4.61 3.41,-5.03 -8.54,-1.87 -14.97,-4.46 -17.69,-6.92 -0.49,-0.44 -1.13,-0.68 -1.8,-0.68z"/>
    <path class="fil21" d="M457.86 370.86c-6.67,-12.11 -12.84,-23.18 -17.48,-31.48 1.73,-0.42 4.06,-0.03 7.13,1.4 0,0 9.43,12.77 10.34,30.08z"/>
    <g>
     <g>
      <path class="fil10" d="M509.54 155.26l8.31 -12.92 -12.31 -5.37c0,0 -7.08,8.21 -2.88,16.11l6.88 2.18z"/>
      <polygon class="fil10" points="518.76,131.44 508.62,129.64 505.54,136.97 517.85,142.34 "/>
     </g>
     <path class="fil6" d="M485.24 250.44c22.59,-18.57 34.39,-30.86 38.91,-38.24 4.53,-7.38 -12.1,-60.25 -12.1,-60.25l-13.02 0.6 5.92 52.13 -20.01 16.41 0.3 29.35z"/>
     <path class="fil22" d="M524.16 212.21c-4.09,6.64 -14.05,17.26 -32.48,32.86 -2.05,1.73 -4.19,3.53 -6.45,5.37l-0.1 -9.68 -0.2 -19.67 20.02 -16.41 -5.92 -52.13 13.02 -0.6c0,0 16.63,52.88 12.11,60.26z"/>
     <path class="fil13" d="M491.68 245.07c-2.05,1.73 -4.19,3.53 -6.45,5.37l-0.1 -9.68c1.56,0.73 3.82,2.05 6.55,4.31z"/>
    </g>
    <polygon class="fil20" points="373.6,550.06 384.48,552.34 392.86,527.81 381.98,525.52 "/>
    <g>
     <path class="fil6" d="M453.98 303.18c0,0 -13.54,98.87 -20.08,132.06 -7.16,36.34 -39.04,103.77 -39.04,103.77l-20.66 -4.35c0,0 21.73,-62.32 26.53,-98.81 5.37,-40.8 13.44,-132.97 13.44,-132.97l39.82 0.29z"/>
    </g>
    <path class="fil6" d="M388.43 541.26l-13.55 0c-0.45,0 -0.85,0.32 -0.95,0.76l-2.29 9.88c-0.24,1.02 0.56,1.99 1.61,1.98 4.36,-0.07 7.54,-0.33 13.03,-0.33 3.38,0 13.56,0.35 18.22,0.35 4.56,0 5.32,-4.61 3.41,-5.03 -8.54,-1.87 -14.97,-4.46 -17.69,-6.92 -0.49,-0.44 -1.13,-0.68 -1.79,-0.68z"/>
    <g>
     <path class="fil5" d="M476.78 301.1c12.96,-46.41 7.03,-72.16 7.03,-72.16 0,0 -6.27,-2.24 -13.74,-3.76 -0.98,-0.2 -1.97,-0.38 -2.99,-0.55 -6.53,-1.08 -17.32,-1.62 -24.7,-1.8 -1.54,-0.04 -3.11,-0.03 -4.63,-0.01 -7.71,0.15 -14.6,2.82 -14.6,2.82 0.39,12.09 -0.42,22.51 -1.75,33.93 -0.98,8.38 -0.6,16.33 -1.93,23.52 -1.25,6.77 -0.88,12.85 -2.02,18.01l59.33 0 0 -0z"/>
    </g>
    <path class="fil4" d="M461.96 238.65c0.72,4.5 3.02,16.07 2.92,27.47 -1.07,2.21 -2.51,7.6 -3.82,9.79 -0.95,-2.5 -2.61,-7.63 -3.74,-10.15 1.01,-10.83 2.93,-21.7 2.34,-27.38l2.3 0.27z"/>
    <path class="fil10" d="M459.47 236.72c-8.58,-2.43 -13.27,-7.57 -15.9,-12.75 1.71,-0.85 3.16,-2.36 4.41,-4.29 2.33,-3.58 3.91,-8.56 4.94,-13.27 0.65,-2.96 1.06,-5.82 1.33,-8.15l5.06 7.98 5.54 8.73c-0.85,1.38 -1.61,2.76 -2.18,4.12 -1.65,4.02 -1.58,7.9 3.31,10.88 0.67,2.96 0.07,8.6 -6.5,6.75z"/>
    <polygon class="fil4" points="461.27,242.07 464.11,237.01 460.51,234.72 457.32,236.05 "/>
    <g>
     <path class="fil19" d="M460.51 234.72c0,0 -3.05,2.88 -6.54,5.65 -4.09,-3 -13.57,-10.81 -12.32,-16.59 0.82,-1.62 3.23,-2.33 3.23,-2.33 0,0 5.66,7.19 15.63,13.27z"/>
    </g>
    <g>
     <path class="fil19" d="M460.51 234.72c0,0 3.07,3.34 4.84,7.27 3.52,-1.77 2.27,-13.36 1.23,-14.73 -2.89,-3.44 -4.88,-4.13 -4.88,-4.13 0,0 1.59,5.89 -1.2,11.59z"/>
    </g>
    <path class="fil6" d="M408.95 336.62l41.23 4.16 7.14 -16.85 6.77 15.29 18.55 -5.88 -9.72 -19.49c18.61,-45.22 12.02,-92.75 12.02,-92.75 -8.44,2.04 -18.58,3.41 -18.58,3.41 10.81,16.42 -5.31,51.4 -5.31,51.4 -9.69,-27.02 -21.28,-53.11 -21.28,-53.11 -11.77,0.33 -21.21,4.95 -21.21,4.95 0,0 1.97,55.25 -3.62,70.9 -5.57,15.63 -5.99,37.97 -5.99,37.97z"/>
    <path class="fil22" d="M472.93 313.84l9.71 19.49 -18.56 5.89 -6.77 -15.28 -7.13 16.85 -41.22 -4.16c0,0 0.42,-22.33 5.99,-37.98 1.78,-4.97 2.79,-13.95 3.34,-23.88 0.48,-8.33 0.62,-17.36 0.62,-25.24 0,-12.26 -0.33,-21.77 -0.33,-21.77 0,0 9.43,-4.62 21.2,-4.96 0,0 11.61,26.09 21.29,53.1 0,0 16.13,-34.97 5.3,-51.38 0,0 10.14,-1.38 18.57,-3.43 0,-0 6.6,47.53 -12.01,92.76z"/>
    <path class="fil6" d="M446.1 245.13l-9.05 11.4c0,0 21.14,15.14 27.36,40.27l-2.23 -14.68 17.38 -24.42 -8 -9.99 9.51 -7.05c0,0 -8.17,-13.77 -14.71,-16.15 10.81,16.42 -5.31,51.4 -5.31,51.4 -9.69,-27.02 -21.28,-53.11 -21.28,-53.11 0,0 -7.66,5.43 -11.77,16.81l18.09 5.52z"/>
    <path class="fil13" d="M464.84 214.97c-0.85,1.38 -1.61,2.76 -2.18,4.12 -3.69,1.8 -8.53,2.49 -14.68,0.58 2.33,-3.58 3.91,-8.56 4.94,-13.27 2.11,-0.15 4.27,-0.2 6.39,-0.17l5.54 8.73z"/>
    <g>
     <path class="fil6" d="M444.36 182.67c-2,3.93 -2.71,12.58 3.55,10.78 6.26,-1.8 -0.12,-17.53 -3.55,-10.78z"/>
     <path class="fil10" d="M473.32 193.27c-1.14,10.77 -1.27,17.14 -6.98,22.39 -8.59,7.9 -21.73,2.22 -23.83,-8.71 -1.89,-9.84 0.3,-25.81 11.08,-29.53 10.62,-3.67 20.87,5.07 19.73,15.85z"/>
     <path class="fil6" d="M481.65 183.57l-11.34 -4.09 -2.35 6.51c0.26,-0.06 0.54,-0.1 0.78,-0.16 0,0 -2.26,9.87 2.22,14.87 9.23,-3.38 14.29,-12 10.69,-17.13z"/>
     <path class="fil10" d="M477.09 202.46c-0.99,2.74 -3.15,4.76 -5.34,5.73 -3.3,1.46 -5.49,-1.38 -5.03,-4.77 0.41,-3.05 2.62,-7.49 6.15,-7.51 3.48,-0.03 5.36,3.42 4.23,6.55z"/>
     <path class="fil6" d="M456.78 195.4c-0.04,0.88 -0.54,1.57 -1.11,1.54 -0.58,-0.03 -1.01,-0.77 -0.97,-1.65 0.04,-0.88 0.54,-1.57 1.11,-1.54 0.58,0.03 1.01,0.77 0.97,1.65z"/>
     <path class="fil6" d="M446.82 194.86c-0.04,0.88 -0.54,1.57 -1.11,1.54 -0.58,-0.03 -1.01,-0.77 -0.97,-1.65 0.04,-0.88 0.54,-1.57 1.11,-1.54 0.58,0.03 1.01,0.77 0.97,1.65z"/>
     <path class="fil23" d="M449.96 195.47c0,0 -2.27,4.78 -4.6,7.03 1.48,1.46 4.16,0.94 4.16,0.94l0.45 -7.97z"/>
     <path class="fil6" d="M454.09 207.06c-0.36,0.03 -0.75,0.04 -1.15,0.01 -0.14,-0.01 -0.25,-0.13 -0.25,-0.27 0.01,-0.14 0.13,-0.25 0.27,-0.24 3.87,0.21 5.79,-2.39 5.81,-2.42 0.08,-0.11 0.25,-0.14 0.36,-0.06 0.12,0.08 0.14,0.25 0.06,0.36 -0.07,0.11 -1.73,2.35 -5.1,2.62z"/>
     <path class="fil6" d="M459.99 192.36c-0.18,0.02 -0.36,-0.07 -0.47,-0.23 -1.31,-1.91 -3.22,-1.91 -3.24,-1.91 -0.29,0.01 -0.52,-0.22 -0.53,-0.51 -0.01,-0.29 0.22,-0.52 0.5,-0.53 0.1,-0 2.49,-0.01 4.12,2.36 0.16,0.24 0.1,0.56 -0.13,0.72 -0.07,0.05 -0.16,0.08 -0.25,0.09z"/>
     <path class="fil6" d="M442.68 191.21c-0.1,0.01 -0.2,-0.01 -0.29,-0.06 -0.25,-0.14 -0.34,-0.45 -0.21,-0.7 1.37,-2.51 3.74,-2.69 3.85,-2.71 0.28,-0.02 0.54,0.19 0.56,0.48 0.02,0.28 -0.19,0.53 -0.47,0.55 -0.1,0 -1.93,0.16 -3.02,2.18 -0.09,0.16 -0.24,0.25 -0.41,0.26z"/>
     <g>
      <path class="fil6" d="M471.53 189.4c0,0 -0.32,0.15 -0.85,0.27 -1.05,0.24 -2.88,0.34 -4.5,-1.19 -2.43,-2.3 -0.81,-10.71 -10.23,-9.09 0,0 -2.53,-1.7 -5.42,0.21 -2.89,1.92 -4.35,11.74 -8.42,9.06 -4.07,-2.68 -2.87,-3.82 -2.87,-3.82 0,0 1.01,1.18 1.95,0.78 0,0 -1.74,-2.67 0.23,-5.05 0,0 0.69,1.62 1.5,1.59 0,0 0.13,-5.21 4.72,-10.87 4.59,-5.67 20.02,0.7 20.02,0.7 0,0 3.04,-2.72 9.49,1.83 6.45,4.56 7.05,14.21 4.74,17.63l-10.36 -2.05zm0 0l0 0 0 0z"/>
     </g>
    </g>
    <path class="fil13" d="M424.75 250.44c0,0 -0.35,15.38 -6.47,24.33 0.48,-8.33 0.62,-17.36 0.62,-25.24 1.93,-0.4 3.89,-0.15 5.85,0.91z"/>
    <g>
     <g>
      <path class="fil10" d="M361.28 247.31l-15.23 -2.02 3.87 -12.86c0,0 10.84,-0.08 14.15,8.23l-2.8 6.65z"/>
      <polygon class="fil10" points="337.16,238.93 342.34,230.04 349.92,232.43 346.05,245.29 "/>
     </g>
     <path class="fil6" d="M428 250.44c0,0 -22.65,32.71 -30.98,35.07 -8.33,2.36 -41.42,-37.94 -41.42,-37.94l7.43 -10.71 30.28 26.46c0,0 15.77,-28.61 25.25,-35.58l9.44 22.7z"/>
     <path class="fil22" d="M428 250.44c0,0 -22.65,32.71 -30.98,35.07 -8.33,2.36 -41.42,-37.94 -41.42,-37.94l7.43 -10.71 30.28 26.46c0,0 15.77,-28.61 25.25,-35.58l9.44 22.7z"/>
    </g>
   </g>
  </g>
 </g>
</svg>
