<?xml version="1.0" encoding="UTF-8"?>
<!DOCTYPE svg PUBLIC "-//W3C//DTD SVG 1.1//EN" "http://www.w3.org/Graphics/SVG/1.1/DTD/svg11.dtd">
<!-- Creator: CorelDRAW 2021 (64-Bit) -->
<svg xmlns="http://www.w3.org/2000/svg" xml:space="preserve" width="1.75334in" height="2.15667in" version="1.1" style="shape-rendering:geometricPrecision; text-rendering:geometricPrecision; image-rendering:optimizeQuality; fill-rule:evenodd; clip-rule:evenodd"
viewBox="0 0 278.04 342"
 xmlns:xlink="http://www.w3.org/1999/xlink"
 xmlns:xodm="http://www.corel.com/coreldraw/odm/2003">
 <defs>
  <style type="text/css">
   <![CDATA[
    .fil13 {fill:#FEFEFE;fill-rule:nonzero}
    .fil12 {fill:#F3786E;fill-rule:nonzero}
    .fil18 {fill:#E5E6E5;fill-rule:nonzero}
    .fil8 {fill:#D9DAD9;fill-rule:nonzero}
    .fil6 {fill:#BD7768;fill-rule:nonzero}
    .fil9 {fill:#ABAEAF;fill-rule:nonzero}
    .fil15 {fill:#81574E;fill-rule:nonzero}
    .fil7 {fill:#794C44;fill-rule:nonzero}
    .fil11 {fill:#949899;fill-rule:nonzero}
    .fil5 {fill:#42616A;fill-rule:nonzero}
    .fil3 {fill:#2C3C43;fill-rule:nonzero}
    .fil10 {fill:#273035;fill-rule:nonzero}
    .fil16 {fill:#00544D;fill-rule:nonzero}
    .fil1 {fill:#1A736C;fill-rule:nonzero}
    .fil17 {fill:#263238;fill-rule:nonzero}
    .fil14 {fill:#37474F;fill-rule:nonzero}
    .fil4 {fill:#4D928D;fill-rule:nonzero}
    .fil2 {fill:#A2E8E3;fill-rule:nonzero}
    .fil0 {fill:url(#id0)}
   ]]>
  </style>
  <linearGradient id="id0" gradientUnits="userSpaceOnUse" x1="150.87" y1="-242.12" x2="150.87" y2="335.39">
   <stop offset="0" style="stop-opacity:1; stop-color:#EBFFFE"/>
   <stop offset="1" style="stop-opacity:1; stop-color:#F7FFFF"/>
  </linearGradient>
 </defs>
 <g id="Layer_x0020_1">
  <metadata id="CorelCorpID_0Corel-Layer"/>
  <rect class="fil0" x="0" y="-0" width="278.04" height="342"/>
  <path class="fil1" d="M62.79 35.15c0,-6.68 -9.86,-5.11 -9.86,-8.58 0,-1.25 0.88,-1.85 2.05,-1.82 1.31,0.03 2.22,0.8 2.3,2.07l5.25 0c-0.2,-3.81 -3.12,-5.97 -7.47,-5.97 -4.18,0 -7.27,2.1 -7.27,5.88 -0.06,7.07 9.91,5.08 9.91,8.78 0,1.16 -0.91,1.87 -2.33,1.87 -1.36,0 -2.33,-0.74 -2.47,-2.27l-5.17 0c0.14,4.03 3.49,6.16 7.78,6.16 4.66,0 7.27,-2.78 7.27,-6.14zm117.18 0c0,-6.68 -9.86,-5.11 -9.86,-8.58 0,-1.25 0.88,-1.85 2.05,-1.82 1.31,0.03 2.22,0.8 2.3,2.07l5.25 0c-0.2,-3.81 -3.12,-5.97 -7.47,-5.97 -4.18,0 -7.27,2.1 -7.27,5.88 -0.06,7.07 9.91,5.08 9.91,8.78 0,1.16 -0.91,1.87 -2.33,1.87 -1.36,0 -2.33,-0.74 -2.47,-2.27l-5.17 0c0.14,4.03 3.49,6.16 7.78,6.16 4.66,0 7.27,-2.78 7.27,-6.14zm-115.27 -10.11l5.28 0 0 16.05 4.86 0 0 -16.05 5.28 0 0 -3.89 -15.42 0 0 3.89zm30.08 -3.89l-12.21 0 0 19.94 12.21 0 0 -3.89 -7.36 0 0 -4.37 6.5 0 0 -3.75 -6.5 0 0 -4.03 7.36 0 0 -3.89zm8.01 8.92l0 -5 2.64 0c1.93,0 2.76,0.97 2.76,2.5 0,1.53 -0.82,2.5 -2.76,2.5l-2.64 0zm10.34 -2.5c0,-3.66 -2.44,-6.42 -7.33,-6.42l-7.87 0 0 19.94 4.86 0 0 -7.16 3.01 0c5.09,0 7.33,-3.07 7.33,-6.36zm19.54 7.44c0,1.42 -0.94,2.16 -2.56,2.16l-3.58 0 0 -4.4 3.52 0c1.62,0 2.61,0.82 2.61,2.24zm-0.48 -7.87c0,1.36 -0.88,2.07 -2.47,2.07l-3.18 0 0 -4.18 3.18 0c1.59,0 2.47,0.74 2.47,2.1zm5.4 8.52c0,-2.27 -1.51,-4.32 -3.83,-4.8 1.93,-0.57 3.38,-2.13 3.38,-4.55 0,-3.15 -2.41,-5.17 -6.48,-5.17l-8.98 0 0 19.94 9.29 0c4.2,0 6.62,-2.13 6.62,-5.43zm8.15 -1.16l0 6.59 4.86 0 0 -6.59 6.9 -13.35 -5.45 0 -3.84 8.35 -3.86 -8.35 -5.51 0 6.9 13.35zm36.13 -9.46l5.28 0 0 16.05 4.86 0 0 -16.05 5.28 0 0 -3.89 -15.43 0 0 3.89zm30.08 -3.89l-12.21 0 0 19.94 12.21 0 0 -3.89 -7.36 0 0 -4.37 6.51 0 0 -3.75 -6.51 0 0 -4.03 7.36 0 0 -3.89zm8.01 8.92l0 -5 2.64 0c1.93,0 2.76,0.97 2.76,2.5 0,1.53 -0.82,2.5 -2.76,2.5l-2.64 0zm10.34 -2.5c0,-3.66 -2.44,-6.42 -7.33,-6.42l-7.87 0 0 19.94 4.86 0 0 -7.16 3.01 0c5.08,0 7.33,-3.07 7.33,-6.36z"/>
  <path class="fil1" d="M55.83 62.51l0 -7.06 3.73 0c2.73,0 3.89,1.36 3.89,3.53 0,2.17 -1.16,3.53 -3.89,3.53l-3.73 0zm14.6 -3.53c0,-5.17 -3.45,-9.07 -10.35,-9.07l-11.11 0 0 28.16 6.86 0 0 -10.11 4.25 0c7.18,0 10.35,-4.33 10.35,-8.99zm18.45 0.08c0,2.21 -1.2,3.53 -3.77,3.53l-4.25 0 0 -6.98 4.25 0c2.57,0 3.77,1.36 3.77,3.45zm-14.88 -9.15l0 28.16 6.86 0 0 -10.63 1.65 0 5.86 10.63 7.74 0 -6.5 -11.15c4.33,-1.28 6.26,-4.61 6.26,-8.14 0,-4.89 -3.45,-8.86 -10.35,-8.86l-11.51 0zm53.87 14c0,-8.46 -6.38,-14.4 -14.4,-14.4 -7.98,0 -14.48,5.94 -14.48,14.4 0,8.46 6.5,14.44 14.48,14.44 7.98,0 14.4,-5.98 14.4,-14.44zm-21.86 0c0,-5.01 2.89,-8.18 7.46,-8.18 4.49,0 7.42,3.17 7.42,8.18 0,4.93 -2.93,8.18 -7.42,8.18 -4.57,0 -7.46,-3.25 -7.46,-8.18zm24.51 0.04c0,8.42 5.86,14.32 14.16,14.32 6.7,0 11.75,-3.73 13.36,-9.83l-7.54 0c-1.16,2.41 -3.29,3.61 -5.9,3.61 -4.21,0 -7.1,-3.13 -7.1,-8.1 0,-4.97 2.89,-8.1 7.1,-8.1 2.61,0 4.73,1.2 5.9,3.61l7.54 0c-1.6,-6.1 -6.66,-9.87 -13.36,-9.87 -8.3,0 -14.16,5.94 -14.16,14.36zm48.98 -14.04l-17.25 0 0 28.16 17.25 0 0 -5.5 -10.39 0 0 -6.18 9.19 0 0 -5.29 -9.19 0 0 -5.7 10.39 0 0 -5.5zm24.91 19.77c0,-9.43 -13.92,-7.22 -13.92,-12.11 0,-1.76 1.24,-2.61 2.89,-2.57 1.84,0.04 3.13,1.12 3.25,2.93l7.42 0c-0.28,-5.38 -4.41,-8.42 -10.55,-8.42 -5.9,0 -10.27,2.97 -10.27,8.3 -0.08,9.99 14,7.18 14,12.39 0,1.64 -1.28,2.65 -3.29,2.65 -1.92,0 -3.29,-1.04 -3.49,-3.21l-7.3 0c0.2,5.7 4.93,8.7 10.99,8.7 6.58,0 10.27,-3.93 10.27,-8.66zm24.67 0c0,-9.43 -13.92,-7.22 -13.92,-12.11 0,-1.76 1.24,-2.61 2.89,-2.57 1.84,0.04 3.13,1.12 3.25,2.93l7.42 0c-0.28,-5.38 -4.41,-8.42 -10.55,-8.42 -5.9,0 -10.27,2.97 -10.27,8.3 -0.08,9.99 14,7.18 14,12.39 0,1.64 -1.28,2.65 -3.29,2.65 -1.93,0 -3.29,-1.04 -3.49,-3.21l-7.3 0c0.2,5.7 4.93,8.7 10.99,8.7 6.58,0 10.27,-3.93 10.27,-8.66z"/>
  <g id="_1467973908544">
   <path class="fil2" d="M223.25 136.25c-0.6,-1.61 -1.22,-3.25 -2.24,-4.64 -1.02,-1.39 -2.5,-2.53 -4.21,-2.74 -1.71,-0.21 -3.61,0.71 -4.16,2.34 -0.25,-3.68 -0.77,-7.45 -2.61,-10.64 -1.84,-3.19 -5.27,-5.7 -8.95,-5.47 -3.47,0.21 -6.44,2.79 -8.08,5.84 -1.65,3.06 -2.22,6.56 -2.76,9.99 -1.31,-1.61 -4.09,-1.11 -5.46,0.46 -1.37,1.56 -1.72,3.75 -2.01,5.81l40.96 0.43 -0.48 -1.38z"/>
   <path class="fil2" d="M62.59 207.96c-0.29,-0.78 -0.59,-1.56 -1.08,-2.23 -0.49,-0.67 -1.2,-1.22 -2.03,-1.32 -0.82,-0.1 -1.73,0.34 -2,1.13 -0.12,-1.77 -0.37,-3.58 -1.25,-5.12 -0.88,-1.53 -2.54,-2.74 -4.3,-2.63 -1.67,0.1 -3.09,1.34 -3.89,2.81 -0.79,1.47 -1.07,3.16 -1.33,4.81 -0.63,-0.78 -1.97,-0.53 -2.63,0.22 -0.66,0.75 -0.83,1.8 -0.97,2.79l19.69 0.21 -0.23 -0.66z"/>
   <path class="fil2" d="M241.46 114.31c-0.29,-0.78 -0.59,-1.56 -1.08,-2.23 -0.49,-0.67 -1.2,-1.22 -2.03,-1.32 -0.82,-0.1 -1.73,0.34 -2,1.13 -0.12,-1.77 -0.37,-3.58 -1.25,-5.11 -0.84,-1.46 -2.38,-2.62 -4.05,-2.64l-0.05 0c-0.07,0 -0.14,0 -0.21,0.01 -1.67,0.1 -3.09,1.34 -3.89,2.81 -0.79,1.47 -1.07,3.16 -1.33,4.81 -0.63,-0.78 -1.97,-0.53 -2.63,0.22 -0.66,0.75 -0.83,1.8 -0.97,2.79l19.69 0.21 -0.23 -0.66z"/>
   <path class="fil2" d="M88.97 127.93c-0.48,-1.29 -0.98,-2.6 -1.79,-3.71 -0.81,-1.11 -2,-2.02 -3.37,-2.19 -1.37,-0.17 -2.88,0.57 -3.33,1.87 -0.2,-2.94 -0.61,-5.95 -2.08,-8.5 -1.47,-2.55 -4.21,-4.55 -7.15,-4.37 -2.77,0.17 -5.14,2.23 -6.46,4.67 -1.32,2.44 -1.77,5.24 -2.2,7.99 -1.05,-1.29 -3.27,-0.88 -4.36,0.37 -1.1,1.25 -1.37,3 -1.61,4.64l32.74 0.34 -0.38 -1.11z"/>
   <path class="fil2" d="M171.52 204.88c-0.29,-0.78 -0.59,-1.56 -1.08,-2.23 -0.49,-0.67 -1.2,-1.22 -2.03,-1.32 -0.82,-0.1 -1.73,0.34 -2,1.13 -0.12,-1.77 -0.37,-3.58 -1.25,-5.12 -0.88,-1.53 -2.53,-2.74 -4.3,-2.63 -1.67,0.1 -3.09,1.34 -3.89,2.81 -0.79,1.47 -1.07,3.16 -1.33,4.8 -0.63,-0.78 -1.97,-0.53 -2.63,0.22 -0.66,0.75 -0.83,1.8 -0.97,2.79l19.69 0.21 -0.23 -0.66z"/>
   <path class="fil2" d="M155.16 174.87c-0.52,1.69 0.44,3.48 2.13,4 1.69,0.52 3.48,-0.44 4,-2.13 0.52,-1.69 -0.44,-3.48 -2.13,-4 -1.69,-0.52 -3.48,0.44 -4,2.13zm-1.91 -2.15c0.28,-0.45 0.61,-0.85 0.98,-1.2l-0.38 -1.39 2.1 -1.12 0.94 1.09c0.5,-0.12 1.02,-0.17 1.54,-0.15l0.71 -1.25 2.27 0.69 -0.1 1.43c0.45,0.28 0.85,0.61 1.2,0.98l1.39 -0.38 1.12 2.1 -1.09 0.94c0.12,0.5 0.17,1.02 0.15,1.54l1.25 0.71 -0.69 2.27 -1.43 -0.1c-0.28,0.45 -0.61,0.85 -0.98,1.2l0.38 1.39 -2.1 1.12 -0.94 -1.09c-0.5,0.12 -1.02,0.17 -1.54,0.15l-0.71 1.25 -2.27 -0.69 0.1 -1.43c-0.45,-0.28 -0.85,-0.61 -1.2,-0.98l-1.39 0.38 -1.12 -2.1 1.09 -0.94c-0.12,-0.5 -0.17,-1.02 -0.15,-1.54l-1.25 -0.71 0.69 -2.27 1.43 0.1z"/>
   <path class="fil2" d="M126.68 115.03c-0.52,1.69 0.44,3.48 2.13,4 1.69,0.52 3.48,-0.44 4,-2.13 0.52,-1.69 -0.44,-3.48 -2.13,-4 -1.69,-0.52 -3.48,0.44 -4,2.13zm-1.91 -2.15c0.28,-0.45 0.61,-0.85 0.98,-1.2l-0.38 -1.39 2.1 -1.12 0.94 1.09c0.5,-0.12 1.02,-0.17 1.54,-0.15l0.71 -1.25 2.27 0.69 -0.1 1.43c0.45,0.28 0.85,0.61 1.2,0.98l1.39 -0.38 1.12 2.1 -1.09 0.94c0.12,0.5 0.17,1.02 0.15,1.54l1.25 0.71 -0.69 2.27 -1.43 -0.1c-0.28,0.45 -0.61,0.85 -0.98,1.2l0.38 1.39 -2.1 1.12 -0.94 -1.09c-0.5,0.12 -1.02,0.17 -1.54,0.15l-0.71 1.25 -2.27 -0.69 0.1 -1.43c-0.45,-0.28 -0.85,-0.61 -1.2,-0.98l-1.39 0.38 -1.12 -2.1 1.09 -0.94c-0.12,-0.5 -0.17,-1.02 -0.15,-1.54l-1.25 -0.71 0.69 -2.27 1.43 0.1z"/>
   <path class="fil2" d="M53.36 244.6c-1.45,4.78 1.24,9.83 6.02,11.28 4.78,1.45 9.83,-1.24 11.28,-6.02 1.45,-4.78 -1.24,-9.83 -6.02,-11.28 -4.78,-1.45 -9.83,1.24 -11.28,6.02zm-5.38 -6.08c0.78,-1.26 1.72,-2.39 2.78,-3.37l-1.07 -3.91 5.91 -3.15 2.65 3.06c1.41,-0.33 2.87,-0.48 4.35,-0.43l2.01 -3.52 6.41 1.95 -0.29 4.04c1.26,0.78 2.39,1.72 3.38,2.78l3.91 -1.07 3.16 5.91 -3.06 2.65c0.33,1.41 0.48,2.87 0.43,4.35l3.52 2.01 -1.95 6.41 -4.04 -0.29c-0.78,1.26 -1.72,2.39 -2.78,3.38l1.07 3.91 -5.91 3.15 -2.65 -3.07c-1.41,0.33 -2.87,0.48 -4.35,0.43l-2.01 3.52 -6.41 -1.95 0.29 -4.04c-1.26,-0.78 -2.39,-1.72 -3.38,-2.78l-3.91 1.07 -3.15 -5.91 3.07 -2.65c-0.33,-1.41 -0.48,-2.87 -0.43,-4.35l-3.52 -2.01 1.95 -6.41 4.04 0.29z"/>
   <path class="fil2" d="M186 186.54c-1.63,5.34 1.39,10.99 6.73,12.62 5.34,1.63 10.99,-1.39 12.62,-6.73 1.62,-5.34 -1.39,-10.99 -6.73,-12.62 -5.34,-1.62 -10.99,1.39 -12.62,6.73zm-6.02 -6.79c0.87,-1.41 1.92,-2.67 3.1,-3.77l-1.2 -4.37 6.61 -3.53 2.96 3.43c1.57,-0.37 3.21,-0.54 4.86,-0.48l2.24 -3.93 7.17 2.18 -0.33 4.52c1.41,0.87 2.67,1.92 3.77,3.1l4.37 -1.2 3.53 6.61 -3.43 2.96c0.37,1.57 0.54,3.21 0.48,4.86l3.93 2.24 -2.18 7.17 -4.52 -0.33c-0.87,1.41 -1.92,2.67 -3.1,3.77l1.2 4.37 -6.61 3.53 -2.96 -3.43c-1.57,0.37 -3.21,0.54 -4.86,0.48l-2.24 3.93 -7.17 -2.18 0.33 -4.52c-1.41,-0.87 -2.67,-1.92 -3.77,-3.1l-4.37 1.2 -3.53 -6.61 3.43 -2.96c-0.37,-1.57 -0.54,-3.21 -0.48,-4.86l-3.93 -2.24 2.18 -7.17 4.52 0.33z"/>
   <path class="fil3" d="M248.31 318.82c-0.04,0.07 -48.71,0.12 -108.72,0.12 -60.06,0 -108.73,-0.05 -108.73,-0.12 0,-0.07 48.67,-0.12 108.73,-0.12 60.02,0 108.68,0.05 108.72,0.12l0 0z"/>
   <polygon class="fil2" points="62.01,318.67 89.44,318.67 89.44,292.6 62.01,292.6 "/>
   <polygon class="fil4" points="73.03,311.47 78.42,311.47 78.42,304.37 73.03,304.37 "/>
   <path class="fil4" d="M80.24 304.37l-9.02 0c-0.31,0 -0.48,-0.37 -0.27,-0.6l4.45 -5.05c0.07,-0.08 0.17,-0.12 0.27,-0.12 0.1,0 0.2,0.04 0.27,0.12l4.57 5.05c0.21,0.23 0.05,0.61 -0.27,0.61z"/>
   <polygon class="fil2" points="30.47,318.67 57.89,318.67 57.89,303.22 30.47,303.22 "/>
   <polygon class="fil4" points="42.1,316.82 47.45,316.82 47.45,312.15 42.1,312.15 "/>
   <path class="fil4" d="M49.26 312.15l-8.96 0c-0.31,0 -0.47,-0.37 -0.27,-0.6l4.42 -5.01c0.07,-0.08 0.17,-0.12 0.27,-0.12 0.1,0 0.2,0.04 0.27,0.12l4.54 5.01c0.21,0.23 0.05,0.6 -0.27,0.6z"/>
   <polygon class="fil2" points="92.85,318.67 120.27,318.67 120.27,274.8 92.85,274.8 "/>
   <polygon class="fil4" points="103.86,303.91 109.25,303.91 109.25,293.25 103.86,293.25 "/>
   <path class="fil4" d="M111.07 293.25l-9.02 0c-0.31,0 -0.48,-0.37 -0.27,-0.6l4.45 -5.05c0.07,-0.08 0.17,-0.12 0.27,-0.12 0.1,0 0.2,0.04 0.27,0.12l4.57 5.05c0.21,0.23 0.05,0.61 -0.27,0.61z"/>
   <polygon class="fil2" points="124.5,318.67 151.93,318.67 151.93,253.46 124.5,253.46 "/>
   <polygon class="fil4" points="135.52,288.7 140.91,288.7 140.91,278.04 135.52,278.04 "/>
   <path class="fil4" d="M142.73 278.04l-9.02 0c-0.31,0 -0.48,-0.37 -0.27,-0.6l4.45 -5.05c0.07,-0.08 0.17,-0.12 0.27,-0.12 0.1,0 0.2,0.04 0.27,0.12l4.57 5.05c0.21,0.23 0.05,0.61 -0.27,0.61z"/>
   <polygon class="fil2" points="155.87,318.67 183.3,318.67 183.3,233.68 155.87,233.68 "/>
   <polygon class="fil4" points="166.89,268.63 172.28,268.63 172.28,257.97 166.89,257.97 "/>
   <path class="fil4" d="M174.1 257.97l-9.02 0c-0.31,0 -0.48,-0.37 -0.27,-0.6l4.45 -5.05c0.07,-0.08 0.17,-0.12 0.27,-0.12 0.1,0 0.2,0.04 0.27,0.12l4.57 5.05c0.21,0.23 0.05,0.61 -0.27,0.61z"/>
   <polygon class="fil2" points="187.08,318.67 214.5,318.67 214.5,217.9 187.08,217.9 "/>
   <polygon class="fil4" points="197.85,250.51 203.24,250.51 203.24,239.85 197.85,239.85 "/>
   <path class="fil4" d="M205.06 239.85l-9.02 0c-0.31,0 -0.48,-0.37 -0.27,-0.6l4.45 -5.05c0.07,-0.08 0.17,-0.12 0.27,-0.12 0.1,0 0.2,0.04 0.27,0.12l4.57 5.05c0.21,0.23 0.05,0.61 -0.27,0.61z"/>
   <polygon class="fil2" points="219.11,318.67 246.54,318.67 246.54,200.56 219.11,200.56 "/>
   <polygon class="fil4" points="230.13,234.33 235.52,234.33 235.52,223.67 230.13,223.67 "/>
   <path class="fil4" d="M237.34 223.67l-9.02 0c-0.31,0 -0.48,-0.37 -0.27,-0.6l4.45 -5.05c0.07,-0.08 0.17,-0.12 0.27,-0.12 0.1,0 0.2,0.04 0.27,0.12l4.57 5.05c0.21,0.23 0.05,0.61 -0.27,0.61z"/>
   <path class="fil5" d="M212.48 289c1.47,0.46 2.64,1.65 3.31,3.03 0.67,1.38 0.88,2.95 0.87,4.49 -0.02,2.98 -1.38,6.12 -2.93,8.66 -2.7,-1.9 -3.67,-5.61 -4.05,-7.52 -0.59,-3.02 0.18,-8.85 2.8,-8.66z"/>
   <path class="fil5" d="M217.12 309.73c-0.57,-1.62 -0.07,-3.52 1.08,-4.79 1.16,-1.27 2.89,-1.94 4.6,-1.99 0.79,-0.02 1.67,0.12 2.19,0.72 0.49,0.56 0.53,1.41 0.26,2.1 -0.27,0.69 -0.81,1.24 -1.4,1.7 -2,1.57 -4.23,2.73 -6.73,2.26z"/>
   <path class="fil3" d="M214.9 319.08c-0.01,-0 -0,-0.22 0.02,-0.61 0.03,-0.43 0.08,-0.99 0.13,-1.67 0.13,-1.39 0.27,-3.39 1.13,-5.39 0.85,-2 2.16,-3.55 3.32,-4.37 0.57,-0.42 1.09,-0.69 1.46,-0.84 0.18,-0.08 0.33,-0.12 0.43,-0.16 0.1,-0.03 0.15,-0.04 0.15,-0.04 0.02,0.05 -0.84,0.3 -1.95,1.15 -1.12,0.84 -2.38,2.37 -3.22,4.34 -0.84,1.97 -1.01,3.94 -1.18,5.32 -0.08,0.7 -0.14,1.27 -0.19,1.66 -0.05,0.39 -0.09,0.61 -0.11,0.6z"/>
   <path class="fil3" d="M212.28 293.48c0.01,-0 0.03,0.09 0.06,0.26 0.03,0.19 0.07,0.44 0.12,0.74 0.1,0.64 0.24,1.58 0.4,2.73 0.32,2.31 0.72,5.5 1.08,9.04 0.36,3.54 0.61,6.75 0.77,9.07 0.08,1.16 0.13,2.1 0.16,2.75 0.01,0.31 0.02,0.56 0.03,0.75 0,0.17 0,0.26 -0,0.26 -0.01,0 -0.02,-0.09 -0.04,-0.26 -0.02,-0.19 -0.04,-0.44 -0.07,-0.75 -0.06,-0.68 -0.13,-1.61 -0.23,-2.75 -0.19,-2.32 -0.47,-5.52 -0.83,-9.06 -0.36,-3.53 -0.74,-6.73 -1.02,-9.04 -0.14,-1.14 -0.25,-2.07 -0.33,-2.74 -0.03,-0.31 -0.06,-0.55 -0.08,-0.75 -0.02,-0.17 -0.02,-0.26 -0.02,-0.26z"/>
   <path class="fil5" d="M213.03 311.97c-0.94,-3.5 -3.68,-6.46 -7.09,-7.67 -0.87,-0.31 -1.98,-0.45 -2.59,0.23 -0.62,0.69 -0.35,1.78 0.08,2.6 1.76,3.42 5.75,5.54 9.57,5.09l0.03 -0.25z"/>
   <path class="fil3" d="M206.63 307.05c0.01,-0.01 0.2,0.05 0.55,0.17 0.18,0.06 0.39,0.14 0.63,0.25 0.24,0.12 0.52,0.22 0.81,0.39 0.29,0.16 0.61,0.33 0.93,0.56 0.33,0.21 0.66,0.47 1.01,0.74 0.68,0.56 1.37,1.25 1.99,2.06 0.61,0.82 1.08,1.67 1.43,2.48 0.16,0.41 0.32,0.8 0.42,1.18 0.12,0.37 0.19,0.73 0.26,1.06 0.08,0.32 0.1,0.63 0.14,0.89 0.04,0.26 0.05,0.49 0.05,0.67 0.01,0.37 0.01,0.58 -0,0.58 -0.05,0 -0.05,-0.82 -0.33,-2.11 -0.08,-0.32 -0.15,-0.67 -0.28,-1.04 -0.11,-0.37 -0.27,-0.75 -0.43,-1.15 -0.35,-0.79 -0.82,-1.63 -1.42,-2.43 -0.61,-0.8 -1.28,-1.47 -1.94,-2.04 -0.34,-0.27 -0.66,-0.53 -0.98,-0.74 -0.31,-0.23 -0.63,-0.41 -0.91,-0.57 -1.14,-0.65 -1.93,-0.91 -1.91,-0.95z"/>
   <path class="fil4" d="M29.73 287.39c73.66,-18.36 161.23,-71.24 202.3,-122.85l-8.63 -15.23c-39.1,50.28 -113.96,97.83 -193.67,110.91l0 27.17z"/>
   <path class="fil4" d="M204.7 149.09c1.1,0 30.95,31.79 30.95,31.79 0,0 7.79,-41.76 7.06,-41.92 -0.74,-0.16 -38,10.13 -38,10.13z"/>
   <path class="fil6" d="M146.89 167.18c0,0 0.95,-1.22 1.51,-0.7 0.56,0.52 -1.69,3.1 -2,3.19 -0.31,0.09 0.24,-1.52 0.49,-2.49z"/>
   <path class="fil3" d="M125.25 122.62c-0.32,-0.65 -0.21,-1.49 0.25,-2.05 0.46,-0.56 1.26,-0.82 1.96,-0.63 1.04,-1.16 2.94,-1.43 4.26,-0.61l13.89 8.58c-0.67,2.2 -2.18,6.64 -3.37,8.61 -1.19,1.97 -2.96,3.69 -5.17,4.35 -2.46,0.73 -5.09,0.07 -7.57,-0.59 -1.23,-0.33 -2.53,-0.7 -3.39,-1.64 -0.76,-0.85 -1.03,-2.02 -1.28,-3.13 -0.44,-2.03 -0.89,-4.07 -1.33,-6.1 -0.27,-1.25 -0.55,-2.53 -0.37,-3.8 0.18,-1.26 0.91,-2.53 2.11,-2.98z"/>
   <path class="fil6" d="M129.04 124.3l6.41 -1.92 1.6 0.33c3.64,0.33 5.8,4.56 5.57,7.51 -0.26,3.28 -0.7,7.27 -1.43,9.64 -1.47,4.76 -5.65,4.81 -5.65,4.81l-1.08 4.01 -5.77 6.11 -2.98 -10.1 1.55 -18.87c0.11,-0.89 0.88,-1.55 1.78,-1.52z"/>
   <path class="fil3" d="M140.68 134.44c-0.03,0.33 -0.35,0.57 -0.69,0.54 -0.35,-0.03 -0.6,-0.32 -0.56,-0.65 0.04,-0.33 0.35,-0.58 0.69,-0.55 0.35,0.03 0.6,0.32 0.57,0.66z"/>
   <path class="fil3" d="M141.36 131.75c-0.09,0.07 -0.51,-0.35 -1.19,-0.44 -0.67,-0.1 -1.21,0.17 -1.27,0.08 -0.03,-0.04 0.07,-0.18 0.31,-0.3 0.23,-0.13 0.62,-0.23 1.04,-0.16 0.42,0.06 0.75,0.27 0.93,0.45 0.18,0.19 0.23,0.35 0.19,0.38z"/>
   <path class="fil3" d="M136.56 136.68c0,-0.04 0.43,-0.05 1.12,-0.04 0.17,0.01 0.34,-0 0.39,-0.12 0.06,-0.12 0.01,-0.31 -0.04,-0.53 -0.1,-0.44 -0.21,-0.9 -0.32,-1.38 -0.44,-1.96 -0.73,-3.57 -0.65,-3.58 0.08,-0.02 0.5,1.56 0.94,3.52 0.1,0.48 0.21,0.94 0.3,1.38 0.04,0.2 0.12,0.44 -0.01,0.69 -0.06,0.12 -0.2,0.2 -0.32,0.21 -0.11,0.02 -0.21,0.01 -0.3,-0 -0.69,-0.06 -1.11,-0.12 -1.11,-0.16z"/>
   <path class="fil7" d="M135.55 144.65c0,0 -3.31,-0.25 -6.28,-2.67 0,0 0.84,4.21 5.79,4.45l0.49 -1.78z"/>
   <path class="fil3" d="M141.39 128.93c-0.14,0.15 -0.64,-0.03 -1.24,-0.07 -0.61,-0.05 -1.13,0.05 -1.24,-0.11 -0.05,-0.08 0.04,-0.23 0.27,-0.37 0.23,-0.14 0.61,-0.24 1.02,-0.21 0.42,0.03 0.77,0.19 0.98,0.36 0.21,0.17 0.27,0.33 0.21,0.4z"/>
   <path class="fil3" d="M134 133.57c-0.05,0.33 0.2,0.64 0.54,0.7 0.34,0.05 0.66,-0.17 0.71,-0.5 0.05,-0.33 -0.19,-0.64 -0.54,-0.7 -0.34,-0.05 -0.66,0.17 -0.71,0.5z"/>
   <path class="fil3" d="M132.76 130.77c0.07,0.09 0.58,-0.21 1.26,-0.14 0.68,0.06 1.14,0.46 1.22,0.39 0.04,-0.03 -0.02,-0.19 -0.22,-0.37 -0.2,-0.18 -0.54,-0.37 -0.96,-0.41 -0.42,-0.04 -0.79,0.08 -1.01,0.21 -0.22,0.14 -0.31,0.28 -0.28,0.32z"/>
   <path class="fil3" d="M132.83 128.57c0.12,0.17 0.66,0.06 1.28,0.12 0.63,0.04 1.15,0.22 1.29,0.08 0.06,-0.07 -0.01,-0.23 -0.22,-0.4 -0.21,-0.17 -0.58,-0.33 -1.02,-0.36 -0.43,-0.03 -0.82,0.07 -1.05,0.2 -0.24,0.13 -0.33,0.29 -0.28,0.37z"/>
   <path class="fil6" d="M127.38 134.12c0.05,-0.36 -0.25,-1.28 -0.6,-1.39 -0.94,-0.29 -2.67,-0.45 -3.03,1.97 -0.49,3.32 2.94,3.13 2.96,3.04 0.01,-0.07 0.5,-2.37 0.67,-3.63z"/>
   <path class="fil7" d="M125.98 136.4c-0.01,-0.01 -0.06,0.03 -0.17,0.06 -0.1,0.03 -0.27,0.04 -0.43,-0.06 -0.33,-0.18 -0.54,-0.78 -0.47,-1.38 0.04,-0.3 0.14,-0.58 0.29,-0.8 0.14,-0.23 0.32,-0.37 0.5,-0.38 0.18,-0.01 0.29,0.11 0.32,0.21 0.03,0.1 0,0.16 0.02,0.17 0.01,0.01 0.08,-0.04 0.07,-0.19 -0,-0.07 -0.03,-0.15 -0.1,-0.23 -0.07,-0.08 -0.18,-0.13 -0.31,-0.13 -0.26,-0.02 -0.52,0.18 -0.68,0.43 -0.17,0.24 -0.3,0.56 -0.34,0.9 -0.08,0.67 0.17,1.35 0.63,1.56 0.22,0.09 0.43,0.05 0.54,-0.01 0.11,-0.07 0.14,-0.14 0.13,-0.15z"/>
   <path class="fil3" d="M129.43 118.46c0.56,-0.86 1.69,-1.19 2.71,-1.08 1.02,0.12 1.95,0.6 2.85,1.07 1.12,-0.85 2.69,-1.06 4,-0.55 1.31,0.51 2.31,1.74 2.55,3.12 1.65,-0.71 3.76,-0.12 4.79,1.35 1.03,1.47 0.88,3.65 -0.35,4.96 1.18,0.67 1.59,2.4 0.83,3.53 -0.76,1.13 -2.52,1.4 -3.58,0.56 -1.07,-0.84 -1.2,-2.62 -0.28,-3.61 -1.55,0.52 -3.42,-0.71 -3.55,-2.33 -1.58,0.56 -3.38,0.44 -4.87,-0.34 -1.48,-0.78 -2.61,-2.19 -3.05,-3.81l-1.3 -0.34c-0.98,-0.3 -1.3,-1.68 -0.75,-2.54z"/>
   <path class="fil3" d="M126.14 128.35c0.07,-0.89 -0.03,-1.81 0.2,-2.67 0.34,-1.3 1.39,-2.32 2.58,-2.94 1.19,-0.62 2.52,-0.9 3.84,-1.18l2.7 2.74c-0.63,0.83 -1.28,1.68 -2.13,2.29 -0.85,0.61 -1.96,0.95 -2.96,0.65 0.35,1.07 -0.33,2.37 -1.42,2.69 0.37,0.63 0.58,1.39 0.43,2.1 -0.15,0.71 -0.74,1.36 -1.47,1.43 -0.69,0.07 -1.36,-0.4 -1.7,-1.01 -0.34,-0.61 -0.39,-1.34 -0.34,-2.04 0.05,-0.7 0.21,-1.38 0.26,-2.08z"/>
   <path class="fil5" d="M129.23 119.78c-0.01,-0 -0.04,0.1 -0.03,0.29 0.01,0.19 0.05,0.48 0.22,0.81 0.16,0.32 0.45,0.69 0.9,0.93 0.45,0.24 1.05,0.35 1.66,0.18l-0.17 -0.13c-0.02,0.91 0.44,1.92 1.23,2.63 0.71,0.67 1.6,1.06 2.41,1.22 0.82,0.17 1.58,0.17 2.2,0.13 0.62,-0.04 1.12,-0.12 1.46,-0.18 0.34,-0.06 0.53,-0.11 0.53,-0.13 -0.01,-0.05 -0.77,0.07 -2,0.11 -0.61,0.01 -1.35,-0.01 -2.13,-0.19 -0.78,-0.17 -1.6,-0.54 -2.27,-1.17 -0.74,-0.67 -1.16,-1.59 -1.16,-2.41l-0 -0.18 -0.17 0.05c-0.53,0.16 -1.07,0.08 -1.48,-0.12 -0.41,-0.2 -0.69,-0.52 -0.86,-0.81 -0.34,-0.6 -0.28,-1.03 -0.33,-1.02z"/>
   <path class="fil7" d="M133.63 138.23c0.01,-0.27 0.13,-0.52 0.3,-0.7 0.34,-0.36 0.89,-0.45 1.32,-0.21 0.43,0.24 0.72,0.78 0.7,1.31 -0.19,0.33 -0.52,0.58 -0.89,0.65 -0.06,0.01 -0.12,0.02 -0.18,0.02 -0.29,0.02 -0.59,-0.04 -0.84,-0.24 -0.24,-0.19 -0.41,-0.51 -0.41,-0.84z"/>
   <path class="fil3" d="M133.92 136.88c0.11,-0.01 0.15,0.75 0.83,1.26 0.68,0.51 1.49,0.39 1.5,0.49 0.01,0.05 -0.17,0.16 -0.52,0.18 -0.34,0.03 -0.83,-0.06 -1.25,-0.37 -0.41,-0.31 -0.61,-0.75 -0.65,-1.06 -0.04,-0.32 0.03,-0.51 0.08,-0.51z"/>
   <path class="fil6" d="M134.68 232.24l-3.36 7.76c-0.22,0.35 -1.75,1.56 -1.55,2.16 0.19,0.61 8.82,8.38 9.91,8.64 1.09,0.27 2.22,0.04 2.22,0.04 0,0 -3.11,-5.09 -4.01,-7.29 -0.9,-2.21 2.54,-7.56 2.54,-7.56l-5.75 -3.75z"/>
   <path class="fil3" d="M131.08 240.31c-0.13,0.14 -1.95,1.66 -2.41,3.6 -0.46,1.94 0.34,10.23 0.34,10.23l0.85 0.02c0,0 -0.08,-6.2 0.16,-6.67 0.24,-0.47 1.17,-1.13 3.63,1 2.46,2.14 2.14,4.42 4.39,5.05 2.25,0.63 8.26,-0.16 8.21,-0.68 -0.04,-0.52 -4.56,-2.52 -4.56,-2.52 0,0 -1.5,0.52 -2.97,-0.67 -1.47,-1.19 -7.64,-9.36 -7.64,-9.36z"/>
   <path class="fil6" d="M98.7 254.93l-1.08 7.03c-0.22,0.35 -1.75,1.56 -1.55,2.16 0.19,0.61 8.82,8.38 9.91,8.64 1.09,0.27 2.22,0.04 2.22,0.04 0,0 -3.11,-5.09 -4.01,-7.29 -0.9,-2.21 1.27,-10.72 1.27,-10.72l-6.76 0.14z"/>
   <path class="fil3" d="M97.38 262.26c-0.13,0.14 -1.95,1.66 -2.41,3.6 -0.46,1.94 0.34,10.23 0.34,10.23l0.85 0.02c0,0 -0.08,-6.2 0.16,-6.67 0.24,-0.47 1.17,-1.13 3.63,1 2.46,2.14 2.14,4.42 4.39,5.05 2.25,0.63 8.26,-0.16 8.21,-0.68 -0.04,-0.52 -4.56,-2.52 -4.56,-2.52 0,0 -1.5,0.52 -2.97,-0.67 -1.47,-1.19 -7.64,-9.36 -7.64,-9.36z"/>
   <path class="fil3" d="M135.43 157.25c0.84,-0.16 14.5,3.04 14.16,3.71 -0.34,0.67 -6.79,20.46 -7.89,21.08 -1.1,0.62 -14.71,-3.63 -14.71,-3.63l8.44 -21.16z"/>
   <path class="fil8" d="M136.53 158.07c0.54,0.36 11.28,2.55 11.29,3.37 0.01,1.03 -5.19,16.9 -6.62,19.34 -0.67,1.13 -5.19,-1.54 -5.19,-1.54l0.52 -21.16z"/>
   <path class="fil9" d="M137.21 157.5c-0.36,-0.07 -0.68,-0.13 -0.95,-0.17 -0,-0.01 -0,-0.01 -0.01,-0.02 0.45,0.08 0.91,0.18 0.96,0.19z"/>
   <path class="fil10" d="M140.03 181.95l-1.36 -0.35c0.04,-0.34 0.08,-0.67 0.11,-0.99 0.41,0.16 0.81,0.3 1.17,0.37 0.05,0.6 0.08,0.97 0.08,0.97zm-2.38 -23.53c-0.62,-0.16 -1.03,-0.28 -1.13,-0.34 -0.09,-0.25 -0.18,-0.5 -0.27,-0.74 0.27,0.04 0.59,0.1 0.95,0.17 0,0 0,0 0,0 0.01,0 0.18,0.36 0.44,0.92z"/>
   <path class="fil11" d="M139.95 180.98c-0.36,-0.08 -0.76,-0.21 -1.17,-0.37 0.14,-1.28 0.21,-2.39 0.21,-3.19 0,-0.53 -0.03,-0.92 -0.1,-1.15 -0.3,-0.96 -0.77,-4.66 -1.18,-8.41 0.37,-1.31 0.61,-2.51 0.57,-3.33 -0.07,-1.33 -0.87,-3.94 -1.76,-6.45 0.1,0.06 0.51,0.18 1.13,0.34 0.73,1.58 2.09,4.76 1.97,5.86 -0.16,1.48 -1.04,3.69 -0.8,4.45 0.2,0.63 0.9,9.31 1.13,12.26z"/>
   <path class="fil12" d="M136.8 158.87c0,0 1.42,15.29 2.09,17.4 0.67,2.1 -2.01,18.81 -3.54,18.72 -1.53,-0.1 -6.68,-8.67 -6.68,-8.67l8.13 -27.44z"/>
   <path class="fil1" d="M136.09 194.04c-0.88,-0.59 -1.7,-1.13 -2.43,-1.61 1.3,-4.67 2.15,-9.54 2.43,-11.44 0.2,-1.3 0.1,-4.35 -0.18,-8.02 0.61,-1.52 1.32,-3.41 1.81,-5.11 0.41,3.75 0.87,7.45 1.18,8.41 0.07,0.23 0.1,0.62 0.1,1.15 0,0.81 -0.08,1.92 -0.21,3.19 -0.03,0.32 -0.07,0.65 -0.11,0.99 -0,0.02 -0.01,0.05 -0.01,0.07 -0.54,4.4 -1.63,10.14 -2.57,12.37z"/>
   <path class="fil13" d="M124.23 145.02c0.19,-0.49 1.51,-1.92 1.51,-1.92 0,0 9.15,4.93 8.95,5.49 -0.2,0.57 -0.61,3.07 -0.61,3.07 0,0 4.04,9.78 4.21,12.86 0.16,3.07 -3.6,11.32 -3.6,11.32l-8.77 -9.38 -1.68 -21.45z"/>
   <path class="fil14" d="M112.99 184.28c-0.71,0.75 -10.19,14.32 8.09,21.47 18.28,7.15 20.83,8.05 20.83,8.05l-10.67 21.52c1.06,1.35 9.38,5.27 9.38,5.27 2.85,-3.45 12.68,-25.89 13.73,-27.39 1.05,-1.5 1.05,-5.32 -1.5,-7.45 -2.55,-2.14 -21.86,-15.33 -22.7,-15.48 -0.83,-0.15 -17.17,-5.99 -17.17,-5.99z"/>
   <path class="fil14" d="M125.44 203.21c-0.66,1.3 -9.41,29.76 -10.93,32 -2.31,3.42 -6.62,24.76 -6.62,24.76 0,0 -10.27,-2.2 -10.27,-2.6 0,-0.4 3.49,-16.87 4.12,-21.49 0.63,-4.61 3.93,-10.45 5.35,-16.12 1.43,-5.67 1.35,-22.64 3.92,-23.43 2.57,-0.79 14.43,6.87 14.43,6.87z"/>
   <path class="fil5" d="M100.47 213c0,0 0.12,-6.75 5.91,-6.21 5.78,0.54 5.6,8.28 5.6,8.28l2.28 0.14c0,0 -0.99,-8.92 -7.61,-9.77 -6.62,-0.84 -9.22,7.56 -8.93,7.4 0.29,-0.16 2.75,0.17 2.75,0.17z"/>
   <path class="fil6" d="M104.52 198.82c0,0.22 -1.69,4.61 -1.91,5.48 -0.22,0.87 -0.22,2.87 0.38,3.25 0.59,0.38 0.97,0.22 0.97,0.22 0,0 -0.27,1.46 1.19,1.46 0,0 -0.43,1.41 1.46,1.46 0,0 0.38,1.79 1.3,1.84 0.92,0.05 0.7,-1.89 0.7,-1.89 0,0 0.64,0.03 0.81,-0.11 0.48,-0.39 0.05,-1.35 0.7,-2.49 0.65,-1.14 1.03,-3.03 0.81,-4.33 -0.22,-1.3 -0.97,-4.33 -0.97,-4.33l-5.45 -0.56z"/>
   <path class="fil7" d="M109.38 205.96c0.07,0.02 -0.25,1.04 -0.44,2.33 -0.2,1.29 -0.22,2.35 -0.29,2.35 -0.06,0 -0.16,-1.08 0.05,-2.39 0.2,-1.31 0.62,-2.31 0.68,-2.29z"/>
   <path class="fil7" d="M106.62 210.68c-0.07,0.01 -0.2,-0.99 -0.14,-2.2 0.05,-1.22 0.13,-2.2 0.19,-2.2 0.07,-0 0.1,0.99 0.05,2.2 -0.05,1.21 -0.04,2.19 -0.1,2.2z"/>
   <path class="fil7" d="M105.19 209.26c-0.07,0.01 -0.22,-0.81 -0.24,-1.83 -0.02,-1.02 0.04,-1.84 0.1,-1.84 0.07,-0 0.12,0.82 0.14,1.84 0.01,1.01 0.06,1.83 -0,1.84z"/>
   <path class="fil7" d="M103.98 207.84c-0.06,0.02 -0.25,-0.52 -0.31,-1.21 -0.06,-0.69 0.04,-1.25 0.11,-1.24 0.07,0 0.08,0.55 0.13,1.22 0.05,0.67 0.13,1.21 0.06,1.23z"/>
   <path class="fil4" d="M125.31 143.28c0.86,-0.21 5.42,4 7.4,9.23 1.98,5.24 3.96,24.61 3.37,28.48 -0.58,3.87 -3.47,20.04 -7.85,21.79 -4.37,1.75 -17.52,-2.33 -20.08,-4.07 -2.56,-1.75 9.08,-35.57 9.08,-35.57 0,0 -1.09,-9.1 -0.63,-12.48 0.39,-2.85 4.31,-5.09 7.4,-6.16l1.3 -1.22z"/>
   <path class="fil3" d="M127.66 186.73c0.01,-0 -0.01,0.05 -0.04,0.17 -0.04,0.14 -0.09,0.31 -0.15,0.53 -0.14,0.5 -0.34,1.18 -0.59,2.04l-0.01 0.04 -0.05 0c-1.39,0.14 -3.22,-0.07 -5.3,-0.49 -1.04,-0.21 -2.15,-0.47 -3.31,-0.78 -0.58,-0.15 -1.17,-0.32 -1.76,-0.49 -0.3,-0.09 -0.6,-0.18 -0.9,-0.28l-0.46 -0.15 -0.23 -0.08 -0.12 -0.05 -0.07 -0.03c-0.05,-0.03 -0.07,-0.07 -0.08,-0.11 -0.05,-0.19 -0.01,-0.3 0.01,-0.43 0.02,-0.13 0.05,-0.25 0.09,-0.37 0.07,-0.24 0.14,-0.47 0.22,-0.7 0.16,-0.46 0.33,-0.9 0.51,-1.33l0.04 -0.1 0.1 0.03c3.37,1.04 6.41,1.66 8.59,2.03 1.09,0.18 1.97,0.31 2.57,0.39 0.29,0.04 0.52,0.08 0.71,0.1 0.16,0.02 0.23,0.04 0.23,0.04 -0.01,0 -0.09,-0 -0.26,-0.01 -0.16,-0.01 -0.38,-0.02 -0.69,-0.05 -0.61,-0.06 -1.49,-0.16 -2.59,-0.32 -2.19,-0.32 -5.25,-0.92 -8.64,-1.95l0.14 -0.07c-0.18,0.43 -0.35,0.87 -0.5,1.32 -0.08,0.23 -0.15,0.45 -0.22,0.69 -0.03,0.11 -0.06,0.23 -0.08,0.35 -0.02,0.11 -0.03,0.25 -0.02,0.3 0.27,0.09 0.54,0.18 0.81,0.27 0.3,0.09 0.6,0.18 0.9,0.27 0.59,0.18 1.18,0.34 1.76,0.5 1.15,0.31 2.25,0.58 3.29,0.8 2.07,0.43 3.89,0.67 5.25,0.56l-0.06 0.05c0.27,-0.82 0.49,-1.49 0.65,-1.97 0.07,-0.22 0.13,-0.39 0.18,-0.53 0.04,-0.12 0.07,-0.19 0.07,-0.19z"/>
   <path class="fil9" d="M109.26 199.31l-0.06 -0.01 0 -0.02c0.02,0.01 0.04,0.02 0.06,0.03z"/>
   <path class="fil10" d="M112.72 200.66l-2.65 -0.87c-0.01,-0.05 -0.02,-0.1 -0.03,-0.14 0.76,0.32 1.67,0.66 2.68,1.01z"/>
   <path class="fil15" d="M110.08 199.79l-0.9 -0.29 0.02 -0.2 0.06 0.01c0.24,0.11 0.5,0.23 0.78,0.35 0.01,0.04 0.02,0.09 0.03,0.14z"/>
   <path class="fil16" d="M113.75 201l-1.03 -0.34c-1.01,-0.34 -1.92,-0.68 -2.68,-1.01 -0.28,-0.12 -0.55,-0.24 -0.78,-0.35 -0.02,-0.01 -0.04,-0.02 -0.06,-0.03l1.48 -14.22c0,0 12.1,-26.19 14.38,-26.19 0.25,0 0.38,0.31 0.37,1.01 -0.14,7.05 -7,18.93 -8.35,22.46 -0.21,0.56 -0.43,1.27 -0.63,2.1 -0.29,-0.08 -0.59,-0.17 -0.89,-0.27l-0.1 -0.03 -0.04 0.1c-0.18,0.43 -0.35,0.88 -0.51,1.33 -0.08,0.23 -0.16,0.46 -0.22,0.7 -0.03,0.12 -0.06,0.24 -0.09,0.37 -0.02,0.13 -0.06,0.24 -0.01,0.43 0.01,0.03 0.03,0.07 0.08,0.11l0.07 0.03 0.12 0.05 0.23 0.08 0.46 0.15c0.07,0.02 0.14,0.04 0.22,0.07 -1.13,5.82 -2.02,13.45 -2.02,13.45zm2.06 -13.69c-0.06,-0.02 -0.13,-0.04 -0.19,-0.06 -0.27,-0.09 -0.54,-0.18 -0.81,-0.27 -0.02,-0.05 -0,-0.19 0.02,-0.3 0.02,-0.12 0.05,-0.23 0.08,-0.35 0.06,-0.23 0.14,-0.46 0.22,-0.69 0.15,-0.42 0.3,-0.83 0.46,-1.22 0.27,0.08 0.53,0.16 0.8,0.23 -0.2,0.8 -0.39,1.7 -0.58,2.64z"/>
   <path class="fil10" d="M115.77 187.54c-0.07,-0.02 -0.14,-0.04 -0.22,-0.07l-0.46 -0.15 -0.23 -0.08 -0.12 -0.05 -0.07 -0.03c-0.05,-0.03 -0.07,-0.07 -0.08,-0.11 -0.05,-0.19 -0.01,-0.3 0.01,-0.43 0.02,-0.13 0.05,-0.25 0.09,-0.37 0.07,-0.24 0.14,-0.47 0.22,-0.7 0.16,-0.46 0.33,-0.9 0.51,-1.33l0.04 -0.1 0.1 0.03c0.3,0.09 0.59,0.18 0.89,0.27 -0.02,0.07 -0.04,0.15 -0.06,0.23 -0.26,-0.08 -0.53,-0.15 -0.8,-0.23 -0.16,0.4 -0.32,0.81 -0.46,1.22 -0.08,0.23 -0.15,0.45 -0.22,0.69 -0.03,0.11 -0.06,0.23 -0.08,0.35 -0.02,0.11 -0.03,0.25 -0.02,0.3 0.27,0.09 0.54,0.18 0.81,0.27 0.06,0.02 0.13,0.04 0.19,0.06 -0.02,0.08 -0.03,0.16 -0.05,0.24z"/>
   <path class="fil4" d="M122 145.53c-0.44,0.14 -3.59,1.28 -5.57,4.89 -1.98,3.61 -2.91,13.85 -6.05,19.9 -3.14,6.05 -7.89,28.56 -7.89,28.56l8.52 1.4c0,0 1.93,-14.03 5.54,-21.59 3.61,-7.56 9.66,-19.2 10.24,-22.92 0.58,-3.72 -1.08,-11.4 -4.79,-10.24z"/>
   <path class="fil3" d="M122 145.53c0,0 0.1,-0.03 0.3,-0.08 0.2,-0.04 0.51,-0.09 0.9,-0 0.39,0.08 0.86,0.3 1.28,0.71 0.42,0.41 0.82,0.97 1.15,1.66 0.66,1.37 1.15,3.2 1.3,5.36 0.06,1.07 0.08,2.25 -0.26,3.45 -0.32,1.19 -0.8,2.4 -1.31,3.66 -2.09,5.03 -5.03,10.82 -8.17,17.33 -0.19,0.41 -0.39,0.82 -0.59,1.23 -0.18,0.42 -0.37,0.84 -0.55,1.26 -0.34,0.86 -0.68,1.73 -0.97,2.63 -0.61,1.79 -1.14,3.65 -1.61,5.57 -0.95,3.83 -1.73,7.85 -2.34,12l-0.02 0.12 -0.12 -0.02c-1,-0.17 -2.08,-0.34 -3.16,-0.52 -1.84,-0.3 -3.65,-0.6 -5.36,-0.88l-0.12 -0.02 0.03 -0.12c0.86,-3.99 1.75,-7.85 2.66,-11.56 0.91,-3.71 1.85,-7.26 2.87,-10.6 0.26,-0.83 0.51,-1.66 0.79,-2.46 0.26,-0.81 0.57,-1.59 0.87,-2.36 0.64,-1.53 1.41,-2.92 1.92,-4.38 1.06,-2.89 1.7,-5.69 2.31,-8.23 0.6,-2.54 1.1,-4.85 1.74,-6.82 0.32,-0.98 0.69,-1.89 1.18,-2.63 0.48,-0.75 1,-1.38 1.51,-1.89 1.03,-1.04 2.02,-1.62 2.69,-1.96 0.34,-0.17 0.61,-0.28 0.79,-0.35 0.18,-0.07 0.28,-0.09 0.28,-0.09 0,0 -0.09,0.04 -0.27,0.11 -0.18,0.08 -0.44,0.19 -0.78,0.37 -0.67,0.36 -1.64,0.95 -2.65,1.98 -1.01,1.03 -2.06,2.51 -2.64,4.5 -0.63,1.96 -1.12,4.27 -1.7,6.82 -0.59,2.54 -1.23,5.35 -2.29,8.26 -0.51,1.46 -1.29,2.88 -1.91,4.39 -0.3,0.77 -0.6,1.54 -0.86,2.35 -0.28,0.8 -0.53,1.62 -0.79,2.45 -1.02,3.33 -1.94,6.88 -2.85,10.59 -0.91,3.71 -1.8,7.57 -2.65,11.55l-0.1 -0.14c1.71,0.28 3.52,0.58 5.36,0.88 1.08,0.18 2.16,0.36 3.16,0.52l-0.14 0.1c0.61,-4.16 1.4,-8.19 2.35,-12.03 0.47,-1.92 1.01,-3.79 1.62,-5.59 0.29,-0.9 0.64,-1.78 0.98,-2.64 0.19,-0.43 0.37,-0.85 0.56,-1.27 0.2,-0.41 0.39,-0.82 0.59,-1.23 3.15,-6.51 6.11,-12.29 8.22,-17.3 0.51,-1.26 1,-2.46 1.32,-3.63 0.33,-1.17 0.32,-2.34 0.27,-3.4 -0.14,-2.14 -0.61,-3.96 -1.25,-5.32 -0.32,-0.68 -0.7,-1.24 -1.11,-1.65 -0.41,-0.41 -0.86,-0.63 -1.24,-0.72 -0.38,-0.09 -0.69,-0.05 -0.89,-0.02 -0.2,0.04 -0.3,0.06 -0.3,0.06z"/>
   <path class="fil3" d="M136.01 174.35c-0.08,0.04 -0.44,-1.14 -0.98,-3.12 -0.54,-1.99 -1.26,-4.79 -2.07,-8.05l0.01 0.03c-0.76,-1.2 -1.39,-2.6 -1.97,-4.06 -0.82,-2.07 -1.47,-4.09 -2.11,-5.9 -0.63,-1.82 -1.24,-3.44 -1.84,-4.76 -0.59,-1.33 -1.19,-2.34 -1.63,-3.02 -0.22,-0.34 -0.42,-0.58 -0.54,-0.76 -0.12,-0.17 -0.19,-0.27 -0.18,-0.27 0.01,-0.01 0.08,0.08 0.22,0.24 0.13,0.17 0.35,0.41 0.58,0.74 0.46,0.67 1.09,1.68 1.71,3 0.62,1.32 1.25,2.94 1.89,4.76 0.65,1.81 1.3,3.83 2.12,5.89 0.58,1.46 1.2,2.85 1.95,4.03l0.01 0.02 0 0.02c0.8,3.24 1.49,6.04 1.98,8.06 0.25,0.98 0.45,1.76 0.6,2.33 0.14,0.54 0.23,0.84 0.24,0.82z"/>
   <path class="fil17" d="M125.68 207.12c-0,0.02 -0.2,-0.02 -0.56,-0.11 -0.36,-0.08 -0.87,-0.22 -1.5,-0.41 -1.26,-0.38 -2.98,-0.99 -4.81,-1.83 -1.83,-0.84 -3.41,-1.75 -4.52,-2.46 -0.56,-0.35 -1,-0.65 -1.29,-0.87 -0.3,-0.22 -0.46,-0.34 -0.45,-0.36 0.01,-0.01 0.19,0.09 0.5,0.28 0.31,0.19 0.77,0.47 1.33,0.81 1.13,0.67 2.72,1.55 4.54,2.39 1.82,0.83 3.52,1.47 4.76,1.89 0.62,0.21 1.13,0.38 1.48,0.49 0.35,0.11 0.54,0.18 0.54,0.2z"/>
   <path class="fil17" d="M147.94 211.13c0.03,0.06 -1.33,0.72 -3.04,1.48 -1.71,0.76 -3.11,1.32 -3.14,1.26 -0.03,-0.06 1.33,-0.72 3.04,-1.48 1.71,-0.76 3.11,-1.32 3.14,-1.26z"/>
   <polygon class="fil1" points="116.4,241.49 83.82,233.79 89.61,209.26 121.15,216.81 "/>
   <path class="fil3" d="M119.39 216.63c0,0 -0.02,0.04 -0.06,0.1 -0.05,0.07 -0.12,0.17 -0.21,0.28 -0.18,0.24 -0.46,0.59 -0.84,1.03 -0.75,0.87 -1.87,2.11 -3.4,3.5 -1.53,1.38 -3.46,2.93 -5.87,4.23 -1.2,0.65 -2.53,1.23 -3.97,1.61 -1.44,0.38 -2.99,0.6 -4.58,0.44 -0.8,-0.05 -1.56,-0.29 -2.28,-0.58 -0.71,-0.32 -1.37,-0.71 -1.95,-1.18 -1.18,-0.94 -2.06,-2.11 -2.78,-3.26 -1.43,-2.35 -2.2,-4.71 -2.75,-6.69 -0.54,-1.99 -0.82,-3.64 -0.98,-4.78 -0.08,-0.57 -0.13,-1.02 -0.16,-1.32 -0.01,-0.14 -0.02,-0.25 -0.03,-0.34 -0,-0.08 -0,-0.12 0,-0.12 0,0 0.01,0.04 0.02,0.12 0.01,0.09 0.03,0.2 0.05,0.34 0.05,0.32 0.12,0.76 0.2,1.31 0.19,1.13 0.5,2.77 1.05,4.75 0.57,1.97 1.35,4.31 2.77,6.62 0.72,1.14 1.59,2.29 2.74,3.2 0.57,0.46 1.21,0.84 1.9,1.15 0.7,0.27 1.44,0.51 2.21,0.56 1.54,0.16 3.08,-0.05 4.49,-0.43 1.42,-0.37 2.73,-0.94 3.93,-1.58 2.39,-1.28 4.32,-2.81 5.86,-4.16 1.53,-1.37 2.67,-2.58 3.44,-3.43 0.38,-0.43 0.67,-0.77 0.87,-1 0.09,-0.11 0.16,-0.19 0.22,-0.26 0.05,-0.06 0.08,-0.09 0.08,-0.09z"/>
   <path class="fil3" d="M119.39 216.63c0.01,0 -0.01,0.09 -0.04,0.25 -0.04,0.19 -0.09,0.42 -0.15,0.7 -0.15,0.64 -0.36,1.5 -0.6,2.56 -0.52,2.16 -1.26,5.13 -2.08,8.42 -0.83,3.28 -1.59,6.26 -2.15,8.4 -0.28,1.05 -0.51,1.91 -0.68,2.54 -0.08,0.28 -0.14,0.5 -0.2,0.69 -0.05,0.16 -0.08,0.24 -0.08,0.23 -0.01,-0 0,-0.09 0.04,-0.25 0.04,-0.19 0.09,-0.42 0.15,-0.7 0.15,-0.64 0.36,-1.5 0.6,-2.56 0.54,-2.19 1.27,-5.15 2.08,-8.42 0.83,-3.28 1.59,-6.25 2.15,-8.4 0.28,-1.05 0.51,-1.91 0.68,-2.54 0.08,-0.28 0.14,-0.5 0.2,-0.69 0.05,-0.16 0.08,-0.24 0.08,-0.24z"/>
   <path class="fil3" d="M101.88 228c-0.13,0.74 -1.18,1.18 -2.35,0.98 -1.17,-0.2 -2.01,-0.97 -1.88,-1.71 0.13,-0.74 1.18,-1.18 2.35,-0.98 1.17,0.2 2.01,0.97 1.88,1.71z"/>
   <path class="fil3" d="M121.15 216.81c-0.01,0.06 -7.07,-1.55 -15.76,-3.61 -8.69,-2.06 -15.72,-3.78 -15.7,-3.85 0.01,-0.06 7.07,1.55 15.76,3.61 8.69,2.06 15.72,3.78 15.7,3.85z"/>
   <path class="fil6" d="M143.83 170.68c-0.33,-0.32 -0.25,-0.86 0.14,-1.09 0.4,-0.23 1.05,-0.55 1.43,-0.42 0.57,0.2 2.6,1.64 2.67,2.17 0.07,0.53 -0.59,0.9 -0.59,0.9 0,0 0.42,0.96 -0.26,1.53 0,0 -0.17,0.74 -0.63,1.05 0,0 -0.39,0.98 -0.73,1.18 -0.34,0.2 -1.7,0.77 -1.7,0.77l-0.22 -1.33c0,0 -0.35,-0.11 -0.5,-0.68 -0.15,-0.57 0,-1.01 0,-1.01 0,0 -0.59,-0.6 -0.22,-1.28 0.28,-0.51 0.87,-0.21 0.87,-0.21 0,0 -0.61,-0.16 -0.61,-0.75 0,-0.59 0.37,-0.8 0.37,-0.8l-0.02 -0.02z"/>
   <path class="fil13" d="M167.09 151.74c1.44,-1.01 3.19,-1.6 5.08,-1.6 0,0 0,0 0,0 -0,0 -0,0 -0,0 -1.85,0 -3.62,0.58 -5.08,1.6z"/>
   <path class="fil13" d="M170.24 158.21c-0.08,-0.05 -0.15,-0.12 -0.2,-0.2 -0.13,-0.19 -0.2,-0.41 -0.19,-0.64 0.01,-0.23 0.09,-0.45 0.24,-0.62 0.05,-0.08 0.13,-0.15 0.21,-0.19 0,0 -0.07,0.07 -0.17,0.21 -0.13,0.17 -0.2,0.38 -0.21,0.6 -0,0.21 0.05,0.43 0.16,0.61 0.08,0.16 0.15,0.23 0.15,0.23z"/>
   <path class="fil13" d="M171.75 155.62c-0.02,-0.01 -0.03,-0.13 -0.03,-0.28 0,-0.16 0.01,-0.27 0.03,-0.28 0.02,-0.01 0.03,0.12 0.03,0.28 -0,0.16 -0.01,0.28 -0.03,0.28z"/>
   <path class="fil13" d="M103.26 138.6l-4.77 -2.52c-0.85,-2.99 -2.5,-5.78 -4.96,-8.03 -7.06,-6.47 -18.03,-6 -24.51,1.06 -6.47,7.06 -6,18.03 1.06,24.51 7.06,6.47 18.03,6 24.51,-1.06 2.7,-2.95 4.19,-6.58 4.5,-10.28l0 0.01 4.17 -3.68z"/>
   <path class="fil3" d="M103.26 138.6c0,0 -0.1,0.08 -0.28,0.24 -0.18,0.16 -0.45,0.39 -0.81,0.7 -0.71,0.62 -1.75,1.53 -3.11,2.72l0.05 0.02 -0 -0.01 -0.07 0c-0.1,1.11 -0.31,2.38 -0.75,3.75 -0.42,1.37 -1.09,2.83 -2.02,4.27 -0.94,1.44 -2.19,2.85 -3.73,4.08 -1.55,1.23 -3.42,2.26 -5.52,2.93 -2.1,0.66 -4.44,0.95 -6.84,0.73 -2.39,-0.22 -4.84,-0.97 -7.06,-2.27 -2.23,-1.29 -4.22,-3.15 -5.73,-5.41 -1.5,-2.26 -2.48,-4.95 -2.77,-7.76 -0.15,-1.41 -0.11,-2.83 0.08,-4.22 0.19,-1.38 0.57,-2.72 1.07,-3.99 1.02,-2.54 2.63,-4.75 4.56,-6.47 1.94,-1.72 4.2,-2.94 6.51,-3.63 2.32,-0.7 4.68,-0.86 6.88,-0.62 2.2,0.24 4.25,0.89 6,1.81 0.88,0.46 1.69,0.97 2.44,1.53 0.74,0.56 1.41,1.15 2.02,1.77 1.21,1.23 2.13,2.54 2.81,3.8 0.69,1.26 1.14,2.46 1.45,3.53l0 0.01 0.01 0.01c1.55,0.81 2.74,1.43 3.55,1.85 0.4,0.21 0.71,0.37 0.92,0.48 0.21,0.11 0.32,0.16 0.32,0.16 0,0 -0.1,-0.06 -0.3,-0.16 -0.21,-0.11 -0.51,-0.27 -0.91,-0.49 -0.81,-0.43 -2,-1.07 -3.55,-1.9l0.02 0.02c-0.31,-1.07 -0.75,-2.28 -1.44,-3.55 -0.68,-1.26 -1.6,-2.58 -2.81,-3.83 -0.6,-0.62 -1.28,-1.22 -2.02,-1.79 -0.75,-0.56 -1.57,-1.08 -2.45,-1.54 -1.77,-0.93 -3.82,-1.59 -6.04,-1.84 -2.22,-0.25 -4.6,-0.09 -6.94,0.61 -2.33,0.69 -4.62,1.92 -6.57,3.66 -1.95,1.74 -3.57,3.97 -4.6,6.53 -0.51,1.28 -0.88,2.63 -1.08,4.03 -0.19,1.39 -0.24,2.83 -0.08,4.25 0.29,2.84 1.28,5.55 2.79,7.83 1.52,2.28 3.53,4.15 5.78,5.45 2.25,1.3 4.71,2.06 7.13,2.28 2.42,0.22 4.78,-0.07 6.89,-0.74 2.12,-0.67 4,-1.72 5.56,-2.96 1.55,-1.25 2.81,-2.67 3.75,-4.12 0.94,-1.45 1.6,-2.92 2.02,-4.3 0.44,-1.37 0.63,-2.66 0.73,-3.77l-0.07 0 0 0.01 0.01 0.06 0.04 -0.04c1.35,-1.21 2.4,-2.14 3.1,-2.76 0.35,-0.31 0.61,-0.55 0.79,-0.71 0.18,-0.16 0.26,-0.24 0.26,-0.24z"/>
   <path class="fil3" d="M103.26 138.6l-0.07 -0.09c-0,0 -0.1,0.08 -0.28,0.24 -0.18,0.16 -0.45,0.39 -0.81,0.7l0 0c-0.71,0.62 -1.75,1.53 -3.11,2.72l-0.04 0.11 0.08 0.09 0.05 0.02 0.11 -0.02 0.04 -0.11 -0 -0.01c-0.01,-0.06 -0.06,-0.1 -0.12,-0.09l-0.07 0c-0.06,0 -0.1,0.05 -0.11,0.1 -0.1,1.1 -0.3,2.37 -0.74,3.73l-0 0c-0.42,1.36 -1.08,2.81 -2.01,4.24 -0.93,1.43 -2.18,2.83 -3.71,4.06l0 -0c-1.54,1.22 -3.39,2.25 -5.48,2.91 -1.62,0.51 -3.38,0.8 -5.2,0.8 -0.53,0 -1.06,-0.02 -1.6,-0.07l-0 0c-2.38,-0.22 -4.8,-0.97 -7.02,-2.25l0 0c-2.21,-1.28 -4.19,-3.13 -5.69,-5.37l0 0c-1.49,-2.25 -2.47,-4.91 -2.75,-7.71l-0 -0c-0.06,-0.57 -0.09,-1.14 -0.09,-1.72 0,-0.83 0.06,-1.66 0.17,-2.47l0 0c0.19,-1.37 0.56,-2.7 1.06,-3.97l0 0c1.01,-2.52 2.61,-4.72 4.53,-6.43l0 0c1.92,-1.71 4.17,-2.92 6.47,-3.61l0 0c1.64,-0.5 3.31,-0.72 4.93,-0.72 0.65,0 1.28,0.04 1.91,0.1l0 0c2.19,0.24 4.22,0.89 5.96,1.8l0 0c0.87,0.45 1.68,0.97 2.42,1.52l0.07 -0.09 -0.07 0.09c0.74,0.56 1.4,1.15 2,1.76l0 0c1.2,1.22 2.11,2.52 2.79,3.77l0 0c0.69,1.25 1.13,2.44 1.44,3.5l-0 -0 0 0.01 0.06 0.07 0.01 0.01c1.55,0.81 2.74,1.43 3.55,1.85l0 0c0.4,0.21 0.71,0.37 0.92,0.48 0.21,0.11 0.32,0.16 0.32,0.16 0.06,0.03 0.12,0 0.15,-0.05 0.03,-0.05 0.01,-0.12 -0.04,-0.16 -0,0 -0.1,-0.06 -0.3,-0.17 -0.21,-0.11 -0.51,-0.27 -0.91,-0.49l-0 0c-0.81,-0.43 -2,-1.07 -3.55,-1.9 -0.05,-0.03 -0.11,-0.01 -0.14,0.03 -0.03,0.04 -0.04,0.1 -0,0.15l0.02 0.02c0.03,0.04 0.09,0.06 0.14,0.03 0.05,-0.03 0.07,-0.08 0.06,-0.13 -0.31,-1.08 -0.76,-2.3 -1.45,-3.57l0 0c-0.69,-1.27 -1.61,-2.6 -2.83,-3.85l0 0c-0.61,-0.62 -1.29,-1.23 -2.04,-1.8l-0 0c-0.75,-0.56 -1.58,-1.09 -2.47,-1.55l0 0c-1.78,-0.93 -3.85,-1.6 -6.08,-1.85l0 0c-0.65,-0.07 -1.31,-0.11 -1.98,-0.11 -1.64,0 -3.34,0.23 -5.01,0.73l0 0c-2.35,0.7 -4.65,1.93 -6.62,3.68l0 0c-1.96,1.75 -3.6,3.99 -4.63,6.57l0 0c-0.51,1.29 -0.89,2.65 -1.09,4.05l0 0c-0.11,0.83 -0.18,1.68 -0.18,2.53 0,0.58 0.03,1.17 0.09,1.76l0 -0c0.29,2.86 1.29,5.58 2.81,7.88l0 0c1.53,2.29 3.55,4.18 5.82,5.49l0 0c2.26,1.31 4.74,2.08 7.17,2.29l0 0c0.54,0.05 1.08,0.07 1.61,0.07 1.87,0 3.67,-0.3 5.33,-0.82 2.13,-0.68 4.03,-1.73 5.59,-2.98l0 0c1.56,-1.26 2.82,-2.68 3.77,-4.15 0.95,-1.46 1.61,-2.94 2.03,-4.33l-0.11 -0.03 0.11 0.03c0.44,-1.38 0.64,-2.68 0.74,-3.8l-0.03 -0.09 -0.09 -0.03 -0.07 0 -0.09 0.04 -0.02 0.09 0 0.01 0.01 0.06 0.08 0.09 0.11 -0.02 0.04 -0.04c1.35,-1.21 2.39,-2.14 3.1,-2.77l0 0c0.35,-0.31 0.61,-0.55 0.79,-0.71 0.18,-0.16 0.26,-0.24 0.26,-0.24 0.05,-0.04 0.05,-0.11 0.01,-0.16 -0.04,-0.05 -0.11,-0.05 -0.16,-0.01l0.07 0.09 -0.08 -0.08c0,0 -0.08,0.08 -0.26,0.24 -0.18,0.16 -0.44,0.4 -0.79,0.71l0 0c-0.71,0.63 -1.75,1.56 -3.1,2.77l-0.04 0.04 0.08 0.09 0.11 -0.02 -0.01 -0.06 -0 -0.01 -0.11 0.02 0.01 0.12 0.07 -0 -0.01 -0.12 -0.11 -0.01c-0.1,1.11 -0.29,2.38 -0.73,3.75l0 0c-0.42,1.37 -1.07,2.82 -2.01,4.27 -0.93,1.44 -2.18,2.85 -3.72,4.09l0 0c-1.55,1.23 -3.41,2.27 -5.52,2.94 -1.64,0.52 -3.42,0.81 -5.26,0.81 -0.53,0 -1.06,-0.02 -1.59,-0.07l-0 0c-2.4,-0.21 -4.85,-0.97 -7.08,-2.26l-0 0c-2.23,-1.29 -4.23,-3.15 -5.74,-5.41l0 0c-1.5,-2.27 -2.49,-4.96 -2.78,-7.78l0 -0c-0.06,-0.58 -0.09,-1.15 -0.09,-1.73 0,-0.84 0.06,-1.67 0.17,-2.49l0 0c0.2,-1.38 0.57,-2.73 1.07,-4l0 0c1.02,-2.54 2.64,-4.76 4.57,-6.49l-0 0c1.94,-1.72 4.21,-2.94 6.53,-3.63l0 0c1.65,-0.5 3.32,-0.72 4.94,-0.72 0.66,0 1.31,0.04 1.95,0.11l0 0c2.2,0.25 4.25,0.9 6,1.82l0 0c0.88,0.46 1.69,0.98 2.44,1.53l0.07 -0.09 -0.07 0.09c0.74,0.56 1.41,1.16 2.01,1.77l0 0c1.2,1.23 2.12,2.54 2.79,3.8l0 0c0.68,1.26 1.13,2.46 1.43,3.52l0.11 -0.03 0.09 -0.07 -0.02 -0.02 -0.09 0.07 -0.05 0.1c1.55,0.83 2.74,1.47 3.55,1.9l-0 0c0.4,0.21 0.7,0.38 0.91,0.49 0.2,0.11 0.3,0.16 0.3,0.16l0.06 -0.1 0.05 -0.1c-0,-0 -0.11,-0.05 -0.32,-0.16 -0.21,-0.11 -0.52,-0.27 -0.92,-0.48l0 0c-0.81,-0.42 -2,-1.04 -3.55,-1.85l-0.01 -0.01 -0.05 0.1 0.11 -0.03 -0 -0.01 0 -0c-0.31,-1.07 -0.76,-2.28 -1.46,-3.55l0 0c-0.69,-1.26 -1.62,-2.58 -2.83,-3.82l0 0c-0.61,-0.62 -1.28,-1.22 -2.03,-1.78l-0 -0c-0.75,-0.56 -1.57,-1.08 -2.46,-1.54l0 0c-1.77,-0.92 -3.83,-1.58 -6.04,-1.82l0 0c-0.63,-0.07 -1.28,-0.11 -1.93,-0.11 -1.64,0 -3.33,0.23 -4.99,0.73l0 0c-2.33,0.7 -4.6,1.92 -6.56,3.66l0 0c-1.94,1.74 -3.56,3.96 -4.59,6.52l0 0c-0.51,1.28 -0.88,2.63 -1.08,4.02l0 0c-0.11,0.82 -0.17,1.66 -0.17,2.5 0,0.58 0.03,1.16 0.09,1.74l0 -0c0.29,2.83 1.28,5.53 2.79,7.81l0 0c1.52,2.27 3.52,4.14 5.76,5.44l-0 0c2.24,1.3 4.7,2.06 7.11,2.28l0 0c0.54,0.05 1.08,0.08 1.62,0.08 1.84,0 3.63,-0.29 5.27,-0.81 2.12,-0.67 4,-1.71 5.56,-2.95l0 -0c1.55,-1.25 2.81,-2.66 3.76,-4.11 0.95,-1.45 1.61,-2.92 2.04,-4.3l-0.11 -0.03 0.11 0.04c0.44,-1.38 0.64,-2.66 0.75,-3.78l-0.12 -0.01 0.01 0.11 0.07 -0 -0.01 -0.12 -0.11 0.02 0 0.01 0.11 -0.02 0.04 -0.11 -0.05 -0.02 -0.04 0.11 0.08 0.09c1.36,-1.19 2.4,-2.1 3.11,-2.72l-0 0c0.35,-0.31 0.62,-0.54 0.81,-0.7 0.18,-0.16 0.28,-0.24 0.28,-0.24l-0.07 -0.09 -0.08 -0.08 0.08 0.08z"/>
   <path class="fil12" d="M94.01 141.19c0,6.95 -5.64,12.59 -12.59,12.59 -6.95,0 -12.59,-5.64 -12.59,-12.59 0,-6.95 5.64,-12.59 12.59,-12.59 6.95,0 12.59,5.64 12.59,12.59z"/>
   <path class="fil16" d="M81.43 153.77c-6.95,0 -12.59,-5.64 -12.59,-12.59 0,-0.23 0.01,-0.47 0.02,-0.69 0.36,6.63 5.85,11.89 12.57,11.89 6.72,0 12.21,-5.26 12.57,-11.89 0.01,0.23 0.02,0.46 0.02,0.69 0,6.95 -5.64,12.59 -12.59,12.59z"/>
   <path class="fil4" d="M94.01 139.8c0,6.95 -5.64,12.59 -12.59,12.59 -6.95,0 -12.59,-5.64 -12.59,-12.59 0,-6.95 5.64,-12.59 12.59,-12.59 6.95,0 12.59,5.64 12.59,12.59z"/>
   <path class="fil13" d="M89.86 139.8c0,4.66 -3.77,8.43 -8.43,8.43 -4.66,0 -8.43,-3.77 -8.43,-8.43 0,-4.66 3.77,-8.43 8.43,-8.43 4.66,0 8.43,3.77 8.43,8.43z"/>
   <path class="fil4" d="M85.55 139.8c0,2.28 -1.85,4.13 -4.13,4.13 -2.28,0 -4.13,-1.85 -4.13,-4.13 0,-2.28 1.85,-4.13 4.13,-4.13 2.28,0 4.13,1.85 4.13,4.13z"/>
   <polygon class="fil5" points="90.2,130.58 89.86,127.9 92.59,124.97 92.79,127.87 "/>
   <polygon class="fil5" points="96.07,128.45 93.29,128.22 90.51,130.89 93.29,131.19 "/>
   <path class="fil9" d="M91.58 132.36c-0.37,-0.5 -0.77,-0.98 -1.21,-1.42l0.02 -0.02c0.45,0.48 0.86,0.96 1.19,1.44z"/>
   <path class="fil16" d="M88.3 134.91c-0.27,-0.38 -0.58,-0.74 -0.91,-1.07l2.98 -2.89c0.44,0.44 0.84,0.92 1.21,1.42 0.01,0.01 0.01,0.02 0.02,0.03l-3.3 2.52z"/>
   <path class="fil9" d="M84.87 137.53c-0.17,-0.25 -0.36,-0.48 -0.57,-0.69l3.09 -3c0.33,0.33 0.64,0.69 0.91,1.07l-3.43 2.62z"/>
   <path class="fil16" d="M81.98 139.73l0 -0.65 2.32 -2.25c0.22,0.21 0.41,0.44 0.57,0.69l-2.89 2.21z"/>
   <path class="fil3" d="M92.9 127.46c-1.31,1.31 -2.61,2.61 -3.92,3.92 -2.07,2.07 -4.14,4.14 -6.22,6.22 -0.48,0.48 -0.95,0.95 -1.43,1.43 -0.45,0.45 0.25,1.15 0.71,0.7 1.31,-1.31 2.61,-2.61 3.92,-3.92 2.07,-2.07 4.14,-4.14 6.22,-6.22 0.48,-0.48 0.95,-0.95 1.43,-1.43 0.45,-0.45 -0.25,-1.15 -0.71,-0.7z"/>
   <path class="fil1" d="M93.63 149.7c0,1.72 -1.4,3.12 -3.12,3.12 -1.72,0 -3.12,-1.4 -3.12,-3.12 0,-1.72 1.4,-3.12 3.12,-3.12 1.72,0 3.12,1.4 3.12,3.12z"/>
   <polygon class="fil13" points="90.07,151.08 90.96,151.08 90.96,148.32 90.07,148.32 "/>
   <polygon class="fil13" points="89.14,150.15 91.89,150.15 91.89,149.26 89.14,149.26 "/>
   <path class="fil13" d="M155.94 127.53l3.58 -0.85c1.77,1.15 3.88,1.84 6.15,1.89 6.53,0.15 11.94,-5.02 12.08,-11.55 0.15,-6.53 -5.02,-11.94 -11.55,-12.09 -6.53,-0.15 -11.94,5.02 -12.08,11.55 -0.06,2.73 0.81,5.25 2.31,7.29l-0 -0 -0.48 3.76z"/>
   <path class="fil3" d="M155.94 127.53c0,0 0.01,-0.09 0.04,-0.25 0.02,-0.16 0.05,-0.41 0.1,-0.72 0.08,-0.63 0.21,-1.57 0.37,-2.79l-0.04 0.02 0.01 0 0.13 0.1 -0.09 -0.13c-0.45,-0.62 -0.91,-1.36 -1.3,-2.26 -0.4,-0.89 -0.71,-1.94 -0.88,-3.1 -0.17,-1.16 -0.15,-2.44 0.08,-3.77 0.24,-1.33 0.73,-2.69 1.52,-3.98 0.78,-1.28 1.85,-2.48 3.18,-3.44 1.33,-0.96 2.92,-1.67 4.64,-2.01 1.72,-0.34 3.57,-0.28 5.36,0.2 1.78,0.49 3.49,1.42 4.9,2.74 0.71,0.66 1.33,1.4 1.85,2.2 0.52,0.8 0.93,1.65 1.24,2.53 0.62,1.76 0.78,3.61 0.57,5.36 -0.22,1.75 -0.83,3.39 -1.71,4.79 -0.87,1.4 -2.01,2.54 -3.25,3.41 -1.24,0.86 -2.58,1.45 -3.89,1.77 -0.66,0.16 -1.31,0.26 -1.94,0.31 -0.63,0.05 -1.24,0.04 -1.83,-0 -1.17,-0.09 -2.23,-0.35 -3.15,-0.68 -0.92,-0.33 -1.69,-0.75 -2.33,-1.16l-0.01 -0 -0.01 0c-1.16,0.28 -2.05,0.5 -2.65,0.64 -0.3,0.07 -0.53,0.13 -0.69,0.17 -0.15,0.04 -0.24,0.06 -0.24,0.06 0,0 0.08,-0.02 0.23,-0.05 0.16,-0.04 0.38,-0.09 0.68,-0.16 0.61,-0.14 1.51,-0.35 2.67,-0.62l-0.02 -0c0.64,0.41 1.41,0.83 2.33,1.17 0.92,0.34 1.98,0.6 3.16,0.7 0.59,0.05 1.2,0.05 1.84,0.01 0.63,-0.05 1.29,-0.15 1.95,-0.31 1.32,-0.32 2.67,-0.91 3.92,-1.77 1.25,-0.87 2.4,-2.02 3.28,-3.43 0.88,-1.4 1.5,-3.06 1.73,-4.82 0.22,-1.76 0.05,-3.64 -0.57,-5.41 -0.31,-0.88 -0.73,-1.75 -1.25,-2.55 -0.53,-0.8 -1.15,-1.55 -1.87,-2.22 -1.42,-1.33 -3.15,-2.27 -4.95,-2.76 -1.8,-0.48 -3.67,-0.55 -5.41,-0.2 -1.74,0.34 -3.34,1.06 -4.68,2.03 -1.34,0.97 -2.42,2.18 -3.2,3.48 -0.78,1.3 -1.28,2.68 -1.52,4.01 -0.23,1.34 -0.24,2.63 -0.07,3.79 0.17,1.17 0.49,2.22 0.9,3.11 0.39,0.9 0.87,1.65 1.32,2.26l0.03 -0.03 -0.01 -0 -0.03 -0.02 -0 0.04c-0.15,1.23 -0.27,2.17 -0.35,2.81 -0.04,0.31 -0.07,0.55 -0.09,0.72 -0.02,0.16 -0.03,0.24 -0.03,0.24z"/>
   <path class="fil3" d="M155.94 127.53l0.11 0.02c0,-0 0.01,-0.09 0.04,-0.25l0 -0c0.02,-0.16 0.05,-0.41 0.1,-0.72l0 -0c0.08,-0.63 0.21,-1.57 0.37,-2.79l-0.04 -0.11 -0.11 -0.01 -0.04 0.01 -0.07 0.09 0.04 0.11 0 0 -0 0 0.13 0.1c0.05,0.04 0.11,0.03 0.15,-0.01 0.04,-0.04 0.05,-0.1 0.01,-0.15l-0.1 -0.13c-0.44,-0.61 -0.91,-1.35 -1.29,-2.24l-0 -0c-0.39,-0.88 -0.71,-1.92 -0.87,-3.07l0 0c-0.07,-0.51 -0.11,-1.04 -0.11,-1.59 0,-0.69 0.06,-1.41 0.19,-2.14l0 0c0.24,-1.31 0.73,-2.67 1.5,-3.94l0 0c0.77,-1.27 1.83,-2.46 3.15,-3.41l0 0c1.31,-0.95 2.89,-1.66 4.59,-1.99l0 0c0.72,-0.14 1.46,-0.21 2.21,-0.21 1.03,0 2.08,0.14 3.1,0.41l-0 0c1.77,0.48 3.46,1.41 4.86,2.71l0 0c0.71,0.65 1.31,1.39 1.83,2.18l0 -0c0.52,0.79 0.92,1.63 1.23,2.5l0 0c0.44,1.26 0.65,2.58 0.65,3.87 0,0.49 -0.03,0.97 -0.09,1.44l0 0c-0.22,1.73 -0.82,3.36 -1.69,4.74l0 0c-0.86,1.38 -1.99,2.52 -3.22,3.37 -1.23,0.86 -2.55,1.43 -3.85,1.75 -0.65,0.16 -1.29,0.26 -1.92,0.31l0.01 0.12 -0.01 -0.12c-0.31,0.02 -0.61,0.03 -0.9,0.03 -0.31,0 -0.61,-0.01 -0.91,-0.03 -1.16,-0.09 -2.21,-0.34 -3.11,-0.68l0 0c-0.91,-0.33 -1.67,-0.74 -2.3,-1.14l-0.01 -0.01 -0.09 -0.01 -0.01 0 0 0c-1.16,0.28 -2.05,0.5 -2.65,0.64 -0.3,0.07 -0.53,0.13 -0.69,0.17 -0.16,0.04 -0.24,0.06 -0.24,0.06 -0.06,0.02 -0.1,0.08 -0.08,0.14 0.01,0.06 0.07,0.1 0.14,0.09 0,-0 0.08,-0.02 0.23,-0.05 0.16,-0.04 0.38,-0.09 0.68,-0.16 0.61,-0.14 1.51,-0.35 2.67,-0.62 0.05,-0.01 0.09,-0.06 0.09,-0.12 -0,-0.06 -0.04,-0.1 -0.1,-0.11l-0.02 -0c-0.05,-0.01 -0.11,0.02 -0.13,0.07 -0.02,0.05 -0,0.11 0.04,0.14 0.64,0.42 1.42,0.84 2.35,1.18l0 0c0.93,0.34 2,0.61 3.19,0.7 0.32,0.02 0.64,0.04 0.97,0.04 0.29,0 0.59,-0.01 0.89,-0.03l0 0c0.64,-0.05 1.3,-0.15 1.97,-0.31 1.34,-0.32 2.7,-0.91 3.96,-1.79 1.26,-0.88 2.42,-2.04 3.31,-3.46l0 0c0.89,-1.42 1.52,-3.09 1.74,-4.87l0 -0c0.06,-0.49 0.09,-0.99 0.09,-1.49 0,-1.32 -0.21,-2.67 -0.67,-3.97l0 -0c-0.32,-0.89 -0.74,-1.76 -1.27,-2.57l0 -0c-0.53,-0.81 -1.16,-1.57 -1.89,-2.24l0 0c-1.44,-1.34 -3.18,-2.29 -5,-2.79l-0 0c-1.05,-0.28 -2.13,-0.42 -3.19,-0.42l0 0c-0.77,0 -1.54,0.07 -2.28,0.22l0 0c-1.75,0.34 -3.37,1.07 -4.72,2.05l0 0c-1.35,0.98 -2.44,2.2 -3.23,3.51l0 0c-0.79,1.31 -1.29,2.7 -1.53,4.05l0 0c-0.13,0.74 -0.19,1.47 -0.19,2.16 0,0.58 0.04,1.13 0.12,1.67l0 0c0.17,1.18 0.5,2.24 0.9,3.14l0.11 -0.05 -0.11 0.05c0.4,0.91 0.88,1.66 1.33,2.28l0.08 0.05 0.09 -0.03 0.03 -0.03 0.03 -0.09 -0.04 -0.08 -0 -0 -0 0 -0.03 -0.02 -0.12 -0.02 -0.07 0.09 -0 0.04 0 0c-0.15,1.23 -0.27,2.17 -0.35,2.81l0 0c-0.04,0.31 -0.07,0.55 -0.09,0.72l0 0c-0.02,0.16 -0.03,0.24 -0.03,0.24 -0.01,0.06 0.04,0.12 0.1,0.13 0.06,0.01 0.12,-0.04 0.13,-0.1l-0.11 -0.02 0.12 0.01c0,0 0.01,-0.08 0.03,-0.24l-0 0c0.02,-0.16 0.05,-0.4 0.09,-0.72l0 0c0.08,-0.64 0.2,-1.58 0.35,-2.81l0 0 0 -0.04 -0.12 -0.01 -0.07 0.09 0.03 0.02 -0 -0 0.01 0 0.07 -0.09 -0.08 -0.08 -0.03 0.03 0.08 0.08 0.09 -0.07c-0.45,-0.61 -0.92,-1.35 -1.31,-2.24l-0 -0c-0.4,-0.88 -0.72,-1.92 -0.89,-3.08l0 0c-0.08,-0.52 -0.12,-1.07 -0.12,-1.63 0,-0.69 0.06,-1.4 0.19,-2.12l0 0c0.24,-1.32 0.73,-2.69 1.5,-3.97l0 0c0.77,-1.28 1.84,-2.48 3.17,-3.44l0 0c1.32,-0.96 2.91,-1.67 4.63,-2.01l0 0c0.73,-0.14 1.47,-0.22 2.23,-0.22 1.04,0 2.09,0.14 3.13,0.41l-0 0c1.78,0.49 3.49,1.42 4.9,2.73l0 0c0.71,0.66 1.33,1.4 1.85,2.2l0 -0c0.52,0.8 0.93,1.65 1.24,2.53l0 0c0.45,1.27 0.66,2.6 0.66,3.9 0,0.49 -0.03,0.98 -0.09,1.46l0 0c-0.22,1.75 -0.83,3.39 -1.71,4.78l0 0c-0.87,1.4 -2.01,2.54 -3.25,3.4 -1.24,0.86 -2.57,1.44 -3.88,1.75 -0.66,0.16 -1.3,0.26 -1.93,0.31l0 0c-0.29,0.02 -0.58,0.03 -0.87,0.03 -0.32,0 -0.64,-0.01 -0.95,-0.04 -1.17,-0.09 -2.22,-0.35 -3.13,-0.69l0 0c-0.91,-0.34 -1.68,-0.75 -2.31,-1.16l-0.06 0.1 -0.02 0.11 0.02 0 0.02 -0.11 -0.03 -0.11c-1.17,0.27 -2.07,0.48 -2.67,0.62 -0.3,0.07 -0.53,0.12 -0.68,0.16 -0.15,0.03 -0.23,0.05 -0.23,0.05l0.02 0.11 0.03 0.11c0,0 0.08,-0.02 0.23,-0.06 0.16,-0.04 0.39,-0.09 0.69,-0.17 0.6,-0.15 1.49,-0.36 2.65,-0.64l0.01 -0 -0.03 -0.11 -0.06 0.1 0.01 0c0.64,0.41 1.42,0.83 2.35,1.17l-0 0c0.92,0.34 1.99,0.6 3.18,0.69 0.3,0.02 0.61,0.03 0.93,0.03 0.3,0 0.61,-0.01 0.92,-0.03l0 0c0.64,-0.05 1.29,-0.15 1.95,-0.32 1.33,-0.32 2.68,-0.91 3.93,-1.79 1.25,-0.87 2.4,-2.03 3.28,-3.44l0 0c0.88,-1.41 1.5,-3.06 1.72,-4.83l0 -0c0.06,-0.48 0.09,-0.98 0.09,-1.47 0,-1.31 -0.21,-2.66 -0.67,-3.95l0 0c-0.31,-0.88 -0.73,-1.75 -1.26,-2.55l-0 -0c-0.53,-0.8 -1.15,-1.56 -1.87,-2.22l0 0c-1.42,-1.33 -3.15,-2.27 -4.95,-2.76l0 0c-1.05,-0.28 -2.11,-0.42 -3.17,-0.42 -0.76,0 -1.52,0.07 -2.25,0.22l0 -0c-1.74,0.34 -3.35,1.06 -4.68,2.03l0 0c-1.34,0.97 -2.42,2.18 -3.21,3.48l0 0c-0.79,1.3 -1.29,2.68 -1.53,4.02l-0 0c-0.13,0.75 -0.19,1.48 -0.19,2.18 0,0.56 0.04,1.1 0.11,1.62l0 0c0.17,1.17 0.49,2.23 0.89,3.13l0.11 -0.05 -0.11 0.05c0.39,0.91 0.87,1.66 1.31,2.28l0.09 0.13 0.09 -0.07 0.07 -0.09 -0.13 -0.1 0 0 -0.01 -0 -0.07 0.09 0.04 0.11 0.04 -0.01 -0.04 -0.11 -0.12 -0.01c-0.16,1.22 -0.29,2.16 -0.37,2.79l0 -0c-0.04,0.32 -0.08,0.56 -0.1,0.72l0 0c-0.02,0.16 -0.04,0.25 -0.04,0.25l0.11 0.02 0.12 0.01 -0.12 -0.01z"/>
   <path class="fil18" d="M171.01 124.12l-10.61 0c-1.08,0 -1.95,-0.87 -1.95,-1.95l0 -11.26c0,-1.08 0.87,-1.95 1.95,-1.95l10.61 0c1.08,0 1.95,0.87 1.95,1.95l0 11.26c0,1.08 -0.87,1.95 -1.95,1.95z"/>
   <path class="fil4" d="M174.14 123.46c0,1.27 -1.03,2.3 -2.3,2.3 -1.27,0 -2.3,-1.03 -2.3,-2.3 0,-1.27 1.03,-2.3 2.3,-2.3 1.27,0 2.3,1.03 2.3,2.3z"/>
   <polygon class="fil13" points="171.51,124.47 172.17,124.47 172.17,122.44 171.51,122.44 "/>
   <polygon class="fil13" points="170.82,123.79 172.85,123.79 172.85,123.13 170.82,123.13 "/>
   <path class="fil4" d="M163.51 112.61c0,0.89 -0.72,1.61 -1.61,1.61 -0.89,0 -1.61,-0.72 -1.61,-1.61 0,-0.89 0.72,-1.61 1.61,-1.61 0.89,0 1.61,0.72 1.61,1.61z"/>
   <polygon class="fil13" points="161.77,113.37 160.99,112.68 161.28,112.36 161.73,112.76 162.5,111.91 162.82,112.2 "/>
   <path class="fil4" d="M163.53 116.74c0,0.89 -0.72,1.61 -1.61,1.61 -0.89,0 -1.61,-0.72 -1.61,-1.61 0,-0.89 0.72,-1.61 1.61,-1.61 0.89,0 1.61,0.72 1.61,1.61z"/>
   <polygon class="fil13" points="161.79,117.51 161.01,116.82 161.3,116.49 161.76,116.9 162.52,116.04 162.84,116.33 "/>
   <polygon class="fil3" points="165.2,112.98 170.99,112.98 170.99,112.14 165.2,112.14 "/>
   <polygon class="fil3" points="165.2,116.87 170.99,116.87 170.99,116.02 165.2,116.02 "/>
   <polygon class="fil3" points="165.2,120.75 170.99,120.75 170.99,119.91 165.2,119.91 "/>
   <path class="fil4" d="M163.53 120.82c0,0.89 -0.72,1.61 -1.61,1.61 -0.89,0 -1.61,-0.72 -1.61,-1.61 0,-0.89 0.72,-1.61 1.61,-1.61 0.89,0 1.61,0.72 1.61,1.61z"/>
   <polygon class="fil13" points="161.79,121.59 161.01,120.9 161.3,120.58 161.76,120.98 162.52,120.13 162.84,120.41 "/>
  </g>
 </g>
</svg>
