<svg width="200" height="193" viewBox="0 0 200 193" fill="none" xmlns="http://www.w3.org/2000/svg">
<path d="M157.009 114.001C156.466 111.609 155.141 109.353 153.055 107.528C150.952 105.715 148.39 104.621 145.732 104.221L102.992 95.9502L115.356 104.155L95.835 165.35L84.842 119.893L73.846 165.35L54.33 104.156L66.692 95.9512L23.949 104.222C21.293 104.621 18.728 105.716 16.628 107.529C14.54 109.353 13.215 111.61 12.672 114.002L0 169.661L23.901 177.959C31.843 186.206 54.055 192.275 80.698 192.852H88.981C115.627 192.276 137.839 186.206 145.777 177.959L169.682 169.661L157.009 114.001Z" fill="#0F8F85"/>
<path d="M84.8411 102.161L74.9871 105.691L84.8411 119.895L94.6931 105.691L84.8411 102.161ZM121.418 47.351C121.418 22.089 111.024 2.29102 84.8411 2.29102C58.6551 2.29102 48.2621 22.089 48.2621 47.351C45.5241 48.781 43.7271 52.133 46.4141 59.318C47.7721 62.927 50.1641 65.95 52.1911 67.532C59.6521 86.11 74.3281 100.453 84.8411 100.453C95.3491 100.453 110.027 86.109 117.487 67.532C119.518 65.95 121.907 62.928 123.263 59.318C125.956 52.133 124.158 48.78 121.418 47.351ZM147.349 37.411H127.925C128.05 38.515 128.156 39.633 128.24 40.776H147.348L147.349 37.411ZM186.626 25.811H125.613C125.941 26.906 126.227 28.035 126.499 29.178H186.626V25.811Z" fill="#0F8F85"/>
<path d="M197.701 2.301C196.972 1.57072 196.106 0.991547 195.152 0.59669C194.199 0.201834 193.177 -0.000937975 192.145 3.26182e-06H105.691C109.511 2.00417 112.949 4.66317 115.85 7.856H192.145V62.846H171.12L155.205 78.763V62.846H129.446C128.209 65.747 126.442 68.491 124.405 70.704H147.348V92.31C147.348 93.188 147.869 94.024 148.732 94.383C149.142 94.5536 149.594 94.5985 150.03 94.5117C150.465 94.425 150.865 94.2107 151.179 93.896L174.374 70.703H192.145C193.177 70.7039 194.199 70.5009 195.153 70.1057C196.106 69.7105 196.972 69.1308 197.701 68.4C198.431 67.6713 199.01 66.8053 199.405 65.852C199.8 64.8987 200.002 63.8767 200 62.845V7.856C200.001 6.82429 199.799 5.80243 199.405 4.84913C199.01 3.89583 198.431 3.02987 197.701 2.301Z" fill="#0F8F85"/>
<path d="M186.626 14.2161H120.563C121.225 15.3119 121.84 16.4352 122.407 17.5831H186.626V14.2161Z" fill="#0F8F85"/>
</svg>
