<svg width="50" height="50" viewBox="0 0 154 221" fill="none" xmlns="http://www.w3.org/2000/svg">
<path d="M104.469 0.270659C103.646 0.091498 102.807 0.000769683 101.965 2.03764e-05H15.5239C11.4081 0.00470455 7.46218 1.64182 4.55188 4.55221C1.64158 7.46259 0.00456315 11.4086 -6.58631e-06 15.5244V205.476C0.00456315 209.591 1.64158 213.537 4.55188 216.448C7.46218 219.358 11.4081 220.995 15.5239 221H138.213C142.328 220.995 146.274 219.358 149.185 216.448C152.095 213.537 153.732 209.591 153.737 205.476V51.7732C153.741 50.2372 153.44 48.7156 152.853 47.2966C152.265 45.8775 151.401 44.5891 150.312 43.5059L110.231 3.42423C109.152 2.34233 107.872 1.48266 106.462 0.893948L104.469 0.270659Z" fill="white"/>
<path d="M104.469 0.270659C103.646 0.091498 102.807 0.000769683 101.965 2.03764e-05H15.5239C11.4081 0.00470455 7.46218 1.64182 4.55188 4.55221C1.64158 7.46259 0.00456315 11.4086 -6.58631e-06 15.5244V205.476C0.00456315 209.591 1.64158 213.537 4.55188 216.448C7.46218 219.358 11.4081 220.995 15.5239 221H138.213C142.328 220.995 146.274 219.358 149.185 216.448C152.095 213.537 153.732 209.591 153.737 205.476V51.7732C153.741 50.2372 153.44 48.7156 152.853 47.2966C152.265 45.8775 151.401 44.5891 150.312 43.5059L110.231 3.42423C109.152 2.34233 107.872 1.48266 106.462 0.893948L104.469 0.270659ZM2.56005 15.5244C2.56382 12.0873 3.93086 8.79201 6.36123 6.36156C8.7916 3.93111 12.0868 2.56397 15.5239 2.56008H101.963C102.638 2.56208 103.31 2.63836 103.968 2.78756V32.1391C103.973 36.5405 105.724 40.7602 108.836 43.8725C111.948 46.9847 116.168 48.7354 120.569 48.7404H150.652C150.997 49.7144 151.175 50.7399 151.177 51.7732V205.476C151.173 208.913 149.806 212.208 147.375 214.638C144.945 217.069 141.65 218.436 138.213 218.44H15.5239C12.0868 218.436 8.7916 217.069 6.36123 214.638C3.93086 212.208 2.56382 208.913 2.56005 205.476V15.5244ZM19.9634 185.772C19.9633 185.604 19.9964 185.437 20.0607 185.282C20.125 185.127 20.2192 184.985 20.3381 184.867C20.4569 184.748 20.5981 184.653 20.7534 184.589C20.9087 184.525 21.0751 184.492 21.2432 184.492H76.8907C77.2301 184.492 77.5557 184.627 77.7957 184.867C78.0357 185.107 78.1705 185.432 78.1705 185.772C78.1705 186.111 78.0357 186.437 77.7957 186.677C77.5557 186.917 77.2301 187.051 76.8907 187.051H21.2432C21.0751 187.052 20.9087 187.018 20.7534 186.954C20.5981 186.89 20.4569 186.796 20.3381 186.677C20.2192 186.558 20.125 186.417 20.0607 186.262C19.9964 186.106 19.9633 185.94 19.9634 185.772ZM19.9634 112.816C19.9633 112.648 19.9964 112.482 20.0607 112.326C20.125 112.171 20.2192 112.03 20.3381 111.911C20.4569 111.792 20.5981 111.698 20.7534 111.634C20.9087 111.569 21.0751 111.536 21.2432 111.536H132.493C132.833 111.536 133.158 111.671 133.398 111.911C133.638 112.151 133.773 112.477 133.773 112.816C133.773 113.156 133.638 113.481 133.398 113.721C133.158 113.961 132.833 114.096 132.493 114.096H21.2432C21.0751 114.096 20.9087 114.063 20.7534 113.999C20.5981 113.934 20.4569 113.84 20.3381 113.721C20.2192 113.602 20.125 113.461 20.0607 113.306C19.9964 113.151 19.9633 112.984 19.9634 112.816ZM133.773 167.474C133.773 167.642 133.74 167.808 133.676 167.963C133.612 168.119 133.517 168.26 133.398 168.379C133.28 168.498 133.139 168.592 132.983 168.656C132.828 168.72 132.661 168.753 132.493 168.753H21.2881C20.9487 168.753 20.6231 168.619 20.3831 168.379C20.1431 168.139 20.0083 167.813 20.0083 167.474C20.0083 167.134 20.1431 166.809 20.3831 166.569C20.6231 166.329 20.9487 166.194 21.2881 166.194H132.493C132.661 166.194 132.828 166.227 132.983 166.291C133.139 166.355 133.28 166.45 133.398 166.568C133.517 166.687 133.612 166.828 133.676 166.984C133.74 167.139 133.773 167.305 133.773 167.474ZM133.773 149.175C133.773 149.344 133.74 149.51 133.676 149.665C133.612 149.821 133.517 149.962 133.398 150.081C133.28 150.2 133.139 150.294 132.983 150.358C132.828 150.423 132.661 150.456 132.493 150.456H21.2881C21.118 150.459 20.949 150.428 20.791 150.365C20.6329 150.302 20.489 150.208 20.3676 150.089C20.2463 149.97 20.1499 149.828 20.084 149.671C20.0182 149.514 19.9843 149.346 19.9843 149.176C19.9843 149.006 20.0182 148.837 20.084 148.68C20.1499 148.523 20.2463 148.381 20.3676 148.262C20.489 148.143 20.6329 148.049 20.791 147.986C20.949 147.923 21.118 147.893 21.2881 147.896H132.493C132.661 147.896 132.828 147.929 132.983 147.993C133.138 148.057 133.279 148.151 133.398 148.27C133.517 148.389 133.611 148.53 133.676 148.685C133.74 148.841 133.773 149.007 133.773 149.175V149.175ZM133.773 130.877C133.773 131.045 133.74 131.211 133.676 131.367C133.612 131.522 133.517 131.663 133.398 131.782C133.28 131.901 133.139 131.995 132.983 132.06C132.828 132.124 132.661 132.157 132.493 132.157H21.2881C21.118 132.16 20.949 132.129 20.791 132.067C20.6329 132.004 20.489 131.91 20.3676 131.791C20.2463 131.672 20.1499 131.529 20.084 131.372C20.0182 131.216 19.9843 131.047 19.9843 130.877C19.9843 130.707 20.0182 130.539 20.084 130.382C20.1499 130.225 20.2463 130.083 20.3676 129.964C20.489 129.844 20.6329 129.751 20.791 129.688C20.949 129.625 21.118 129.594 21.2881 129.597H132.493C132.661 129.597 132.828 129.63 132.983 129.694C133.139 129.759 133.28 129.853 133.398 129.972C133.517 130.091 133.612 130.232 133.676 130.387C133.74 130.542 133.773 130.709 133.773 130.877ZM37.9343 65.2019C37.9343 64.8624 38.0692 64.5368 38.3093 64.2967C38.5494 64.0566 38.875 63.9217 39.2145 63.9217H59.0415C59.3769 63.9278 59.6965 64.0654 59.9316 64.3048C60.1666 64.5442 60.2983 64.8662 60.2983 65.2017C60.2983 65.5372 60.1666 65.8593 59.9316 66.0986C59.6965 66.338 59.3769 66.4756 59.0415 66.4817H50.4087V91.3093C50.4025 91.6447 50.265 91.9643 50.0256 92.1993C49.7862 92.4343 49.4641 92.566 49.1287 92.566C48.7932 92.566 48.4711 92.4343 48.2318 92.1993C47.9924 91.9643 47.8548 91.6447 47.8487 91.3093V66.4817H39.2158C39.0476 66.4819 38.8811 66.4489 38.7256 66.3847C38.5702 66.3205 38.4289 66.2262 38.3099 66.1074C38.1909 65.9885 38.0964 65.8474 38.032 65.692C37.9676 65.5367 37.9344 65.3701 37.9343 65.2019ZM63.6994 92.4941C63.8549 92.5578 64.0216 92.5902 64.1897 92.5894C64.3578 92.5886 64.5241 92.5547 64.679 92.4896C64.834 92.4245 64.9747 92.3295 65.0929 92.21C65.2111 92.0905 65.3046 91.9488 65.3681 91.7931L68.9895 82.9229H80.693L84.3141 91.7931C84.4424 92.1074 84.6903 92.3578 85.0033 92.4892C85.3162 92.6207 85.6686 92.6225 85.9828 92.4941C86.2971 92.3658 86.5474 92.1179 86.6789 91.8049C86.8104 91.492 86.8121 91.1397 86.6838 90.8254L76.0261 64.7181C75.93 64.4827 75.766 64.2813 75.555 64.1395C75.344 63.9977 75.0955 63.922 74.8413 63.922C74.5871 63.922 74.3386 63.9977 74.1276 64.1395C73.9166 64.2813 73.7525 64.4827 73.6564 64.7181L62.9984 90.8254C62.8699 91.1394 62.8714 91.4916 63.0026 91.8045C63.1337 92.1174 63.3837 92.3655 63.6976 92.4941H63.6994ZM74.8396 68.5877L79.6463 80.3624H70.0328L74.8396 68.5877ZM92.217 90.4995L102.214 78.2552L92.217 66.0108C92.0023 65.7479 91.9008 65.4104 91.935 65.0726C91.9691 64.7349 92.136 64.4245 92.3989 64.2098C92.6619 63.9951 92.9994 63.8936 93.3371 63.9278C93.6749 63.9619 93.9853 64.1288 94.2 64.3917L103.866 76.2312L113.532 64.3917C113.747 64.1284 114.057 63.9612 114.395 63.9268C114.733 63.8925 115.071 63.9938 115.335 64.2085C115.598 64.4232 115.765 64.7337 115.799 65.0717C115.834 65.4097 115.733 65.7475 115.518 66.0108L105.519 78.2565L115.516 90.5008C115.73 90.7641 115.832 91.1019 115.797 91.4399C115.763 91.7779 115.596 92.0884 115.332 92.3031C115.069 92.5178 114.731 92.6191 114.393 92.5848C114.055 92.5504 113.745 92.3832 113.53 92.1199L103.864 80.2804L94.1978 92.1199C94.0915 92.2501 93.9606 92.3581 93.8125 92.4377C93.6645 92.5173 93.5022 92.567 93.335 92.5839C92.9972 92.618 92.6597 92.5165 92.3968 92.3018C92.1338 92.0871 91.9669 91.7768 91.9328 91.439C91.8987 91.1012 92.0001 90.7638 92.2148 90.5008L92.217 90.4995Z" fill="#0F8F85"/>
</svg>
